<?xml version="1.0" encoding="UTF-8"?>
<svg id="Layer_1" data-name="Layer 1" xmlns="http://www.w3.org/2000/svg" xmlns:xlink="http://www.w3.org/1999/xlink" viewBox="0 0 529 300">
  <defs>
    <clipPath id="clippath">
      <rect x="95" width="351.333" height="300" rx="10" ry="10" fill="none"/>
    </clipPath>
    <linearGradient id="linear-gradient" x1="175.5" y1="302" x2="175.5" y2="2" gradientTransform="translate(95 302) scale(1 -1)" gradientUnits="userSpaceOnUse">
      <stop offset="0" stop-color="#190066" stop-opacity="0"/>
      <stop offset=".898" stop-color="#190066" stop-opacity=".9"/>
    </linearGradient>
  </defs>
  <rect x="95" width="351.333" height="300" rx="10" ry="10" fill="#661800"/>
  <g clip-path="url(#clippath)">
    <rect x="95" width="351" height="300" fill="url(#linear-gradient)"/>
  </g>
  <rect x="186" y="15" width="254" height="187" fill="none"/>
  <path d="M127.5,169.5h27c6.627,0,12,5.373,12,12h0c0,6.627-5.373,12-12,12h-27c-6.627,0-12-5.373-12-12h0c0-6.627,5.373-12,12-12Z" fill="#fff"/>
  <path d="M127.5,169.5h27c6.627,0,12,5.373,12,12h0c0,6.627-5.373,12-12,12h-27c-6.627,0-12-5.373-12-12h0c0-6.627,5.373-12,12-12Z" fill="none" stroke="#fff"/>
  <path d="M131.976,183.5l1.824-6.9h1.344l-2.448,8.4h-1.524l-1.836-6.588-1.836,6.588h-1.524l-2.436-8.4h1.404l1.836,6.888,1.848-6.888h1.476l1.872,6.9ZM137.994,178.748c.736,0,1.336.192,1.8.576.464.384.696.936.696,1.656v4.02h-1.26v-.912c-.504.688-1.216,1.032-2.136,1.032-.584,0-1.06-.156-1.428-.468-.368-.312-.552-.728-.552-1.248,0-.6.212-1.048.636-1.344.424-.304.964-.492,1.62-.564l1.188-.12c.448-.04.672-.24.672-.6,0-.296-.116-.532-.348-.708-.224-.176-.52-.264-.888-.264-.376,0-.696.096-.96.288-.256.192-.42.472-.492.84l-1.248-.3c.112-.576.412-1.032.9-1.368.488-.344,1.088-.516,1.8-.516ZM137.37,184.1c.52,0,.96-.172,1.32-.516.36-.352.54-.76.54-1.224v-.24c-.104.096-.336.164-.696.204l-1.164.144c-.304.04-.548.132-.732.276-.176.136-.264.324-.264.564s.088.432.264.576c.184.144.428.216.732.216ZM143.109,185h-1.26v-8.88h1.26v8.88ZM145.781,185h-1.26v-8.88h1.26v8.88ZM150.144,178.748c.984,0,1.784.352,2.4,1.056.616.704.868,1.556.756,2.556h-5.076c.088.496.316.9.684,1.212.368.304.812.456,1.332.456.4,0,.756-.096,1.068-.288.32-.2.568-.468.744-.804l1.056.468c-.272.52-.66.936-1.164,1.248-.504.312-1.084.468-1.74.468-.92,0-1.692-.304-2.316-.912-.624-.608-.936-1.364-.936-2.268s.304-1.66.912-2.268c.616-.616,1.376-.924,2.28-.924ZM150.144,179.84c-.464,0-.868.144-1.212.432-.336.28-.56.648-.672,1.104h3.768c-.104-.456-.328-.824-.672-1.104-.336-.288-.74-.432-1.212-.432ZM155.04,179.984h-1.308v-1.116h1.308v-1.992l1.26-.396v2.388h1.728v1.116h-1.728v2.832c0,.376.084.648.252.816s.436.252.804.252h.672v1.116h-.672c-.792,0-1.376-.184-1.752-.552-.376-.368-.564-.932-.564-1.692v-2.772Z" fill="#190066"/>
  <path d="M129.4,214.4v12.6h-1.89v-12.168l-3.024,12.168h-3.51l-3.024-12.168v12.168h-1.89v-12.6h3.69l2.988,12.096,3.006-12.096h3.654ZM136.152,217.622c1.476,0,2.676.528,3.6,1.584s1.302,2.334,1.134,3.834h-7.614c.132.744.474,1.35,1.026,1.818.552.456,1.218.684,1.998.684.6,0,1.134-.144,1.602-.432.48-.3.852-.702,1.116-1.206l1.584.702c-.408.78-.99,1.404-1.746,1.872-.756.468-1.626.702-2.61.702-1.38,0-2.538-.456-3.474-1.368-.936-.912-1.404-2.046-1.404-3.402s.456-2.49,1.368-3.402c.924-.924,2.064-1.386,3.42-1.386ZM136.152,219.26c-.696,0-1.302.216-1.818.648-.504.42-.84.972-1.008,1.656h5.652c-.156-.684-.492-1.236-1.008-1.656-.504-.432-1.11-.648-1.818-.648ZM143.548,219.476h-1.962v-1.674h1.962v-2.988l1.89-.594v3.582h2.592v1.674h-2.592v4.248c0,.564.126.972.378,1.224s.654.378,1.206.378h1.008v1.674h-1.008c-1.188,0-2.064-.276-2.628-.828s-.846-1.398-.846-2.538v-4.158ZM153.504,217.622c1.104,0,2.004.288,2.7.864.696.576,1.044,1.404,1.044,2.484v6.03h-1.89v-2.448c-.564,1.752-1.698,2.628-3.402,2.628-.792,0-1.452-.234-1.98-.702-.528-.48-.792-1.104-.792-1.872,0-.9.318-1.572.954-2.016.636-.456,1.446-.738,2.43-.846l1.782-.18c.672-.06,1.008-.36,1.008-.9,0-.444-.174-.798-.522-1.062-.336-.264-.78-.396-1.332-.396-.564,0-1.044.144-1.44.432-.384.288-.63.708-.738,1.26l-1.872-.45c.168-.864.618-1.548,1.35-2.052.732-.516,1.632-.774,2.7-.774ZM152.568,225.65c.78,0,1.44-.258,1.98-.774.54-.528.81-1.14.81-1.836v-.504c-.144.24-.492.39-1.044.45l-1.746.216c-.456.06-.822.198-1.098.414-.264.204-.396.486-.396.846s.132.648.396.864c.276.216.642.324,1.098.324ZM172.625,214.4v12.6h-1.89v-12.168l-3.024,12.168h-3.51l-3.024-12.168v12.168h-1.89v-12.6h3.69l2.988,12.096,3.006-12.096h3.654ZM178.729,217.622c1.104,0,2.004.288,2.7.864.696.576,1.044,1.404,1.044,2.484v6.03h-1.89v-2.448c-.564,1.752-1.698,2.628-3.402,2.628-.792,0-1.452-.234-1.98-.702-.528-.48-.792-1.104-.792-1.872,0-.9.318-1.572.954-2.016.636-.456,1.446-.738,2.43-.846l1.782-.18c.672-.06,1.008-.36,1.008-.9,0-.444-.174-.798-.522-1.062-.336-.264-.78-.396-1.332-.396-.564,0-1.044.144-1.44.432-.384.288-.63.708-.738,1.26l-1.872-.45c.168-.864.618-1.548,1.35-2.052.732-.516,1.632-.774,2.7-.774ZM177.793,225.65c.78,0,1.44-.258,1.98-.774.54-.528.81-1.14.81-1.836v-.504c-.144.24-.492.39-1.044.45l-1.746.216c-.456.06-.822.198-1.098.414-.264.204-.396.486-.396.846s.132.648.396.864c.276.216.642.324,1.098.324ZM183.971,224.57l1.89-.396c.168.984.84,1.476,2.016,1.476.6,0,1.08-.114,1.44-.342.372-.24.558-.54.558-.9,0-.384-.192-.672-.576-.864-.384-.204-.852-.348-1.404-.432-.552-.096-1.11-.21-1.674-.342-.552-.132-1.02-.39-1.404-.774-.384-.396-.576-.924-.576-1.584,0-.804.342-1.47,1.026-1.998.696-.528,1.566-.792,2.61-.792s1.896.234,2.556.702c.672.468,1.074,1.104,1.206,1.908l-1.89.396c-.144-.984-.768-1.476-1.872-1.476-.504,0-.918.108-1.242.324-.324.216-.486.498-.486.846,0,.312.138.564.414.756s.624.318,1.044.378c.42.06.87.15,1.35.27.492.12.948.258,1.368.414.42.144.768.408,1.044.792.276.384.414.864.414,1.44,0,.804-.378,1.476-1.134,2.016-.744.528-1.668.792-2.772.792-1.092,0-1.98-.234-2.664-.702-.684-.468-1.098-1.104-1.242-1.908ZM197.979,221.636l4.248,5.364h-2.394l-3.132-3.96-1.44,1.548v2.412h-1.89v-13.32h1.89v8.424l3.888-4.302h2.376l-3.546,3.834ZM210.211,225.308c-1.26-1.248-1.89-2.784-1.89-4.608s.63-3.36,1.89-4.608c1.272-1.248,2.838-1.872,4.698-1.872,1.344,0,2.532.354,3.564,1.062,1.032.696,1.782,1.56,2.25,2.592l-1.836.72c-.36-.756-.894-1.368-1.602-1.836-.696-.468-1.488-.702-2.376-.702-1.284,0-2.364.45-3.24,1.35-.864.888-1.296,1.986-1.296,3.294s.432,2.412,1.296,3.312c.876.888,1.956,1.332,3.24,1.332.888,0,1.68-.234,2.376-.702.708-.468,1.242-1.08,1.602-1.836l1.836.72c-.468,1.032-1.218,1.902-2.25,2.61-1.032.696-2.22,1.044-3.564,1.044-1.86,0-3.426-.624-4.698-1.872ZM226.26,217.622c1.104,0,2.004.288,2.7.864.696.576,1.044,1.404,1.044,2.484v6.03h-1.89v-2.448c-.564,1.752-1.698,2.628-3.402,2.628-.792,0-1.452-.234-1.98-.702-.528-.48-.792-1.104-.792-1.872,0-.9.318-1.572.954-2.016.636-.456,1.446-.738,2.43-.846l1.782-.18c.672-.06,1.008-.36,1.008-.9,0-.444-.174-.798-.522-1.062-.336-.264-.78-.396-1.332-.396-.564,0-1.044.144-1.44.432-.384.288-.63.708-.738,1.26l-1.872-.45c.168-.864.618-1.548,1.35-2.052.732-.516,1.632-.774,2.7-.774ZM225.324,225.65c.78,0,1.44-.258,1.98-.774.54-.528.81-1.14.81-1.836v-.504c-.144.24-.492.39-1.044.45l-1.746.216c-.456.06-.822.198-1.098.414-.264.204-.396.486-.396.846s.132.648.396.864c.276.216.642.324,1.098.324ZM233.932,217.802v2.43c.3-1.092.768-1.83,1.404-2.214.648-.384,1.38-.48,2.196-.288v1.8c-.996-.276-1.848-.186-2.556.27-.696.444-1.044,1.11-1.044,1.998v5.202h-1.89v-9.198h1.89ZM245.612,220.466v-6.786h1.89v13.32h-1.89v-2.664c-.288.876-.756,1.572-1.404,2.088-.636.504-1.386.756-2.25.756-1.188,0-2.178-.456-2.97-1.368-.792-.912-1.188-2.046-1.188-3.402s.396-2.49,1.188-3.402c.792-.924,1.782-1.386,2.97-1.386.864,0,1.614.258,2.25.774.648.504,1.116,1.194,1.404,2.07ZM242.588,225.434c.876,0,1.596-.288,2.16-.864.576-.576.864-1.296.864-2.16,0-.876-.288-1.602-.864-2.178-.564-.576-1.284-.864-2.16-.864-.792,0-1.464.294-2.016.882-.552.576-.828,1.296-.828,2.16,0,.852.276,1.572.828,2.16.552.576,1.224.864,2.016.864Z" fill="#fff"/>
  <path d="M115.816,255.12l1.248-.256c.107.693.411,1.232.912,1.616.512.373,1.184.56,2.016.56.789,0,1.429-.181,1.92-.544.491-.363.736-.827.736-1.392,0-.416-.123-.768-.368-1.056-.235-.288-.544-.512-.928-.672-.384-.16-.811-.299-1.28-.416-.459-.128-.923-.267-1.392-.416-.469-.16-.896-.347-1.28-.56-.384-.213-.699-.517-.944-.912-.235-.395-.352-.869-.352-1.424,0-.864.352-1.579,1.056-2.144.715-.576,1.611-.864,2.688-.864s1.968.283,2.672.848c.715.565,1.141,1.296,1.28,2.192l-1.264.256c-.096-.651-.389-1.179-.88-1.584-.48-.405-1.088-.608-1.824-.608-.715,0-1.301.176-1.76.528-.459.352-.688.795-.688,1.328,0,.405.117.747.352,1.024.245.267.56.475.944.624.384.139.811.272,1.28.4.469.117.933.256,1.392.416.469.149.896.336,1.28.56.384.224.693.544.928.96.245.405.368.901.368,1.488,0,.896-.379,1.637-1.136,2.224-.757.576-1.701.864-2.832.864-1.141,0-2.085-.272-2.832-.816s-1.184-1.285-1.312-2.224ZM129.552,249.744c1.248,0,2.272.443,3.072,1.328.811.875,1.168,1.957,1.072,3.248h-7.12c.085.811.411,1.477.976,2,.576.512,1.275.768,2.096.768.629,0,1.189-.155,1.68-.464.491-.309.864-.731,1.12-1.264l1.024.432c-.341.715-.848,1.291-1.52,1.728-.672.427-1.445.64-2.32.64-1.205,0-2.219-.4-3.04-1.2-.811-.811-1.216-1.813-1.216-3.008s.4-2.192,1.2-2.992c.8-.811,1.792-1.216,2.976-1.216ZM129.552,250.816c-.736,0-1.376.235-1.92.704-.544.469-.885,1.072-1.024,1.808h5.872c-.117-.725-.448-1.323-.992-1.792-.533-.48-1.179-.72-1.936-.72ZM136.248,256.96c-.811-.811-1.216-1.813-1.216-3.008s.405-2.192,1.216-2.992c.821-.811,1.835-1.216,3.04-1.216.875,0,1.653.229,2.336.688.693.448,1.205,1.061,1.536,1.84l-1.104.384c-.245-.555-.613-.992-1.104-1.312-.491-.32-1.045-.48-1.664-.48-.853,0-1.573.299-2.16.896-.576.587-.864,1.317-.864,2.192s.288,1.611.864,2.208c.587.587,1.307.88,2.16.88.619,0,1.173-.16,1.664-.48s.859-.757,1.104-1.312l1.104.384c-.331.779-.843,1.397-1.536,1.856-.683.448-1.461.672-2.336.672-1.205,0-2.219-.4-3.04-1.2ZM144.678,254.688v-4.784h1.2v4.784c0,.693.224,1.259.672,1.696.448.437,1.014.656,1.696.656s1.248-.219,1.696-.656c.448-.437.672-1.003.672-1.696v-4.784h1.2v4.784c0,1.024-.336,1.861-1.008,2.512-.672.64-1.525.96-2.56.96s-1.888-.32-2.56-.96c-.672-.651-1.008-1.488-1.008-2.512ZM155.005,249.904v1.296c.352-.533.816-.928,1.392-1.184.587-.256,1.222-.325,1.904-.208v1.168c-.906-.203-1.685-.064-2.336.416-.64.469-.96,1.131-.96,1.984v4.624h-1.2v-8.096h1.2ZM162.724,249.744c1.248,0,2.272.443,3.072,1.328.81.875,1.168,1.957,1.072,3.248h-7.12c.085.811.41,1.477.976,2,.576.512,1.274.768,2.096.768.629,0,1.189-.155,1.68-.464.49-.309.864-.731,1.12-1.264l1.024.432c-.342.715-.848,1.291-1.52,1.728-.672.427-1.446.64-2.32.64-1.206,0-2.219-.4-3.04-1.2-.811-.811-1.216-1.813-1.216-3.008s.4-2.192,1.2-2.992c.8-.811,1.792-1.216,2.976-1.216ZM162.724,250.816c-.736,0-1.376.235-1.92.704-.544.469-.886,1.072-1.024,1.808h5.872c-.118-.725-.448-1.323-.992-1.792-.534-.48-1.179-.72-1.936-.72ZM169.833,258h-1.2v-11.84h1.2v11.84ZM175.051,256.816l2.832-6.912h1.232l-4.8,11.296h-1.232l1.312-3.088-3.472-8.208h1.312l2.816,6.912ZM188.273,249.744c.917,0,1.664.245,2.24.736.576.48.864,1.157.864,2.032v5.488h-1.2v-1.456c-.715,1.077-1.739,1.616-3.072,1.616-.779,0-1.408-.197-1.888-.592-.47-.405-.704-.949-.704-1.632,0-.725.261-1.285.784-1.68.533-.395,1.221-.635,2.064-.72l1.808-.208c.672-.064,1.008-.373,1.008-.928,0-.501-.176-.896-.528-1.184-.352-.288-.816-.432-1.392-.432s-1.072.144-1.488.432c-.416.288-.699.731-.848,1.328l-1.168-.32c.192-.8.602-1.413,1.232-1.84.64-.427,1.402-.64,2.288-.64ZM187.313,257.152c.821,0,1.504-.272,2.048-.816.544-.555.816-1.2.816-1.936v-.464c-.16.181-.523.304-1.088.368l-1.744.192c-.491.064-.886.213-1.184.448-.299.224-.448.533-.448.928,0,.384.144.693.432.928.298.235.688.352,1.168.352ZM197.352,249.744c1.002,0,1.829.331,2.48.992.661.661.992,1.493.992,2.496v4.768h-1.2v-4.624c0-.725-.24-1.328-.72-1.808-.48-.48-1.083-.72-1.808-.72-.715,0-1.318.245-1.808.736-.48.48-.72,1.077-.72,1.792v4.624h-1.2v-8.096h1.2v1.264c.65-.949,1.578-1.424,2.784-1.424ZM209.765,251.36v-5.2h1.2v11.84h-1.2v-1.456c-.768,1.077-1.829,1.616-3.184,1.616-1.173,0-2.149-.4-2.928-1.2-.778-.811-1.168-1.813-1.168-3.008s.39-2.192,1.168-2.992c.79-.811,1.766-1.216,2.928-1.216,1.355,0,2.416.539,3.184,1.616ZM206.741,257.04c.864,0,1.584-.293,2.16-.88s.864-1.323.864-2.208-.288-1.621-.864-2.208c-.576-.587-1.296-.88-2.16-.88-.853,0-1.573.299-2.16.896-.576.587-.864,1.317-.864,2.192s.288,1.611.864,2.208c.587.587,1.307.88,2.16.88ZM217.629,247.504c0-.224.075-.411.224-.56.15-.149.336-.224.56-.224.214,0,.395.075.544.224.16.149.24.336.24.56,0,.213-.08.395-.24.544-.149.149-.33.224-.544.224-.224,0-.41-.075-.56-.224-.149-.149-.224-.331-.224-.544ZM219.005,258h-1.2v-8.096h1.2v8.096ZM225.039,249.744c1.003,0,1.83.331,2.48.992.662.661.992,1.493.992,2.496v4.768h-1.2v-4.624c0-.725-.24-1.328-.72-1.808-.48-.48-1.082-.72-1.808-.72-.714,0-1.317.245-1.808.736-.48.48-.72,1.077-.72,1.792v4.624h-1.2v-8.096h1.2v1.264c.651-.949,1.579-1.424,2.784-1.424ZM230.013,255.904l1.216-.24c.17.992.869,1.488,2.096,1.488.618,0,1.12-.123,1.504-.368.394-.256.592-.581.592-.976,0-.405-.182-.715-.544-.928-.352-.213-.779-.363-1.28-.448-.502-.096-1.008-.197-1.52-.304-.502-.117-.934-.341-1.296-.672-.352-.331-.528-.784-.528-1.36,0-.683.288-1.243.864-1.68.576-.448,1.312-.672,2.208-.672.874,0,1.589.203,2.144.608.554.405.896.955,1.024,1.648l-1.2.24c-.182-.981-.838-1.472-1.968-1.472-.544,0-.992.117-1.344.352-.352.235-.528.544-.528.928,0,.373.176.661.528.864.362.192.794.331,1.296.416.512.085,1.018.192,1.52.32.512.117.944.352,1.296.704.362.352.544.827.544,1.424,0,.693-.315,1.264-.944,1.712-.63.448-1.419.672-2.368.672-.918,0-1.67-.203-2.256-.608-.576-.405-.928-.955-1.056-1.648ZM239.146,250.992h-1.824v-1.088h1.824v-2.896l1.2-.368v3.264h2.464v1.088h-2.464v4.256c0,.597.128,1.024.384,1.28.256.256.677.384,1.264.384h.816v1.088h-.816c-.971,0-1.691-.229-2.16-.688-.459-.459-.688-1.163-.688-2.112v-4.208ZM247.648,249.744c.917,0,1.664.245,2.24.736.576.48.864,1.157.864,2.032v5.488h-1.2v-1.456c-.715,1.077-1.739,1.616-3.072,1.616-.779,0-1.408-.197-1.888-.592-.47-.405-.704-.949-.704-1.632,0-.725.261-1.285.784-1.68.533-.395,1.221-.635,2.064-.72l1.808-.208c.672-.064,1.008-.373,1.008-.928,0-.501-.176-.896-.528-1.184-.352-.288-.816-.432-1.392-.432s-1.072.144-1.488.432c-.416.288-.699.731-.848,1.328l-1.168-.32c.192-.8.602-1.413,1.232-1.84.64-.427,1.402-.64,2.288-.64ZM246.688,257.152c.821,0,1.504-.272,2.048-.816.544-.555.816-1.2.816-1.936v-.464c-.16.181-.523.304-1.088.368l-1.744.192c-.491.064-.886.213-1.184.448-.299.224-.448.533-.448.928,0,.384.144.693.432.928.298.235.688.352,1.168.352ZM256.727,249.744c1.002,0,1.829.331,2.48.992.661.661.992,1.493.992,2.496v4.768h-1.2v-4.624c0-.725-.24-1.328-.72-1.808-.48-.48-1.083-.72-1.808-.72-.715,0-1.318.245-1.808.736-.48.48-.72,1.077-.72,1.792v4.624h-1.2v-8.096h1.2v1.264c.65-.949,1.578-1.424,2.784-1.424ZM262.958,250.992h-1.824v-1.088h1.824v-2.896l1.2-.368v3.264h2.464v1.088h-2.464v4.256c0,.597.128,1.024.384,1.28.256.256.677.384,1.264.384h.816v1.088h-.816c-.971,0-1.691-.229-2.16-.688-.459-.459-.688-1.163-.688-2.112v-4.208ZM269.552,258h-1.2v-11.84h1.2v11.84ZM274.77,256.816l2.832-6.912h1.232l-4.8,11.296h-1.232l1.312-3.088-3.472-8.208h1.312l2.816,6.912ZM284.232,255.904l1.216-.24c.17.992.869,1.488,2.096,1.488.618,0,1.12-.123,1.504-.368.394-.256.592-.581.592-.976,0-.405-.182-.715-.544-.928-.352-.213-.779-.363-1.28-.448-.502-.096-1.008-.197-1.52-.304-.502-.117-.934-.341-1.296-.672-.352-.331-.528-.784-.528-1.36,0-.683.288-1.243.864-1.68.576-.448,1.312-.672,2.208-.672.874,0,1.589.203,2.144.608.554.405.896.955,1.024,1.648l-1.2.24c-.182-.981-.838-1.472-1.968-1.472-.544,0-.992.117-1.344.352-.352.235-.528.544-.528.928,0,.373.176.661.528.864.362.192.794.331,1.296.416.512.085,1.018.192,1.52.32.512.117.944.352,1.296.704.362.352.544.827.544,1.424,0,.693-.315,1.264-.944,1.712-.63.448-1.419.672-2.368.672-.918,0-1.67-.203-2.256-.608-.576-.405-.928-.955-1.056-1.648ZM296.814,249.744c1.163,0,2.134.405,2.912,1.216.79.8,1.184,1.797,1.184,2.992s-.389,2.197-1.168,3.008c-.778.8-1.754,1.2-2.928,1.2-1.354,0-2.416-.539-3.184-1.616v4.656h-1.2v-11.296h1.2v1.456c.768-1.077,1.83-1.616,3.184-1.616ZM296.654,257.04c.864,0,1.584-.293,2.16-.88.576-.587.864-1.323.864-2.208s-.288-1.621-.864-2.208c-.576-.587-1.296-.88-2.16-.88-.853,0-1.573.299-2.16.896-.576.587-.864,1.317-.864,2.192s.288,1.611.864,2.208c.587.587,1.307.88,2.16.88ZM306.38,249.744c1.248,0,2.272.443,3.072,1.328.811.875,1.168,1.957,1.072,3.248h-7.12c.085.811.411,1.477.976,2,.576.512,1.275.768,2.096.768.629,0,1.189-.155,1.68-.464.491-.309.864-.731,1.12-1.264l1.024.432c-.341.715-.848,1.291-1.52,1.728-.672.427-1.445.64-2.32.64-1.205,0-2.219-.4-3.04-1.2-.811-.811-1.216-1.813-1.216-3.008s.4-2.192,1.2-2.992c.8-.811,1.792-1.216,2.976-1.216ZM306.38,250.816c-.736,0-1.376.235-1.92.704-.544.469-.885,1.072-1.024,1.808h5.872c-.117-.725-.448-1.323-.992-1.792-.533-.48-1.179-.72-1.936-.72ZM316.274,249.744c1.002,0,1.829.331,2.48.992.661.661.992,1.493.992,2.496v4.768h-1.2v-4.624c0-.725-.24-1.328-.72-1.808-.48-.48-1.083-.72-1.808-.72-.715,0-1.318.245-1.808.736-.48.48-.72,1.077-.72,1.792v4.624h-1.2v-8.096h1.2v1.264c.65-.949,1.578-1.424,2.784-1.424ZM328.687,251.36v-5.2h1.2v11.84h-1.2v-1.456c-.768,1.077-1.829,1.616-3.184,1.616-1.173,0-2.149-.4-2.928-1.2-.779-.811-1.168-1.813-1.168-3.008s.389-2.192,1.168-2.992c.789-.811,1.765-1.216,2.928-1.216,1.355,0,2.416.539,3.184,1.616ZM325.663,257.04c.864,0,1.584-.293,2.16-.88s.864-1.323.864-2.208-.288-1.621-.864-2.208c-.576-.587-1.296-.88-2.16-.88-.853,0-1.573.299-2.16.896-.576.587-.864,1.317-.864,2.192s.288,1.611.864,2.208c.587.587,1.307.88,2.16.88ZM339.895,256.816l2.832-6.912h1.232l-4.8,11.296h-1.232l1.312-3.088-3.472-8.208h1.312l2.816,6.912ZM345.451,256.96c-.81-.811-1.216-1.813-1.216-3.008s.406-2.192,1.216-2.992c.822-.811,1.835-1.216,3.04-1.216s2.214.405,3.024,1.216c.822.8,1.232,1.797,1.232,2.992s-.41,2.197-1.232,3.008c-.81.8-1.818,1.2-3.024,1.2s-2.218-.4-3.04-1.2ZM346.331,251.76c-.576.587-.864,1.317-.864,2.192s.288,1.611.864,2.208c.587.587,1.307.88,2.16.88.864,0,1.584-.293,2.16-.88s.864-1.323.864-2.208-.288-1.621-.864-2.208c-.576-.587-1.296-.88-2.16-.88-.853,0-1.573.299-2.16.896ZM354.319,254.688v-4.784h1.2v4.784c0,.693.224,1.259.672,1.696.448.437,1.013.656,1.696.656s1.248-.219,1.696-.656c.448-.437.672-1.003.672-1.696v-4.784h1.2v4.784c0,1.024-.336,1.861-1.008,2.512-.672.64-1.525.96-2.56.96s-1.888-.32-2.56-.96c-.672-.651-1.008-1.488-1.008-2.512ZM364.646,249.904v1.296c.352-.533.816-.928,1.392-1.184.587-.256,1.221-.325,1.904-.208v1.168c-.907-.203-1.685-.064-2.336.416-.64.469-.96,1.131-.96,1.984v4.624h-1.2v-8.096h1.2ZM374.983,256.96c-.811-.811-1.216-1.813-1.216-3.008s.405-2.192,1.216-2.992c.821-.811,1.834-1.216,3.04-1.216.874,0,1.653.229,2.336.688.693.448,1.205,1.061,1.536,1.84l-1.104.384c-.246-.555-.614-.992-1.104-1.312-.491-.32-1.046-.48-1.664-.48-.854,0-1.574.299-2.16.896-.576.587-.864,1.317-.864,2.192s.288,1.611.864,2.208c.586.587,1.306.88,2.16.88.618,0,1.173-.16,1.664-.48.49-.32.858-.757,1.104-1.312l1.104.384c-.331.779-.843,1.397-1.536,1.856-.683.448-1.462.672-2.336.672-1.206,0-2.219-.4-3.04-1.2ZM384.771,249.904v1.296c.352-.533.816-.928,1.392-1.184.587-.256,1.221-.325,1.904-.208v1.168c-.907-.203-1.685-.064-2.336.416-.64.469-.96,1.131-.96,1.984v4.624h-1.2v-8.096h1.2ZM392.473,256.816l2.832-6.912h1.232l-4.8,11.296h-1.232l1.312-3.088-3.472-8.208h1.312l2.816,6.912ZM402.002,249.744c1.162,0,2.133.405,2.912,1.216.789.8,1.184,1.797,1.184,2.992s-.39,2.197-1.168,3.008c-.779.8-1.755,1.2-2.928,1.2-1.355,0-2.416-.539-3.184-1.616v4.656h-1.2v-11.296h1.2v1.456c.768-1.077,1.829-1.616,3.184-1.616ZM401.842,257.04c.864,0,1.584-.293,2.16-.88.576-.587.864-1.323.864-2.208s-.288-1.621-.864-2.208c-.576-.587-1.296-.88-2.16-.88-.854,0-1.574.299-2.16.896-.576.587-.864,1.317-.864,2.192s.288,1.611.864,2.208c.586.587,1.306.88,2.16.88ZM408.567,250.992h-1.824v-1.088h1.824v-2.896l1.2-.368v3.264h2.464v1.088h-2.464v4.256c0,.597.128,1.024.384,1.28.256.256.678.384,1.264.384h.816v1.088h-.816c-.97,0-1.69-.229-2.16-.688-.458-.459-.688-1.163-.688-2.112v-4.208ZM414.467,256.96c-.811-.811-1.216-1.813-1.216-3.008s.405-2.192,1.216-2.992c.821-.811,1.835-1.216,3.04-1.216s2.213.405,3.024,1.216c.821.8,1.232,1.797,1.232,2.992s-.411,2.197-1.232,3.008c-.811.8-1.819,1.2-3.024,1.2s-2.219-.4-3.04-1.2ZM415.347,251.76c-.576.587-.864,1.317-.864,2.192s.288,1.611.864,2.208c.587.587,1.307.88,2.16.88.864,0,1.584-.293,2.16-.88.576-.587.864-1.323.864-2.208s-.288-1.621-.864-2.208c-.576-.587-1.296-.88-2.16-.88-.853,0-1.573.299-2.16.896ZM119.88,271.744c1.248,0,2.272.443,3.072,1.328.811.875,1.168,1.957,1.072,3.248h-7.12c.085.811.411,1.477.976,2,.576.512,1.275.768,2.096.768.629,0,1.189-.155,1.68-.464.491-.309.864-.731,1.12-1.264l1.024.432c-.341.715-.848,1.291-1.52,1.728-.672.427-1.445.64-2.32.64-1.205,0-2.219-.4-3.04-1.2-.811-.811-1.216-1.813-1.216-3.008s.4-2.192,1.2-2.992c.8-.811,1.792-1.216,2.976-1.216ZM119.88,272.816c-.736,0-1.376.235-1.92.704-.544.469-.885,1.072-1.024,1.808h5.872c-.117-.725-.448-1.323-.992-1.792-.533-.48-1.179-.72-1.936-.72ZM128.489,278.8l2.816-6.896h1.232l-3.408,8.096h-1.36l-3.424-8.096h1.312l2.832,6.896ZM136.989,271.744c1.248,0,2.272.443,3.072,1.328.811.875,1.168,1.957,1.072,3.248h-7.12c.086.811.411,1.477.976,2,.576.512,1.275.768,2.096.768.63,0,1.19-.155,1.68-.464.491-.309.864-.731,1.12-1.264l1.024.432c-.341.715-.848,1.291-1.52,1.728-.672.427-1.445.64-2.32.64-1.205,0-2.218-.4-3.04-1.2-.81-.811-1.216-1.813-1.216-3.008s.4-2.192,1.2-2.992c.8-.811,1.792-1.216,2.976-1.216ZM136.989,272.816c-.736,0-1.376.235-1.92.704-.544.469-.885,1.072-1.024,1.808h5.872c-.117-.725-.448-1.323-.992-1.792-.533-.48-1.178-.72-1.936-.72ZM144.099,271.904v1.296c.352-.533.816-.928,1.392-1.184.587-.256,1.221-.325,1.904-.208v1.168c-.907-.203-1.685-.064-2.336.416-.64.469-.96,1.131-.96,1.984v4.624h-1.2v-8.096h1.2ZM151.801,278.816l2.832-6.912h1.232l-4.8,11.296h-1.232l1.312-3.088-3.472-8.208h1.312l2.816,6.912ZM165.776,278.816l2.32-6.912h1.216l-2.896,8.096h-1.328l-2.304-6.4-2.32,6.4h-1.328l-2.896-8.096h1.28l2.32,6.928,2.352-6.928h1.232l2.352,6.912ZM174.539,271.744c1.003,0,1.83.331,2.48.992.662.661.992,1.493.992,2.496v4.768h-1.2v-4.624c0-.725-.24-1.328-.72-1.808-.48-.48-1.082-.72-1.808-.72-.714,0-1.317.245-1.808.736-.48.48-.72,1.077-.72,1.792v4.624h-1.2v-11.84h1.2v5.008c.651-.949,1.579-1.424,2.784-1.424ZM183.849,271.744c1.248,0,2.272.443,3.072,1.328.81.875,1.168,1.957,1.072,3.248h-7.12c.085.811.41,1.477.976,2,.576.512,1.274.768,2.096.768.629,0,1.189-.155,1.68-.464.49-.309.864-.731,1.12-1.264l1.024.432c-.342.715-.848,1.291-1.52,1.728-.672.427-1.446.64-2.32.64-1.206,0-2.219-.4-3.04-1.2-.811-.811-1.216-1.813-1.216-3.008s.4-2.192,1.2-2.992c.8-.811,1.792-1.216,2.976-1.216ZM183.849,272.816c-.736,0-1.376.235-1.92.704-.544.469-.886,1.072-1.024,1.808h5.872c-.118-.725-.448-1.323-.992-1.792-.534-.48-1.179-.72-1.936-.72ZM190.958,271.904v1.296c.352-.533.816-.928,1.392-1.184.587-.256,1.222-.325,1.904-.208v1.168c-.906-.203-1.685-.064-2.336.416-.64.469-.96,1.131-.96,1.984v4.624h-1.2v-8.096h1.2ZM198.677,271.744c1.248,0,2.272.443,3.072,1.328.811.875,1.168,1.957,1.072,3.248h-7.12c.085.811.411,1.477.976,2,.576.512,1.275.768,2.096.768.629,0,1.189-.155,1.68-.464.491-.309.864-.731,1.12-1.264l1.024.432c-.341.715-.848,1.291-1.52,1.728-.672.427-1.445.64-2.32.64-1.205,0-2.219-.4-3.04-1.2-.811-.811-1.216-1.813-1.216-3.008s.4-2.192,1.2-2.992c.8-.811,1.792-1.216,2.976-1.216ZM198.677,272.816c-.736,0-1.376.235-1.92.704-.544.469-.885,1.072-1.024,1.808h5.872c-.117-.725-.448-1.323-.992-1.792-.533-.48-1.179-.72-1.936-.72ZM220.711,268.8v11.2h-1.2v-9.28l-3.936,9.28h-1.056l-3.936-9.28v9.28h-1.2v-11.2h1.632l4.064,9.504,4.048-9.504h1.584ZM226.132,271.744c.917,0,1.664.245,2.24.736.576.48.864,1.157.864,2.032v5.488h-1.2v-1.456c-.715,1.077-1.739,1.616-3.072,1.616-.779,0-1.408-.197-1.888-.592-.469-.405-.704-.949-.704-1.632,0-.725.261-1.285.784-1.68.533-.395,1.221-.635,2.064-.72l1.808-.208c.672-.064,1.008-.373,1.008-.928,0-.501-.176-.896-.528-1.184-.352-.288-.816-.432-1.392-.432s-1.072.144-1.488.432-.699.731-.848,1.328l-1.168-.32c.192-.8.603-1.413,1.232-1.84.64-.427,1.403-.64,2.288-.64ZM225.172,279.152c.821,0,1.504-.272,2.048-.816.544-.555.816-1.2.816-1.936v-.464c-.16.181-.523.304-1.088.368l-1.744.192c-.491.064-.885.213-1.184.448-.299.224-.448.533-.448.928,0,.384.144.693.432.928.299.235.688.352,1.168.352ZM230.747,277.904l1.216-.24c.171.992.869,1.488,2.096,1.488.619,0,1.12-.123,1.504-.368.395-.256.592-.581.592-.976,0-.405-.181-.715-.544-.928-.352-.213-.779-.363-1.28-.448-.501-.096-1.008-.197-1.52-.304-.501-.117-.933-.341-1.296-.672-.352-.331-.528-.784-.528-1.36,0-.683.288-1.243.864-1.68.576-.448,1.312-.672,2.208-.672.875,0,1.589.203,2.144.608.555.405.896.955,1.024,1.648l-1.2.24c-.181-.981-.837-1.472-1.968-1.472-.544,0-.992.117-1.344.352-.352.235-.528.544-.528.928,0,.373.176.661.528.864.363.192.795.331,1.296.416.512.085,1.019.192,1.52.32.512.117.944.352,1.296.704.363.352.544.827.544,1.424,0,.693-.315,1.264-.944,1.712s-1.419.672-2.368.672c-.917,0-1.669-.203-2.256-.608-.576-.405-.928-.955-1.056-1.648ZM239.88,272.992h-1.824v-1.088h1.824v-2.896l1.2-.368v3.264h2.464v1.088h-2.464v4.256c0,.597.128,1.024.384,1.28.256.256.677.384,1.264.384h.816v1.088h-.816c-.971,0-1.691-.229-2.16-.688-.459-.459-.688-1.163-.688-2.112v-4.208ZM248.739,271.744c1.248,0,2.272.443,3.072,1.328.811.875,1.168,1.957,1.072,3.248h-7.12c.086.811.411,1.477.976,2,.576.512,1.275.768,2.096.768.63,0,1.19-.155,1.68-.464.491-.309.864-.731,1.12-1.264l1.024.432c-.341.715-.848,1.291-1.52,1.728-.672.427-1.445.64-2.32.64-1.205,0-2.218-.4-3.04-1.2-.81-.811-1.216-1.813-1.216-3.008s.4-2.192,1.2-2.992c.8-.811,1.792-1.216,2.976-1.216ZM248.739,272.816c-.736,0-1.376.235-1.92.704-.544.469-.885,1.072-1.024,1.808h5.872c-.117-.725-.448-1.323-.992-1.792-.533-.48-1.178-.72-1.936-.72ZM255.849,271.904v1.296c.352-.533.816-.928,1.392-1.184.587-.256,1.221-.325,1.904-.208v1.168c-.907-.203-1.685-.064-2.336.416-.64.469-.96,1.131-.96,1.984v4.624h-1.2v-8.096h1.2ZM260.608,278.96c-.811-.811-1.216-1.813-1.216-3.008s.405-2.192,1.216-2.992c.821-.811,1.834-1.216,3.04-1.216.874,0,1.653.229,2.336.688.693.448,1.205,1.061,1.536,1.84l-1.104.384c-.246-.555-.614-.992-1.104-1.312-.491-.32-1.046-.48-1.664-.48-.854,0-1.574.299-2.16.896-.576.587-.864,1.317-.864,2.192s.288,1.611.864,2.208c.586.587,1.306.88,2.16.88.618,0,1.173-.16,1.664-.48.49-.32.858-.757,1.104-1.312l1.104.384c-.331.779-.843,1.397-1.536,1.856-.683.448-1.462.672-2.336.672-1.206,0-2.219-.4-3.04-1.2ZM272.476,271.744c.917,0,1.664.245,2.24.736.576.48.864,1.157.864,2.032v5.488h-1.2v-1.456c-.715,1.077-1.739,1.616-3.072,1.616-.779,0-1.408-.197-1.888-.592-.469-.405-.704-.949-.704-1.632,0-.725.261-1.285.784-1.68.533-.395,1.221-.635,2.064-.72l1.808-.208c.672-.064,1.008-.373,1.008-.928,0-.501-.176-.896-.528-1.184-.352-.288-.816-.432-1.392-.432s-1.072.144-1.488.432c-.416.288-.699.731-.848,1.328l-1.168-.32c.192-.8.603-1.413,1.232-1.84.64-.427,1.403-.64,2.288-.64ZM271.516,279.152c.821,0,1.504-.272,2.048-.816.544-.555.816-1.2.816-1.936v-.464c-.16.181-.523.304-1.088.368l-1.744.192c-.491.064-.885.213-1.184.448-.299.224-.448.533-.448.928,0,.384.144.693.432.928.299.235.688.352,1.168.352ZM278.771,271.904v1.296c.352-.533.816-.928,1.392-1.184.587-.256,1.221-.325,1.904-.208v1.168c-.907-.203-1.685-.064-2.336.416-.64.469-.96,1.131-.96,1.984v4.624h-1.2v-8.096h1.2ZM289.593,273.36v-5.2h1.2v11.84h-1.2v-1.456c-.768,1.077-1.829,1.616-3.184,1.616-1.173,0-2.149-.4-2.928-1.2-.778-.811-1.168-1.813-1.168-3.008s.39-2.192,1.168-2.992c.79-.811,1.766-1.216,2.928-1.216,1.355,0,2.416.539,3.184,1.616ZM286.569,279.04c.864,0,1.584-.293,2.16-.88s.864-1.323.864-2.208-.288-1.621-.864-2.208c-.576-.587-1.296-.88-2.16-.88-.853,0-1.573.299-2.16.896-.576.587-.864,1.317-.864,2.192s.288,1.611.864,2.208c.587.587,1.307.88,2.16.88ZM297.457,269.504c0-.224.075-.411.224-.56.15-.149.336-.224.56-.224.214,0,.395.075.544.224.16.149.24.336.24.56,0,.213-.08.395-.24.544-.149.149-.33.224-.544.224-.224,0-.41-.075-.56-.224-.149-.149-.224-.331-.224-.544ZM298.833,280h-1.2v-8.096h1.2v8.096ZM300.403,277.904l1.216-.24c.171.992.87,1.488,2.096,1.488.619,0,1.12-.123,1.504-.368.395-.256.592-.581.592-.976,0-.405-.181-.715-.544-.928-.352-.213-.778-.363-1.28-.448-.501-.096-1.008-.197-1.52-.304-.501-.117-.933-.341-1.296-.672-.352-.331-.528-.784-.528-1.36,0-.683.288-1.243.864-1.68.576-.448,1.312-.672,2.208-.672.875,0,1.59.203,2.144.608.555.405.896.955,1.024,1.648l-1.2.24c-.181-.981-.837-1.472-1.968-1.472-.544,0-.992.117-1.344.352-.352.235-.528.544-.528.928,0,.373.176.661.528.864.363.192.795.331,1.296.416.512.085,1.019.192,1.52.32.512.117.944.352,1.296.704.363.352.544.827.544,1.424,0,.693-.314,1.264-.944,1.712-.629.448-1.418.672-2.368.672-.917,0-1.669-.203-2.256-.608-.576-.405-.928-.955-1.056-1.648ZM316.679,271.744c.917,0,1.664.245,2.24.736.576.48.864,1.157.864,2.032v5.488h-1.2v-1.456c-.715,1.077-1.739,1.616-3.072,1.616-.779,0-1.408-.197-1.888-.592-.469-.405-.704-.949-.704-1.632,0-.725.261-1.285.784-1.68.533-.395,1.221-.635,2.064-.72l1.808-.208c.672-.064,1.008-.373,1.008-.928,0-.501-.176-.896-.528-1.184-.352-.288-.816-.432-1.392-.432s-1.072.144-1.488.432c-.416.288-.699.731-.848,1.328l-1.168-.32c.192-.8.603-1.413,1.232-1.84.64-.427,1.403-.64,2.288-.64ZM315.719,279.152c.821,0,1.504-.272,2.048-.816.544-.555.816-1.2.816-1.936v-.464c-.16.181-.523.304-1.088.368l-1.744.192c-.491.064-.885.213-1.184.448-.299.224-.448.533-.448.928,0,.384.144.693.432.928.299.235.688.352,1.168.352ZM322.67,278.96c-.811-.811-1.216-1.813-1.216-3.008s.405-2.192,1.216-2.992c.821-.811,1.835-1.216,3.04-1.216.875,0,1.653.229,2.336.688.693.448,1.205,1.061,1.536,1.84l-1.104.384c-.245-.555-.613-.992-1.104-1.312s-1.045-.48-1.664-.48c-.853,0-1.573.299-2.16.896-.576.587-.864,1.317-.864,2.192s.288,1.611.864,2.208c.587.587,1.307.88,2.16.88.619,0,1.173-.16,1.664-.48s.859-.757,1.104-1.312l1.104.384c-.331.779-.843,1.397-1.536,1.856-.683.448-1.461.672-2.336.672-1.205,0-2.219-.4-3.04-1.2ZM332.045,278.96c-.811-.811-1.216-1.813-1.216-3.008s.405-2.192,1.216-2.992c.821-.811,1.835-1.216,3.04-1.216.875,0,1.653.229,2.336.688.693.448,1.205,1.061,1.536,1.84l-1.104.384c-.245-.555-.613-.992-1.104-1.312s-1.045-.48-1.664-.48c-.853,0-1.573.299-2.16.896-.576.587-.864,1.317-.864,2.192s.288,1.611.864,2.208c.587.587,1.307.88,2.16.88.619,0,1.173-.16,1.664-.48s.859-.757,1.104-1.312l1.104.384c-.331.779-.843,1.397-1.536,1.856-.683.448-1.461.672-2.336.672-1.205,0-2.219-.4-3.04-1.2ZM344.38,271.744c1.248,0,2.272.443,3.072,1.328.811.875,1.168,1.957,1.072,3.248h-7.12c.085.811.411,1.477.976,2,.576.512,1.275.768,2.096.768.629,0,1.189-.155,1.68-.464.491-.309.864-.731,1.12-1.264l1.024.432c-.341.715-.848,1.291-1.52,1.728-.672.427-1.445.64-2.32.64-1.205,0-2.219-.4-3.04-1.2-.811-.811-1.216-1.813-1.216-3.008s.4-2.192,1.2-2.992c.8-.811,1.792-1.216,2.976-1.216ZM344.38,272.816c-.736,0-1.376.235-1.92.704-.544.469-.885,1.072-1.024,1.808h5.872c-.117-.725-.448-1.323-.992-1.792-.533-.48-1.179-.72-1.936-.72ZM354.674,271.744c1.162,0,2.133.405,2.912,1.216.789.8,1.184,1.797,1.184,2.992s-.39,2.197-1.168,3.008c-.779.8-1.755,1.2-2.928,1.2-1.355,0-2.416-.539-3.184-1.616v4.656h-1.2v-11.296h1.2v1.456c.768-1.077,1.829-1.616,3.184-1.616ZM354.514,279.04c.864,0,1.584-.293,2.16-.88.576-.587.864-1.323.864-2.208s-.288-1.621-.864-2.208c-.576-.587-1.296-.88-2.16-.88-.854,0-1.574.299-2.16.896-.576.587-.864,1.317-.864,2.192s.288,1.611.864,2.208c.586.587,1.306.88,2.16.88ZM361.239,272.992h-1.824v-1.088h1.824v-2.896l1.2-.368v3.264h2.464v1.088h-2.464v4.256c0,.597.128,1.024.384,1.28.256.256.678.384,1.264.384h.816v1.088h-.816c-.97,0-1.69-.229-2.16-.688-.458-.459-.688-1.163-.688-2.112v-4.208ZM370.099,271.744c1.248,0,2.272.443,3.072,1.328.81.875,1.168,1.957,1.072,3.248h-7.12c.085.811.41,1.477.976,2,.576.512,1.274.768,2.096.768.629,0,1.189-.155,1.68-.464.49-.309.864-.731,1.12-1.264l1.024.432c-.342.715-.848,1.291-1.52,1.728-.672.427-1.446.64-2.32.64-1.206,0-2.219-.4-3.04-1.2-.811-.811-1.216-1.813-1.216-3.008s.4-2.192,1.2-2.992c.8-.811,1.792-1.216,2.976-1.216ZM370.099,272.816c-.736,0-1.376.235-1.92.704-.544.469-.886,1.072-1.024,1.808h5.872c-.118-.725-.448-1.323-.992-1.792-.534-.48-1.179-.72-1.936-.72ZM382.859,273.36v-5.2h1.2v11.84h-1.2v-1.456c-.768,1.077-1.829,1.616-3.184,1.616-1.173,0-2.149-.4-2.928-1.2-.779-.811-1.168-1.813-1.168-3.008s.389-2.192,1.168-2.992c.789-.811,1.765-1.216,2.928-1.216,1.355,0,2.416.539,3.184,1.616ZM379.835,279.04c.864,0,1.584-.293,2.16-.88.576-.587.864-1.323.864-2.208s-.288-1.621-.864-2.208c-.576-.587-1.296-.88-2.16-.88-.853,0-1.573.299-2.16.896-.576.587-.864,1.317-.864,2.192s.288,1.611.864,2.208c.587.587,1.307.88,2.16.88ZM385.926,279.28c0-.235.08-.432.24-.592.16-.16.357-.24.592-.24.224,0,.416.08.576.24.16.16.24.357.24.592,0,.224-.08.416-.24.576s-.352.24-.576.24c-.235,0-.432-.08-.592-.24s-.24-.352-.24-.576Z" fill="#fff" isolation="isolate" opacity=".92"/>
  <circle cx="135" cy="40" r="20" fill="#fff"/>
  <path d="M145.428,50.255l-5.169-1.533-3.899,2.321h-2.72s-3.901-2.321-3.901-2.321l-5.167,1.533-1.572-5.285,1.572-5.865-1.572-4.959,1.572-6.146,8.074,4.805h4.708l8.074-4.805,1.572,6.146-1.572,4.959,1.572,5.865-1.572,5.285Z" fill="#ff5c16"/>
  <path d="M124.573,28l8.074,4.808-.321,3.3-7.753-8.107Z" fill="#ff5c16"/>
  <path d="M129.74,44.972l3.553,2.695-3.553,1.054v-3.749Z" fill="#ff5c16"/>
  <path d="M133.009,40.516l-.683-4.407-4.371,2.996h-.002s0,.001,0,.001l.014,3.084,1.772-1.675h3.27Z" fill="#ff5c16"/>
  <path d="M145.428,28l-8.074,4.808.32,3.3,7.754-8.107Z" fill="#ff5c16"/>
  <path d="M140.261,44.972l-3.553,2.695,3.553,1.054v-3.749Z" fill="#ff5c16"/>
  <path d="M142.046,39.107h0,0v-.002h-.001s-4.37-2.995-4.37-2.995l-.683,4.407h3.268l1.774,1.675.012-3.084Z" fill="#ff5c16"/>
  <path d="M129.739,48.722l-5.167,1.533-1.572-5.283h6.739v3.749Z" fill="#e34807"/>
  <path d="M133.008,40.515l.987,6.37-1.368-3.542-4.663-1.152,1.774-1.676h3.27Z" fill="#e34807"/>
  <path d="M140.261,48.722l5.167,1.533,1.572-5.283h-6.739v3.749Z" fill="#e34807"/>
  <path d="M136.992,40.515l-.987,6.37,1.368-3.542,4.662-1.152-1.774-1.676h-3.269Z" fill="#e34807"/>
  <path d="M123,44.97l1.572-5.865h3.38l.013,3.085,4.662,1.152,1.368,3.542-.703.78-3.553-2.695h-6.739Z" fill="#ff8d5d"/>
  <path d="M147,44.97l-1.572-5.865h-3.38l-.013,3.085-4.662,1.152-1.368,3.542.703.78,3.553-2.695h6.739Z" fill="#ff8d5d"/>
  <path d="M137.354,32.805h-4.708l-.32,3.3,1.669,10.777h2.01l1.67-10.777-.321-3.3Z" fill="#ff8d5d"/>
  <path d="M124.572,28l-1.572,6.146,1.572,4.959h3.38l4.373-2.997-7.753-8.107Z" fill="#661800"/>
  <path d="M132.031,41.795h-1.531l-.834.814,2.962.732-.597-1.547h0Z" fill="#661800"/>
  <path d="M145.428,28l1.572,6.146-1.572,4.959h-3.38l-4.373-2.997,7.753-8.107Z" fill="#661800"/>
  <path d="M137.971,41.795h1.534l.834.815-2.966.733.598-1.549h0Z" fill="#661800"/>
  <path d="M136.359,48.94l.349-1.274-.703-.78h-2.011l-.703.78.349,1.274" fill="#661800"/>
  <path d="M136.359,48.94v2.104h-2.719v-2.104h2.719Z" fill="#c0c4cd"/>
  <path d="M129.74,48.72l3.902,2.323v-2.104l-.349-1.274-3.553,1.054Z" fill="#e7ebf6"/>
  <path d="M140.261,48.72l-3.902,2.323v-2.104l.349-1.274,3.553,1.054Z" fill="#e7ebf6"/>
  <path d="M481.556,66.352c.853.075,1.536.357,2.048.848.522.48.784,1.099.784,1.856,0,.832-.304,1.531-.912,2.096-.598.565-1.366.848-2.304.848h-4.96v-11.2h4.48c.938,0,1.706.283,2.304.848.608.565.912,1.264.912,2.096,0,.683-.214,1.253-.641,1.712-.415.459-.986.757-1.711.896ZM480.612,61.904h-3.168v3.952h3.168c.618,0,1.125-.187,1.52-.56.394-.384.592-.859.592-1.424,0-.555-.198-1.019-.592-1.392-.395-.384-.902-.576-1.52-.576ZM477.444,70.896h3.584c.608,0,1.109-.192,1.504-.576.394-.384.592-.853.592-1.408,0-.565-.198-1.035-.592-1.408-.395-.373-.896-.56-1.504-.56h-3.584v3.952ZM489.445,63.744c.917,0,1.664.245,2.24.736.576.48.864,1.157.864,2.032v5.488h-1.2v-2.208c-.544,1.579-1.6,2.368-3.168,2.368-.736,0-1.339-.203-1.808-.608-.459-.405-.688-.944-.688-1.616,0-.725.261-1.285.784-1.68.533-.395,1.221-.635,2.064-.72l1.808-.208c.672-.064,1.008-.373,1.008-.928,0-.501-.176-.896-.528-1.184-.352-.288-.816-.432-1.392-.432s-1.072.144-1.488.432c-.416.288-.699.731-.848,1.328l-1.168-.32c.192-.8.602-1.413,1.232-1.84.64-.427,1.402-.64,2.288-.64ZM488.485,71.152c.821,0,1.504-.272,2.048-.816.544-.555.816-1.2.816-1.936v-.672c-.15.32-.512.512-1.088.576l-1.744.192c-.491.064-.886.213-1.184.448-.299.224-.448.533-.448.928,0,.384.144.693.432.928.298.235.688.352,1.168.352ZM498.732,63.744c.949,0,1.728.331,2.336.992.618.661.928,1.493.928,2.496v4.768h-1.2v-4.624c0-.715-.235-1.312-.704-1.792-.47-.491-1.051-.736-1.744-.736-.758,0-1.382.24-1.872.72-.491.48-.736,1.083-.736,1.808v4.624h-1.2v-8.096h1.2v2.08c.224-.683.602-1.227,1.136-1.632.533-.405,1.152-.608,1.856-.608ZM508.169,63.744c.949,0,1.728.331,2.336.992.619.661.928,1.493.928,2.496v4.768h-1.2v-4.624c0-.715-.235-1.312-.704-1.792-.469-.491-1.051-.736-1.744-.736-.757,0-1.381.24-1.872.72-.491.48-.736,1.083-.736,1.808v4.624h-1.2v-8.096h1.2v2.08c.224-.683.603-1.227,1.136-1.632.533-.405,1.152-.608,1.856-.608ZM517.271,63.744c1.248,0,2.272.443,3.072,1.328.81.875,1.168,1.957,1.072,3.248h-7.12c.085.811.41,1.477.976,2,.576.512,1.274.768,2.096.768.629,0,1.189-.155,1.68-.464.49-.309.864-.731,1.12-1.264l1.024.432c-.342.715-.848,1.291-1.52,1.728-.672.427-1.446.64-2.32.64-1.206,0-2.219-.4-3.04-1.2-.811-.811-1.216-1.813-1.216-3.008s.4-2.192,1.2-2.992c.8-.811,1.792-1.216,2.976-1.216ZM517.271,64.816c-.736,0-1.376.235-1.92.704-.544.469-.886,1.072-1.024,1.808h5.872c-.118-.725-.448-1.323-.992-1.792-.534-.48-1.179-.72-1.936-.72ZM524.38,63.904v2.176c.278-.928.704-1.573,1.28-1.936.587-.363,1.259-.475,2.016-.336v1.168c-.906-.203-1.685-.064-2.336.416-.64.469-.96,1.131-.96,1.984v4.624h-1.2v-8.096h1.2Z" fill="var(--banner-text)"/>
  <path d="M528.333,87c0-2.946-2.387-5.333-5.333-5.333s-5.333,2.388-5.333,5.333,2.387,5.333,5.333,5.333,5.333-2.388,5.333-5.333ZM426.293,86.293c-.391.391-.391,1.024,0,1.414l6.364,6.364c.39.391,1.024.391,1.414,0,.391-.391.391-1.024,0-1.414l-5.657-5.657,5.657-5.657c.391-.391.391-1.024,0-1.414-.39-.391-1.024-.391-1.414,0l-6.364,6.364ZM523,86h-96v2h96v-2Z" fill="#ff8d4c"/>
  <path d="M10.232,209.744v-10.944h1.248v11.2h-2.448l-5.76-10.928v10.928h-1.248v-11.2h2.448l5.76,10.944ZM16.804,201.744c.917,0,1.664.245,2.24.736.576.48.864,1.157.864,2.032v5.488h-1.2v-2.208c-.544,1.579-1.6,2.368-3.168,2.368-.736,0-1.339-.203-1.808-.608-.459-.405-.688-.944-.688-1.616,0-.725.261-1.285.784-1.68.533-.395,1.221-.635,2.064-.72l1.808-.208c.672-.064,1.008-.373,1.008-.928,0-.501-.176-.896-.528-1.184-.352-.288-.816-.432-1.392-.432s-1.072.144-1.488.432c-.416.288-.699.731-.848,1.328l-1.168-.32c.192-.8.603-1.413,1.232-1.84.64-.427,1.403-.64,2.288-.64ZM15.844,209.152c.821,0,1.504-.272,2.048-.816.544-.555.816-1.2.816-1.936v-.672c-.149.32-.512.512-1.088.576l-1.744.192c-.491.064-.885.213-1.184.448-.299.224-.448.533-.448.928,0,.384.144.693.432.928.299.235.688.352,1.168.352ZM31.387,201.744c.853,0,1.557.331,2.112.992.565.661.848,1.493.848,2.496v4.768h-1.2v-4.624c0-.715-.208-1.312-.624-1.792-.416-.491-.923-.736-1.52-.736-.661,0-1.211.24-1.648.72-.427.48-.64,1.083-.64,1.808v4.624h-1.2v-4.624c0-.715-.208-1.312-.624-1.792-.405-.491-.907-.736-1.504-.736-.661,0-1.211.24-1.648.72-.427.48-.64,1.083-.64,1.808v4.624h-1.2v-8.096h1.2v2.016c.224-.661.571-1.189,1.04-1.584.48-.395,1.029-.592,1.648-.592.672,0,1.253.213,1.744.64s.832.992,1.024,1.696c.192-.704.539-1.269,1.04-1.696.512-.427,1.109-.64,1.792-.64ZM40.177,201.744c1.248,0,2.272.443,3.072,1.328.811.875,1.168,1.957,1.072,3.248h-7.12c.085.811.411,1.477.976,2,.576.512,1.275.768,2.096.768.629,0,1.189-.155,1.68-.464.491-.309.864-.731,1.12-1.264l1.024.432c-.341.715-.848,1.291-1.52,1.728-.672.427-1.445.64-2.32.64-1.205,0-2.219-.4-3.04-1.2-.811-.811-1.216-1.813-1.216-3.008s.4-2.192,1.2-2.992c.8-.811,1.792-1.216,2.976-1.216ZM40.177,202.816c-.736,0-1.376.235-1.92.704-.544.469-.885,1.072-1.024,1.808h5.872c-.117-.725-.448-1.323-.992-1.792-.533-.48-1.179-.72-1.936-.72Z" fill="var(--banner-text)"/>
  <path d="M.667,223c0,2.946,2.388,5.333,5.333,5.333s5.333-2.387,5.333-5.333-2.388-5.333-5.333-5.333-5.333,2.387-5.333,5.333ZM110.707,223.707c.391-.39.391-1.024,0-1.414l-6.364-6.364c-.39-.391-1.024-.391-1.414,0-.391.39-.391,1.024,0,1.414l5.657,5.657-5.657,5.657c-.391.39-.391,1.024,0,1.414.39.391,1.024.391,1.414,0l6.364-6.364ZM6,224h104v-2H6v2Z" fill="#ff8d4c"/>
  <path d="M3.368,165.496c-1.109-1.109-1.664-2.475-1.664-4.096s.555-2.987,1.664-4.096c1.12-1.109,2.501-1.664,4.144-1.664,1.184,0,2.229.309,3.136.928.907.608,1.568,1.376,1.984,2.304l-1.136.48c-.352-.757-.885-1.371-1.6-1.84-.704-.48-1.499-.72-2.384-.72-1.269,0-2.341.448-3.216,1.344-.875.885-1.312,1.973-1.312,3.264s.437,2.384,1.312,3.28c.875.885,1.947,1.328,3.216,1.328.885,0,1.68-.235,2.384-.704.715-.48,1.248-1.099,1.6-1.856l1.136.48c-.416.928-1.077,1.701-1.984,2.32-.907.608-1.952.912-3.136.912-1.643,0-3.024-.555-4.144-1.664ZM17.648,158.744c.917,0,1.664.245,2.24.736.576.48.864,1.157.864,2.032v5.488h-1.2v-2.208c-.544,1.579-1.6,2.368-3.168,2.368-.736,0-1.339-.203-1.808-.608-.459-.405-.688-.944-.688-1.616,0-.725.261-1.285.784-1.68.533-.395,1.221-.635,2.064-.72l1.808-.208c.672-.064,1.008-.373,1.008-.928,0-.501-.176-.896-.528-1.184-.352-.288-.816-.432-1.392-.432s-1.072.144-1.488.432c-.416.288-.699.731-.848,1.328l-1.168-.32c.192-.8.603-1.413,1.232-1.84.64-.427,1.403-.64,2.288-.64ZM16.688,166.152c.821,0,1.504-.272,2.048-.816.544-.555.816-1.2.816-1.936v-.672c-.149.32-.512.512-1.088.576l-1.744.192c-.491.064-.885.213-1.184.448-.299.224-.448.533-.448.928,0,.384.144.693.432.928.299.235.688.352,1.168.352ZM23.411,159.992h-1.824v-1.088h1.824v-2.896l1.2-.368v3.264h2.464v1.088h-2.464v4.256c0,.597.128,1.024.384,1.28s.677.384,1.264.384h.816v1.088h-.816c-.971,0-1.691-.229-2.16-.688-.459-.459-.688-1.163-.688-2.112v-4.208ZM32.271,158.744c1.248,0,2.272.443,3.072,1.328.811.875,1.168,1.957,1.072,3.248h-7.12c.085.811.411,1.477.976,2,.576.512,1.275.768,2.096.768.629,0,1.189-.155,1.68-.464.491-.309.864-.731,1.12-1.264l1.024.432c-.341.715-.848,1.291-1.52,1.728-.672.427-1.445.64-2.32.64-1.205,0-2.219-.4-3.04-1.2-.811-.811-1.216-1.813-1.216-3.008s.4-2.192,1.2-2.992c.8-.811,1.792-1.216,2.976-1.216ZM32.271,159.816c-.736,0-1.376.235-1.92.704-.544.469-.885,1.072-1.024,1.808h5.872c-.117-.725-.448-1.323-.992-1.792-.533-.48-1.179-.72-1.936-.72ZM45.031,161.224v-2.32h1.2v7.248c0,1.195-.411,2.192-1.232,2.992-.811.811-1.819,1.216-3.024,1.216-.864,0-1.632-.219-2.304-.656-.672-.427-1.179-.997-1.52-1.712l1.088-.512c.256.544.624.976,1.104,1.296.48.32,1.024.48,1.632.48.864,0,1.589-.299,2.176-.896.587-.587.88-1.323.88-2.208v-1.568c-.277.757-.72,1.36-1.328,1.808s-1.312.672-2.112.672c-1.099,0-2.016-.395-2.752-1.184-.725-.8-1.088-1.792-1.088-2.976s.363-2.171,1.088-2.96c.736-.8,1.653-1.2,2.752-1.2.8,0,1.504.224,2.112.672s1.051,1.051,1.328,1.808ZM41.943,165.96c.896,0,1.632-.288,2.208-.864.587-.587.88-1.317.88-2.192,0-.864-.293-1.584-.88-2.16-.576-.587-1.312-.88-2.208-.88-.832,0-1.536.293-2.112.88-.565.576-.848,1.296-.848,2.16s.283,1.589.848,2.176c.576.587,1.28.88,2.112.88ZM49.17,165.96c-.811-.811-1.216-1.813-1.216-3.008s.405-2.192,1.216-2.992c.821-.811,1.835-1.216,3.04-1.216s2.213.405,3.024,1.216c.821.8,1.232,1.797,1.232,2.992s-.411,2.197-1.232,3.008c-.811.8-1.819,1.2-3.024,1.2s-2.219-.4-3.04-1.2ZM50.05,160.76c-.576.587-.864,1.317-.864,2.192s.288,1.611.864,2.208c.587.587,1.307.88,2.16.88.864,0,1.584-.293,2.16-.88.576-.587.864-1.323.864-2.208s-.288-1.621-.864-2.208c-.576-.587-1.296-.88-2.16-.88-.853,0-1.573.299-2.16.896ZM59.396,158.904v2.176c.277-.928.704-1.573,1.28-1.936.587-.363,1.259-.475,2.016-.336v1.168c-.907-.203-1.685-.064-2.336.416-.64.469-.96,1.131-.96,1.984v4.624h-1.2v-8.096h1.2ZM67.066,166.648l2.864-7.744h1.232l-4.192,11.296h-1.232l1.2-3.2h-.944l-3.024-8.096h1.312l2.784,7.744Z" fill="var(--banner-text)"/>
  <path d="M.667,180c0,2.946,2.388,5.333,5.333,5.333s5.333-2.387,5.333-5.333-2.388-5.333-5.333-5.333-5.333,2.387-5.333,5.333ZM110.707,180.707c.391-.39.391-1.024,0-1.414l-6.364-6.364c-.39-.391-1.024-.391-1.414,0-.391.39-.391,1.024,0,1.414l5.657,5.657-5.657,5.657c-.391.39-.391,1.024,0,1.414.39.391,1.024.391,1.414,0l6.364-6.364ZM6,181h104v-2H6v2Z" fill="#ff8d4c"/>
  <path d="M5.976,262h-3.952v-11.2h3.952c1.611,0,2.955.539,4.032,1.616,1.088,1.067,1.632,2.395,1.632,3.984s-.544,2.923-1.632,4c-1.077,1.067-2.421,1.6-4.032,1.6ZM3.272,251.936v8.928h2.624c1.28,0,2.341-.427,3.184-1.28.853-.853,1.28-1.915,1.28-3.184,0-1.28-.427-2.341-1.28-3.184-.843-.853-1.904-1.28-3.184-1.28h-2.624ZM16.974,253.744c1.248,0,2.272.443,3.072,1.328.811.875,1.168,1.957,1.072,3.248h-7.12c.085.811.411,1.477.976,2,.576.512,1.275.768,2.096.768.629,0,1.189-.155,1.68-.464.491-.309.864-.731,1.12-1.264l1.024.432c-.341.715-.848,1.291-1.52,1.728-.672.427-1.445.64-2.32.64-1.205,0-2.219-.4-3.04-1.2-.811-.811-1.216-1.813-1.216-3.008s.4-2.192,1.2-2.992c.8-.811,1.792-1.216,2.976-1.216ZM16.974,254.816c-.736,0-1.376.235-1.92.704-.544.469-.885,1.072-1.024,1.808h5.872c-.117-.725-.448-1.323-.992-1.792-.533-.48-1.179-.72-1.936-.72ZM22.403,259.904l1.216-.24c.171.992.869,1.488,2.096,1.488.619,0,1.12-.123,1.504-.368.395-.256.592-.581.592-.976,0-.405-.181-.715-.544-.928-.352-.213-.779-.363-1.28-.448-.501-.096-1.008-.197-1.52-.304-.501-.117-.933-.341-1.296-.672-.352-.331-.528-.784-.528-1.36,0-.683.288-1.243.864-1.68.576-.448,1.312-.672,2.208-.672.875,0,1.589.203,2.144.608.555.405.896.955,1.024,1.648l-1.2.24c-.181-.981-.837-1.472-1.968-1.472-.544,0-.992.117-1.344.352-.352.235-.528.544-.528.928,0,.373.176.661.528.864.363.192.795.331,1.296.416.512.085,1.019.192,1.52.32.512.117.944.352,1.296.704.363.352.544.827.544,1.424,0,.693-.315,1.264-.944,1.712-.629.448-1.419.672-2.368.672-.917,0-1.669-.203-2.256-.608-.576-.405-.928-.955-1.056-1.648ZM31.498,260.96c-.811-.811-1.216-1.813-1.216-3.008s.405-2.192,1.216-2.992c.821-.811,1.835-1.216,3.04-1.216.875,0,1.653.229,2.336.688.693.448,1.205,1.061,1.536,1.84l-1.104.384c-.245-.555-.613-.992-1.104-1.312-.491-.32-1.045-.48-1.664-.48-.853,0-1.573.299-2.16.896-.576.587-.864,1.317-.864,2.192s.288,1.611.864,2.208c.587.587,1.307.88,2.16.88.619,0,1.173-.16,1.664-.48.491-.32.859-.757,1.104-1.312l1.104.384c-.331.779-.843,1.397-1.536,1.856-.683.448-1.461.672-2.336.672-1.205,0-2.219-.4-3.04-1.2ZM41.286,253.904v2.176c.277-.928.704-1.573,1.28-1.936.587-.363,1.259-.475,2.016-.336v1.168c-.907-.203-1.685-.064-2.336.416-.64.469-.96,1.131-.96,1.984v4.624h-1.2v-8.096h1.2ZM45.754,251.504c0-.224.075-.411.224-.56.149-.149.336-.224.56-.224.213,0,.395.075.544.224.16.149.24.336.24.56,0,.213-.08.395-.24.544-.149.149-.331.224-.544.224-.224,0-.411-.075-.56-.224-.149-.149-.224-.331-.224-.544ZM47.13,262h-1.2v-8.096h1.2v8.096ZM53.82,253.744c1.099,0,2.011.405,2.736,1.216.736.8,1.104,1.797,1.104,2.992,0,1.205-.368,2.208-1.104,3.008-.725.8-1.637,1.2-2.736,1.2-.8,0-1.509-.229-2.128-.688-.608-.469-1.045-1.088-1.312-1.856v5.584h-1.2v-11.296h1.2v2.4c.267-.779.704-1.397,1.312-1.856.619-.469,1.328-.704,2.128-.704ZM53.484,261.04c.832,0,1.531-.293,2.096-.88.565-.597.848-1.333.848-2.208s-.283-1.605-.848-2.192c-.565-.597-1.264-.896-2.096-.896-.896,0-1.637.293-2.224.88-.587.587-.88,1.323-.88,2.208s.293,1.621.88,2.208c.587.587,1.328.88,2.224.88ZM60.177,254.992h-1.824v-1.088h1.824v-2.896l1.2-.368v3.264h2.464v1.088h-2.464v4.256c0,.597.128,1.024.384,1.28.256.256.677.384,1.264.384h.816v1.088h-.816c-.971,0-1.691-.229-2.16-.688-.459-.459-.688-1.163-.688-2.112v-4.208ZM65.395,251.504c0-.224.075-.411.224-.56.149-.149.336-.224.56-.224.213,0,.395.075.544.224.16.149.24.336.24.56,0,.213-.08.395-.24.544-.149.149-.331.224-.544.224-.224,0-.411-.075-.56-.224-.149-.149-.224-.331-.224-.544ZM66.771,262h-1.2v-8.096h1.2v8.096ZM69.717,260.96c-.811-.811-1.216-1.813-1.216-3.008s.405-2.192,1.216-2.992c.821-.811,1.835-1.216,3.04-1.216s2.213.405,3.024,1.216c.821.8,1.232,1.797,1.232,2.992s-.411,2.197-1.232,3.008c-.811.8-1.819,1.2-3.024,1.2s-2.219-.4-3.04-1.2ZM70.597,255.76c-.576.587-.864,1.317-.864,2.192s.288,1.611.864,2.208c.587.587,1.307.88,2.16.88.864,0,1.584-.293,2.16-.88.576-.587.864-1.323.864-2.208s-.288-1.621-.864-2.208c-.576-.587-1.296-.88-2.16-.88-.853,0-1.573.299-2.16.896ZM82.935,253.744c.949,0,1.728.331,2.336.992.619.661.928,1.493.928,2.496v4.768h-1.2v-4.624c0-.715-.235-1.312-.704-1.792-.469-.491-1.051-.736-1.744-.736-.757,0-1.381.24-1.872.72-.491.48-.736,1.083-.736,1.808v4.624h-1.2v-8.096h1.2v2.08c.224-.683.603-1.227,1.136-1.632.533-.405,1.152-.608,1.856-.608Z" fill="var(--banner-text)"/>
  <path d="M.667,275c0,2.946,2.388,5.333,5.333,5.333s5.333-2.387,5.333-5.333-2.388-5.333-5.333-5.333-5.333,2.387-5.333,5.333ZM110.707,275.707c.391-.39.391-1.024,0-1.414l-6.364-6.364c-.39-.391-1.024-.391-1.414,0-.391.39-.391,1.024,0,1.414l5.657,5.657-5.657,5.657c-.391.39-.391,1.024,0,1.414.39.391,1.024.391,1.414,0l6.364-6.364ZM6,276h104v-2H6v2Z" fill="#ff8d4c"/>
  <path d="M8.92,28H2.024v-11.2h1.248v10.064h5.648v1.136ZM10.764,26.96c-.811-.811-1.216-1.813-1.216-3.008s.405-2.192,1.216-2.992c.821-.811,1.835-1.216,3.04-1.216s2.213.405,3.024,1.216c.821.8,1.232,1.797,1.232,2.992s-.411,2.197-1.232,3.008c-.811.8-1.819,1.2-3.024,1.2s-2.219-.4-3.04-1.2ZM11.644,21.76c-.576.587-.864,1.317-.864,2.192s.288,1.611.864,2.208c.587.587,1.307.88,2.16.88.864,0,1.584-.293,2.16-.88s.864-1.323.864-2.208-.288-1.621-.864-2.208c-.576-.587-1.296-.88-2.16-.88-.853,0-1.573.299-2.16.896ZM26.64,22.224v-2.32h1.2v7.248c0,1.195-.411,2.192-1.232,2.992-.811.811-1.819,1.216-3.024,1.216-.864,0-1.632-.219-2.304-.656-.672-.427-1.179-.997-1.52-1.712l1.088-.512c.256.544.624.976,1.104,1.296.48.32,1.024.48,1.632.48.864,0,1.589-.299,2.176-.896.587-.587.88-1.323.88-2.208v-1.568c-.277.757-.72,1.36-1.328,1.808s-1.312.672-2.112.672c-1.099,0-2.016-.395-2.752-1.184-.725-.8-1.088-1.792-1.088-2.976s.363-2.171,1.088-2.96c.736-.8,1.653-1.2,2.752-1.2.8,0,1.504.224,2.112.672s1.051,1.051,1.328,1.808ZM23.552,26.96c.896,0,1.632-.288,2.208-.864.587-.587.88-1.317.88-2.192,0-.864-.293-1.584-.88-2.16-.576-.587-1.312-.88-2.208-.88-.832,0-1.536.293-2.112.88-.565.576-.848,1.296-.848,2.16s.283,1.589.848,2.176c.576.587,1.28.88,2.112.88ZM30.779,26.96c-.811-.811-1.216-1.813-1.216-3.008s.405-2.192,1.216-2.992c.821-.811,1.835-1.216,3.04-1.216s2.213.405,3.024,1.216c.821.8,1.232,1.797,1.232,2.992s-.411,2.197-1.232,3.008c-.811.8-1.819,1.2-3.024,1.2s-2.219-.4-3.04-1.2ZM31.659,21.76c-.576.587-.864,1.317-.864,2.192s.288,1.611.864,2.208c.587.587,1.307.88,2.16.88.864,0,1.584-.293,2.16-.88s.864-1.323.864-2.208-.288-1.621-.864-2.208c-.576-.587-1.296-.88-2.16-.88-.853,0-1.573.299-2.16.896Z" fill="var(--banner-text)"/>
  <path d="M.667,41c0,2.945,2.388,5.333,5.333,5.333s5.333-2.388,5.333-5.333-2.388-5.333-5.333-5.333-5.333,2.388-5.333,5.333ZM110.707,41.707c.391-.39.391-1.024,0-1.414l-6.364-6.364c-.39-.391-1.024-.391-1.414,0-.391.391-.391,1.024,0,1.414l5.657,5.657-5.657,5.657c-.391.391-.391,1.024,0,1.414.39.391,1.024.391,1.414,0l6.364-6.364ZM6,42h104v-2H6v2Z" fill="#ff8d4c"/>
</svg>