<svg xmlns="http://www.w3.org/2000/svg" data-name="Layer 1" width="743.11033" height="588.83397" viewBox="0 0 743.11033 588.83397" xmlns:xlink="http://www.w3.org/1999/xlink"><path d="M970.562,192.1355H338.23859a1.01559,1.01559,0,0,1,0-2.03069H970.562a1.01559,1.01559,0,0,1,0,2.03069Z" transform="translate(-228.44483 -155.58301)" fill="#cacaca"/><ellipse cx="132.14886" cy="11.16881" rx="10.92534" ry="11.16881" fill="#3f3d56"/><ellipse cx="169.89093" cy="11.16881" rx="10.92534" ry="11.16881" fill="#3f3d56"/><ellipse cx="207.633" cy="11.16881" rx="10.92534" ry="11.16881" fill="#3f3d56"/><path d="M947.94494,158.35132h-26.81a2.0304,2.0304,0,0,0,0,4.06h26.81a2.0304,2.0304,0,0,0,0-4.06Z" transform="translate(-228.44483 -155.58301)" fill="#3f3d56"/><path d="M947.94494,165.97131h-26.81a2.0304,2.0304,0,0,0,0,4.06h26.81a2.0304,2.0304,0,0,0,0-4.06Z" transform="translate(-228.44483 -155.58301)" fill="#3f3d56"/><path d="M947.94494,173.5813h-26.81a2.0304,2.0304,0,0,0,0,4.06h26.81a2.0304,2.0304,0,0,0,0-4.06Z" transform="translate(-228.44483 -155.58301)" fill="#3f3d56"/><path d="M937.9334,226.419H361.99346a12.04794,12.04794,0,0,0-12.03,12.03v1.94a12.048,12.048,0,0,0,12.03,12.03H937.9334a12.048,12.048,0,0,0,12.03-12.03v-1.94A12.04794,12.04794,0,0,0,937.9334,226.419Z" transform="translate(-228.44483 -155.58301)" fill="#f0f0f0"/><path d="M431.49874,244.21918H376.67586a4.62947,4.62947,0,0,1,0-9.25893h54.82288C437.469,234.87691,437.52869,244.30326,431.49874,244.21918Z" transform="translate(-228.44483 -155.58301)" fill="#fff"/><path d="M595.49874,244.21918H540.67586a4.62947,4.62947,0,0,1,0-9.25893h54.82288C601.469,234.87691,601.52869,244.30326,595.49874,244.21918Z" transform="translate(-228.44483 -155.58301)" fill="#fff"/><path d="M759.49874,244.21918H704.67586a4.62947,4.62947,0,0,1,0-9.25893h54.82288C765.469,234.87691,765.52869,244.30326,759.49874,244.21918Z" transform="translate(-228.44483 -155.58301)" fill="#fff"/><path d="M914.99874,244.71918H860.17586a4.62947,4.62947,0,0,1,0-9.25893h54.82288C920.969,235.37691,921.02869,244.80326,914.99874,244.71918Z" transform="translate(-228.44483 -155.58301)" fill="#213fa4"/><rect x="599.0186" y="70.83595" width="2" height="26" fill="#fff"/><path d="M434.98463,495.44439a8.87579,8.87579,0,0,1-9.465-9.77969l-53.11128-60.94578,16.48717-10.03707,47.02234,63.06381a8.92385,8.92385,0,0,1-.9332,17.69873Z" transform="translate(-228.44483 -155.58301)" fill="#ffb6b6"/><path d="M356.50984,398.79136s-4.16192,2.15958,2.06962,9.89636c4.98884,6.19388,26.59888,35.82792,35.5542,42.28777a6.97268,6.97268,0,0,0,2.23888,8.24991l15.42191-16.99633c-.50368-5.1754-3.97529-5.12576-5.95467-4.62254l-5.67045-13.12513-20.89707-34.00323-19.78171,6.69873Z" transform="translate(-228.44483 -155.58301)" fill="#213fa4"/><path d="M869.43316,650.919H436.4937a13.04516,13.04516,0,0,1-13.03027-13.03027V306.94875A13.04474,13.04474,0,0,1,436.4937,293.919H869.43316a13.04474,13.04474,0,0,1,13.03027,13.02978V637.8887A13.04516,13.04516,0,0,1,869.43316,650.919Z" transform="translate(-228.44483 -155.58301)" fill="#fff"/><path d="M869.43316,650.919H436.4937a13.04516,13.04516,0,0,1-13.03027-13.03027V306.94875A13.04474,13.04474,0,0,1,436.4937,293.919H869.43316a13.04474,13.04474,0,0,1,13.03027,13.02978V637.8887A13.04516,13.04516,0,0,1,869.43316,650.919Zm-432.93946-355a11.04245,11.04245,0,0,0-11.03027,11.02978V637.8887A11.04287,11.04287,0,0,0,436.4937,648.919H869.43316a11.04287,11.04287,0,0,0,11.03027-11.03027V306.94875A11.04245,11.04245,0,0,0,869.43316,295.919Z" transform="translate(-228.44483 -155.58301)" fill="#f0f0f0"/><path d="M651.15171,370.515c-2.29719-3.79935-5.01926-7.85593-9.28224-9.09653-4.93683-1.43669-10.00819,1.41735-14.30988,4.23369A416.99109,416.99109,0,0,0,590.45,392.994l.013.14748,27.69168-1.90965c6.66909-.45992,13.5673-.98327,19.46093-4.13817,2.23643-1.19716,4.41647-2.79633,6.95071-2.90776,3.14857-.13843,5.89392,2.06052,8.05138,4.35793,12.76209,13.58989,16.45519,34.37208,30.773,46.31182A454.38147,454.38147,0,0,0,651.15171,370.515Z" transform="translate(-228.44483 -155.58301)" fill="#f2f2f2"/><path d="M729.59841,485.78189c-1.41128-1.78206-1.98794-2.19942-3.38-3.998q-17.00253-21.99027-31.962-45.46609-10.16106-15.94389-19.3144-32.50012-4.35773-7.871-8.47653-15.86562-3.1961-6.1988-6.24953-12.47173c-.58216-1.19446-1.14782-2.39441-1.71067-3.5971-1.32628-2.82824-2.62788-5.67021-4.02549-8.46-1.59255-3.17971-3.53115-6.51319-6.45561-8.64949a8.80757,8.80757,0,0,0-4.58833-1.76559,12.79837,12.79837,0,0,0-6.64224,1.90289,213.81738,213.81738,0,0,0-42.04465,28.99363,218.88929,218.88929,0,0,0-34.15872,37.9177c-.30193.4311-1.01589.01922-.71113-.41461q1.8-2.54544,3.67126-5.03593a220.09813,220.09813,0,0,1,56.19136-52.41315q5.46587-3.54216,11.13726-6.7521c1.90562-1.07913,3.81955-2.14453,5.76633-3.144a14.04935,14.04935,0,0,1,6.115-1.89466c7.41935-.11532,11.26088,8.287,13.89963,13.94079q1.24388,2.669,2.51794,5.32149,4.81485,10.07046,10.00043,19.957,3.20031,6.10407,6.54075,12.13674,10.39575,18.78587,22.09874,36.81112c10.33549,15.91779,20.58852,29.9794,32.36278,44.86474C730.50463,485.61165,729.92529,486.19927,729.59841,485.78189Z" transform="translate(-228.44483 -155.58301)" fill="#e4e4e4"/><path d="M594.01563,379.75567c-.43105-.48053-.85942-.96105-1.29329-1.44158-3.42134-3.78382-7.09247-7.52369-11.79075-9.69293a17.106,17.106,0,0,0-7.16674-1.66125,20.45248,20.45248,0,0,0-7.4412,1.62282c-1.12034.44758-2.216.95555-3.295,1.49648-1.233.62057-2.44393,1.28234-3.64927,1.94958q-3.394,1.87818-6.6999,3.92109-6.57781,4.06525-12.74362,8.75109-3.19629,2.43009-6.26066,5.01945-2.85018,2.40537-5.58505,4.93982c-.3899.35971-.972-.22242-.58216-.58213.48053-.44757.96655-.8924,1.45258-1.33174q2.05939-1.86169,4.18476-3.652,3.87567-3.27033,7.952-6.288,6.3389-4.69545,13.11421-8.75384,3.38574-2.02644,6.86467-3.88266c.70028-.37343,1.40873-.73864,2.12537-1.08462a33.88048,33.88048,0,0,1,5.05237-2.05665,17.97354,17.97354,0,0,1,7.63078-.74962,19.867,19.867,0,0,1,7.04044,2.43558c4.613,2.57838,8.19082,6.56537,11.67263,10.45628C594.94934,379.5662,594.36986,380.15108,594.01563,379.75567Z" transform="translate(-228.44483 -155.58301)" fill="#e4e4e4"/><path d="M688.53487,418.966l11.054-4.043,5.48834-2.00739a56.12942,56.12942,0,0,1,5.41843-1.86617,8.54813,8.54813,0,0,1,4.90434.06249,11.30343,11.30343,0,0,1,3.82526,2.37127,31.04083,31.04083,0,0,1,3.13752,3.35065c1.19492,1.436,2.37218,2.88708,3.55472,4.33329q7.32087,8.95317,14.546,17.98407,7.225,9.03073,14.35333,18.13822,7.14578,9.12974,14.19328,18.33583.86332,1.12777,1.72518,2.25669c.31744.41577,1.03322.00588.7113-.41577q-7.0995-9.29867-14.298-18.52121-7.21617-9.24459-14.53205-18.41076-7.31574-9.166-14.73035-18.25247-1.84721-2.26373-3.70051-4.52245c-1.04222-1.27022-2.07268-2.55413-3.21582-3.7364-2.09831-2.17013-4.71988-4.08794-7.85793-4.14a15.16623,15.16623,0,0,0-5.34479,1.175c-1.848.66854-3.69155,1.34959-5.53718,2.02463l-11.13127,4.07132-2.78282,1.01782c-.49384.18063-.28051.977.219.79434Z" transform="translate(-228.44483 -155.58301)" fill="#e4e4e4"/><path d="M579.47692,373.38235a17.84592,17.84592,0,0,0-17.97321,1.28533,256.35007,256.35007,0,0,1,29.16522,6.807C586.69042,379.14319,583.57828,375.49025,579.47692,373.38235Z" transform="translate(-228.44483 -155.58301)" fill="#f2f2f2"/><path d="M561.44842,374.65774l-1.08142.879c.36579-.30765.74607-.5961,1.13671-.86906Z" transform="translate(-228.44483 -155.58301)" fill="#f2f2f2"/><path d="M718.809,419.00638a9.20127,9.20127,0,0,0-3.89213-3.24939l-1.51953.05993a172.35937,172.35937,0,0,0,45.90786,52.48349Z" transform="translate(-228.44483 -155.58301)" fill="#f2f2f2"/><path d="M575.95256,486.81682c-.66351.89517-1.3692,1.76072-2.11715,2.58768-6.5088,1.09962-12.54658,2.28818-18.078,3.49645q-2.39943.52324-4.667,1.05132l.03505-.10812a21.94173,21.94173,0,0,1,1.62336-11.52179c.097-.22246.197-.445.3-.66448a21.51635,21.51635,0,0,1,4.13772-5.98031,39.86476,39.86476,0,0,1,9.17492-6.46559c6.22846-3.46962,12.72089-6.53408,15.70313-12.78633A37.01261,37.01261,0,0,1,575.95256,486.81682Z" transform="translate(-228.44483 -155.58301)" fill="#e6e6e6"/><path d="M542.16909,470.15047a42.8795,42.8795,0,0,0,7.35985-9.9121,43.73529,43.73529,0,0,0,4.26255-11.52871,42.01167,42.01167,0,0,0,.79758-12.44089,43.53657,43.53657,0,0,0-9.21251-23.23676q-.48325-.60931-.98926-1.19992c-.37608-.44021-1.00355.20352-.63008.64066a42.534,42.534,0,0,1,9.78617,22.381,42.29728,42.29728,0,0,1-12.015,34.66665c-.409.41008.23173,1.04009.64067.63008Z" transform="translate(-228.44483 -155.58301)" fill="#ccc"/><path d="M545.74511,413.79193a10.88887,10.88887,0,0,1-1.071-.45667c-.01731.0272-.03421.05486-.05155.082Z" transform="translate(-228.44483 -155.58301)" fill="#e6e6e6"/><path d="M546.04483,402.231a4.02786,4.02786,0,0,0-7.37129,2.15441,7.34377,7.34377,0,0,0,.87483,3.90178,11.3522,11.3522,0,0,0,5.12569,5.04808,16.73843,16.73843,0,0,0,2.47636-5.36825A6.87474,6.87474,0,0,0,546.04483,402.231Z" transform="translate(-228.44483 -155.58301)" fill="#ccc"/><path d="M561.64421,413.33345a18.38921,18.38921,0,0,0-2.98059-15.10609c-.27355,5.2722-5.76731,8.67377-7.74851,13.56721a10.97421,10.97421,0,0,0,.67683,9.488l.337,3.99626A18.38928,18.38928,0,0,0,561.64421,413.33345Z" transform="translate(-228.44483 -155.58301)" fill="#ccc"/><path d="M571.54956,428.20577c-2.724,4.52228-9.17228,4.93611-13.22435,8.32013a10.97419,10.97419,0,0,0-3.87078,8.68892l-1.5845,3.68416a18.12056,18.12056,0,0,0,18.67963-20.69321Z" transform="translate(-228.44483 -155.58301)" fill="#ccc"/><path d="M546.20034,438.25754a18.12054,18.12054,0,0,0-.265,27.87591l1.3285-3.784a10.97411,10.97411,0,0,0,3.03475-9.015C549.608,448.1005,545.14288,443.42984,546.20034,438.25754Z" transform="translate(-228.44483 -155.58301)" fill="#ccc"/><path d="M546.499,489.3417a13.96284,13.96284,0,0,1-6.7136,7.43654q-.237.1323-.47413.25557c-.13121.07-.26545.137-.39971.201-1.08231.24267-2.17391.44945-3.25932.68016l-.009.00306q-2.42952.68523-4.5838,1.33519c-.80674.24037-1.58657.4775-2.33347.71138-.0986.02778-.1942.05853-.2928.08931-.12847.04-.25393.08-.37944.117-.00305-.006-.00606-.00892-.00611-.01492l0-.006c-.57687-1.2892-1.1358-2.58155-1.67093-3.89507a96.22774,96.22774,0,0,1-5.00954-15.61213,59.44969,59.44969,0,0,1-1.25224-19.79508,43.743,43.743,0,0,1,3.70329-13.18358q.41492-.89307.86894-1.76553c.09132-.18347.18567-.364.286-.54454l0-.003c.00884-.01805.02067-.03612.03248-.05719l.04425-.08125,0-.003q.39381-.73118.82072-1.44163a37.80741,37.80741,0,0,1,4.98-6.62834,30.94438,30.94438,0,0,1,11.58355-7.86353l.003,0c.212-.08265.427-.15932.642-.236-.08194.23133-.16391.45967-.24287.691a61.90229,61.90229,0,0,0-2.47258,9.53994c-.04286.249-.0857.50094-.12552.75289a63.98289,63.98289,0,0,0,.5467,23.55714c.00318.02094.00933.04186.0125.06281q.54715,2.57446,1.31547,5.09317c.01239.04783.02474.09265.04011.14046.09857.32566.20313.6513.30765.97393q.45657,1.4115.98487,2.80145C545.49742,478.06043,548.34041,483.85978,546.499,489.3417Z" transform="translate(-228.44483 -155.58301)" fill="#f0f0f0"/><path d="M543.21006,429.29663q-.19139.21728-.3738.43445a54.40614,54.40614,0,0,0-6.7619,9.90816c-.09438.17752-.18873.358-.28008.53852a53.95448,53.95448,0,0,0-5.30243,15.749l0,.006c-.00855.051-.01712.102-.02565.156l.00005.006c-.217,1.28382-.3829,2.57921-.49792,3.87418a23.35983,23.35983,0,0,0,.32756,7.318,12.9928,12.9928,0,0,0,2.66865,5.36347c.12411.15773.2542.31239.39029.467.10584.12194.21471.24384.32652.36273,1.0428,1.12656,2.1929,2.18933,3.16739,3.38834a11.87009,11.87009,0,0,1,1.18562,1.73044,8.20737,8.20737,0,0,1,.45419,6.69989,21.28751,21.28751,0,0,1-4.66764,7.09c-2.02687,2.2784-4.16409,4.61463-5.095,7.57583-.0986.02778-.1942.05853-.2928.08931-.12847.04-.25393.08-.37944.117.03058.07463.06415.14924.09772.22384a.26475.26475,0,0,1-.10668-.22076.038.038,0,0,1,.00285-.018l0-.006a.2277.2277,0,0,1,.00846-.063,12.27367,12.27367,0,0,1,.95074-2.37128c0-.006,0-.006.00293-.009,2.129-4.04354,6.16392-6.9018,8.23833-11.02276a8.30733,8.30733,0,0,0,.50231-7.30094,9.97349,9.97349,0,0,0-1.21429-1.93689c-.93255-1.19638-2.07355-2.24725-3.10412-3.34394-.25686-.27045-.50178-.547-.73779-.82958a13.72178,13.72178,0,0,1-2.79824-5.10179,21.599,21.599,0,0,1-.60881-7.27971c.09782-1.56141.27952-3.12351.53317-4.67425.03129-.20095.06559-.39892.10285-.59994l0-.003a55.427,55.427,0,0,1,12.511-26.33781l.003,0c.11861-.14476.24321-.28959.36785-.4314C543.06309,428.552,543.46825,429.00693,543.21006,429.29663Z" transform="translate(-228.44483 -155.58301)" fill="#fff"/><path d="M530.101,456.28894a8.14642,8.14642,0,0,1-6.27191-8.48173.3041.3041,0,0,1,.60731.02526,7.54341,7.54341,0,0,0,5.85032,7.87785c.38116.08728.19327.66539-.18572.57862Z" transform="translate(-228.44483 -155.58301)" fill="#fff"/><path d="M532.80349,472.749a15.70161,15.70161,0,0,0,6.93612-9.101c.10719-.3764.68567-.19023.57861.18571a16.332,16.332,0,0,1-7.23691,9.4558c-.33529.20269-.61129-.33887-.27782-.54046Z" transform="translate(-228.44483 -155.58301)" fill="#fff"/><path d="M535.90169,439.56672a4.61125,4.61125,0,0,0,4.36793-.25823c.33256-.20683.60821.335.27782.54047a5.16729,5.16729,0,0,1-4.83146.29637.314.314,0,0,1-.19645-.38216.30538.30538,0,0,1,.38216-.19645Z" transform="translate(-228.44483 -155.58301)" fill="#fff"/><path d="M583.05867,453.14641c-.20557.13351-.40512.27-.61067.40646l-.003.003a60.69488,60.69488,0,0,0-7.71,6.1239l-.003.003c-.19027.17232-.37752.34762-.56178.52289a64.13723,64.13723,0,0,0-13.71856,19.09305l-.0265.05413a62.34986,62.34986,0,0,0-3.3321,8.84018c-.44852,1.53439-.86655,3.13141-1.33567,4.70789q-2.39943.52324-4.667,1.05132-2.879.66649-5.54529,1.33721-1.15686.28374-2.27173.57308a22.23742,22.23742,0,0,1-4.36182,1.37227c-1.08231.24267-2.17391.44945-3.25932.68016l-.009.00306q-2.42952.68523-4.5838,1.33519c-.80674.24037-1.58657.4775-2.33347.71138-.0986.02778-.1942.05853-.2928.08931.18523-.77735.3734-1.56071.5736-2.33819,0-.006,0-.006.00293-.009a91.38921,91.38921,0,0,1,7.52635-20.26059c.10025-.19254.20045-.38808.3127-.57773a59.43748,59.43748,0,0,1,4.61818-7.27531c.2073-.2863.42359-.56967.64289-.85306l.003-.003q1.37811-1.77276,2.90985-3.436c.1781-.19618.36218-.39242.54628-.58564.08908-.09362.18115-.18724.27323-.28086.3445-.35633.698-.70973,1.0576-1.0512.5646-.54387,1.14727-1.07292,1.74207-1.58709a43.72955,43.72955,0,0,1,7.77343-5.34563c.0179-.00912.03876-.02129.05666-.03042,8.01276-4.30223,17.31128-5.99721,25.92605-3.475C582.62024,453.01227,582.83643,453.07638,583.05867,453.14641Z" transform="translate(-228.44483 -155.58301)" fill="#f0f0f0"/><path d="M531.05948,499.25324a25.05328,25.05328,0,0,1,4.5838-1.33519Q533.21376,498.60328,531.05948,499.25324Z" transform="translate(-228.44483 -155.58301)" fill="#fff"/><path d="M583.01013,453.43138c-.1884.03752-.37678.078-.56213.12149a54.56972,54.56972,0,0,0-11.36543,3.84192c-.185.08542-.367.1708-.546.25916a53.98668,53.98668,0,0,0-13.71556,9.385l-.003.003a1.25767,1.25767,0,0,0-.11292.10877l-.003.003q-1.41765,1.33726-2.73246,2.79349a23.40172,23.40172,0,0,0-4.14622,6.04031,13.05941,13.05941,0,0,0-1.09818,5.88907c.00767.20064.01834.40423.035.60778.01034.16166.02367.32331.04.48792.22518,2.22069.71119,4.46918.39137,6.70639a8.21881,8.21881,0,0,1-3.64657,5.61078q-1.15686.28374-2.27173.57308c.14328-.0611.2835-.12816.42371-.19823a8.32125,8.32125,0,0,0,4.79748-5.52752c.47845-2.25352-.02311-4.57077-.26948-6.81823-.039-.36213-.06888-.71833-.08684-1.07463a.25976.25976,0,0,1-.00338-.04789,13.66548,13.66548,0,0,1,.83878-5.74316,21.64624,21.64624,0,0,1,3.89644-6.179c1.02051-1.18868,2.10435-2.327,3.23958-3.40877.14556-.145.29417-.284.44281-.42005A55.56368,55.56368,0,0,1,570.534,456.989a55.35625,55.35625,0,0,1,11.864-4.04375c.1854-.04049.37375-.081.55917-.11849C583.33992,452.74868,583.3899,453.35334,583.01013,453.43138Z" transform="translate(-228.44483 -155.58301)" fill="#fff"/><path d="M556.29036,467.08986a8.14643,8.14643,0,0,1,.09881-10.54831c.25694-.29472.727.09071.4697.38581a7.54341,7.54341,0,0,0-.07186,9.81232c.25179.29917-.2463.64764-.49665.35018Z" transform="translate(-228.44483 -155.58301)" fill="#fff"/><path d="M548.53805,481.85943a15.70157,15.70157,0,0,0,11.01757-3.09066c.3122-.236.662.26094.35017.49665a16.332,16.332,0,0,1-11.47131,3.19281c-.38974-.04-.28406-.63862.10357-.5988Z" transform="translate(-228.44483 -155.58301)" fill="#fff"/><path d="M570.98984,457.23054a4.61125,4.61125,0,0,0,3.643,2.42361c.39006.03508.284.63365-.10357.5988a5.16728,5.16728,0,0,1-4.03609-2.67224.314.314,0,0,1,.07323-.42341.30539.30539,0,0,1,.42342.07324Z" transform="translate(-228.44483 -155.58301)" fill="#fff"/><path d="M614.98443,474.38253a18.88253,18.88253,0,0,1-6.00664,10.09467q-.32837.28778-.6715.56081c-.56081.0492-1.11917.10086-1.67014.155q-.68627.06273-1.36023.13037l-.07872.00737-.05656-.49194-.22876-1.98744a11.26985,11.26985,0,0,1-.98881-9.71835,24.08443,24.08443,0,0,1,3.63055-5.88363c1.94318-2.58271,3.8347-5.13589,3.90357-8.28188a18.79086,18.79086,0,0,1,3.83716,9.65685A18.33345,18.33345,0,0,1,614.98443,474.38253Z" transform="translate(-228.44483 -155.58301)" fill="#e6e6e6"/><path d="M624.92906,466.53111c-4.38568,3.1878-4.23564,9.82164-7.33734,14.26882a11.10311,11.10311,0,0,1-3.60348,3.26651,11.42211,11.42211,0,0,1-1.20526.59524q-2.28016.1771-4.47669.37633c-.56081.0492-1.11917.10086-1.67014.155q-.68627.06273-1.36023.13037c-.00246-.1648-.00246-.33206.00246-.49687a18.95083,18.95083,0,0,1,4.56523-11.937c.13528-.15742.273-.30992.41323-.46242a18.44868,18.44868,0,0,1,5.03751-3.80273A18.78145,18.78145,0,0,1,624.92906,466.53111Z" transform="translate(-228.44483 -155.58301)" fill="#f2f2f2"/><path d="M607.15514,483.65565l-.34436,1.02079-.17463.51654q-.68627.06273-1.36023.13037l-.07872.00737c-.49931.05166-.99372.10086-1.48566.15252q-.19556-.22509-.38371-.45752a18.58121,18.58121,0,0,1,2.4179-26.09266c-.551,2.88031.5559,5.586,1.80789,8.3163a36.09584,36.09584,0,0,1,2.29,5.64012,12.5969,12.5969,0,0,1,.30747,1.47091A11.26431,11.26431,0,0,1,607.15514,483.65565Z" transform="translate(-228.44483 -155.58301)" fill="#f2f2f2"/><path d="M694.03035,485.60811c-.08767.13946-.17932.27495-.273.40843-.22314-.02391-.4443-.04583-.66545-.06974q-.57977-.05974-1.15755-.11953c-.04781-.004-.09562-.01-.14344-.014l-.23908-.46422-.44628-.86467a9.11888,9.11888,0,0,1-3.53839-7.07678,19.52464,19.52464,0,0,1,1.0619-5.50283c.7312-2.51234,1.43051-4.98881.57978-7.38958a15.24418,15.24418,0,0,1,5.67816,6.21609,14.8653,14.8653,0,0,1,1.41655,4.44689A15.31518,15.31518,0,0,1,694.03035,485.60811Z" transform="translate(-228.44483 -155.58301)" fill="#e6e6e6"/><path d="M700.12092,479.29041a9.12865,9.12865,0,0,1-5.11434,6.03678l-.30881.35464-.34666.40046c-.19724-.02192-.39647-.04384-.59371-.06575-.22314-.02391-.4443-.04583-.66545-.06974q-.57977-.05974-1.15755-.11953c-.05579-.14943-.1056-.30085-.15341-.45426a15.34855,15.34855,0,0,1,.20123-9.8521q.08368-.2361.17931-.46621a14.98286,14.98286,0,0,1,2.72552-4.32337,15.1974,15.1974,0,0,1,6.69425-4.35325C699.17654,470.05,701.19279,475.03279,700.12092,479.29041Z" transform="translate(-228.44483 -155.58301)" fill="#f2f2f2"/><path d="M693.076,485.5065l.01594.4403q-.57977-.05974-1.15755-.11953c-.04781-.004-.09562-.01-.14344-.014q-1.41954-.14344-2.82514-.269c-.2092-.1574-.41639-.32078-.61762-.49411a15.00094,15.00094,0,0,1-3.47663-18.92122c.40842,2.339,2.02422,4.07035,3.75754,5.77579a29.67009,29.67009,0,0,1,3.35311,3.61609,10.30524,10.30524,0,0,1,.65548,1.028,9.13767,9.13767,0,0,1,.39847,7.90162Z" transform="translate(-228.44483 -155.58301)" fill="#f2f2f2"/><path d="M772.92291,503.10446a.29466.29466,0,0,1-.28454.20968.31394.31394,0,0,1-.08987-.015,423.76236,423.76236,0,0,0-81.83707-17.21687c-.29653-.033-.59606-.0659-.89259-.09885-.33547-.03594-.668-.0689-1.00043-.10484q-.87164-.08983-1.74026-.17971c-.07189-.006-.14377-.015-.21565-.021q-2.13414-.21565-4.24733-.40436a426.06267,426.06267,0,0,0-70.67965-.49123q-2.77662.21566-5.45141.45827c-.68292.05991-1.36285.12282-2.03379.1887q-.83568.07641-1.6564.15876l-.09585.009c-.608.06291-1.21009.12282-1.80914.18572q-3.67071.3819-7.13477.80871c-44.87231,5.50234-72.89616,16.59087-73.17472,16.7017a.2998.2998,0,0,1-.22165-.55712c.27856-.11082,28.35933-11.22333,73.30052-16.73464q3.37419-.41334,6.76335-.77578c.73685-.07788,1.47068-.15276,2.20752-.22765.05691-.006.11383-.009.16774-.015.623-.06289,1.24305-.1228,1.866-.18271.88062-.08387,1.75823-.16473,2.63884-.24261q3.04621-.27406,6.10141-.50021a422.79427,422.79427,0,0,1,60.38786-.14977q3.94928.27407,7.89556.623c1.60547.13779,3.21093.29055,4.81642.44929.11382.012.22764.024.34445.03594.65.06291,1.297.1318,1.94693.2007.47925.04792.95549.09883,1.43475.15276.33547.03595.67094.07189,1.00341.11083a426.14705,426.14705,0,0,1,81.49561,17.24981A.29479.29479,0,0,1,772.92291,503.10446Z" transform="translate(-228.44483 -155.58301)" fill="#ccc"/><path d="M599.94273,426.399a11.2266,11.2266,0,0,0,4.47228,6.27771c.84472.57513,1.84414,1.12685,2.13311,2.10707a2.5096,2.5096,0,0,1-.26167,1.84207,7.45327,7.45327,0,0,1-1.15655,1.51l-.04094.15337a13.61,13.61,0,0,1-5.24842-4.95754,6.68963,6.68963,0,0,1,.10219-6.93271" transform="translate(-228.44483 -155.58301)" fill="#f2f2f2"/><path d="M705.574,437.52508a6.68958,6.68958,0,0,1,.10219-6.93271,11.22664,11.22664,0,0,0,4.47227,6.2777c.84472.57513,1.84414,1.12686,2.13312,2.10707a2.50964,2.50964,0,0,1-.26167,1.84207,7.45374,7.45374,0,0,1-1.15656,1.51l-.04094.15336A13.60981,13.60981,0,0,1,705.574,437.52508Z" transform="translate(-228.44483 -155.58301)" fill="#f2f2f2"/><path d="M660.34523,491.14062a6.6896,6.6896,0,0,1,.10219-6.93272,11.2266,11.2266,0,0,0,4.47228,6.27771c.84472.57513,1.84413,1.12685,2.13311,2.10707a2.50965,2.50965,0,0,1-.26167,1.84207,7.45368,7.45368,0,0,1-1.15656,1.51l-.04094.15337A13.61,13.61,0,0,1,660.34523,491.14062Z" transform="translate(-228.44483 -155.58301)" fill="#f2f2f2"/><circle cx="495.25063" cy="200.61189" r="15.27594" fill="#ff6584"/><path d="M751.26266,344.47448c-7.40338-1.0007-15.85556,3.00088-17.77439,10.221a6.46876,6.46876,0,0,0-12.30866.63162l.84757.607a111.5066,111.5066,0,0,0,48.12184-.21757C764.99927,350.30437,758.66605,345.47517,751.26266,344.47448Z" transform="translate(-228.44483 -155.58301)" fill="#f0f0f0"/><path d="M719.51268,364.8424c-7.40338-1.00071-15.85556,3.00087-17.7744,10.221a6.46877,6.46877,0,0,0-12.30866.63162l.84758.60705a111.50691,111.50691,0,0,0,48.12184-.21757C733.24929,370.67228,726.91607,365.84308,719.51268,364.8424Z" transform="translate(-228.44483 -155.58301)" fill="#f0f0f0"/><path d="M749.88754,481.28939a10.88659,10.88659,0,0,1-1.06721-.46558c-.01754.02706-.03467.05457-.05224.08158Z" transform="translate(-228.44483 -155.58301)" fill="#e6e6e6"/><path d="M588.758,363.2421a6.68961,6.68961,0,0,1,.10219-6.93271,11.22667,11.22667,0,0,0,4.47228,6.27771c.84472.57512,1.84414,1.12685,2.13311,2.10706a2.5096,2.5096,0,0,1-.26167,1.84207,7.45338,7.45338,0,0,1-1.15656,1.51l-.04093.15336A13.60991,13.60991,0,0,1,588.758,363.2421Z" transform="translate(-228.44483 -155.58301)" fill="#f2f2f2"/><path d="M772.63848,544.34947a.294.294,0,0,1-.09039-.014,422.93023,422.93023,0,0,0-193.609-14.61282c-6.071.97376-12.15824,2.09846-18.09264,3.34308-1.515.31737-3.08684.65755-4.67165,1.01178-1.89267.42151-3.76019.85559-5.55092,1.28967q-1.16008.27467-2.27483.55372c-1.12572.27788-2.268.56746-3.4924.88571-1.36821.35277-2.75835.72279-4.1327,1.09983l-.01536.00439.00015.00029c-1.55234.42385-3.09649.86-4.58974,1.29552-.8082.23342-1.58861.46362-2.33612.6909-.08351.02311-.15751.04534-.23254.06816l-.16059.04885c-.093.02837-.18486.05616-.27671.08248l-.00585.00176.00014.00029-.24307.07547c-.28988.08775-.57273.17345-.85091.25887-7.35189,2.26635-11.39347,3.87865-11.4334,3.89445a.29953.29953,0,1,1-.22289-.55606c.04022-.0158,4.10155-1.63629,11.4802-3.91112.2792-.08571.56279-.17141.85354-.25946l.22582-.0702.0234-.00761c.09141-.026.18267-.05382.2754-.0819l.16088-.04885c.08014-.02427.15912-.04826.24-.07049.74238-.22582,1.52543-.45661,2.33567-.6909,1.49384-.43584,3.03945-.872,4.593-1.2964l.01463-.00439v-.00029c1.37917-.37821,2.77444-.7497,4.147-1.10363,1.22634-.31854,2.37078-.60871,3.4984-.88718q1.1195-.27861,2.27922-.55489c1.79278-.43466,3.6641-.86933,5.56014-1.29171,1.58729-.35452,3.16171-.69559,4.67924-1.01325,5.94362-1.24667,12.04036-2.37312,18.12058-3.34834a423.52422,423.52422,0,0,1,193.88436,14.6333.29944.29944,0,0,1-.09009.585Z" transform="translate(-228.44483 -155.58301)" fill="#ccc"/><path d="M578.18158,508.27794c3.6721-1.49857,21.07571-3.481,25.029-3.188a.44968.44968,0,0,0,.0501-.89741c-4.12009-.30543-21.67264,1.7288-25.496,3.28909-.53446.21811-.11567,1.01362.41685.7963Z" transform="translate(-228.44483 -155.58301)" fill="#ccc"/><path d="M527.80842,519.7583a25.7662,25.7662,0,0,1,11.65426-1.586.44968.44968,0,0,0,.06833-.89621,26.78294,26.78294,0,0,0-12.12316,1.67759c-.53879.2072-.13626,1.01107.40057.80462Z" transform="translate(-228.44483 -155.58301)" fill="#ccc"/><path d="M673.215,504.2616a25.76638,25.76638,0,0,1,11.74215.67774.44968.44968,0,0,0,.23888-.86649,26.783,26.783,0,0,0-12.21991-.67773c-.56851.10006-.32756.96618.23888.86648Z" transform="translate(-228.44483 -155.58301)" fill="#ccc"/><path d="M761.13648,457.73494l4.43347-3.50984a18.24468,18.24468,0,0,0-3.23375-8.161c-.31746,5.26974-5.83937,8.62542-7.86126,13.50219a10.97422,10.97422,0,0,0,.59776,9.49331l.30371,3.99893a18.38925,18.38925,0,0,0,9.81443-11.864,17.76266,17.76266,0,0,0,.54895-4.42225C763.509,457.37218,761.13648,457.73494,761.13648,457.73494Z" transform="translate(-228.44483 -155.58301)" fill="#213fa4"/><path d="M750.67071,493.03619c-1.768.406-3.31252.64213-3.31252.64213l2.73562-2.16571a10.22885,10.22885,0,0,1-.55393-5.52354,18.12055,18.12055,0,0,0-.49723,27.87274l1.36-3.77282a10.97413,10.97413,0,0,0,3.10974-8.98941C753.168,498.31075,751.75312,495.67259,750.67071,493.03619Z" transform="translate(-228.44483 -155.58301)" fill="#213fa4"/><path d="M748.79884,449.12587a30.555,30.555,0,0,0-2.63877,2.61851l1.41249-3.261a3.91482,3.91482,0,0,0-3.28285.2179,4.37064,4.37064,0,0,0-1.9942,3.3541,7.34385,7.34385,0,0,0,.8423,3.90893,11.35223,11.35223,0,0,0,5.08346,5.09061,16.73849,16.73849,0,0,0,2.521-5.34743,6.87476,6.87476,0,0,0-1.05777-5.745A4.5161,4.5161,0,0,0,748.79884,449.12587Z" transform="translate(-228.44483 -155.58301)" fill="#213fa4"/><path d="M770.72138,484.992l4.10989-3.25365a17.91077,17.91077,0,0,0,.14069-5.58952c-2.76157,4.49943-9.21308,4.85953-13.29321,8.20968a10.97415,10.97415,0,0,0-3.943,8.65637l-1.61514,3.67083a18.38917,18.38917,0,0,0,14.24488-5.84475,18.13017,18.13017,0,0,0,3.806-6.52309C772.34692,484.74337,770.72138,484.992,770.72138,484.992Z" transform="translate(-228.44483 -155.58301)" fill="#213fa4"/><path d="M748.23882,513.12068q-1.17714,1.51862-2.49508,2.9234c.3265.09885.644.1947.9555.29055q1.15468-1.25353,2.20154-2.59692.1752-.22464.35045-.45827a42.75785,42.75785,0,0,0,3.43258-5.28368,43.57859,43.57859,0,0,0,4.31321-11.28921c.018-.06889.03294-.1348.04793-.20368.24262-1.08429.4433-2.18057.59906-3.27984.03294-.22165.06289-.44629.09285-.66794q.11232-.91208.18869-1.82413a41.56651,41.56651,0,0,0,.018-6.66151,43.45447,43.45447,0,0,0-2.35431-11.11548c-.08985-.25461-.17971-.5092-.27856-.76081-.05391-.14977-.11082-.29953-.16773-.4493a43.45972,43.45972,0,0,0-6.21521-10.98669c-.09585-.1228-.1917-.24261-.28755-.36241q-.34144-.42684-.69191-.84468a.38888.38888,0,0,0-.632.03.45909.45909,0,0,0-.006.60505c.18868.22465.37739.45229.55712.68292.22464.27258.44029.55114.65.83269a42.65412,42.65412,0,0,1,8.39278,20.946,41.57312,41.57312,0,0,1-.83569,14.02691h-.003a42.22975,42.22975,0,0,1-2.74069,8.04832q-.35493.77277-.73985,1.53059a41.802,41.802,0,0,1-2.19852,3.831Q749.386,511.65152,748.23882,513.12068Z" transform="translate(-228.44483 -155.58301)" fill="#3f3d56"/><path d="M740.30927,517.44084a25.76633,25.76633,0,0,1,11.74214.67774.44968.44968,0,0,0,.23888-.86649,26.78311,26.78311,0,0,0-12.2199-.67774c-.56852.10007-.32757.96619.23888.86649Z" transform="translate(-228.44483 -155.58301)" fill="#ccc"/><path d="M424.46343,587.919v49.97a12.048,12.048,0,0,0,12.03,12.03H869.4334a12.048,12.048,0,0,0,12.03-12.03v-49.97Z" transform="translate(-228.44483 -155.58301)" fill="#f0f0f0"/><path id="b405c775-c625-4fc1-a95a-61245d5ac2c5-1483" data-name="a1ca5f83-7fa1-45b1-9d3b-bf096f25c0e5" d="M380.31927,359.33833v-20.2574a27.14453,27.14453,0,1,0-54.289-.03487v.03487c-4.78419,9.9695-1.79117,14.70932,0,20.2574a3.65074,3.65074,0,0,0,3.64465,3.64465h46.99793A3.65077,3.65077,0,0,0,380.31927,359.33833Z" transform="translate(-228.44483 -155.58301)" fill="#2f2e41"/><polygon points="119.704 285.866 118.447 291.855 117.379 313.946 160.311 308.133 163.607 282.553 159.05 275.066 119.704 285.866" fill="#ffb6b6"/><circle cx="133.62998" cy="185.76494" r="20.31865" fill="#ffb7b7"/><path d="M331.46343,413.919l-5.58692-14.51632A26.87974,26.87974,0,0,1,346.69285,373.203l.07666-.018,4.01777-5.4135,16.32346,1.6329,2.99191,6.11472,11.82818,7.043,13.45241,15.752a17.3129,17.3129,0,0,1,7.4813,11.59487c1.54614,9.876-5.36866,19.75765-6.19119,20.89064l-2.11926,11.93561-49.00132,7.02223-.37434.04733Z" transform="translate(-228.44483 -155.58301)" fill="#213fa4"/><path d="M340.81046,346.67464c.18416-.02911.36832-.06792.55247-.097,3.16943-.56212,6.33879-1.11453,9.49851-1.68646l.29082-7.16256,3.82843,6.41622c8.73283,2.898,16.90348,1.26006,24.58952-2.35517a69.42068,69.42068,0,0,0,7.36623-4.06105,26.92718,26.92718,0,0,0-13.2301-19.05521c-.29076-.16482-.57181-.31011-.86263-.45564a.00948.00948,0,0,1-.00964-.0097c-.49432-.2326-.99835-.45551-1.50237-.659a22.38167,22.38167,0,0,0-23.49427,4.55536C341.63435,328.02654,338.84294,337.8061,340.81046,346.67464Z" transform="translate(-228.44483 -155.58301)" fill="#2f2e41"/><polygon points="217.392 563.591 229.29 558.794 216.452 510.618 198.891 517.697 217.392 563.591" fill="#ffb6b6"/><path d="M440.52013,714.4934l18.3565-8.70414,3.24824,8.0586L484.98518,718.99a5.42724,5.42724,0,0,1,.83831,10.32891L463.43067,738.345l-7.07276-6.41541,1.706,8.57864-8.443,3.40318Z" transform="translate(-228.44483 -155.58301)" fill="#2f2e41"/><polygon points="98.675 562.324 111.504 562.323 117.607 512.841 98.673 512.842 98.675 562.324" fill="#ffb6b6"/><path d="M320.14365,616.37134l-.00047-.13251,4.81873-8.30382-4.92048-10.80926-.34927-65.69415c-1.938-47.47365,25.60385-70.29424,25.8206-70.51856l.59725-.62092,44.16981-1.08093s76.1378,223.5135,62.18361,225.70778h0l-20,11L397.7895,601.96725,395.693,596.592c-3.75579-.6919-13.51961-38.584-13.51961-38.584-1.63653-1.9432-1.55228-7.22573-1.55228-7.22573l-12.7889-13.42733-11.78749,61.891,2.91481,18.46-2.4122,6.34736-9.62422,73.572-.10979.8443h-26.2328Z" transform="translate(-228.44483 -155.58301)" fill="#2f2e41"/><path d="M322.77584,711.57835l20.27949-1.21041v8.68861l19.28028,13.31566a5.42724,5.42724,0,0,1-3.08394,9.89335h-24.1435l-4.16149-8.59438-1.62486,8.59438h-9.10306Z" transform="translate(-228.44483 -155.58301)" fill="#2f2e41"/><path d="M435.47793,473.29209a8.87576,8.87576,0,0,1-9.82569-9.41727l-40.58327-9.7612L355.41254,422.5583,371.51106,411.909l20.97006,26.02382,43.26456,17.638a8.92384,8.92384,0,0,1-.26775,17.72128Z" transform="translate(-228.44483 -155.58301)" fill="#ffb6b6"/><path d="M334.61407,390.78075s-4.07787,2.31439,2.43989,9.81164c5.218,6.00212,31.86317,41.269,41.05481,47.38792a6.97267,6.97267,0,0,0,2.54717,8.16l14.77263-17.5636c-.69772-5.15282-4.165-4.97282-6.1241-4.39561l-6.97492-13.5394-21.344-32.55779-23.45347.97157Z" transform="translate(-228.44483 -155.58301)" fill="#213fa4"/><circle cx="652.27801" cy="467.13226" r="45.74058" fill="#213fa4"/><path d="M874.48288,646.52112a5.08656,5.08656,0,0,1-4.07-2.03562l-12.47873-16.63858a5.08789,5.08789,0,1,1,8.14083-6.1052l8.164,10.88452,20.96821-31.4519a5.0881,5.0881,0,1,1,8.46711,5.64474l-24.95746,37.43619a5.09017,5.09017,0,0,1-4.09235,2.2642C874.57729,646.52029,874.53009,646.52112,874.48288,646.52112Z" transform="translate(-228.44483 -155.58301)" fill="#fff"/><path d="M430.8442,726.95889l-7.71-12.39-1.54,7.08008c-.27,1.24-.54,2.5-.79,3.75-2.18994-1.87012-4.52-3.6001-6.7998-5.26q-10.5-7.62012-20.99024-15.26l2.18994,12.7c1.3501,7.82007,2.76026,15.8,6.1001,22.94995.37012.81006.77,1.61011,1.2002,2.39014h32.54a10.488,10.488,0,0,0,.54-2.24011.77484.77484,0,0,0,.00976-.15C436.10446,735.67886,433.42428,731.10891,430.8442,726.95889Z" transform="translate(-228.44483 -155.58301)" fill="#f0f0f0"/><path d="M505.38552,744.10965l-275.75.30734a1.19069,1.19069,0,1,1,0-2.38137l275.75-.30734a1.19069,1.19069,0,0,1,0,2.38137Z" transform="translate(-228.44483 -155.58301)" fill="#cacaca"/></svg>