<svg width="1396" height="400" viewBox="0 0 1396 400" fill="none" xmlns="http://www.w3.org/2000/svg">
<g clip-path="url(#clip0_168_402056)">
<rect width="1396" height="400" rx="20" fill="#190066"/>
<g clip-path="url(#clip1_168_402056)">
<path d="M30.0649 301.251C13.3928 301.251 -0.122566 314.766 -0.122566 331.438C-0.122566 348.11 13.3928 361.626 30.0649 361.626C46.737 361.626 60.2524 348.11 60.2524 331.438C60.2524 314.766 46.737 301.251 30.0649 301.251Z" fill="#6119EF"/>
<path d="M271.568 240.875C254.896 240.875 241.38 254.39 241.38 271.062C241.38 287.734 254.896 301.25 271.568 301.25C288.24 301.25 301.755 287.734 301.755 271.062C301.755 254.39 288.24 240.875 271.568 240.875Z" fill="#FCD6FF"/>
<path d="M-0.122566 301.25H60.2524V240.875H-0.122566V301.25Z" fill="#1C1C1C"/>
<path d="M90.4407 120.114C73.7686 120.114 60.2532 133.629 60.2532 150.301C60.2532 166.973 73.7686 180.489 90.4407 180.489C107.113 180.489 120.628 166.973 120.628 150.301C120.628 133.629 107.113 120.114 90.4407 120.114Z" fill="#6119EF"/>
<path d="M20.0204 160.383H40.1382V140.265H20.0204V160.383Z" fill="white"/>
<path d="M211.192 59.7476C194.52 59.7476 181.005 73.263 181.005 89.9351C181.005 106.607 194.52 120.123 211.192 120.123C227.864 120.123 241.38 106.607 241.38 89.9351C241.38 73.263 227.864 59.7476 211.192 59.7476Z" fill="#6119EF"/>
<path d="M140.771 100.007H160.889V79.8892H140.771V100.007Z" fill="white"/>
<path d="M60.2532 120.123H120.628V59.7476H60.2532V120.123Z" fill="#FCD6FF"/>
<path d="M30.0649 59.7476C13.3928 59.7476 -0.122566 73.263 -0.122566 89.9351C-0.122566 106.607 13.3928 120.123 30.0649 120.123C46.737 120.123 60.2524 106.607 60.2524 89.9351C60.2524 73.263 46.737 59.7476 30.0649 59.7476Z" fill="#6119EF"/>
<path d="M241.38 59.7471H301.755V-0.627937H241.38V59.7471Z" fill="#61DFFF"/>
<path d="M201.147 39.6316H221.264V19.5137H201.147V39.6316Z" fill="white"/>
<path d="M140.771 39.6316H160.889V19.5137H140.771V39.6316Z" fill="white"/>
<path d="M80.3949 39.6316H100.513V19.5137H80.3949V39.6316Z" fill="white"/>
<path d="M20.0194 39.6316H40.1372V19.5137H20.0194V39.6316Z" fill="white"/>
</g>
<g clip-path="url(#clip2_168_402056)">
<path d="M1365.81 50.9993C1349.14 50.9993 1335.63 37.4839 1335.63 20.8118C1335.63 4.13967 1349.14 -9.37573 1365.81 -9.37573C1382.49 -9.37573 1396 4.13967 1396 20.8118C1396 37.4839 1382.49 50.9993 1365.81 50.9993Z" fill="#FCD6FF"/>
<path d="M1335.63 51.0098H1396V111.385H1335.63V51.0098Z" fill="#1C1C1C"/>
<path d="M1335.63 111.376H1396V171.751H1335.63V111.376Z" fill="#1C1C1C"/>
<path d="M1355.77 191.867H1375.89V211.985H1355.77V191.867Z" fill="white"/>
<path d="M1245.06 232.126C1228.39 232.126 1214.88 218.611 1214.88 201.939C1214.88 185.267 1228.39 171.751 1245.06 171.751C1261.74 171.751 1275.25 185.267 1275.25 201.939C1275.25 218.611 1261.74 232.126 1245.06 232.126Z" fill="#6119EF"/>
<path d="M1355.77 252.252H1375.89V272.37H1355.77V252.252Z" fill="white"/>
<path d="M1305.44 247.231C1297.12 247.231 1290.35 254.002 1290.35 262.325C1290.35 270.648 1297.12 277.418 1305.44 277.418C1313.76 277.418 1320.53 270.648 1320.53 262.325C1320.53 254.002 1313.76 247.231 1305.44 247.231ZM1305.44 232.137C1322.11 232.137 1335.63 245.657 1335.63 262.325C1335.63 278.993 1322.11 292.512 1305.44 292.512C1288.77 292.512 1275.25 278.993 1275.25 262.325C1275.25 245.657 1288.77 232.137 1305.44 232.137Z" fill="#61DFFF"/>
</g>
</g>
<defs>
<clipPath id="clip0_168_402056">
<rect width="1396" height="400" rx="20" fill="white"/>
</clipPath>
<clipPath id="clip1_168_402056">
<rect width="318" height="506" fill="white" transform="matrix(1 0 0 -1 0 506)"/>
</clipPath>
<clipPath id="clip2_168_402056">
<rect width="614" height="385" fill="white" transform="matrix(-1 0 0 1 1396 -93)"/>
</clipPath>
</defs>
</svg>
