<?xml version="1.0" encoding="UTF-8"?>
<svg id="People_3_Icon" data-name="People 3 Icon" xmlns="http://www.w3.org/2000/svg" viewBox="0 0 72 72">
  <path d="M44.39,12.67c-.74-.9-1.61-1.71-2.57-2.38-2.05-1.42-4.54-2.26-7.22-2.26-3.46,0-6.6,1.4-8.88,3.65-.86.85-1.6,1.82-2.19,2.89-1.01,1.82-1.58,3.9-1.58,6.12,0,.66.05,1.3.15,1.93.19,1.23.55,2.4,1.07,3.48,2.03,4.28,6.39,7.24,11.43,7.24,4.32,0,8.14-2.17,10.43-5.48.66-.96,1.19-2.01,1.56-3.13.44-1.27.67-2.63.67-4.04,0-3.04-1.08-5.83-2.87-8.02ZM34.6,29.84c-5.05,0-9.15-4.1-9.15-9.15s4.1-9.16,9.15-9.16,9.16,4.11,9.16,9.16-4.11,9.15-9.16,9.15Z" fill="#fff" stroke-width="0"/>
  <path d="M59.68,50.47c.04,1.35-.15,2.59-.58,3.7-.29.77-.69,1.47-1.2,2.1-3.2,3.96-10.22,6.5-19.27,6.98-.99.05-2,.08-3.03.08-9.02,0-19.3-2.05-24.17-6.92-1.89-1.89-2.55-4.61-1.92-7.88.07-.38.17-.77.28-1.16.29-1.09.71-2.2,1.23-3.3,2.47-5.24,7.07-10.17,10.49-11.63.89-.38,1.92.03,2.3.92s-.03,1.91-.92,2.29c-2.87,1.23-6.97,5.89-8.95,10.47-.18.38-.33.77-.46,1.16-.23.65-.41,1.29-.53,1.91-.41,2.11-.09,3.7.95,4.74,3.92,3.92,14.25,6.37,24.55,5.82,7.94-.42,14.19-2.54,16.73-5.68,1.32-1.64,1.1-4,.68-5.69-1.32-5.35-6.31-11.33-9.55-12.73-.89-.38-1.3-1.41-.92-2.29.39-.89,1.41-1.3,2.3-.92,4.67,2,10.07,9.06,11.57,15.1.25,1.02.39,2,.42,2.93Z" fill="#fff" stroke-width="0"/>
  <path d="M12.61,17.85c0,3.28,2.67,5.95,5.95,5.95,1.29,0,2.52-.41,3.54-1.18.19,1.23.55,2.4,1.07,3.48-1.39.78-2.97,1.2-4.61,1.2-5.21,0-9.45-4.24-9.45-9.45s4.24-9.45,9.45-9.45c2.78,0,5.38,1.24,7.16,3.28-.86.85-1.6,1.82-2.19,2.89-1.1-1.65-2.96-2.67-4.97-2.67-3.28,0-5.95,2.67-5.95,5.95Z" fill="#fff" stroke-width="0"/>
  <path d="M3.77,38.08c-.25,1.31-.07,2.28.54,2.88,1.28,1.29,3.68,2.39,6.71,3.11-.52,1.1-.94,2.21-1.23,3.3-2.79-.7-5.93-1.9-7.96-3.93-1.01-1.02-2.1-2.89-1.49-6.03.94-4.9,5.49-10.33,8.77-11.74.89-.38,1.92.04,2.3.93.38.88-.03,1.91-.92,2.29-2.13.91-5.98,5.39-6.72,9.19Z" fill="#fff" stroke-width="0"/>
  <path d="M61.15,17.88c0,6.15-5.01,11.15-11.16,11.15-1.74,0-3.43-.4-4.96-1.17.66-.96,1.19-2.01,1.56-3.13,1.05.53,2.21.8,3.4.8,4.22,0,7.66-3.43,7.66-7.65s-3.44-7.66-7.66-7.66c-2.15,0-4.17.89-5.6,2.45-.74-.9-1.61-1.71-2.57-2.38,2.09-2.26,5.03-3.57,8.17-3.57,6.15,0,11.16,5.01,11.16,11.16Z" fill="#fff" stroke-width="0"/>
  <path d="M70.27,48.71c-2.6,3.22-7.35,4.73-11.17,5.46.43-1.11.62-2.35.58-3.7,3.71-.85,6.46-2.22,7.87-3.96,1.08-1.33.89-3.29.54-4.7-1.12-4.54-5.35-9.63-8.09-10.81-.89-.38-1.3-1.41-.92-2.29.38-.89,1.41-1.3,2.3-.92,4.08,1.75,8.8,7.91,10.11,13.18.77,3.12.35,5.8-1.22,7.74Z" fill="#fff" stroke-width="0"/>
</svg>