<?xml version="1.0" encoding="UTF-8"?>
<svg id="Layer_2" data-name="Layer 2" xmlns="http://www.w3.org/2000/svg" viewBox="0 0 72 39.28">
  <path d="m16.94,31.07c0,3.48-2.22,6.45-5.37,7.64-.96.37-2.01.57-3.1.57-.7,0-1.38-.08-2.03-.24-3.7-.88-6.44-4.11-6.44-7.97,0-3.78,2.64-6.96,6.23-7.91.71-.19,1.46-.29,2.24-.29,1.02,0,2,.17,2.9.5,3.25,1.14,5.57,4.16,5.57,7.7Z" fill="#fff" stroke-width="0"/>
  <path d="m61.83,11.687c0,3.566-2.984,6.456-6.665,6.456s-6.665-2.89-6.665-6.456,2.984-6.456,6.665-6.456,6.665,2.89,6.665,6.456Z" fill="#fff" stroke-width="0"/>
  <path d="m72,31.07c0,3.86-2.74,7.09-6.44,7.97-.65.16-1.33.24-2.03.24-1.09,0-2.14-.2-3.1-.57-3.15-1.19-5.37-4.16-5.37-7.64,0-3.54,2.32-6.56,5.57-7.7.9-.33,1.88-.5,2.9-.5.78,0,1.53.1,2.24.29,3.59.95,6.23,4.13,6.23,7.91Z" fill="#fff" stroke-width="0"/>
  <path d="m66.131,23.264c-.82-.256-1.694-.394-2.601-.394-1.363,0-2.651.312-3.791.866.402,1.7.614,3.47.614,5.288h6.353c0-1.971-.198-3.896-.575-5.76Z" fill="#fff" stroke-width="0"/>
  <path d="m6.23,23.16c-.62,2.42-.94,4.95-.94,7.55,0,.12,0,.24.01.36h5c-.01-.12-.01-.24-.01-.36,0-2.55.37-5.01,1.08-7.34,3.16-10.61,13.01-18.37,24.63-18.37,6.86,0,13.1,2.7,17.72,7.11l3.55-3.55C51.75,3.26,44.26,0,36,0,21.64,0,9.59,9.85,6.23,23.16Z" fill="#fff" stroke-width="0"/>
</svg>