<?xml version="1.0" encoding="UTF-8"?>
<svg id="Layer_2" data-name="Layer 2" xmlns="http://www.w3.org/2000/svg" viewBox="0 0 72 72">
  <path d="M54.249,37.81c1.61,0,2.916-1.306,2.916-2.916s-1.306-2.916-2.916-2.916-2.916,1.306-2.916,2.916,1.306,2.916,2.916,2.916Z"/>
  <path d="M61.168,54.481c0,1.416-1.157,2.58-2.58,2.58H8.336c-1.416,0-2.58-1.157-2.58-2.58V7.508c0-1.416,1.158-2.58,2.58-2.58l48.273-.006c1.416,0,2.58,1.158,2.58,2.58v.188c-.278-.032-.556-.045-.841-.045l-45.511.006c-.543,0-.989.446-.989.989v4.093h45.686c2.018,0,3.673,1.649,3.673,3.673v1.882h4.966v-2.819c0-2.716-1.403-5.121-3.524-6.525v-1.28C62.649,3.363,59.131-.006,54.831,0l-4.21.007-31.945.006H7.23C3.325.013.13,3.207.13,7.113v48.305c0,3.893,3.188,7.081,7.081,7.087h51.861c3.557,0,7.158-2.722,7.178-6.098h.013v-4.882h-5.096v2.955Z"/>
  <path d="M67.595,21.314h-17.938c-7.424,0-13.489,6.072-13.489,13.489s6.072,13.489,13.489,13.489h17.938c2.431,0,4.423-1.992,4.423-4.423v-18.132c0-2.431-1.992-4.423-4.423-4.423ZM66.25,43.358h-15.914c-4.701,0-8.549-3.848-8.549-8.549s3.848-8.549,8.549-8.549h15.914v17.097Z"/>
</svg>