<svg xmlns="http://www.w3.org/2000/svg" width="16" height="16" viewBox="0 0 16 16" fill="none">
  <path d="M13.3996 2.99999C13.3996 2.66749 13.1321 2.39999 12.7996 2.39999C12.4671 2.39999 12.1996 2.66749 12.1996 2.99999V13C12.1996 13.3325 12.4671 13.6 12.7996 13.6C13.1321 13.6 13.3996 13.3325 13.3996 13V2.99999ZM9.59961 4.79999C9.26711 4.79999 8.99961 5.06749 8.99961 5.39999V13C8.99961 13.3325 9.26711 13.6 9.59961 13.6C9.93211 13.6 10.1996 13.3325 10.1996 13V5.39999C10.1996 5.06749 9.93211 4.79999 9.59961 4.79999ZM6.99961 8.59999C6.99961 8.26749 6.73211 7.99999 6.39961 7.99999C6.06711 7.99999 5.79961 8.26749 5.79961 8.59999V13C5.79961 13.3325 6.06711 13.6 6.39961 13.6C6.73211 13.6 6.99961 13.3325 6.99961 13V8.59999ZM3.79961 11.8C3.79961 11.4675 3.53211 11.2 3.19961 11.2C2.86711 11.2 2.59961 11.4675 2.59961 11.8V13C2.59961 13.3325 2.86711 13.6 3.19961 13.6C3.53211 13.6 3.79961 13.3325 3.79961 13V11.8Z" fill="currentColor"/>
</svg>
