<?xml version="1.0" encoding="UTF-8"?>
<svg id="Layer_4" data-name="Layer 4" xmlns="http://www.w3.org/2000/svg" viewBox="0 0 72 72">
  <path d="m35.277,72c-15.914,0-28.861-12.947-28.861-28.86s12.947-28.861,28.861-28.861,28.861,12.947,28.861,28.861-12.947,28.86-28.861,28.86Zm0-52.425c-12.993,0-23.564,10.571-23.564,23.564s10.571,23.563,23.564,23.563,23.564-10.571,23.564-23.563-10.571-23.564-23.564-23.564Z" fill="#121212" stroke-width="0"/>
  <circle cx="35.277" cy="43.139" r="5.298" fill="#121212" stroke-width="0"/>
  <path d="m37.722,39.278h-4.785l.964-13.247c.054-.749.678-1.329,1.429-1.329h0c.751,0,1.375.58,1.429,1.329l.964,13.247Z" fill="#121212" stroke-width="0"/>
  <rect x="53.122" y="13.056" width="11.815" height="6.722" transform="translate(28.898 -36.932) rotate(45)" fill="#121212" stroke-width="0"/>
  <rect x="30.097" y="7.46" width="10.466" height="3.565" fill="#121212" stroke-width="0"/>
  <rect x="26.039" width="18.581" height="7.46" fill="#121212" stroke-width="0"/>
</svg>