<?xml version="1.0" encoding="UTF-8"?>
<svg id="Layer_1" data-name="Layer 1" xmlns="http://www.w3.org/2000/svg" viewBox="0 0 72 63.325">
  <path d="m21.288,63.325h-.006s-.005.001-.006,0h-.005s-.003,0-.005,0c-.002.001-.004,0-.006,0h0s-.004.001-.006,0h-.005s-.003,0-.005,0h-.001s-.004.001-.006,0c-.002,0-.003-.001-.005-.001h-.033c-.124-.004-.249-.018-.372-.039,0,0-.003,0-.006-.001h0s-.005-.001-.006-.001c-.003,0-.004-.002-.006-.001s-.004-.001-.005-.001c-.003,0-.005-.001-.006-.001s-.001-.001-.006-.001c-.002,0-.004-.002-.005-.001-.002-.001-.003-.002-.006-.001-.001,0-.003-.001-.005-.001s-.004-.001-.006-.001c-.001,0-.003-.001-.005-.001-.002-.001-.003-.001-.006-.001-.002,0-.003-.002-.005-.001h-.001s-.004-.002-.005-.001c-.002-.001-.003-.001-.005-.001h0c-.283-.059-.558-.165-.814-.317L1.402,51.928c-.804-.478-1.297-1.345-1.297-2.281v-20.41c-.005-.232.021-.463.075-.685.032-.13.073-.257.123-.379.231-.564.655-1.051,1.236-1.351,0,0,.001-.001.002-.001.021-.011.041-.021.062-.032l18.496-9.046c.041-.021.082-.04.124-.059.345-.151.707-.223,1.063-.223h.004c.349,0,.704.069,1.043.215.05.021.099.044.148.068l6.975,3.412v-9.38c-.005-.235.022-.469.078-.695.031-.125.071-.247.119-.365.231-.569.66-1.06,1.247-1.361,0,0,.001,0,.003-.002.017-.008.033-.017.05-.025L49.45.282c.04-.02.082-.039.124-.058.344-.151.706-.223,1.063-.223h.004c.348,0,.701.068,1.038.213.052.022.103.045.153.071l18.492,9.045c.019.009.036.018.055.027.582.298,1.008.783,1.24,1.346,0,0,.001.001.001.002h0c.052.127.095.258.128.393.053.221.079.45.074.68v20.411c0,.936-.493,1.803-1.297,2.281l-18.528,11.022h0s-.005.004-.005.003c-.002.002-.005.003-.005.003-.001.001-.002.001-.003.002,0,0-.001.002-.004.002-.001.001-.002.001-.003.002,0,0-.002.001-.005.003h0c-.117.067-.239.125-.362.174,0,0-.002.002-.005.002,0,0-.003,0-.004.002t-.005.002s-.003.001-.005.001c0,.002-.004.002-.004.002-.002.002-.003.002-.005.002s-.003.002-.005.002-.003.002-.005.002c-.001,0-.002.001-.004.001,0,0-.004.002-.005.002h0c-.363.134-.748.186-1.127.157h-.005s-.003.001-.005-.001h-.011s-.004-.001-.006-.001h-.005s-.002-.001-.004-.001h-.005s-.003-.002-.005-.001h-.005s-.001,0-.005-.001h-.005s-.003,0-.004-.001h-.001c-.166-.017-.331-.05-.493-.099h0s-.003-.001-.005-.002h0s-.004-.001-.005-.001c0,0-.003,0-.005-.002h-.001s-.003-.001-.004-.001h-.001s-.003-.002-.004-.002h-.001s-.003-.001-.006-.002c-.001,0-.002-.001-.003-.001,0,.001-.002,0-.005-.002-.003,0-.003-.001-.005-.001s-.003,0-.005-.002c-.001,0-.002-.001-.005-.001,0-.002-.004-.002-.004-.002-.002,0-.005,0-.005-.002-.001,0-.004-.001-.005-.001-.002-.002-.003-.002-.005-.002s-.004-.001-.004-.001c-.12-.04-.239-.09-.353-.148h-.001s-.002-.002-.004-.002c0,0-.002-.001-.004-.003t-.005-.002s-.001,0-.002-.001c0,0-.003-.003-.005-.002,0-.002-.004-.003-.004-.003-.001,0-.002-.001-.002-.001-.001,0-.002-.001-.004-.002,0,0-.001-.002-.005-.002h0s-.003-.002-.005-.003h0c-.023-.012-.046-.025-.069-.038-.017-.009-.034-.02-.051-.03l-6.804-4.046v8.207c0,.936-.493,1.803-1.297,2.281l-18.529,11.023h0s-.003.002-.005.003c-.002.004-.004.004-.005.003,0,0,0,.001-.001.001-.245.143-.507.245-.776.304h0s-.004-.002-.005.002c-.002,0-.004.001-.006.001s-.004,0-.005.001c-.002-.001-.004,0-.005.001-.004.001-.004.001-.006.001-.002.002-.004.002-.005.001-.001,0-.003.001-.006.001-.002.001-.003.002-.005.001,0,0-.002.001-.006.001,0,0-.002.001-.005.001-.001,0-.003.001-.006.001,0,0-.002.001-.005.001-.001,0-.003.001-.006.001,0,0-.002.001-.005.001t0,.001c-.132.025-.265.039-.399.044h0s-.003.001-.005.001c0,0-.003,0-.005,0h-.027s-.004.001-.005.001h-.006s-.003,0-.005,0h-.007s-.004.001-.005,0h-.006s-.006.001-.005,0h-.005s-.004,0-.006,0h-.006Zm2.655-21.613v14.29l13.219-7.865v-11.322c-.001-.031-.001-.061,0-.092v-2.876l-13.219,7.865Zm-18.529,6.425l13.219,7.865v-14.29l-13.219-7.865v14.29Zm37.057-12.875l5.513,3.279v-14.29l-13.219-7.865v7.367l6.209,3.037c.019.009.036.018.055.027.588.302,1.017.795,1.249,1.366.047.115.085.232.115.353.057.228.084.464.079.702v6.024Zm10.822-11.011v14.29l13.219-7.864v-14.29l-13.219,7.864Zm-44.958,5.157l12.953,7.705,12.953-7.705-3.256-1.592c-.026-.012-.053-.025-.079-.039l-9.618-4.704-12.953,6.335Zm29.35-17.461l12.953,7.705,12.952-7.705-12.952-6.335-12.953,6.335Z" fill="#fff" stroke-width="0"/>
</svg>