<svg xmlns="http://www.w3.org/2000/svg" width="16" height="16" viewBox="0 0 16 16" fill="none">
  <path fill-rule="evenodd" clip-rule="evenodd" d="M0 10.2223C0 9.43083 0.547566 8.76026 1.30441 8.52985C1.91979 5.56792 4.68367 3.33334 8.00016 3.33334C10.3858 3.33334 12.4854 4.48954 13.7053 6.24101C13.1914 6.28789 12.7044 6.4215 12.261 6.62618C11.2703 5.43318 9.73002 4.66668 8.00016 4.66668C5.4284 4.66668 3.2756 6.3609 2.72485 8.63203C3.34147 8.92399 3.76474 9.52646 3.76474 10.2223C3.76474 11.2041 2.92197 12 1.88237 12C0.842769 12 0 11.2041 0 10.2223ZM14.1177 12C15.1573 12 16 11.2041 16 10.2223C16 9.27109 15.2092 8.49444 14.2145 8.44678C14.1825 8.4453 14.1502 8.44452 14.1177 8.44452C13.8149 8.44452 13.5285 8.51207 13.2752 8.63203C12.6585 8.92399 12.2352 9.52646 12.2352 10.2223C12.2352 11.2041 13.0781 12 14.1177 12Z" fill="currentColor"/>
</svg>
