<?xml version="1.0" encoding="UTF-8"?>
<svg id="Layer_3" data-name="Layer 3" xmlns="http://www.w3.org/2000/svg" viewBox="0 0 72 49.778">
  <path d="m67,5v39.778H5V5h62m1.767-5H3.233C1.447,0,0,1.447,0,3.233v43.312c0,1.785,1.447,3.233,3.233,3.233h65.534c1.785,0,3.233-1.447,3.233-3.233V3.233c0-1.785-1.447-3.233-3.233-3.233h0Z" fill="#fff" stroke-width="0"/>
  <path d="m9.736,20.477v-3.471l5.908-2.319-5.908-2.286v-3.452l10.145,4.377v2.733l-10.145,4.417Z" fill="#fff" stroke-width="0"/>
  <rect x="9.743" y="23.378" width="37.656" height="3.479" fill="#fff" stroke-width="0"/>
  <rect x="9.743" y="29.594" width="48.042" height="3.479" fill="#fff" stroke-width="0"/>
  <rect x="9.743" y="35.809" width="26.567" height="3.479" fill="#fff" stroke-width="0"/>
</svg>