<?xml version="1.0" encoding="utf-8"?>
<!-- Generator: Adobe Illustrator 28.0.0, SVG Export Plug-In . SVG Version: 6.00 Build 0)  -->
<svg version="1.1" id="Layer_1" xmlns="http://www.w3.org/2000/svg" xmlns:xlink="http://www.w3.org/1999/xlink" x="0px" y="0px"
	 viewBox="0 0 389.4 110.9" style="enable-background:new 0 0 389.4 110.9;" xml:space="preserve">
<style type="text/css">
	.st0{fill:#121212;}
</style>
<path class="st0" d="M102.1,110.9H85.9V32.1h16.2V110.9z"/>
<path class="st0" d="M160.6,30.5c8.9,0,16.2,3.1,21.9,9.4c5.7,6.3,8.5,14.2,8.5,23.9v47h-16.2V66.3c0-6.1-2-11.1-5.9-15
	c-3.9-4-8.7-5.9-14.5-5.9c-6.5,0-11.8,2-15.9,5.9c-4.1,4-6.2,9-6.2,15v44.6h-16.2V32.1h16.2v20.4c2.2-6.8,5.7-12.1,10.7-16
	C148.1,32.5,154,30.5,160.6,30.5L160.6,30.5z"/>
<path class="st0" d="M241.5,30.5c12.6,0,22.9,4.5,30.8,13.6c7.9,9.1,11.2,20,9.7,32.8h-65.2c1.1,6.4,4.1,11.5,8.8,15.5
	c4.7,4,10.4,5.9,17.1,5.9c5.1,0,9.7-1.3,13.8-3.8c4.1-2.5,7.2-5.9,9.5-10.3l13.6,6c-3.5,6.7-8.5,12-15,16c-6.5,4-13.9,6-22.4,6
	c-11.8,0-21.7-3.9-29.8-11.7c-8-7.8-12-17.5-12-29.1s3.9-21.4,11.8-29.2C220.1,34.5,229.9,30.5,241.5,30.5L241.5,30.5z M241.5,44.6
	c-6,0-11.1,1.8-15.5,5.5c-4.4,3.6-7.3,8.4-8.7,14.3h48.4c-1.3-5.9-4.2-10.6-8.6-14.3C252.8,46.4,247.6,44.6,241.5,44.6z"/>
<path class="st0" d="M326.8,30.5c9.5,0,17.2,2.5,23.1,7.4c6,4.9,8.9,12,8.9,21.3v51.7h-16.2v-21c-4.8,15-14.5,22.5-29.1,22.5
	c-6.8,0-12.4-2-17-6.1c-4.5-4.1-6.8-9.4-6.8-16c0-7.7,2.7-13.5,8.2-17.3c5.4-3.8,12.4-6.2,20.8-7.2l15.3-1.5
	c5.8-0.5,8.6-3.1,8.6-7.7c0-3.8-1.5-6.8-4.4-9.1c-2.9-2.3-6.8-3.4-11.5-3.4s-8.9,1.2-12.3,3.7c-3.3,2.5-5.5,6.1-6.4,10.8l-16-3.9
	c1.4-7.4,5.3-13.3,11.6-17.7C310,32.7,317.7,30.5,326.8,30.5L326.8,30.5z M318.8,99.3c6.7,0,12.3-2.2,17-6.7
	c4.6-4.5,6.9-9.7,6.9-15.7v-4.3c-1.2,2.1-4.2,3.3-8.9,3.9l-15,1.8c-3.9,0.5-7,1.7-9.3,3.5S306,86,306,89.1c0,3.1,1.2,5.6,3.5,7.4
	C311.8,98.4,314.9,99.3,318.8,99.3L318.8,99.3z"/>
<path class="st0" d="M74.8,110.9H0V32.1h17.1v63.5h57.7V110.9z"/>
<path class="st0" d="M374.2,30.5c8.4,0,15.3-6.8,15.3-15.3c0-8.4-6.8-15.3-15.3-15.3c-8.4,0-15.3,6.8-15.3,15.3
	C358.9,23.7,365.7,30.5,374.2,30.5z"/>
</svg>
