<svg width="228" height="38" viewBox="0 0 228 38" fill="none" xmlns="http://www.w3.org/2000/svg">
<path d="M34.353 37.0321H28.9711V10.8425H34.353V37.0321Z" fill="currentColor"/>
<path d="M53.7997 10.3284C56.7707 10.3284 59.1978 11.3701 61.0784 13.4536C62.9562 15.5371 63.8978 18.1861 63.8978 21.3979V37.0294H58.516V22.2177C58.516 20.2019 57.8666 18.5351 56.5678 17.2201C55.269 15.9051 53.6644 15.2475 51.7514 15.2475C49.5976 15.2475 47.8388 15.9051 46.4724 17.2201C45.1059 18.5351 44.4214 20.2019 44.4214 22.2177V37.0294H39.0395V10.8425H44.4214V17.607C45.1384 15.3531 46.3263 13.5753 47.9849 12.2766C49.6409 10.9778 51.5809 10.3284 53.8024 10.3284H53.7997Z" fill="currentColor"/>
<path d="M80.6766 10.3284C84.8787 10.3284 88.2962 11.8328 90.9262 14.839C93.5563 17.8478 94.6332 21.4844 94.1543 25.7569H72.4753C72.8514 27.8756 73.8255 29.5938 75.3975 30.9088C76.9696 32.2238 78.8637 32.8813 81.0852 32.8813C82.7925 32.8813 84.3213 32.4619 85.6715 31.6258C87.0217 30.7897 88.0716 29.6533 88.8238 28.2165L93.3344 30.2161C92.1736 32.4376 90.5149 34.2126 88.3638 35.5466C86.2127 36.8805 83.7342 37.5462 80.9309 37.5462C77.0021 37.5462 73.7037 36.2474 71.0385 33.6525C68.3732 31.0576 67.0393 27.8269 67.0393 23.9657C67.0393 20.1045 68.3462 16.8683 70.96 14.2518C73.5738 11.638 76.81 10.3311 80.6739 10.3311L80.6766 10.3284ZM80.6766 14.9932C78.6932 14.9932 76.9777 15.5993 75.5247 16.8142C74.0717 18.0264 73.1057 19.6066 72.6295 21.5548H88.7237C88.2799 19.6066 87.3302 18.0264 85.8799 16.8142C84.4269 15.602 82.6924 14.9932 80.6766 14.9932Z" fill="currentColor"/>
<path d="M109.034 10.3284C112.178 10.3284 114.74 11.1482 116.721 12.788C118.701 14.4277 119.694 16.7872 119.694 19.861V37.0321H114.313V30.0619C112.705 35.0514 109.477 37.5462 104.626 37.5462C102.369 37.5462 100.491 36.8724 98.9869 35.5222C97.4824 34.172 96.7329 32.4051 96.7329 30.2188C96.7329 27.6564 97.6367 25.7326 99.4496 24.4527C101.26 23.1729 103.568 22.3774 106.368 22.0689L111.442 21.5548C113.355 21.3843 114.313 20.5293 114.313 18.9924C114.313 17.7288 113.826 16.7195 112.851 15.97C111.877 15.2178 110.606 14.8417 109.034 14.8417C107.461 14.8417 106.068 15.253 104.959 16.0728C103.849 16.8927 103.14 18.0886 102.832 19.6607L97.5014 18.3782C97.9803 15.9186 99.2601 13.9623 101.346 12.5093C103.43 11.0589 105.992 10.3311 109.034 10.3311V10.3284ZM106.368 33.1871C108.59 33.1871 110.468 32.443 112.005 30.9575C113.541 29.472 114.31 27.7376 114.31 25.7542V24.3201C113.901 25.0047 112.908 25.4295 111.336 25.6L106.366 26.2142C105.067 26.3874 104.033 26.7689 103.265 27.3669C102.496 27.9649 102.112 28.7766 102.112 29.8021C102.112 30.8276 102.496 31.6475 103.265 32.2617C104.033 32.8759 105.067 33.1844 106.366 33.1844L106.368 33.1871Z" fill="currentColor"/>
<path d="M25.2642 37.0321H0.405853V10.8425H6.09348V31.9587H25.2642V37.0321Z" fill="currentColor"/>
<path d="M124.768 10.3284C127.57 10.3284 129.841 8.05693 129.841 5.25497C129.841 2.453 127.57 0.181564 124.768 0.181564C121.966 0.181564 119.694 2.453 119.694 5.25497C119.694 8.05693 121.966 10.3284 124.768 10.3284Z" fill="currentColor"/>
<path d="M211.921 32.1287L214.764 31.5675C215.163 33.8871 216.797 35.0469 219.665 35.0469C221.112 35.0469 222.284 34.7601 223.182 34.1864C224.105 33.5878 224.566 32.8271 224.566 31.9042C224.566 30.9564 224.142 30.2331 223.294 29.7343C222.471 29.2354 221.473 28.8862 220.301 28.6867C219.129 28.4622 217.944 28.2253 216.747 27.9758C215.575 27.7015 214.565 27.1777 213.716 26.4045C212.893 25.6313 212.482 24.5713 212.482 23.2244C212.482 21.6281 213.155 20.3187 214.502 19.296C215.849 18.2485 217.57 17.7247 219.665 17.7247C221.71 17.7247 223.381 18.1986 224.678 19.1464C225.975 20.0942 226.774 21.3787 227.073 22.9999L224.267 23.5611C223.843 21.2665 222.309 20.1191 219.665 20.1191C218.393 20.1191 217.346 20.3935 216.522 20.9422C215.699 21.4909 215.288 22.2143 215.288 23.1122C215.288 23.9851 215.699 24.6586 216.522 25.1325C217.37 25.5814 218.381 25.9057 219.553 26.1052C220.75 26.3047 221.935 26.5542 223.107 26.8535C224.304 27.1278 225.314 27.6765 226.138 28.4996C226.986 29.3227 227.41 30.4326 227.41 31.8294C227.41 33.4506 226.674 34.785 225.202 35.8326C223.731 36.8801 221.885 37.4039 219.665 37.4039C217.52 37.4039 215.762 36.93 214.39 35.9822C213.043 35.0344 212.22 33.7499 211.921 32.1287Z" fill="currentColor"/>
<path d="M193.709 34.5979C191.813 32.7023 190.866 30.3578 190.866 27.5643C190.866 24.7708 191.813 22.4387 193.709 20.5681C195.63 18.6725 197.999 17.7247 200.817 17.7247C202.863 17.7247 204.684 18.261 206.28 19.3335C207.901 20.381 209.098 21.8152 209.871 23.6359L207.29 24.5339C206.716 23.2369 205.856 22.2143 204.708 21.466C203.561 20.7177 202.264 20.3436 200.817 20.3436C198.822 20.3436 197.139 21.042 195.767 22.4387C194.42 23.8105 193.746 25.5191 193.746 27.5643C193.746 29.6095 194.42 31.3305 195.767 32.7273C197.139 34.0991 198.822 34.785 200.817 34.785C202.264 34.785 203.561 34.4109 204.708 33.6626C205.856 32.9143 206.716 31.8917 207.29 30.5947L209.871 31.4927C209.098 33.3134 207.901 34.7601 206.28 35.8326C204.684 36.8801 202.863 37.4039 200.817 37.4039C197.999 37.4039 195.63 36.4686 193.709 34.5979Z" fill="currentColor"/>
<path d="M171.513 34.5979C169.617 32.7023 168.669 30.3578 168.669 27.5643C168.669 24.7708 169.617 22.4387 171.513 20.5681C173.433 18.6725 175.803 17.7247 178.621 17.7247C181.44 17.7247 183.797 18.6725 185.692 20.5681C187.613 22.4387 188.573 24.7708 188.573 27.5643C188.573 30.3578 187.613 32.7023 185.692 34.5979C183.797 36.4686 181.44 37.4039 178.621 37.4039C175.803 37.4039 173.433 36.4686 171.513 34.5979ZM173.57 22.4387C172.224 23.8105 171.55 25.5191 171.55 27.5643C171.55 29.6095 172.224 31.3305 173.57 32.7273C174.942 34.0991 176.626 34.785 178.621 34.785C180.641 34.785 182.325 34.0991 183.672 32.7273C185.019 31.3555 185.692 29.6345 185.692 27.5643C185.692 25.4941 185.019 23.7731 183.672 22.4013C182.325 21.0295 180.641 20.3436 178.621 20.3436C176.626 20.3436 174.942 21.042 173.57 22.4387Z" fill="currentColor"/>
<path d="M153.466 37.0298H144.225V10.8407H153.466C157.232 10.8407 160.375 12.1003 162.894 14.6194C165.438 17.1136 166.71 20.2189 166.71 23.9353C166.71 27.6516 165.438 30.7694 162.894 33.2885C160.375 35.7827 157.232 37.0298 153.466 37.0298ZM147.143 13.497V34.3735H153.279C156.272 34.3735 158.754 33.3758 160.724 31.3804C162.72 29.3851 163.717 26.9033 163.717 23.9353C163.717 20.9422 162.72 18.4605 160.724 16.4901C158.754 14.4947 156.272 13.497 153.279 13.497H147.143Z" fill="currentColor"/>
</svg>
