<?xml version="1.0" encoding="UTF-8"?>
<svg id="Layer_1" data-name="Layer 1" xmlns="http://www.w3.org/2000/svg" xmlns:xlink="http://www.w3.org/1999/xlink" viewBox="0 0 51.442 58.31">
  <defs>
    <clipPath id="clippath">
      <rect x="-10.667" y="-385.99" width="542.33" height="543" fill="none"/>
    </clipPath>
  </defs>
  <g clip-path="url(#clippath)">
    <g>
      <path d="M47.155,45.31c-1.196,0-2.193,1-2.193,2.2s.997,2.2,2.193,2.2,2.193-1,2.193-2.2-.996-2.2-2.193-2.2Z" fill="#6119ef"/>
      <path d="M47.155,34.51c-2.392,0-4.286,1.9-4.286,4.3s1.894,4.3,4.286,4.3,4.287-1.9,4.287-4.3-1.894-4.3-4.287-4.3Z" fill="#6119ef"/>
      <path d="M37.684,38.81c0-.5.399-.9.898-.9s.897.4.897.9-.399.9-.897.9-.898-.4-.898-.9Z" fill="none" stroke="#6119ef" stroke-width="2.5"/>
      <path d="M47.155,28.11c-1.196,0-2.193,1-2.193,2.2s.997,2.2,2.193,2.2,2.193-1,2.193-2.2-.996-2.2-2.193-2.2Z" fill="#fff068"/>
      <path d="M35.591,30.21c0-1.7,1.396-3.1,3.09-3.1s3.091,1.4,3.091,3.1-1.396,3.1-3.091,3.1-3.09-1.4-3.09-3.1Z" fill="none" stroke="#6119ef" stroke-width="2.5"/>
      <path d="M30.008,28.11c-1.196,0-2.193,1-2.193,2.2s.997,2.2,2.193,2.2,2.193-1,2.193-2.2-.997-2.2-2.193-2.2Z" fill="#ff8d4c"/>
      <path d="M47.155,19.51c-1.196,0-2.193,1-2.193,2.2s.997,2.2,2.193,2.2,2.193-1,2.193-2.2-.996-2.2-2.193-2.2Z" fill="#fff068"/>
      <path d="M37.684,21.61c0-.5.399-.9.898-.9s.897.4.897.9-.399.9-.897.9-.898-.4-.898-.9Z" fill="none" stroke="#6119ef" stroke-width="2.5"/>
      <path d="M29.111,21.61c0-.5.399-.9.897-.9s.897.4.897.9-.398.9-.897.9-.897-.4-.897-.9Z" fill="none" stroke="#6119ef" stroke-width="2.5"/>
      <path d="M21.435,19.51c-1.197,0-2.194,1-2.194,2.2s.997,2.2,2.194,2.2,2.193-1,2.193-2.2-.997-2.2-2.193-2.2Z" fill="#6119ef"/>
      <path d="M47.155,8.71c-2.392,0-4.286,1.9-4.286,4.3s1.894,4.3,4.286,4.3,4.287-1.9,4.287-4.3-1.894-4.3-4.287-4.3Z" fill="#fff068"/>
      <path d="M38.582,8.71c-2.393,0-4.287,1.9-4.287,4.3s1.894,4.3,4.287,4.3,4.287-1.9,4.287-4.3-1.895-4.3-4.287-4.3Z" fill="#fff068"/>
      <path d="M30.008,10.81c-1.196,0-2.193,1-2.193,2.2s.997,2.2,2.193,2.2,2.193-1,2.193-2.2-.997-2.2-2.193-2.2Z" fill="#fff068"/>
      <path d="M21.434,8.71c-2.392,0-4.286,1.9-4.286,4.3s1.894,4.3,4.286,4.3,4.287-1.9,4.287-4.3-1.894-4.3-4.287-4.3Z" fill="#fff068"/>
      <path d="M47.155,2.21c-1.196,0-2.193,1-2.193,2.2s.997,2.2,2.193,2.2,2.193-1,2.193-2.2-.996-2.2-2.193-2.2Z" fill="#6119ef"/>
      <path d="M38.582,2.21c-1.197,0-2.194,1-2.194,2.2s.997,2.2,2.194,2.2,2.193-1,2.193-2.2-.997-2.2-2.193-2.2Z" fill="#fcd6ff"/>
      <path d="M30.008,2.21c-1.196,0-2.193,1-2.193,2.2s.997,2.2,2.193,2.2,2.193-1,2.193-2.2-.997-2.2-2.193-2.2Z" fill="#6119ef"/>
      <path d="M18.444,4.41c0-1.7,1.395-3.1,3.09-3.1s3.091,1.4,3.091,3.1-1.396,3.1-3.091,3.1-3.09-1.4-3.09-3.1Z" fill="none" stroke="#6119ef" stroke-width="2.5"/>
      <path d="M12.861,2.21c-1.196,0-2.193,1-2.193,2.2s.997,2.2,2.193,2.2,2.193-1,2.193-2.2-.997-2.2-2.193-2.2Z" fill="#ff8d4c"/>
    </g>
  </g>
</svg>