<?xml version="1.0" encoding="UTF-8"?>
<svg id="Layer_1" data-name="Layer 1" xmlns="http://www.w3.org/2000/svg" xmlns:xlink="http://www.w3.org/1999/xlink" viewBox="0 0 58.022 60.3">
  <defs>
    <clipPath id="clippath">
      <rect x="-429.776" y="-52" width="542.33" height="543" fill="none"/>
    </clipPath>
  </defs>
  <g clip-path="url(#clippath)">
    <g>
      <path d="M4.287,8.6c2.393,0,4.287-1.9,4.287-4.3S6.68,0,4.287,0,0,1.9,0,4.3s1.895,4.3,4.287,4.3Z" fill="#ff8d4c"/>
      <path d="M4.287,15.1c1.196,0,2.193-1,2.193-2.2s-.997-2.2-2.193-2.2-2.193,1-2.193,2.2.997,2.2,2.193,2.2Z" fill="#61dfff"/>
      <path d="M12.961,15.1c1.196,0,2.193-1,2.193-2.2s-.997-2.2-2.193-2.2-2.194,1-2.194,2.2.997,2.2,2.194,2.2Z" fill="#fcd6ff"/>
      <path d="M4.287,23.7c1.196,0,2.193-1,2.193-2.2s-.997-2.2-2.193-2.2-2.193,1-2.193,2.2.997,2.2,2.193,2.2Z" fill="#6119ef"/>
      <path d="M12.961,23.7c1.196,0,2.193-1,2.193-2.2s-.997-2.2-2.193-2.2-2.194,1-2.194,2.2.997,2.2,2.194,2.2Z" fill="#6119ef"/>
      <path d="M21.534,23.7c1.196,0,2.193-1,2.193-2.2s-.997-2.2-2.193-2.2-2.193,1-2.193,2.2.997,2.2,2.193,2.2Z" fill="#61dfff"/>
      <path d="M4.287,32.3c1.196,0,2.193-1,2.193-2.2s-.997-2.2-2.193-2.2-2.193,1-2.193,2.2.997,2.2,2.193,2.2Z" fill="#ff8d4c"/>
      <path d="M12.961,32.3c1.196,0,2.193-1,2.193-2.2s-.997-2.2-2.193-2.2-2.194,1-2.194,2.2.997,2.2,2.194,2.2Z" fill="#6119ef"/>
      <path d="M21.534,32.3c1.196,0,2.193-1,2.193-2.2s-.997-2.2-2.193-2.2-2.193,1-2.193,2.2.997,2.2,2.193,2.2Z" fill="#fcd6ff"/>
      <path d="M30.108,32.3c1.196,0,2.193-1,2.193-2.2s-.997-2.2-2.193-2.2-2.193,1-2.193,2.2.996,2.2,2.193,2.2Z" fill="#6119ef"/>
      <path d="M4.287,40.9c1.196,0,2.193-1,2.193-2.2s-.997-2.2-2.193-2.2-2.193,1-2.193,2.2.997,2.2,2.193,2.2Z" fill="#ff8d4c"/>
      <path d="M12.961,40.9c1.196,0,2.193-1,2.193-2.2s-.997-2.2-2.193-2.2-2.194,1-2.194,2.2.997,2.2,2.194,2.2Z" fill="#61dfff"/>
      <path d="M21.534,40.9c1.196,0,2.193-1,2.193-2.2s-.997-2.2-2.193-2.2-2.193,1-2.193,2.2.997,2.2,2.193,2.2Z" fill="#6119ef"/>
      <path d="M30.108,43.1c2.392,0,4.286-1.9,4.286-4.3s-1.894-4.3-4.286-4.3-4.287,1.9-4.287,4.3,1.894,4.3,4.287,4.3Z" fill="#6119ef"/>
      <path d="M39.579,38.8c0,.5-.399.9-.898.9s-.897-.4-.897-.9.399-.9.897-.9.898.4.898.9Z" fill="none" stroke="#6119ef" stroke-width="2.5"/>
      <path d="M4.287,51.7c2.393,0,4.287-1.9,4.287-4.3s-1.894-4.3-4.287-4.3-4.287,1.9-4.287,4.3,1.895,4.3,4.287,4.3Z" fill="#6119ef"/>
      <path d="M12.961,49.5c1.196,0,2.193-1,2.193-2.2s-.997-2.2-2.193-2.2-2.194,1-2.194,2.2.997,2.2,2.194,2.2Z" fill="#fcd6ff"/>
      <path d="M21.534,49.5c1.196,0,2.193-1,2.193-2.2s-.997-2.2-2.193-2.2-2.193,1-2.193,2.2.997,2.2,2.193,2.2Z" fill="#ff8d4c"/>
      <path d="M30.108,49.5c1.196,0,2.193-1,2.193-2.2s-.997-2.2-2.193-2.2-2.193,1-2.193,2.2.996,2.2,2.193,2.2Z" fill="#fff068"/>
      <path d="M41.672,47.4c0,1.7-1.396,3.1-3.09,3.1s-3.091-1.4-3.091-3.1,1.396-3.1,3.091-3.1,3.09,1.4,3.09,3.1Z" fill="none" stroke="#6119ef" stroke-width="2.5"/>
      <path d="M47.255,49.5c1.196,0,2.193-1,2.193-2.2s-.997-2.2-2.193-2.2-2.193,1-2.193,2.2.997,2.2,2.193,2.2Z" fill="#ff8d4c"/>
      <path d="M4.287,58.1c1.196,0,2.193-1,2.193-2.2s-.997-2.2-2.193-2.2-2.193,1-2.193,2.2.997,2.2,2.193,2.2Z" fill="#6119ef"/>
      <path d="M12.96,60.3c2.393,0,4.287-1.9,4.287-4.3s-1.894-4.3-4.287-4.3-4.286,1.9-4.286,4.3,1.894,4.3,4.286,4.3Z" fill="#fff068"/>
      <path d="M21.534,58.1c1.196,0,2.193-1,2.193-2.2s-.997-2.2-2.193-2.2-2.193,1-2.193,2.2.997,2.2,2.193,2.2Z" fill="#61dfff"/>
      <path d="M30.108,58.1c1.196,0,2.193-1,2.193-2.2s-.997-2.2-2.193-2.2-2.193,1-2.193,2.2.996,2.2,2.193,2.2Z" fill="#fff068"/>
      <path d="M39.579,56c0,.5-.399.9-.898.9s-.897-.4-.897-.9.399-.9.897-.9.898.4.898.9Z" fill="none" stroke="#6119ef" stroke-width="2.5"/>
      <path d="M48.152,56c0,.5-.399.9-.897.9s-.897-.4-.897-.9.398-.9.897-.9.897.4.897.9Z" fill="none" stroke="#6119ef" stroke-width="2.5"/>
      <path d="M55.828,58.1c1.197,0,2.194-1,2.194-2.2s-.997-2.2-2.194-2.2-2.193,1-2.193,2.2.997,2.2,2.193,2.2Z" fill="#6119ef"/>
    </g>
  </g>
</svg>