<svg width="1429" height="309" viewBox="0 0 1429 309" fill="none" xmlns="http://www.w3.org/2000/svg">
  <path d="M374.304 406.773H314.963V118.001H374.304V406.773Z" fill="currentColor" />
  <path
    d="M588.735 112.325C621.494 112.325 648.256 123.812 668.991 146.784C689.696 169.757 700.079 198.966 700.079 234.38V406.735H640.737V243.419C640.737 221.193 633.577 202.814 619.256 188.315C604.936 173.815 587.244 166.565 566.15 166.565C542.402 166.565 523.009 173.815 507.943 188.315C492.876 202.814 485.328 221.193 485.328 243.419V406.735H425.986V117.994H485.328V192.581C493.234 167.729 506.331 148.127 524.62 133.806C542.879 119.486 564.271 112.325 588.765 112.325H588.735Z"
    fill="currentColor" />
  <path
    d="M885.081 112.325C931.414 112.325 969.096 128.913 998.095 162.06C1027.09 195.236 1038.97 235.334 1033.69 282.443H794.651C798.799 305.804 809.539 324.749 826.873 339.249C844.207 353.749 865.092 360.999 889.586 360.999C908.412 360.999 925.268 356.374 940.156 347.155C955.044 337.936 966.619 325.406 974.914 309.563L1024.65 331.611C1011.85 356.106 993.56 375.677 969.842 390.386C946.123 405.094 918.794 412.434 887.885 412.434C844.565 412.434 808.197 398.113 778.809 369.501C749.422 340.89 734.713 305.267 734.713 262.693C734.713 220.118 749.124 184.436 777.944 155.586C806.764 126.765 842.447 112.355 885.051 112.355L885.081 112.325ZM885.081 163.76C863.212 163.76 844.297 170.443 828.275 183.839C812.254 197.205 801.603 214.629 796.352 236.11H973.81C968.917 214.629 958.445 197.205 942.453 183.839C926.432 170.473 907.308 163.76 885.081 163.76Z"
    fill="currentColor" />
  <path
    d="M1197.75 112.325C1232.42 112.325 1260.68 121.365 1282.52 139.445C1304.35 157.525 1315.3 183.541 1315.3 217.433V406.765H1255.96V329.911C1238.24 384.926 1202.65 412.434 1149.15 412.434C1124.27 412.434 1103.57 405.005 1086.98 390.117C1070.39 375.23 1062.13 355.748 1062.13 331.641C1062.13 303.388 1072.09 282.175 1092.08 268.063C1112.04 253.951 1137.49 245.18 1168.37 241.779L1224.31 236.11C1245.4 234.23 1255.96 224.803 1255.96 207.856C1255.96 193.923 1250.59 182.795 1239.85 174.531C1229.11 166.237 1215.09 162.09 1197.75 162.09C1180.42 162.09 1165.06 166.625 1152.82 175.665C1140.59 184.705 1132.77 197.892 1129.37 215.226L1070.6 201.084C1075.88 173.964 1089.99 152.393 1112.99 136.372C1135.97 120.381 1164.22 112.355 1197.75 112.355V112.325ZM1168.37 364.37C1192.86 364.37 1213.57 356.165 1230.51 339.786C1247.46 323.407 1255.93 304.283 1255.93 282.414V266.601C1251.43 274.149 1240.48 278.833 1223.14 280.713L1168.34 287.486C1154.02 289.395 1142.62 293.602 1134.15 300.195C1125.67 306.789 1121.44 315.739 1121.44 327.047C1121.44 338.354 1125.67 347.394 1134.15 354.166C1142.62 360.939 1154.02 364.34 1168.34 364.34L1168.37 364.37Z"
    fill="currentColor" />
  <path d="M274.093 406.773H0V118.001H62.7128V350.833H274.093V406.773Z" fill="currentColor" />
  <path
    d="M1371.24 112.314C1402.13 112.314 1427.18 87.2684 1427.18 56.3734C1427.18 25.4784 1402.13 0.433105 1371.24 0.433105C1340.34 0.433105 1315.3 25.4784 1315.3 56.3734C1315.3 87.2684 1340.34 112.314 1371.24 112.314Z"
    fill="currentColor" />
</svg>
  