<?xml version="1.0" encoding="UTF-8"?>
<svg id="Layer_2" data-name="Layer 2" xmlns="http://www.w3.org/2000/svg" viewBox="0 0 478.36 138.09">
  <defs>
    <style>
      .cls-1 {
        fill: #231f20;
      }
    </style>
  </defs>
  <g id="Layer_1-2" data-name="Layer 1">
    <g>
      <g>
        <g>
          <path class="cls-1" d="M125.46,136.19h-19.89V39.4h19.89v96.79Z"/>
          <path class="cls-1" d="M197.33,37.5c10.98,0,19.95,3.85,26.9,11.55,6.94,7.7,10.42,17.49,10.42,29.36v57.77h-19.89v-54.74c0-7.45-2.4-13.61-7.2-18.47-4.8-4.86-10.73-7.29-17.8-7.29-7.96,0-14.46,2.43-19.51,7.29-5.05,4.86-7.58,11.02-7.58,18.47v54.74h-19.89V39.4h19.89v25c2.65-8.33,7.04-14.9,13.17-19.7,6.12-4.8,13.29-7.2,21.5-7.2Z"/>
          <path class="cls-1" d="M296.66,37.5c15.53,0,28.16,5.56,37.88,16.67,9.72,11.12,13.7,24.56,11.93,40.35h-80.12c1.39,7.83,4.99,14.18,10.8,19.04,5.81,4.86,12.81,7.29,21.02,7.29,6.31,0,11.96-1.55,16.95-4.64,4.99-3.09,8.87-7.29,11.65-12.6l16.67,7.39c-4.29,8.21-10.42,14.77-18.37,19.7-7.95,4.93-17.11,7.39-27.47,7.39-14.52,0-26.71-4.8-36.56-14.39-9.85-9.59-14.78-21.53-14.78-35.8s4.83-26.23,14.49-35.9c9.66-9.66,21.62-14.49,35.9-14.49Zm0,17.24c-7.33,0-13.67,2.24-19.04,6.73-5.37,4.48-8.94,10.32-10.7,17.52h59.48c-1.64-7.2-5.15-13.04-10.51-17.52-5.37-4.48-11.78-6.73-19.23-6.73Z"/>
          <path class="cls-1" d="M401.46,37.5c11.62,0,21.09,3.03,28.41,9.09,7.32,6.06,10.99,14.78,10.99,26.14v63.46h-19.89v-25.76c-5.94,18.44-17.87,27.66-35.8,27.66-8.34,0-15.28-2.49-20.84-7.48-5.56-4.99-8.33-11.52-8.33-19.6,0-9.47,3.34-16.58,10.04-21.31,6.69-4.73,15.22-7.67,25.57-8.81l18.75-1.9c7.07-.63,10.61-3.79,10.61-9.47,0-4.67-1.8-8.4-5.4-11.17-3.6-2.78-8.3-4.17-14.11-4.17s-10.96,1.52-15.06,4.55c-4.1,3.03-6.72,7.45-7.86,13.26l-19.7-4.74c1.77-9.09,6.5-16.32,14.21-21.69,7.7-5.36,17.17-8.05,28.41-8.05Zm-9.85,84.48c8.21,0,15.15-2.75,20.83-8.24,5.68-5.49,8.52-11.9,8.52-19.23v-5.3c-1.51,2.53-5.18,4.1-10.99,4.73l-18.37,2.27c-4.8,.64-8.62,2.05-11.46,4.26-2.84,2.21-4.26,5.21-4.26,9s1.42,6.82,4.26,9.09c2.84,2.27,6.66,3.41,11.46,3.41Z"/>
        </g>
        <path class="cls-1" d="M91.87,136.19H0V39.4H21.02V117.44H91.87v18.75Z"/>
      </g>
      <circle class="cls-1" cx="459.61" cy="18.75" r="18.75"/>
    </g>
  </g>
</svg>