<?xml version="1.0" encoding="utf-8"?>
<!-- Generator: Adobe Illustrator 27.0.1, SVG Export Plug-In . SVG Version: 6.00 Build 0)  -->
<svg version="1.1" id="Layer_2_00000108997622999202680500000004803475157985489299_"
	 xmlns="http://www.w3.org/2000/svg" xmlns:xlink="http://www.w3.org/1999/xlink" x="0px" y="0px" viewBox="0 0 478.4 138.1"
	 style="enable-background:new 0 0 478.4 138.1;" xml:space="preserve">
<style type="text/css">
	.st0{fill:#FFFFFF;}
</style>
<g id="Layer_1-2">
	<g>
		<g>
			<g>
				<path class="st0" d="M125.5,136.2h-19.9V39.4h19.9V136.2z"/>
				<path class="st0" d="M197.3,37.5c11,0,19.9,3.8,26.9,11.5c6.9,7.7,10.4,17.5,10.4,29.4v57.8h-19.9V81.4c0-7.4-2.4-13.6-7.2-18.5
					s-10.7-7.3-17.8-7.3c-8,0-14.5,2.4-19.5,7.3c-5.1,4.9-7.6,11-7.6,18.5v54.7h-19.9V39.4h19.9v25c2.6-8.3,7-14.9,13.2-19.7
					C182,39.9,189.1,37.5,197.3,37.5L197.3,37.5z"/>
				<path class="st0" d="M296.7,37.5c15.5,0,28.2,5.6,37.9,16.7c9.7,11.1,13.7,24.6,11.9,40.3h-80.1c1.4,7.8,5,14.2,10.8,19
					s12.8,7.3,21,7.3c6.3,0,12-1.6,17-4.6c5-3.1,8.9-7.3,11.6-12.6l16.7,7.4c-4.3,8.2-10.4,14.8-18.4,19.7c-8,4.9-17.1,7.4-27.5,7.4
					c-14.5,0-26.7-4.8-36.6-14.4s-14.8-21.5-14.8-35.8s4.8-26.2,14.5-35.9C270.4,42.3,282.4,37.5,296.7,37.5L296.7,37.5z
					 M296.7,54.7c-7.3,0-13.7,2.2-19,6.7c-5.4,4.5-8.9,10.3-10.7,17.5h59.5c-1.6-7.2-5.1-13-10.5-17.5
					C310.5,57,304.1,54.7,296.7,54.7L296.7,54.7z"/>
				<path class="st0" d="M401.5,37.5c11.6,0,21.1,3,28.4,9.1s11,14.8,11,26.1v63.5H421v-25.8c-5.9,18.4-17.9,27.7-35.8,27.7
					c-8.3,0-15.3-2.5-20.8-7.5c-5.6-5-8.3-11.5-8.3-19.6c0-9.5,3.3-16.6,10-21.3c6.7-4.7,15.2-7.7,25.6-8.8l18.8-1.9
					c7.1-0.6,10.6-3.8,10.6-9.5c0-4.7-1.8-8.4-5.4-11.2c-3.6-2.8-8.3-4.2-14.1-4.2s-11,1.5-15.1,4.5s-6.7,7.5-7.9,13.3l-19.7-4.7
					c1.8-9.1,6.5-16.3,14.2-21.7C380.8,40.2,390.2,37.5,401.5,37.5L401.5,37.5z M391.6,122c8.2,0,15.1-2.8,20.8-8.2
					s8.5-11.9,8.5-19.2v-5.3c-1.5,2.5-5.2,4.1-11,4.7l-18.4,2.3c-4.8,0.6-8.6,2.1-11.5,4.3s-4.3,5.2-4.3,9s1.4,6.8,4.3,9.1
					C383,120.8,386.8,122,391.6,122L391.6,122z"/>
			</g>
			<path class="st0" d="M91.9,136.2H0V39.4h21v78h70.9V136.2z"/>
		</g>
		<circle class="st0" cx="459.6" cy="18.8" r="18.8"/>
	</g>
</g>
</svg>
