<svg width="324" height="82" viewBox="0 0 324 82" fill="none" xmlns="http://www.w3.org/2000/svg">
  <style>
    path {
    fill: #2C56DD;
    }
  </style>
  <path d="M130.531 54.5625V63H97.5938V54.5625H130.531ZM130.312 23.125L103.031 63H95.0938V57.2188L122.688 17.5H130.312V23.125ZM126.781 17.5V25.9688H94.9375V17.5H126.781ZM146.5 17.5V63H135.531V17.5H146.5ZM173.656 17.5L156.031 40.5625L145.719 51.8438L143.719 41.7812L150.312 31.7812L160.125 17.5H173.656ZM160.688 63L148.938 42.5L157.469 36.2188L173.656 63H160.688ZM223.719 54.5625V63H199.469V54.5625H223.719ZM203.375 17.5V63H192.406V17.5H203.375ZM220.594 35.5625V43.7188H199.469V35.5625H220.594ZM223.812 17.5V25.9688H199.469V17.5H223.812ZM245.438 52.2812L254.906 17.5H267.188L251.844 63H243.906L245.438 52.2812ZM236.844 17.5L246.312 52.2812L247.906 63H239.875L224.625 17.5H236.844ZM275.969 17.5H284.906L295.062 49.1562L305.219 17.5H314.156L298.688 63H291.438L275.969 17.5ZM270.531 17.5H279.781L281.5 52.375V63H270.531V17.5ZM310.344 17.5H319.625V63H308.625V52.375L310.344 17.5Z" fill="white"/>
  <path d="M37.3966 81.7095C37.3241 81.7095 37.2515 81.7638 37.2515 81.8547C37.2515 81.9274 37.306 82 37.3966 82C37.4694 82 37.542 81.9457 37.542 81.8547C37.5237 81.7821 37.4694 81.7095 37.3966 81.7095Z" fill="white"/>
  <path d="M33.5119 80.3645C33.3483 80.3645 33.2393 80.492 33.2393 80.6376C33.2393 80.8012 33.3666 80.9285 33.5119 80.9285C33.6755 80.9285 33.7846 80.8012 33.7846 80.6376C33.7846 80.492 33.6575 80.3645 33.5119 80.3645Z" fill="white"/>
  <path d="M29.7734 78.6204C29.5374 78.6204 29.3558 78.8022 29.3558 79.0384C29.3558 79.2745 29.5374 79.4561 29.7734 79.4561C30.0093 79.4561 30.1909 79.2745 30.1909 79.0384C30.1909 78.8022 30.0093 78.6204 29.7734 78.6204Z" fill="white"/>
  <path d="M26.2318 76.4763C25.9231 76.4763 25.6689 76.7307 25.6689 77.0396C25.6689 77.3485 25.9231 77.6027 26.2318 77.6027C26.5403 77.6027 26.7945 77.3485 26.7945 77.0396C26.7945 76.7307 26.5403 76.4763 26.2318 76.4763Z" fill="white"/>
  <path d="M22.9278 73.9869C22.5465 73.9869 22.2198 74.2957 22.2198 74.6774C22.2198 75.0589 22.5285 75.3859 22.9278 75.3859C23.3091 75.3859 23.6176 75.0771 23.6176 74.6774C23.6176 74.2957 23.3091 73.9869 22.9278 73.9869Z" fill="white"/>
  <path d="M19.8785 71.1526C19.4246 71.1526 19.0434 71.5341 19.0434 71.9884C19.0434 72.4607 19.4246 72.8242 19.8785 72.8242C20.3505 72.8242 20.7135 72.4427 20.7135 71.9884C20.7135 71.5161 20.3505 71.1526 19.8785 71.1526Z" fill="white"/>
  <path d="M17.1376 68.0099C16.593 68.0099 16.1573 68.4462 16.1573 68.9913C16.1573 69.5364 16.593 69.9724 17.1376 69.9724C17.6822 69.9724 18.1179 69.5364 18.1179 68.9913C18.1179 68.4462 17.664 68.0099 17.1376 68.0099Z" fill="white"/>
  <path d="M14.724 64.5926C14.1067 64.5926 13.5984 65.1014 13.5984 65.7193C13.5984 66.3369 14.1067 66.8458 14.724 66.8458C15.3412 66.8458 15.8495 66.3369 15.8495 65.7193C15.8495 65.1014 15.3412 64.5926 14.724 64.5926Z" fill="white"/>
  <path d="M13.9962 62.1578C13.9962 61.4674 13.4335 60.904 12.7436 60.904C12.0538 60.904 11.491 61.4674 11.491 62.1578C11.491 62.8482 12.0538 63.4114 12.7436 63.4114C13.4335 63.4296 13.9962 62.8665 13.9962 62.1578Z" fill="white"/>
  <path d="M12.6527 58.3798C12.6527 57.5986 12.0173 56.9807 11.2549 56.9807C10.4742 56.9807 9.85699 57.6166 9.85699 58.3798C9.85699 59.1611 10.4742 59.7788 11.2549 59.7788C12.0173 59.7788 12.6527 59.1611 12.6527 58.3798Z" fill="white"/>
  <path d="M11.8172 54.4356C11.8172 53.5816 11.1273 52.8912 10.2741 52.8912C9.42082 52.8912 8.73098 53.5816 8.73098 54.4356C8.73098 55.2897 9.42082 55.9801 10.2741 55.9801C11.1091 55.9801 11.8172 55.2897 11.8172 54.4356Z" fill="white"/>
  <path d="M11.4919 50.4025C11.4919 49.4759 10.7476 48.7126 9.82176 48.7126C8.89589 48.7126 8.13342 49.4576 8.13342 50.4025C8.13342 51.3291 8.89589 52.074 9.82176 52.074C10.7476 52.074 11.4919 51.3291 11.4919 50.4025Z" fill="white"/>
  <path d="M9.89408 48.1495C10.8925 48.1495 11.7095 47.3318 11.7095 46.3326C11.7095 45.3332 10.8925 44.5155 9.89408 44.5155C8.8956 44.5155 8.07867 45.3332 8.07867 46.3326C8.06053 47.3318 8.87744 48.1495 9.89408 48.1495Z" fill="white"/>
  <path d="M8.53429 42.3162C8.53429 43.4064 9.40569 44.2787 10.4949 44.2787C11.5842 44.2787 12.4556 43.4064 12.4556 42.3162C12.4556 41.226 11.5842 40.3539 10.4949 40.3539C9.40569 40.3539 8.53429 41.226 8.53429 42.3162Z" fill="white"/>
  <path d="M67.3334 72.3502C67.261 72.3502 67.2069 72.4045 67.2069 72.4769C67.2069 72.5493 67.261 72.6036 67.3334 72.6036C67.4057 72.6036 67.4599 72.5493 67.4599 72.4769C67.4599 72.4045 67.4057 72.3502 67.3334 72.3502Z" fill="white"/>
  <path d="M63.7406 74.1134C63.5944 74.1134 63.4849 74.2231 63.4849 74.351C63.4849 74.4972 63.5944 74.6067 63.7406 74.6067C63.8865 74.6067 63.996 74.4972 63.996 74.351C63.996 74.2231 63.8865 74.1134 63.7406 74.1134Z" fill="white"/>
  <path d="M59.9624 75.4953C59.7628 75.4953 59.5994 75.6589 59.5994 75.8588C59.5994 76.0587 59.7628 76.2403 59.9624 76.2403C60.1621 76.2403 60.3255 76.0767 60.3255 75.8588C60.3437 75.6589 60.1621 75.4953 59.9624 75.4953Z" fill="white"/>
  <path d="M56.0589 76.4588C55.7866 76.4588 55.5687 76.6768 55.5687 76.9494C55.5687 77.2219 55.7866 77.44 56.0589 77.44C56.3313 77.44 56.549 77.2219 56.549 76.9494C56.549 76.695 56.3313 76.4588 56.0589 76.4588Z" fill="white"/>
  <path d="M52.0487 77.0218C51.7037 77.0218 51.4315 77.2944 51.4315 77.6396C51.4315 77.9849 51.7037 78.2573 52.0487 78.2573C52.3937 78.2573 52.6659 77.9849 52.6659 77.6396C52.6659 77.2944 52.3937 77.0218 52.0487 77.0218Z" fill="white"/>
  <path d="M47.9975 77.1474C47.58 77.1474 47.2532 77.4744 47.2532 77.8924C47.2532 78.2922 47.58 78.6374 47.9975 78.6374C48.3969 78.6374 48.7419 78.3104 48.7419 77.8924C48.7419 77.4744 48.3969 77.1474 47.9975 77.1474Z" fill="white"/>
  <path d="M43.9337 76.8572C43.4618 76.8572 43.0623 77.2387 43.0623 77.7292C43.0623 78.2018 43.4436 78.6015 43.9337 78.6015C44.4058 78.6015 44.8051 78.22 44.8051 77.7292C44.8051 77.2387 44.4058 76.8572 43.9337 76.8572Z" fill="white"/>
  <path d="M39.9208 76.1114C39.3762 76.1114 38.9406 76.5476 38.9406 77.0927C38.9406 77.6378 39.3762 78.0919 39.9208 78.0919C40.4655 78.0919 40.9193 77.6558 40.9193 77.0927C40.9013 76.5656 40.4655 76.1114 39.9208 76.1114Z" fill="white"/>
  <path d="M35.9992 74.8762C35.382 74.8762 34.8919 75.3668 34.8919 75.9847C34.8919 76.6023 35.4003 77.0929 35.9992 77.0929C36.6165 77.0929 37.1066 76.6023 37.1066 75.9847C37.1248 75.385 36.6165 74.8762 35.9992 74.8762Z" fill="white"/>
  <path d="M32.2797 73.1321C31.59 73.1321 31.0453 73.6772 31.0453 74.3676C31.0453 75.0581 31.59 75.6032 32.2797 75.6032C32.9515 75.6032 33.5144 75.0398 33.5144 74.3676C33.5144 73.6952 32.9697 73.1321 32.2797 73.1321Z" fill="white"/>
  <path d="M30.1557 72.2795C30.1557 71.5347 29.5384 70.9169 28.7941 70.9169C28.0498 70.9169 27.4326 71.5165 27.4326 72.2795C27.4326 73.0245 28.0498 73.6423 28.7941 73.6423C29.5384 73.6423 30.1557 73.0245 30.1557 72.2795Z" fill="white"/>
  <path d="M25.6166 68.2637C24.7998 68.2637 24.128 68.9361 24.128 69.7537C24.128 70.5712 24.7998 71.2436 25.6166 71.2436C26.4335 71.2436 27.1053 70.5712 27.1053 69.7537C27.1053 68.9361 26.4335 68.2637 25.6166 68.2637Z" fill="white"/>
  <path d="M22.7985 65.2109C21.909 65.2109 21.1828 65.9376 21.1828 66.8279C21.1828 67.7182 21.909 68.445 22.7985 68.445C23.6881 68.445 24.4142 67.7182 24.4142 66.8279C24.3961 65.9194 23.6881 65.2109 22.7985 65.2109Z" fill="white"/>
  <path d="M20.3897 65.2822C21.3519 65.2822 22.1142 64.501 22.1142 63.5561C22.1142 62.593 21.3336 61.83 20.3897 61.83C19.4275 61.83 18.665 62.6113 18.665 63.5561C18.665 64.501 19.4275 65.2822 20.3897 65.2822Z" fill="white"/>
  <path d="M20.26 59.9952C20.26 58.9776 19.425 58.1418 18.4083 58.1418C17.3917 58.1418 16.5566 58.9776 16.5566 59.9952C16.5566 61.0127 17.3917 61.8485 18.4083 61.8485C19.4431 61.8485 20.26 61.0127 20.26 59.9952Z" fill="white"/>
  <path d="M81.8916 44.5345C81.8374 44.5345 81.7831 44.5888 81.7831 44.6432C81.7831 44.6973 81.8374 44.7516 81.8916 44.7516C81.9459 44.7516 82 44.6973 82 44.6432C82 44.5708 81.9459 44.5345 81.8916 44.5345Z" fill="white"/>
  <path d="M80.6764 48.2957C80.5487 48.2957 80.4575 48.3871 80.4575 48.515C80.4575 48.6427 80.5487 48.7342 80.6764 48.7342C80.8043 48.7342 80.8955 48.6427 80.8955 48.515C80.8955 48.4053 80.8043 48.2957 80.6764 48.2957Z" fill="white"/>
  <path d="M79.0777 51.9289C78.8961 51.9289 78.751 52.0742 78.751 52.2559C78.751 52.4375 78.8961 52.5828 79.0777 52.5828C79.2593 52.5828 79.4045 52.4375 79.4045 52.2559C79.4045 52.0742 79.2593 51.9289 79.0777 51.9289Z" fill="white"/>
  <path d="M77.0817 55.3622C76.8456 55.3622 76.6459 55.5621 76.6459 55.7983C76.6459 56.0527 76.8456 56.2343 77.0817 56.2343C77.3177 56.2343 77.5173 56.0344 77.5173 55.7983C77.5173 55.5621 77.3177 55.3622 77.0817 55.3622Z" fill="white"/>
  <path d="M74.7225 58.5602C74.4138 58.5602 74.1597 58.8146 74.1597 59.1236C74.1597 59.4325 74.4138 59.6687 74.7225 59.6687C75.0311 59.6687 75.2852 59.4143 75.2852 59.1236C75.2852 58.8146 75.0311 58.5602 74.7225 58.5602Z" fill="white"/>
  <path d="M72.035 61.5047C71.6717 61.5047 71.3632 61.7954 71.3632 62.1769C71.3632 62.5403 71.6537 62.8493 72.035 62.8493C72.398 62.8493 72.7065 62.5586 72.7065 62.1769C72.7065 61.7954 72.398 61.5047 72.035 61.5047Z" fill="white"/>
  <path d="M69.0399 64.1393C68.6223 64.1393 68.2773 64.4846 68.2773 64.9206C68.2773 65.3566 68.6223 65.7018 69.0399 65.7018C69.4755 65.7018 69.8205 65.3566 69.8205 64.9206C69.8205 64.4846 69.4755 64.1393 69.0399 64.1393Z" fill="white"/>
  <path d="M65.7728 66.446C65.2827 66.446 64.8832 66.8458 64.8832 67.3363C64.8832 67.8269 65.2827 68.2266 65.7728 68.2266C66.2629 68.2266 66.6622 67.8269 66.6622 67.3363C66.6622 66.8458 66.2629 66.446 65.7728 66.446Z" fill="white"/>
  <path d="M62.2319 68.3179C61.6872 68.3179 61.2334 68.7721 61.2334 69.3172C61.2334 69.8623 61.6872 70.3164 62.2319 70.3164C62.7765 70.3164 63.2304 69.8623 63.2304 69.3172C63.2121 68.7539 62.7765 68.3179 62.2319 68.3179Z" fill="white"/>
  <path d="M58.4373 69.6987C57.8199 69.6987 57.3298 70.1893 57.3298 70.807C57.3298 71.4248 57.8199 71.9154 58.4373 71.9154C59.0363 71.9154 59.5447 71.4248 59.5447 70.807C59.5447 70.1893 59.0546 69.6987 58.4373 69.6987Z" fill="white"/>
  <path d="M54.4999 70.571C53.8282 70.571 53.2838 71.1161 53.2838 71.7883C53.2838 72.4607 53.8282 73.0058 54.4999 73.0058C55.1717 73.0058 55.7163 72.4607 55.7163 71.7883C55.7163 71.1161 55.1717 70.571 54.4999 70.571Z" fill="white"/>
  <path d="M50.4681 70.9169C49.742 70.9169 49.1428 71.5165 49.1428 72.2432C49.1428 72.9699 49.742 73.5696 50.4681 73.5696C51.1943 73.5696 51.7933 72.9699 51.7933 72.2432C51.7933 71.5165 51.1943 70.9169 50.4681 70.9169Z" fill="white"/>
  <path d="M47.835 72.1682C47.835 71.3687 47.1995 70.7328 46.4007 70.7328C45.6019 70.7328 44.9666 71.3867 44.9666 72.1682C44.9666 72.9675 45.6019 73.6036 46.4007 73.6036C47.1995 73.6036 47.835 72.9675 47.835 72.1682Z" fill="white"/>
  <path d="M43.9335 71.57C43.9335 70.716 43.2437 70.0255 42.3903 70.0255C41.5372 70.0255 40.8474 70.716 40.8474 71.57C40.8474 72.4238 41.5372 73.1143 42.3903 73.1143C43.2437 73.1143 43.9335 72.4238 43.9335 71.57Z" fill="white"/>
  <path d="M40.1394 70.4433C40.1394 69.5347 39.3951 68.7898 38.4693 68.7898C37.5434 68.7898 36.7991 69.5347 36.7991 70.4433C36.7991 71.3699 37.5434 72.1149 38.4693 72.1149C39.3951 72.0966 40.1394 71.3517 40.1394 70.4433Z" fill="white"/>
  <path d="M36.5252 68.8072C36.5252 67.8261 35.7266 67.0266 34.7461 67.0266C33.7659 67.0266 32.9671 67.8261 32.9671 68.8072C32.9671 69.7883 33.7659 70.5878 34.7461 70.5878C35.7266 70.5878 36.5252 69.7883 36.5252 68.8072Z" fill="white"/>
  <path d="M72.5056 14.7708C72.5597 14.7708 72.614 14.7166 72.614 14.6623C72.614 14.608 72.5597 14.5537 72.5056 14.5537C72.4513 14.5537 72.3972 14.608 72.3972 14.6623C72.3972 14.7346 72.4513 14.7708 72.5056 14.7708Z" fill="white"/>
  <path d="M74.4142 18.4806C74.542 18.4806 74.6334 18.3892 74.6334 18.2613C74.6334 18.1335 74.542 18.0422 74.4142 18.0422C74.2865 18.0422 74.1953 18.1518 74.1953 18.2613C74.1771 18.3892 74.2865 18.4806 74.4142 18.4806Z" fill="white"/>
  <path d="M75.9018 22.3848C76.0832 22.3848 76.2286 22.2395 76.2286 22.0579C76.2286 21.876 76.0832 21.7307 75.9018 21.7307C75.7202 21.7307 75.5751 21.876 75.5751 22.0579C75.5751 22.2212 75.7202 22.3848 75.9018 22.3848Z" fill="white"/>
  <path d="M77.0088 26.4002C77.2447 26.4002 77.4444 26.2003 77.4444 25.9641C77.4444 25.7097 77.2447 25.5099 77.0088 25.5099C76.7546 25.5099 76.5732 25.7097 76.5732 25.9641C76.5549 26.2003 76.7546 26.4002 77.0088 26.4002Z" fill="white"/>
  <path d="M77.1205 29.9791C77.1205 30.288 77.3747 30.5242 77.6651 30.5242C77.9736 30.5242 78.2278 30.2698 78.2278 29.9791C78.2278 29.6701 77.9736 29.4157 77.6651 29.4157C77.3747 29.4157 77.1205 29.6701 77.1205 29.9791Z" fill="white"/>
  <path d="M77.9353 33.3595C77.5721 33.3595 77.2636 33.6504 77.2636 34.0319C77.2636 34.3954 77.554 34.6861 77.9353 34.6861C78.2983 34.6861 78.6068 34.3954 78.6068 34.0319C78.5888 33.6685 78.2983 33.3595 77.9353 33.3595Z" fill="white"/>
  <path d="M77.7518 37.3205C77.3343 37.3205 76.9713 37.6658 76.9713 38.1018C76.9713 38.5378 77.3162 38.8831 77.7518 38.8831C78.1876 38.8831 78.5324 38.5378 78.5324 38.1018C78.5324 37.6658 78.1876 37.3205 77.7518 37.3205Z" fill="white"/>
  <path d="M77.1533 41.2264C76.663 41.2264 76.2636 41.626 76.2636 42.1167C76.2636 42.6073 76.663 43.0069 77.1533 43.0069C77.6434 43.0069 78.0427 42.6073 78.0427 42.1167C78.0427 41.626 77.6434 41.2264 77.1533 41.2264Z" fill="white"/>
  <path d="M77.0274 46.0238C77.0274 45.4787 76.5918 45.0245 76.0289 45.0245C75.4843 45.0245 75.0304 45.4787 75.0304 46.0238C75.0304 46.5689 75.4843 47.0232 76.0289 47.0232C76.5918 47.0232 77.0274 46.5689 77.0274 46.0238Z" fill="white"/>
  <path d="M74.4128 48.6401C73.7956 48.6401 73.3055 49.1306 73.3055 49.7485C73.3055 50.3662 73.7956 50.8567 74.4128 50.8567C75.03 50.8567 75.5202 50.3662 75.5202 49.7485C75.5202 49.1489 75.03 48.6401 74.4128 48.6401Z" fill="white"/>
  <path d="M72.3258 52.0203C71.6541 52.0203 71.1094 52.5654 71.1094 53.2378C71.1094 53.91 71.6541 54.4551 72.3258 54.4551C72.9974 54.4551 73.542 53.91 73.542 53.2378C73.542 52.5654 72.9974 52.0203 72.3258 52.0203Z" fill="white"/>
  <path d="M69.7858 55.0908C69.0596 55.0908 68.4606 55.6904 68.4606 56.4174C68.4606 57.1441 69.0596 57.7437 69.7858 57.7437C70.5119 57.7437 71.1111 57.1441 71.1111 56.4174C71.1291 55.6904 70.5301 55.0908 69.7858 55.0908Z" fill="white"/>
  <path d="M66.8594 57.7974C66.0606 57.7974 65.4251 58.4516 65.4251 59.2328C65.4251 60.0324 66.0606 60.6683 66.8594 60.6683C67.6583 60.6683 68.2935 60.0143 68.2935 59.2328C68.3118 58.4516 67.6583 57.7974 66.8594 57.7974Z" fill="white"/>
  <path d="M63.5913 60.1047C62.7382 60.1047 62.0301 60.7952 62.0301 61.6492C62.0301 62.5032 62.7199 63.1937 63.5913 63.1937C64.4447 63.1937 65.1345 62.5032 65.1345 61.6492C65.1527 60.7952 64.4627 60.1047 63.5913 60.1047Z" fill="white"/>
  <path d="M60.0535 61.9567C59.1275 61.9567 58.3832 62.7017 58.3832 63.6283C58.3832 64.5549 59.1275 65.2998 60.0535 65.2998C60.9794 65.2998 61.7237 64.5549 61.7237 63.6283C61.7054 62.7197 60.9611 61.9567 60.0535 61.9567Z" fill="white"/>
  <path d="M56.2583 63.3384C55.2781 63.3384 54.4792 64.1379 54.4792 65.119C54.4792 66.1002 55.2781 66.8997 56.2583 66.8997C57.2386 66.8997 58.0374 66.1002 58.0374 65.119C58.0374 64.1379 57.2386 63.3384 56.2583 63.3384Z" fill="white"/>
  <path d="M44.7122 0.217083C44.7663 0.217083 44.8207 0.162813 44.8207 0.108542C44.8207 0.0542708 44.7663 0 44.7122 0C44.6579 0 44.6038 0.0542708 44.6038 0.108542C44.6038 0.162813 44.6399 0.217083 44.7122 0.217083Z" fill="white"/>
  <path d="M48.6002 1.52948C48.7279 1.52948 48.8191 1.43814 48.8191 1.31027C48.8191 1.1824 48.7097 1.09107 48.6002 1.09107C48.4725 1.09107 48.3811 1.1824 48.3811 1.31027C48.3628 1.43814 48.4725 1.52948 48.6002 1.52948Z" fill="white"/>
  <path d="M52.3207 3.25166C52.5023 3.25166 52.6475 3.10629 52.6475 2.9246C52.6475 2.74291 52.5023 2.59754 52.3207 2.59754C52.1393 2.59754 51.994 2.74291 51.994 2.9246C51.994 3.10629 52.1393 3.25166 52.3207 3.25166Z" fill="white"/>
  <path d="M55.8594 5.35953C56.1136 5.35953 56.2952 5.15966 56.2952 4.92346C56.2952 4.68725 56.0954 4.48738 55.8594 4.48738C55.6235 4.48738 55.4056 4.68725 55.4056 4.92346C55.4238 5.15966 55.6235 5.35953 55.8594 5.35953Z" fill="white"/>
  <path d="M59.1812 7.81376C59.4899 7.81376 59.7259 7.55937 59.7259 7.26866C59.7259 6.95979 59.4717 6.72359 59.1812 6.72359C58.8727 6.72359 58.6185 6.97795 58.6185 7.26866C58.6185 7.57756 58.8727 7.81376 59.1812 7.81376Z" fill="white"/>
  <path d="M62.2142 10.6291C62.5773 10.6291 62.886 10.3203 62.886 9.95685C62.886 9.59347 62.5955 9.28458 62.2142 9.28458C61.8512 9.28458 61.5607 9.57529 61.5607 9.95685C61.5607 10.3203 61.8512 10.6291 62.2142 10.6291Z" fill="white"/>
  <path d="M64.9727 13.7365C65.3903 13.7365 65.7533 13.3913 65.7533 12.9552C65.7533 12.5191 65.4083 12.1739 64.9727 12.1739C64.5371 12.1739 64.1922 12.5191 64.1922 12.9552C64.1922 13.3913 64.5371 13.7365 64.9727 13.7365Z" fill="white"/>
  <path d="M67.3904 17.1151C67.8805 17.1151 68.2798 16.7154 68.2798 16.2248C68.2798 15.7342 67.8805 15.3345 67.3904 15.3345C66.9 15.3345 66.5007 15.7342 66.5007 16.2248C66.5007 16.7154 66.882 17.1151 67.3904 17.1151Z" fill="white"/>
  <path d="M69.3484 20.7866C69.893 20.7866 70.3469 20.3323 70.3469 19.7872C70.3469 19.2421 69.893 18.7879 69.3484 18.7879C68.8037 18.7879 68.3499 19.2239 68.3499 19.7872C68.3499 20.3323 68.8037 20.7866 69.3484 20.7866Z" fill="white"/>
  <path d="M69.7487 23.5658C69.7487 24.1835 70.2389 24.6741 70.8561 24.6741C71.4733 24.6741 71.9634 24.1835 71.9634 23.5658C71.9634 22.948 71.4733 22.4574 70.8561 22.4574C70.2389 22.4574 69.7487 22.948 69.7487 23.5658Z" fill="white"/>
  <path d="M70.6181 27.509C70.6181 28.1814 71.1625 28.7265 71.8343 28.7265C72.506 28.7265 73.0507 28.1814 73.0507 27.509C73.0507 26.8368 72.506 26.2917 71.8343 26.2917C71.1625 26.2917 70.6181 26.8368 70.6181 27.509Z" fill="white"/>
  <path d="M70.9633 31.5609C70.9633 32.2876 71.5625 32.8872 72.2885 32.8872C73.0148 32.8872 73.6138 32.2876 73.6138 31.5609C73.6138 30.8341 73.0148 30.2345 72.2885 30.2345C71.5442 30.2163 70.9633 30.8159 70.9633 31.5609Z" fill="white"/>
  <path d="M73.6525 35.6303C73.6525 34.8308 73.017 34.1949 72.2182 34.1949C71.4196 34.1949 70.7841 34.8308 70.7841 35.6303C70.7841 36.4298 71.4376 37.0657 72.2182 37.0657C72.999 37.0657 73.6525 36.4116 73.6525 35.6303Z" fill="white"/>
  <path d="M73.1597 39.6463C73.1597 38.7925 72.4699 38.0838 71.6168 38.0838C70.7634 38.0838 70.0554 38.7742 70.0554 39.6463C70.0554 40.5003 70.7454 41.1908 71.6168 41.1908C72.4699 41.1908 73.1597 40.5003 73.1597 39.6463Z" fill="white"/>
  <path d="M72.1457 43.5532C72.1457 42.6264 71.4013 41.8814 70.4754 41.8814C69.5497 41.8814 68.8054 42.6264 68.8054 43.5532C68.8054 44.4615 69.5497 45.2248 70.4754 45.2248C71.4013 45.2065 72.1457 44.4615 72.1457 43.5532Z" fill="white"/>
  <path d="M68.8583 45.497C67.8778 45.497 67.0972 46.2965 67.0972 47.2776C67.0972 48.2588 67.8961 49.0583 68.8583 49.0583C69.8385 49.0583 70.6374 48.2588 70.6374 47.2776C70.6374 46.2965 69.8385 45.497 68.8583 45.497Z" fill="white"/>
  <path d="M14.7598 9.59376C14.8141 9.59376 14.8683 9.53949 14.8683 9.48521C14.8683 9.43095 14.8141 9.37666 14.7598 9.37666C14.7056 9.37666 14.6514 9.43095 14.6514 9.48521C14.6514 9.53949 14.7056 9.59376 14.7598 9.59376Z" fill="white"/>
  <path d="M18.3546 7.81462C18.4823 7.81462 18.5736 7.72329 18.5736 7.59541C18.5736 7.46755 18.4641 7.37621 18.3546 7.37621C18.2268 7.37621 18.1356 7.46755 18.1356 7.59541C18.1356 7.72329 18.2268 7.81462 18.3546 7.81462Z" fill="white"/>
  <path d="M22.1278 6.41438C22.3092 6.41438 22.4545 6.26904 22.4545 6.08735C22.4545 5.90563 22.3092 5.74213 22.1278 5.74213C21.9461 5.74213 21.801 5.88747 21.801 6.08735C21.801 6.26904 21.9461 6.41438 22.1278 6.41438Z" fill="white"/>
  <path d="M26.0522 5.4326C26.3064 5.4326 26.4878 5.23274 26.4878 4.99654C26.4878 4.74215 26.2882 4.56046 26.0522 4.56046C25.8163 4.56046 25.6166 4.76032 25.6166 4.99654C25.5984 5.23274 25.798 5.4326 26.0522 5.4326Z" fill="white"/>
  <path d="M30.0452 4.86952C30.3539 4.86952 30.5898 4.61516 30.5898 4.30626C30.5898 3.99739 30.3356 3.76119 30.0452 3.76119C29.7367 3.76119 29.4825 4.01555 29.4825 4.30626C29.5005 4.61516 29.7547 4.86952 30.0452 4.86952Z" fill="white"/>
  <path d="M34.1113 4.72536C34.4743 4.72536 34.7828 4.43465 34.7828 4.05309C34.7828 3.68968 34.4924 3.38081 34.1113 3.38081C33.7481 3.38081 33.4396 3.67152 33.4396 4.05309C33.4396 4.43465 33.7481 4.72536 34.1113 4.72536Z" fill="white"/>
  <path d="M38.1608 5.01448C38.5964 5.01448 38.9414 4.66924 38.9414 4.23318C38.9414 3.7971 38.5964 3.45188 38.1608 3.45188C37.725 3.45188 37.3802 3.7971 37.3802 4.23318C37.3983 4.66924 37.7433 5.01448 38.1608 5.01448Z" fill="white"/>
  <path d="M42.1923 5.72398C42.6824 5.72398 43.0817 5.32425 43.0817 4.83367C43.0817 4.34308 42.6824 3.94335 42.1923 3.94335C41.7022 3.94335 41.3027 4.34308 41.3027 4.83367C41.3027 5.34242 41.7022 5.72398 42.1923 5.72398Z" fill="white"/>
  <path d="M46.0932 6.95901C46.6379 6.95901 47.0917 6.50477 47.0917 5.95969C47.0917 5.4146 46.6379 4.96036 46.0932 4.96036C45.5486 4.96036 45.0947 5.4146 45.0947 5.95969C45.0947 6.50477 45.5486 6.95901 46.0932 6.95901Z" fill="white"/>
  <path d="M49.8154 8.68503C50.4326 8.68503 50.9227 8.19444 50.9227 7.57668C50.9227 6.95891 50.4326 6.46832 49.8154 6.46832C49.1982 6.46832 48.708 6.95891 48.708 7.57668C48.7261 8.19444 49.2162 8.68503 49.8154 8.68503Z" fill="white"/>
  <path d="M52.0825 9.66612C52.0825 10.3384 52.6272 10.8835 53.2989 10.8835C53.9707 10.8835 54.5151 10.3384 54.5151 9.66612C54.5151 8.99386 53.9707 8.44877 53.2989 8.44877C52.6272 8.44877 52.0825 8.99386 52.0825 9.66612Z" fill="white"/>
  <path d="M56.4756 13.5359C57.2017 13.5359 57.8009 12.9363 57.8009 12.2095C57.8009 11.4827 57.2017 10.8831 56.4756 10.8831C55.7313 10.8831 55.1504 11.4827 55.1504 12.2095C55.1504 12.9363 55.7495 13.5359 56.4756 13.5359Z" fill="white"/>
  <path d="M59.3073 16.5687C60.1061 16.5687 60.7416 15.9146 60.7416 15.1333C60.7416 14.3338 60.0881 13.6979 59.3073 13.6979C58.5087 13.6979 57.8732 14.352 57.8732 15.1333C57.855 15.9328 58.5087 16.5687 59.3073 16.5687Z" fill="white"/>
  <path d="M61.7044 16.8435C60.8513 16.8435 60.1615 17.5339 60.1615 18.3879C60.1615 19.2419 60.8513 19.9323 61.7044 19.9323C62.5578 19.9323 63.2476 19.2419 63.2476 18.3879C63.2658 17.5521 62.5758 16.8435 61.7044 16.8435Z" fill="white"/>
  <path d="M62.0301 21.966C62.0301 22.8744 62.7745 23.6193 63.6821 23.6193C64.6081 23.6193 65.3341 22.8744 65.3341 21.966C65.3341 21.0394 64.5898 20.2944 63.6821 20.2944C62.7562 20.2944 62.0301 21.0394 62.0301 21.966Z" fill="white"/>
  <path d="M63.3929 25.746C63.3929 26.7271 64.1917 27.5266 65.172 27.5266C66.1522 27.5266 66.9328 26.7271 66.9328 25.746C66.9328 24.7649 66.1342 23.9654 65.172 23.9654C64.1917 23.9654 63.3929 24.7649 63.3929 25.746Z" fill="white"/>
  <path d="M66.1526 27.8001C65.1179 27.8001 64.2647 28.6542 64.2647 29.6898C64.2647 30.7255 65.0998 31.5795 66.1526 31.5795C67.1874 31.5795 68.0408 30.7437 68.0408 29.6898C68.0408 28.6542 67.1874 27.8001 66.1526 27.8001Z" fill="white"/>
  <path d="M0.219012 37.1018C0.109506 37.1018 0 37.193 0 37.3027C0 37.4124 0.0912548 37.5036 0.219012 37.5036C0.328519 37.5036 0.419775 37.4124 0.419775 37.3027C0.419775 37.193 0.328519 37.1018 0.219012 37.1018Z" fill="white"/>
  <path d="M1.41645 33.0137C1.18045 33.0137 0.998913 33.1955 0.998913 33.4317C0.998913 33.6678 1.18045 33.8497 1.41645 33.8497C1.65246 33.8497 1.83399 33.6678 1.83399 33.4317C1.83399 33.1955 1.65246 33.0137 1.41645 33.0137Z" fill="white"/>
  <path d="M3.65082 29.6888C3.65082 29.3436 3.36036 29.0529 3.01542 29.0529C2.67049 29.0529 2.39819 29.3255 2.39819 29.6888C2.39819 30.034 2.67049 30.3247 3.01542 30.3247C3.3785 30.3247 3.65082 30.034 3.65082 29.6888Z" fill="white"/>
  <path d="M5.00989 26.9818C5.46375 26.9818 5.84498 26.6003 5.84498 26.146C5.84498 25.6919 5.46375 25.3102 5.00989 25.3102C4.55605 25.3102 4.17481 25.6919 4.17481 26.146C4.17481 26.6185 4.55605 26.9818 5.00989 26.9818Z" fill="white"/>
  <path d="M7.36956 23.8754C7.95049 23.8754 8.42249 23.4031 8.42249 22.8217C8.42249 22.2403 7.95049 21.7678 7.36956 21.7678C6.78864 21.7678 6.33478 22.2403 6.33478 22.8217C6.33478 23.4213 6.78864 23.8754 7.36956 23.8754Z" fill="white"/>
  <path d="M10.0577 21.04C10.7475 21.04 11.3103 20.4768 11.3103 19.7863C11.3103 19.0959 10.7475 18.5326 10.0577 18.5326C9.36781 18.5326 8.80504 19.0959 8.80504 19.7863C8.80504 20.4768 9.36781 21.04 10.0577 21.04Z" fill="white"/>
  <path d="M13.0525 18.4952C13.8513 18.4952 14.5049 17.8411 14.5049 17.0234C14.5049 16.224 13.8513 15.5517 13.0525 15.5517C12.2538 15.5517 11.5821 16.2058 11.5821 17.0234C11.6002 17.8411 12.2538 18.4952 13.0525 18.4952Z" fill="white"/>
  <path d="M16.3216 16.2984C17.2474 16.2984 17.9917 15.5534 17.9917 14.6268C17.9917 13.7001 17.2474 12.9552 16.3216 12.9552C15.3957 12.9552 14.6514 13.7001 14.6514 14.6268C14.6514 15.5534 15.3957 16.2984 16.3216 16.2984Z" fill="white"/>
  <path d="M19.8594 14.4981C20.8941 14.4981 21.7293 13.6441 21.7293 12.6085C21.7293 11.5728 20.8941 10.737 19.8594 10.737C18.8247 10.737 17.9714 11.5728 17.9714 12.6085C17.9714 13.6441 18.8247 14.4981 19.8594 14.4981Z" fill="white"/>
  <path d="M23.6186 13.1731C24.6716 13.1731 25.5248 12.3918 25.6699 11.3925C26.0875 11.992 26.7775 12.3736 27.5398 12.3736C28.4295 12.3736 29.1918 11.8649 29.5731 11.1381C30.0269 11.7377 30.7532 12.1374 31.5701 12.1374C32.3144 12.1374 32.9679 11.8103 33.4217 11.3198C33.9119 12.0102 34.7107 12.4645 35.6366 12.4645C36.2175 12.4645 36.744 12.2828 37.1796 11.9739C37.2886 12.1374 37.3975 12.2828 37.5245 12.4281C36.8348 12.5008 36.2175 12.7915 35.7455 13.2458C35.2371 12.7733 34.5473 12.4826 33.7848 12.4826C32.8228 12.4826 31.9694 12.955 31.443 13.6818C30.9709 13.3184 30.39 13.1004 29.7547 13.1004C28.6474 13.1004 27.7032 13.7545 27.2676 14.6993C26.85 14.4086 26.3599 14.2451 25.8153 14.2451C24.5808 14.2451 23.5641 15.0991 23.2919 16.2437C22.9288 16.0257 22.493 15.8803 22.0392 15.8803C20.6959 15.8803 19.6066 16.9705 19.6066 18.2969C19.2798 18.0971 18.8804 17.988 18.481 17.988C17.2284 17.988 16.2118 19.0055 16.2118 20.2592C16.2118 20.4773 16.2481 20.6952 16.3025 20.8951C15.9758 20.6952 15.6127 20.5864 15.2133 20.5864C14.0515 20.5864 13.1075 21.5312 13.1075 22.694C13.1075 23.8569 14.0515 24.8016 15.2133 24.8016C16.3752 24.8016 17.3192 23.8569 17.3192 22.694C17.3192 22.5123 17.2829 22.3487 17.2466 22.1671C17.6096 22.4033 18.0272 22.5304 18.481 22.5304C19.6974 22.5304 20.6959 21.5675 20.7322 20.3501C21.1133 20.5864 21.5491 20.7317 22.0212 20.7317C22.0574 20.7317 22.1118 20.7317 22.148 20.7317C21.6399 21.186 21.3131 21.8399 21.2404 22.5669C21.077 22.5304 20.9136 22.5123 20.7502 22.5123C19.2798 22.5123 18.0998 23.7114 18.0998 25.165C18.0998 25.2741 18.0998 25.3649 18.118 25.474C18.0272 25.4557 17.9183 25.4557 17.8275 25.4557C16.4296 25.4557 15.3041 26.5822 15.3041 27.9813C15.3041 28.254 15.3404 28.5264 15.4312 28.7808C15.3767 28.7808 15.3222 28.7808 15.2859 28.7808C13.9789 28.7808 12.9078 29.8528 12.9078 31.1611C12.9078 31.6152 13.0348 32.0332 13.2709 32.4147C13.2527 32.4147 13.2345 32.4147 13.1982 32.4147C11.9637 32.4147 10.9653 33.4141 10.9653 34.6496C10.9653 35.3038 11.2376 35.8851 11.6733 36.2849C11.637 36.2849 11.6007 36.2666 11.5825 36.2666C10.4207 36.2666 9.47666 37.2115 9.47666 38.3745C9.47666 39.5372 10.4207 40.4821 11.5825 40.4821C12.7444 40.4821 13.6884 39.5372 13.6884 38.3745C13.6884 37.7929 13.4524 37.266 13.053 36.8845C13.1075 36.8845 13.1438 36.8845 13.1982 36.8845C13.8518 36.8845 14.4327 36.6119 14.8321 36.1578C14.8321 36.1758 14.8321 36.2121 14.8321 36.2304C14.8321 36.8117 15.0136 37.3388 15.3404 37.7748C14.3782 38.1201 13.7065 39.0284 13.7065 40.1006C13.7065 40.8455 14.0515 41.5177 14.5779 41.9903C13.761 42.3535 13.1982 43.1713 13.1982 44.1161C13.1982 45.0245 13.7065 45.8057 14.4509 46.2055C13.7247 46.5689 13.2345 47.3139 13.2345 48.186C13.2345 49.2399 13.9788 50.1302 14.9592 50.3481C14.2875 50.6934 13.7973 51.402 13.7973 52.2196C13.7973 53.3825 14.7413 54.3274 15.9032 54.3274C16.0302 54.3274 16.1573 54.3092 16.2844 54.2911C15.4856 54.5453 14.9047 55.2903 14.9047 56.1626C14.9047 57.2528 15.7942 58.1431 16.8835 58.1431C17.9727 58.1431 18.8623 57.2528 18.8623 56.1626C18.8623 55.0724 17.9727 54.1821 16.8835 54.1821C16.7564 54.1821 16.6475 54.2001 16.5204 54.2183C17.3736 53.9459 18.009 53.1644 18.009 52.2196C18.009 52.1653 17.9909 52.1288 17.9909 52.0742C18.3177 52.4377 18.7534 52.6921 19.2254 52.8012C18.8804 53.2009 18.6626 53.7278 18.6626 54.3092C18.6626 55.5992 19.6974 56.6349 20.9864 56.6349C21.0044 56.6349 21.0227 56.6349 21.0407 56.6349C20.7685 56.9983 20.6231 57.4526 20.6231 57.9249C20.6231 59.1422 21.6216 60.1416 22.838 60.1416C23.0559 60.1416 23.2736 60.1053 23.4733 60.0508C23.2556 60.3778 23.1285 60.7775 23.1285 61.2136C23.1285 62.3765 24.0725 63.3214 25.2343 63.3214C25.7245 63.3214 26.1783 63.1395 26.5413 62.8489C26.2509 63.1941 26.0512 63.6484 26.0512 64.1389C26.0512 65.2474 26.9409 66.1377 28.0482 66.1377C29.1555 66.1377 30.0452 65.2474 30.0452 64.1389C30.0452 63.6121 29.8273 63.1215 29.5005 62.758C29.7728 62.758 30.0269 62.7035 30.2631 62.6309C30.2631 62.6309 30.2631 62.649 30.2631 62.6672C30.2631 63.6121 30.8075 64.4296 31.5883 64.8294C31.4793 64.8113 31.3522 64.7931 31.2251 64.7931C30.1903 64.7931 29.3372 65.6289 29.3372 66.6828C29.3372 67.7184 30.1723 68.5725 31.2251 68.5725C32.2599 68.5725 33.1132 67.7365 33.1132 66.6828C33.1132 65.9741 32.7137 65.3564 32.1147 65.0292C32.2961 65.0838 32.496 65.102 32.6957 65.102C33.1675 65.102 33.6033 64.9567 33.9846 64.7386C34.0752 65.9378 35.0737 66.8644 36.3084 66.8644C36.9619 66.8644 37.5608 66.592 37.9784 66.1377C38.1418 67.1916 39.0677 68.0091 40.175 68.0091C41.0101 68.0091 41.7545 67.5368 42.1175 66.8281C42.3171 67.791 43.1705 68.5179 44.187 68.5179C45.2763 68.5179 46.1477 67.7002 46.2748 66.6282C46.3474 67.6639 47.2006 68.4814 48.2536 68.4814C49.3609 68.4814 50.2506 67.5911 50.2506 66.4829C50.2506 65.3927 49.3792 64.5206 48.3081 64.5024C48.4895 64.3208 48.6349 64.1026 48.7619 63.8665C49.1975 64.3208 49.8148 64.5932 50.5047 64.5932C50.7589 64.5932 51.0129 64.5569 51.2491 64.4841C50.7589 64.8294 50.4139 65.3927 50.4139 66.0469C50.4139 67.0825 51.2671 67.9363 52.3019 67.9363C53.3366 67.9363 54.19 67.1006 54.19 66.0469C54.19 65.0112 53.3549 64.1572 52.3019 64.1572C52.1022 64.1572 51.9388 64.1935 51.7572 64.248C52.3201 63.921 52.7194 63.3577 52.8648 62.7035C53.2641 63.0487 53.7905 63.2486 54.3714 63.2486C55.6604 63.2486 56.6952 62.2129 56.6952 60.9229C56.6952 60.9048 56.6952 60.8866 56.6952 60.8683C57.0582 61.141 57.5122 61.2863 57.9841 61.2863C59.2005 61.2863 60.199 60.287 60.199 59.0697C60.199 58.8515 60.1627 58.6336 60.1082 58.4338C60.4349 58.6517 60.8343 58.797 61.2701 58.797C62.4319 58.797 63.3759 57.8524 63.3759 56.6894C63.3759 56.1988 63.1943 55.7446 62.9038 55.3813C63.2488 55.69 63.7026 55.8719 64.1928 55.8719C65.3001 55.8719 66.1897 54.9815 66.1897 53.8731C66.1897 52.7647 65.3001 51.8746 64.1928 51.8746C63.6664 51.8746 63.1762 52.0925 62.813 52.4377C62.813 52.1653 62.7587 51.9108 62.6861 51.6747H62.7041C63.6481 51.6747 64.4652 51.1296 64.8828 50.3481C64.8645 50.4754 64.8463 50.5845 64.8463 50.7116C64.8463 51.7473 65.6814 52.6013 66.7344 52.6013C67.7692 52.6013 68.6223 51.7655 68.6223 50.7116C68.6223 49.6759 67.7692 48.8219 66.7344 48.8219C66.0081 48.8219 65.4092 49.2217 65.0824 49.8213C65.1367 49.6396 65.155 49.4398 65.155 49.2399C65.155 48.7674 65.0096 48.3313 64.7919 47.9498C65.9901 47.859 66.9158 46.8596 66.9158 45.6423C66.9158 44.9882 66.6436 44.3886 66.1897 43.9706C67.2428 43.8072 68.0596 42.8806 68.0596 41.7904C68.0596 40.9364 67.5876 40.2096 66.8978 39.8279C67.86 39.628 68.586 38.7742 68.586 37.7566C68.586 36.6664 67.7692 35.7761 66.6981 35.6672C67.7329 35.5944 68.5498 34.7404 68.5498 33.6867C68.5498 32.5783 67.6601 31.688 66.5528 31.688C65.4454 31.688 64.5558 32.5783 64.5558 33.6867C64.5558 34.7041 65.3366 35.5399 66.3349 35.6672C65.2458 35.7398 64.3744 36.6484 64.3744 37.7566C64.3744 38.5561 64.8282 39.2283 65.4637 39.5917C64.4289 39.7734 63.6301 40.6819 63.6301 41.7721C63.6301 42.3718 63.8843 42.9349 64.2836 43.3347C63.14 43.4982 62.2686 44.4613 62.2686 45.6423C62.2686 46.0784 62.3774 46.4781 62.5953 46.8233C61.3063 46.8959 60.2896 47.9498 60.2896 49.2579C60.2896 49.4943 60.3261 49.7305 60.3987 49.9666C60.3624 49.9666 60.3261 49.9666 60.2896 49.9666C58.8738 49.9666 57.7482 51.1113 57.7482 52.5105C57.7482 52.565 57.7482 52.6376 57.7662 52.6921C57.6391 52.6739 57.494 52.6558 57.3669 52.6558C56.0234 52.6558 54.9161 53.655 54.7347 54.927C54.4985 54.8725 54.2626 54.8362 54.0084 54.8362C52.901 54.8362 51.9388 55.4902 51.5032 56.435C50.9586 55.999 50.2506 55.7991 49.5243 55.9262C48.7074 56.0717 48.072 56.6168 47.7634 57.3253C47.237 56.7622 46.4562 56.4533 45.6394 56.5623C44.8405 56.6712 44.187 57.1617 43.824 57.8341C43.3884 57.2708 42.6984 56.9256 41.9361 56.9256C41.228 56.9256 40.5926 57.2163 40.1387 57.6888C39.8665 57.0709 39.3219 56.5623 38.6138 56.3624C37.8695 56.1443 37.0889 56.2897 36.508 56.7077C36.3446 55.999 35.8908 55.3813 35.1828 55.0359C34.511 54.7089 33.7667 54.7271 33.1313 55.0178C33.1132 54.3274 32.8045 53.655 32.2055 53.1827C31.6426 52.7284 30.9529 52.583 30.2994 52.6921C30.4627 52.0199 30.3174 51.2749 29.8818 50.6753C29.4097 50.0394 28.6837 49.7122 27.9574 49.6942C28.2479 49.04 28.2298 48.2588 27.8848 47.5864C27.5581 46.9687 26.9952 46.5507 26.378 46.3691C26.7775 45.8603 26.9589 45.1881 26.85 44.4976C26.723 43.7344 26.2691 43.1167 25.6699 42.7715C26.2509 42.3172 26.6321 41.6085 26.6321 40.809C26.6321 40.0823 26.3054 39.4464 25.797 38.9921C26.4142 38.6832 26.8863 38.1201 27.0679 37.3933C27.2494 36.6846 27.086 35.9579 26.6867 35.3946C27.3221 35.2492 27.9031 34.8495 28.2661 34.2498C28.6291 33.5957 28.6837 32.8507 28.4475 32.1968C29.1555 32.2331 29.8818 31.9606 30.39 31.379C30.8983 30.8159 31.08 30.089 30.9891 29.3805C31.6426 29.5439 32.3689 29.435 32.9679 29.017C33.5851 28.581 33.9483 27.9268 34.0027 27.2364C34.6199 27.5633 35.3824 27.6179 36.0905 27.3272C36.744 27.0547 37.216 26.5277 37.4337 25.91C37.9241 26.3643 38.5956 26.6005 39.3219 26.5277C40.1025 26.4551 40.756 26.0191 41.1372 25.4012C41.5366 25.9826 42.1903 26.3823 42.9526 26.4369C43.6789 26.4914 44.3504 26.219 44.8405 25.7464C45.0947 26.3823 45.6213 26.9274 46.3474 27.1638C47.0737 27.418 47.8543 27.2909 48.4532 26.8911C48.5803 27.5816 49.0161 28.2175 49.6877 28.581C50.2506 28.8899 50.8678 28.9444 51.4305 28.8171C51.5032 28.9079 51.5758 28.9988 51.6303 29.0715C51.6666 29.5984 51.8663 30.1072 52.2475 30.5252C52.2656 30.5432 52.2838 30.5615 52.3019 30.5795C53.5545 31.8878 56.441 35.0493 55.8965 39.2828C55.7512 40.3367 56.3504 40.8636 57.1127 40.0643C61.7057 35.1221 60.9796 29.0352 60.8705 28.3266C60.8525 27.8542 60.7434 27.418 60.5801 27.0002C60.6346 26.7458 60.6528 26.4734 60.6528 26.2007C60.6528 24.9289 60.0356 23.7842 59.0915 23.0755C59.1277 22.8393 59.1642 22.6032 59.1642 22.367C59.1642 20.7862 58.1838 19.4416 56.8042 18.8784C56.7677 17.1159 55.4607 15.6623 53.7724 15.3898C53.482 13.7908 52.0842 12.5916 50.4139 12.5916C50.3594 12.5916 50.2868 12.5916 50.2323 12.5916C49.8148 11.2834 48.5986 10.3568 47.1462 10.3568C46.8558 10.3568 46.5833 10.3931 46.3294 10.4658C45.839 9.41194 44.7862 8.66699 43.5335 8.66699C43.0434 8.66699 42.5896 8.77601 42.1903 8.97589C41.6819 8.12192 40.756 7.54047 39.6849 7.54047C38.9951 7.54047 38.3779 7.77667 37.8876 8.1764C37.3975 7.50415 36.5988 7.04989 35.6909 7.04989C34.8378 7.04989 34.0752 7.44964 33.5671 8.06741C33.1132 7.50415 32.4052 7.14074 31.6246 7.14074C30.6079 7.14074 29.7365 7.74035 29.3552 8.61248C28.9378 8.12192 28.3024 7.79486 27.5944 7.79486C26.4142 7.79486 25.434 8.68517 25.3069 9.84802C24.9256 9.33927 24.3266 9.01221 23.6549 9.01221C22.493 9.01221 21.5673 9.95704 21.5673 11.1017C21.5308 12.2464 22.475 13.1731 23.6186 13.1731Z" fill="white"/>
  <path d="M9.58575 67.1186C9.49513 67.1186 9.42261 67.1912 9.42261 67.282C9.42261 67.3726 9.49513 67.4452 9.58575 67.4452C9.6764 67.4452 9.74892 67.3726 9.74892 67.282C9.74892 67.1912 9.6764 67.1186 9.58575 67.1186Z" fill="white"/>
  <path d="M7.696 63.3575C7.51446 63.3575 7.36923 63.5028 7.36923 63.6844C7.36923 63.8663 7.51446 64.0116 7.696 64.0116C7.87753 64.0116 8.02277 63.8663 8.02277 63.6844C8.02277 63.5028 7.87753 63.3575 7.696 63.3575Z" fill="white"/>
  <path d="M6.19086 59.4137C5.91855 59.4137 5.70071 59.6316 5.70071 59.9042C5.70071 60.1767 5.91855 60.3948 6.19086 60.3948C6.46318 60.3948 6.68102 60.1767 6.68102 59.9042C6.68102 59.6316 6.46318 59.4137 6.19086 59.4137Z" fill="white"/>
  <path d="M5.10211 55.3442C4.73904 55.3442 4.44857 55.6349 4.44857 55.9981C4.44857 56.3616 4.73904 56.6523 5.10211 56.6523C5.46518 56.6523 5.75565 56.3616 5.75565 55.9981C5.73749 55.6349 5.44704 55.3442 5.10211 55.3442Z" fill="white"/>
  <path d="M5.22851 51.9836C5.22851 51.5295 4.86543 51.1661 4.42973 51.1661C3.97587 51.1661 3.6128 51.5295 3.6128 51.9836C3.6128 52.4379 3.97587 52.7831 4.42973 52.7831C4.86543 52.7831 5.22851 52.4379 5.22851 51.9836Z" fill="white"/>
  <path d="M5.13727 47.9314C5.13727 47.4045 4.70157 46.9685 4.1751 46.9685C3.64863 46.9685 3.21293 47.4045 3.21293 47.9314C3.21293 48.4765 3.64863 48.9125 4.1751 48.9125C4.70157 48.8945 5.13727 48.4584 5.13727 47.9314Z" fill="white"/>
  <path d="M3.21293 43.8609C3.21293 44.4786 3.72126 44.9874 4.33849 44.9874C4.95571 44.9874 5.46404 44.4786 5.46404 43.8609C5.46404 43.225 4.95571 42.7342 4.33849 42.7342C3.72126 42.7342 3.21293 43.225 3.21293 43.8609Z" fill="white"/>
  <path d="M4.95569 41.1362C5.66371 41.1362 6.24463 40.5548 6.24463 39.8464C6.24463 39.1377 5.66371 38.5563 4.95569 38.5563C4.24768 38.5563 3.66677 39.1377 3.66677 39.8464C3.64861 40.5548 4.22954 41.1362 4.95569 41.1362Z" fill="white"/>
  <path d="M6.06202 34.4682C5.26325 34.4682 4.60971 35.1223 4.60971 35.9218C4.60971 36.7213 5.26325 37.3753 6.06202 37.3753C6.8608 37.3753 7.51434 36.7213 7.51434 35.9218C7.51434 35.1223 6.8608 34.4682 6.06202 34.4682Z" fill="white"/>
  <path d="M7.67974 33.8136C8.56928 33.8136 9.29545 33.0869 9.29545 32.1966C9.29545 31.3062 8.56928 30.5793 7.67974 30.5793C6.7902 30.5793 6.06403 31.3062 6.06403 32.1966C6.06403 33.0869 6.7902 33.8136 7.67974 33.8136Z" fill="white"/>
  <path d="M9.76639 30.4885C10.7467 30.4885 11.5455 29.6892 11.5455 28.7081C11.5455 27.7267 10.7467 26.9274 9.76639 26.9274C8.78608 26.9274 7.98729 27.7267 7.98729 28.7081C7.98729 29.6892 8.78608 30.4885 9.76639 30.4885Z" fill="white"/>
  <path d="M14.2504 25.5287C14.2504 24.4568 13.379 23.5845 12.3079 23.5845C11.2369 23.5845 10.3655 24.4568 10.3655 25.5287C10.3655 26.6007 11.2369 27.4729 12.3079 27.4729C13.379 27.4729 14.2504 26.6007 14.2504 25.5287Z" fill="white"/>
</svg>
