<svg width="41" height="40" viewBox="0 0 41 40" fill="none" xmlns="http://www.w3.org/2000/svg">
  <style>
    <!--    This allows the favicon to adapt to OS dark.light theme-->
    path {
    fill: #202328;
    }
    @media (prefers-color-scheme: dark) {
    path {
    fill: white;
    }
    }
  </style>
  <path d="M18.2434 39.8582C18.208 39.8582 18.1726 39.8847 18.1726 39.929C18.1726 39.9645 18.1992 39.9999 18.2434 39.9999C18.2789 39.9999 18.3143 39.9734 18.3143 39.929C18.3054 39.8936 18.2789 39.8582 18.2434 39.8582Z"/>
<path d="M16.3483 39.2021C16.2685 39.2021 16.2153 39.2643 16.2153 39.3353C16.2153 39.4151 16.2774 39.4772 16.3483 39.4772C16.4281 39.4772 16.4813 39.4151 16.4813 39.3353C16.4813 39.2643 16.4193 39.2021 16.3483 39.2021Z"/>
<path d="M14.5245 38.3513C14.4094 38.3513 14.3208 38.44 14.3208 38.5552C14.3208 38.6704 14.4094 38.759 14.5245 38.759C14.6396 38.759 14.7282 38.6704 14.7282 38.5552C14.7282 38.44 14.6396 38.3513 14.5245 38.3513Z"/>
<path d="M12.7968 37.3054C12.6462 37.3054 12.5222 37.4295 12.5222 37.5802C12.5222 37.7309 12.6462 37.8549 12.7968 37.8549C12.9473 37.8549 13.0713 37.7309 13.0713 37.5802C13.0713 37.4295 12.9473 37.3054 12.7968 37.3054Z"/>
<path d="M11.185 36.0911C10.999 36.0911 10.8396 36.2417 10.8396 36.4279C10.8396 36.614 10.9902 36.7735 11.185 36.7735C11.371 36.7735 11.5215 36.6229 11.5215 36.4279C11.5215 36.2417 11.371 36.0911 11.185 36.0911Z"/>
<path d="M9.69742 34.7085C9.47602 34.7085 9.29004 34.8946 9.29004 35.1162C9.29004 35.3466 9.47602 35.5239 9.69742 35.5239C9.92768 35.5239 10.1048 35.3378 10.1048 35.1162C10.1048 34.8858 9.92768 34.7085 9.69742 34.7085Z"/>
<path d="M8.36031 33.1755C8.09463 33.1755 7.88208 33.3883 7.88208 33.6542C7.88208 33.9201 8.09463 34.1328 8.36031 34.1328C8.626 34.1328 8.83855 33.9201 8.83855 33.6542C8.83855 33.3883 8.61714 33.1755 8.36031 33.1755Z"/>
<path d="M7.18287 31.5085C6.88176 31.5085 6.63379 31.7567 6.63379 32.0581C6.63379 32.3594 6.88176 32.6076 7.18287 32.6076C7.48398 32.6076 7.73196 32.3594 7.73196 32.0581C7.73196 31.7567 7.48398 31.5085 7.18287 31.5085Z"/>
<path d="M6.82786 30.3208C6.82786 29.984 6.55332 29.7092 6.21679 29.7092C5.88025 29.7092 5.60571 29.984 5.60571 30.3208C5.60571 30.6576 5.88025 30.9323 6.21679 30.9323C6.55332 30.9412 6.82786 30.6665 6.82786 30.3208Z"/>
<path d="M6.17244 28.4779C6.17244 28.0968 5.86248 27.7954 5.49052 27.7954C5.1097 27.7954 4.80859 28.1056 4.80859 28.4779C4.80859 28.859 5.1097 29.1603 5.49052 29.1603C5.86248 29.1603 6.17244 28.859 6.17244 28.4779Z"/>
<path d="M5.76483 26.5539C5.76483 26.1373 5.42829 25.8005 5.01205 25.8005C4.59581 25.8005 4.25928 26.1373 4.25928 26.5539C4.25928 26.9705 4.59581 27.3073 5.01205 27.3073C5.41943 27.3073 5.76483 26.9705 5.76483 26.5539Z"/>
<path d="M5.60616 24.5865C5.60616 24.1345 5.24306 23.7622 4.7914 23.7622C4.33973 23.7622 3.96777 24.1256 3.96777 24.5865C3.96777 25.0385 4.33973 25.4019 4.7914 25.4019C5.24306 25.4019 5.60616 25.0385 5.60616 24.5865Z"/>
<path d="M4.82668 23.4875C5.31377 23.4875 5.71229 23.0886 5.71229 22.6012C5.71229 22.1137 5.31377 21.7148 4.82668 21.7148C4.33959 21.7148 3.94106 22.1137 3.94106 22.6012C3.93221 23.0886 4.33073 23.4875 4.82668 23.4875Z"/>
<path d="M4.16333 20.642C4.16333 21.1738 4.58843 21.5993 5.1198 21.5993C5.65117 21.5993 6.07626 21.1738 6.07626 20.642C6.07626 20.1102 5.65117 19.6848 5.1198 19.6848C4.58843 19.6848 4.16333 20.1102 4.16333 20.642Z"/>
<path d="M32.8476 35.2927C32.8123 35.2927 32.7859 35.3192 32.7859 35.3545C32.7859 35.3898 32.8123 35.4163 32.8476 35.4163C32.8829 35.4163 32.9093 35.3898 32.9093 35.3545C32.9093 35.3192 32.8829 35.2927 32.8476 35.2927Z"/>
<path d="M31.0949 36.1528C31.0236 36.1528 30.9702 36.2063 30.9702 36.2687C30.9702 36.34 31.0236 36.3934 31.0949 36.3934C31.1661 36.3934 31.2195 36.34 31.2195 36.2687C31.2195 36.2063 31.1661 36.1528 31.0949 36.1528Z"/>
<path d="M29.2518 36.8269C29.1544 36.8269 29.0747 36.9067 29.0747 37.0042C29.0747 37.1017 29.1544 37.1903 29.2518 37.1903C29.3492 37.1903 29.4289 37.1105 29.4289 37.0042C29.4378 36.9067 29.3492 36.8269 29.2518 36.8269Z"/>
<path d="M27.3475 37.2969C27.2147 37.2969 27.1084 37.4032 27.1084 37.5362C27.1084 37.6691 27.2147 37.7755 27.3475 37.7755C27.4804 37.7755 27.5866 37.6691 27.5866 37.5362C27.5866 37.4121 27.4804 37.2969 27.3475 37.2969Z"/>
<path d="M25.3912 37.5715C25.2229 37.5715 25.0901 37.7045 25.0901 37.8729C25.0901 38.0413 25.2229 38.1742 25.3912 38.1742C25.5595 38.1742 25.6923 38.0413 25.6923 37.8729C25.6923 37.7045 25.5595 37.5715 25.3912 37.5715Z"/>
<path d="M23.4149 37.6328C23.2112 37.6328 23.0518 37.7923 23.0518 37.9962C23.0518 38.1912 23.2112 38.3596 23.4149 38.3596C23.6097 38.3596 23.778 38.2001 23.778 37.9962C23.778 37.7923 23.6097 37.6328 23.4149 37.6328Z"/>
<path d="M21.4324 37.4912C21.2022 37.4912 21.0073 37.6773 21.0073 37.9166C21.0073 38.1471 21.1933 38.3421 21.4324 38.3421C21.6627 38.3421 21.8575 38.156 21.8575 37.9166C21.8575 37.6773 21.6627 37.4912 21.4324 37.4912Z"/>
<path d="M19.4748 37.1274C19.2091 37.1274 18.9966 37.3402 18.9966 37.6061C18.9966 37.872 19.2091 38.0935 19.4748 38.0935C19.7405 38.0935 19.9619 37.8808 19.9619 37.6061C19.9531 37.349 19.7405 37.1274 19.4748 37.1274Z"/>
<path d="M17.5617 36.5249C17.2606 36.5249 17.0215 36.7642 17.0215 37.0656C17.0215 37.3669 17.2695 37.6062 17.5617 37.6062C17.8628 37.6062 18.1019 37.3669 18.1019 37.0656C18.1108 36.7731 17.8628 36.5249 17.5617 36.5249Z"/>
<path d="M15.7472 35.6741C15.4107 35.6741 15.145 35.94 15.145 36.2768C15.145 36.6136 15.4107 36.8795 15.7472 36.8795C16.0749 36.8795 16.3495 36.6047 16.3495 36.2768C16.3495 35.9488 16.0838 35.6741 15.7472 35.6741Z"/>
<path d="M14.711 35.2582C14.711 34.8949 14.4099 34.5935 14.0468 34.5935C13.6837 34.5935 13.3826 34.886 13.3826 35.2582C13.3826 35.6216 13.6837 35.923 14.0468 35.923C14.4099 35.923 14.711 35.6216 14.711 35.2582Z"/>
<path d="M12.4967 33.2993C12.0982 33.2993 11.7705 33.6273 11.7705 34.0261C11.7705 34.4249 12.0982 34.7529 12.4967 34.7529C12.8952 34.7529 13.2229 34.4249 13.2229 34.0261C13.2229 33.6273 12.8952 33.2993 12.4967 33.2993Z"/>
<path d="M11.1219 31.8101C10.688 31.8101 10.3337 32.1646 10.3337 32.5989C10.3337 33.0332 10.688 33.3877 11.1219 33.3877C11.5559 33.3877 11.9101 33.0332 11.9101 32.5989C11.9013 32.1557 11.5559 31.8101 11.1219 31.8101Z"/>
<path d="M9.9468 31.8449C10.4162 31.8449 10.7881 31.4638 10.7881 31.0029C10.7881 30.5331 10.4073 30.1609 9.9468 30.1609C9.47743 30.1609 9.10547 30.542 9.10547 31.0029C9.10547 31.4638 9.47743 31.8449 9.9468 31.8449Z"/>
<path d="M9.88356 29.2659C9.88356 28.7695 9.47618 28.3618 8.98023 28.3618C8.48429 28.3618 8.0769 28.7695 8.0769 29.2659C8.0769 29.7622 8.48429 30.1699 8.98023 30.1699C9.48503 30.1699 9.88356 29.7622 9.88356 29.2659Z"/>
<path d="M39.9496 21.7241C39.9232 21.7241 39.8967 21.7506 39.8967 21.7771C39.8967 21.8035 39.9232 21.83 39.9496 21.83C39.9761 21.83 40.0025 21.8035 40.0025 21.7771C40.0025 21.7418 39.9761 21.7241 39.9496 21.7241Z"/>
<path d="M39.3568 23.5588C39.2945 23.5588 39.25 23.6034 39.25 23.6658C39.25 23.7281 39.2945 23.7727 39.3568 23.7727C39.4192 23.7727 39.4637 23.7281 39.4637 23.6658C39.4637 23.6123 39.4192 23.5588 39.3568 23.5588Z"/>
<path d="M38.5769 25.3311C38.4883 25.3311 38.4175 25.402 38.4175 25.4906C38.4175 25.5792 38.4883 25.6501 38.5769 25.6501C38.6655 25.6501 38.7363 25.5792 38.7363 25.4906C38.7363 25.402 38.6655 25.3311 38.5769 25.3311Z"/>
<path d="M37.6032 27.0059C37.488 27.0059 37.3906 27.1034 37.3906 27.2186C37.3906 27.3427 37.488 27.4313 37.6032 27.4313C37.7183 27.4313 37.8157 27.3338 37.8157 27.2186C37.8157 27.1034 37.7183 27.0059 37.6032 27.0059Z"/>
<path d="M36.4523 28.5659C36.3017 28.5659 36.1777 28.69 36.1777 28.8407C36.1777 28.9914 36.3017 29.1066 36.4523 29.1066C36.6028 29.1066 36.7268 28.9825 36.7268 28.8407C36.7268 28.69 36.6028 28.5659 36.4523 28.5659Z"/>
<path d="M35.1412 30.0022C34.964 30.0022 34.8135 30.144 34.8135 30.3301C34.8135 30.5074 34.9552 30.6581 35.1412 30.6581C35.3183 30.6581 35.4688 30.5163 35.4688 30.3301C35.4688 30.144 35.3183 30.0022 35.1412 30.0022Z"/>
<path d="M33.6801 31.2874C33.4764 31.2874 33.3081 31.4558 33.3081 31.6685C33.3081 31.8812 33.4764 32.0496 33.6801 32.0496C33.8926 32.0496 34.0609 31.8812 34.0609 31.6685C34.0609 31.4558 33.8926 31.2874 33.6801 31.2874Z"/>
<path d="M32.0863 32.4126C31.8472 32.4126 31.6523 32.6076 31.6523 32.8469C31.6523 33.0862 31.8472 33.2812 32.0863 33.2812C32.3254 33.2812 32.5202 33.0862 32.5202 32.8469C32.5202 32.6076 32.3254 32.4126 32.0863 32.4126Z"/>
<path d="M30.3589 33.3257C30.0932 33.3257 29.8718 33.5473 29.8718 33.8132C29.8718 34.0791 30.0932 34.3006 30.3589 34.3006C30.6246 34.3006 30.846 34.0791 30.846 33.8132C30.8371 33.5384 30.6246 33.3257 30.3589 33.3257Z"/>
<path d="M28.5078 33.9993C28.2066 33.9993 27.9675 34.2386 27.9675 34.5399C27.9675 34.8413 28.2066 35.0806 28.5078 35.0806C28.8 35.0806 29.048 34.8413 29.048 34.5399C29.048 34.2386 28.8089 33.9993 28.5078 33.9993Z"/>
<path d="M26.587 34.4248C26.2593 34.4248 25.9937 34.6907 25.9937 35.0186C25.9937 35.3466 26.2593 35.6125 26.587 35.6125C26.9147 35.6125 27.1804 35.3466 27.1804 35.0186C27.1804 34.6907 26.9147 34.4248 26.587 34.4248Z"/>
<path d="M24.6201 34.5935C24.2659 34.5935 23.9736 34.886 23.9736 35.2405C23.9736 35.595 24.2659 35.8875 24.6201 35.8875C24.9744 35.8875 25.2666 35.595 25.2666 35.2405C25.2666 34.886 24.9744 34.5935 24.6201 34.5935Z"/>
<path d="M23.3356 35.2039C23.3356 34.8139 23.0256 34.5037 22.6359 34.5037C22.2462 34.5037 21.9363 34.8227 21.9363 35.2039C21.9363 35.5938 22.2462 35.9041 22.6359 35.9041C23.0256 35.9041 23.3356 35.5938 23.3356 35.2039Z"/>
<path d="M21.4323 34.9121C21.4323 34.4955 21.0958 34.1587 20.6795 34.1587C20.2633 34.1587 19.9268 34.4955 19.9268 34.9121C19.9268 35.3286 20.2633 35.6654 20.6795 35.6654C21.0958 35.6654 21.4323 35.3286 21.4323 34.9121Z"/>
<path d="M19.5814 34.3625C19.5814 33.9193 19.2183 33.5559 18.7667 33.5559C18.315 33.5559 17.9519 33.9193 17.9519 34.3625C17.9519 34.8145 18.315 35.1779 18.7667 35.1779C19.2183 35.169 19.5814 34.8056 19.5814 34.3625Z"/>
<path d="M17.8183 33.5644C17.8183 33.0858 17.4287 32.6958 16.9504 32.6958C16.4722 32.6958 16.0825 33.0858 16.0825 33.5644C16.0825 34.043 16.4722 34.433 16.9504 34.433C17.4287 34.433 17.8183 34.043 17.8183 33.5644Z"/>
<path d="M35.3708 7.20526C35.3972 7.20526 35.4237 7.17879 35.4237 7.15231C35.4237 7.12584 35.3972 7.09937 35.3708 7.09937C35.3443 7.09937 35.3179 7.12584 35.3179 7.15231C35.3179 7.18761 35.3443 7.20526 35.3708 7.20526Z"/>
<path d="M36.3019 9.01488C36.3642 9.01488 36.4088 8.97033 36.4088 8.90795C36.4088 8.84558 36.3642 8.80103 36.3019 8.80103C36.2396 8.80103 36.1951 8.85449 36.1951 8.90795C36.1862 8.97033 36.2396 9.01488 36.3019 9.01488Z"/>
<path d="M37.0276 10.9194C37.1161 10.9194 37.187 10.8485 37.187 10.7599C37.187 10.6712 37.1161 10.6003 37.0276 10.6003C36.939 10.6003 36.8682 10.6712 36.8682 10.7599C36.8682 10.8396 36.939 10.9194 37.0276 10.9194Z"/>
<path d="M37.5676 12.8781C37.6827 12.8781 37.7801 12.7806 37.7801 12.6654C37.7801 12.5413 37.6827 12.4438 37.5676 12.4438C37.4436 12.4438 37.3551 12.5413 37.3551 12.6654C37.3462 12.7806 37.4436 12.8781 37.5676 12.8781Z"/>
<path d="M37.6221 14.6239C37.6221 14.7746 37.7461 14.8898 37.8878 14.8898C38.0383 14.8898 38.1623 14.7657 38.1623 14.6239C38.1623 14.4732 38.0383 14.3491 37.8878 14.3491C37.7461 14.3491 37.6221 14.4732 37.6221 14.6239Z"/>
<path d="M38.0196 16.2729C37.8424 16.2729 37.6919 16.4148 37.6919 16.6009C37.6919 16.7782 37.8336 16.92 38.0196 16.92C38.1967 16.92 38.3472 16.7782 38.3472 16.6009C38.3384 16.4236 38.1967 16.2729 38.0196 16.2729Z"/>
<path d="M37.9301 18.2051C37.7264 18.2051 37.5493 18.3735 37.5493 18.5862C37.5493 18.7989 37.7176 18.9673 37.9301 18.9673C38.1427 18.9673 38.3109 18.7989 38.3109 18.5862C38.3109 18.3735 38.1427 18.2051 37.9301 18.2051Z"/>
<path d="M37.6381 20.1104C37.3989 20.1104 37.2041 20.3053 37.2041 20.5447C37.2041 20.784 37.3989 20.9789 37.6381 20.9789C37.8772 20.9789 38.072 20.784 38.072 20.5447C38.072 20.3053 37.8772 20.1104 37.6381 20.1104Z"/>
<path d="M37.5767 22.4506C37.5767 22.1847 37.3642 21.9631 37.0896 21.9631C36.8239 21.9631 36.6025 22.1847 36.6025 22.4506C36.6025 22.7165 36.8239 22.9381 37.0896 22.9381C37.3642 22.9381 37.5767 22.7165 37.5767 22.4506Z"/>
<path d="M36.3012 23.7268C36.0001 23.7268 35.761 23.9661 35.761 24.2675C35.761 24.5688 36.0001 24.8081 36.3012 24.8081C36.6023 24.8081 36.8414 24.5688 36.8414 24.2675C36.8414 23.975 36.6023 23.7268 36.3012 23.7268Z"/>
<path d="M35.2831 25.3757C34.9554 25.3757 34.6897 25.6416 34.6897 25.9696C34.6897 26.2975 34.9554 26.5634 35.2831 26.5634C35.6107 26.5634 35.8764 26.2975 35.8764 25.9696C35.8764 25.6416 35.6107 25.3757 35.2831 25.3757Z"/>
<path d="M34.044 26.8735C33.6897 26.8735 33.3975 27.166 33.3975 27.5206C33.3975 27.8751 33.6897 28.1676 34.044 28.1676C34.3982 28.1676 34.6905 27.8751 34.6905 27.5206C34.6993 27.166 34.4071 26.8735 34.044 26.8735Z"/>
<path d="M32.6164 28.1938C32.2267 28.1938 31.9167 28.5129 31.9167 28.894C31.9167 29.284 32.2267 29.5942 32.6164 29.5942C33.0061 29.5942 33.316 29.2752 33.316 28.894C33.3249 28.5129 33.0061 28.1938 32.6164 28.1938Z"/>
<path d="M31.0221 29.3193C30.6059 29.3193 30.2605 29.6561 30.2605 30.0727C30.2605 30.4893 30.597 30.8261 31.0221 30.8261C31.4384 30.8261 31.7749 30.4893 31.7749 30.0727C31.7838 29.6561 31.4472 29.3193 31.0221 29.3193Z"/>
<path d="M29.2962 30.2227C28.8445 30.2227 28.4814 30.5861 28.4814 31.0381C28.4814 31.4901 28.8445 31.8535 29.2962 31.8535C29.7479 31.8535 30.111 31.4901 30.111 31.0381C30.1021 30.5949 29.739 30.2227 29.2962 30.2227Z"/>
<path d="M27.4448 30.8967C26.9666 30.8967 26.5769 31.2867 26.5769 31.7653C26.5769 32.2439 26.9666 32.6339 27.4448 32.6339C27.923 32.6339 28.3127 32.2439 28.3127 31.7653C28.3127 31.2867 27.923 30.8967 27.4448 30.8967Z"/>
<path d="M21.8122 0.105894C21.8386 0.105894 21.8651 0.0794208 21.8651 0.0529471C21.8651 0.0264735 21.8386 0 21.8122 0C21.7857 0 21.7593 0.0264735 21.7593 0.0529471C21.7593 0.0794208 21.7769 0.105894 21.8122 0.105894Z"/>
<path d="M23.7089 0.746085C23.7712 0.746085 23.8157 0.701531 23.8157 0.639156C23.8157 0.576781 23.7623 0.532227 23.7089 0.532227C23.6466 0.532227 23.602 0.576781 23.602 0.639156C23.5931 0.701531 23.6466 0.746085 23.7089 0.746085Z"/>
<path d="M25.5239 1.58617C25.6125 1.58617 25.6833 1.51526 25.6833 1.42663C25.6833 1.338 25.6125 1.26709 25.5239 1.26709C25.4354 1.26709 25.3645 1.338 25.3645 1.42663C25.3645 1.51526 25.4354 1.58617 25.5239 1.58617Z"/>
<path d="M27.2502 2.6144C27.3742 2.6144 27.4628 2.5169 27.4628 2.40168C27.4628 2.28646 27.3653 2.18896 27.2502 2.18896C27.1351 2.18896 27.0288 2.28646 27.0288 2.40168C27.0377 2.5169 27.1351 2.6144 27.2502 2.6144Z"/>
<path d="M28.8707 3.81158C29.0213 3.81158 29.1364 3.68749 29.1364 3.54568C29.1364 3.39501 29.0124 3.27979 28.8707 3.27979C28.7202 3.27979 28.5962 3.40387 28.5962 3.54568C28.5962 3.69636 28.7202 3.81158 28.8707 3.81158Z"/>
<path d="M30.3503 5.18493C30.5274 5.18493 30.678 5.03426 30.678 4.85699C30.678 4.67973 30.5363 4.52905 30.3503 4.52905C30.1732 4.52905 30.0315 4.67086 30.0315 4.85699C30.0315 5.03426 30.1732 5.18493 30.3503 5.18493Z"/>
<path d="M31.696 6.70071C31.8997 6.70071 32.0768 6.53231 32.0768 6.3196C32.0768 6.10688 31.9085 5.93848 31.696 5.93848C31.4835 5.93848 31.3152 6.10688 31.3152 6.3196C31.3152 6.53231 31.4835 6.70071 31.696 6.70071Z"/>
<path d="M32.8754 8.34882C33.1145 8.34882 33.3093 8.15383 33.3093 7.91452C33.3093 7.67521 33.1145 7.48022 32.8754 7.48022C32.6362 7.48022 32.4414 7.67521 32.4414 7.91452C32.4414 8.15383 32.6274 8.34882 32.8754 8.34882Z"/>
<path d="M33.8306 10.1398C34.0963 10.1398 34.3177 9.91817 34.3177 9.65227C34.3177 9.38638 34.0963 9.16479 33.8306 9.16479C33.5649 9.16479 33.3435 9.37751 33.3435 9.65227C33.3435 9.91817 33.5649 10.1398 33.8306 10.1398Z"/>
<path d="M34.0259 11.4955C34.0259 11.7968 34.265 12.0361 34.5661 12.0361C34.8672 12.0361 35.1063 11.7968 35.1063 11.4955C35.1063 11.1941 34.8672 10.9548 34.5661 10.9548C34.265 10.9548 34.0259 11.1941 34.0259 11.4955Z"/>
<path d="M34.45 13.419C34.45 13.747 34.7156 14.0129 35.0433 14.0129C35.371 14.0129 35.6367 13.747 35.6367 13.419C35.6367 13.0911 35.371 12.8252 35.0433 12.8252C34.7156 12.8252 34.45 13.0911 34.45 13.419Z"/>
<path d="M34.6184 15.3955C34.6184 15.75 34.9107 16.0425 35.2649 16.0425C35.6192 16.0425 35.9114 15.75 35.9114 15.3955C35.9114 15.041 35.6192 14.7485 35.2649 14.7485C34.9018 14.7396 34.6184 15.0321 34.6184 15.3955Z"/>
<path d="M35.9303 17.3806C35.9303 16.9906 35.6203 16.6804 35.2306 16.6804C34.841 16.6804 34.531 16.9906 34.531 17.3806C34.531 17.7706 34.8498 18.0808 35.2306 18.0808C35.6115 18.0808 35.9303 17.7617 35.9303 17.3806Z"/>
<path d="M35.6899 19.3396C35.6899 18.9231 35.3534 18.5774 34.9372 18.5774C34.5209 18.5774 34.1755 18.9142 34.1755 19.3396C34.1755 19.7562 34.5121 20.093 34.9372 20.093C35.3534 20.093 35.6899 19.7562 35.6899 19.3396Z"/>
<path d="M35.1952 21.2454C35.1952 20.7933 34.8321 20.4299 34.3804 20.4299C33.9288 20.4299 33.5657 20.7933 33.5657 21.2454C33.5657 21.6885 33.9288 22.0608 34.3804 22.0608C34.8321 22.0519 35.1952 21.6885 35.1952 21.2454Z"/>
<path d="M33.5915 22.1936C33.1132 22.1936 32.7324 22.5836 32.7324 23.0622C32.7324 23.5408 33.1221 23.9308 33.5915 23.9308C34.0697 23.9308 34.4594 23.5408 34.4594 23.0622C34.4594 22.5836 34.0697 22.1936 33.5915 22.1936Z"/>
<path d="M7.20037 4.67987C7.22682 4.67987 7.25327 4.6534 7.25327 4.62692C7.25327 4.60045 7.22682 4.57397 7.20037 4.57397C7.17391 4.57397 7.14746 4.60045 7.14746 4.62692C7.14746 4.6534 7.17391 4.67987 7.20037 4.67987Z"/>
<path d="M8.95401 3.812C9.01634 3.812 9.06085 3.76745 9.06085 3.70507C9.06085 3.6427 9.00743 3.59814 8.95401 3.59814C8.89169 3.59814 8.84717 3.6427 8.84717 3.70507C8.84717 3.76745 8.89169 3.812 8.95401 3.812Z"/>
<path d="M10.7947 3.12896C10.8832 3.12896 10.9541 3.05806 10.9541 2.96943C10.9541 2.88079 10.8832 2.80103 10.7947 2.80103C10.7061 2.80103 10.6353 2.87193 10.6353 2.96943C10.6353 3.05806 10.7061 3.12896 10.7947 3.12896Z"/>
<path d="M12.7092 2.65004C12.8332 2.65004 12.9217 2.55255 12.9217 2.43733C12.9217 2.31324 12.8243 2.22461 12.7092 2.22461C12.5941 2.22461 12.4967 2.3221 12.4967 2.43733C12.4878 2.55255 12.5852 2.65004 12.7092 2.65004Z"/>
<path d="M14.6571 2.37537C14.8077 2.37537 14.9228 2.25129 14.9228 2.10061C14.9228 1.94994 14.7988 1.83472 14.6571 1.83472C14.5066 1.83472 14.3826 1.9588 14.3826 2.10061C14.3914 2.25129 14.5154 2.37537 14.6571 2.37537Z"/>
<path d="M16.6407 2.30505C16.8178 2.30505 16.9683 2.16324 16.9683 1.97711C16.9683 1.79984 16.8266 1.64917 16.6407 1.64917C16.4635 1.64917 16.313 1.79098 16.313 1.97711C16.313 2.16324 16.4635 2.30505 16.6407 2.30505Z"/>
<path d="M18.6162 2.44608C18.8287 2.44608 18.997 2.27767 18.997 2.06496C18.997 1.85224 18.8287 1.68384 18.6162 1.68384C18.4036 1.68384 18.2354 1.85224 18.2354 2.06496C18.2442 2.27767 18.4125 2.44608 18.6162 2.44608Z"/>
<path d="M20.5829 2.79218C20.822 2.79218 21.0168 2.59719 21.0168 2.35788C21.0168 2.11857 20.822 1.92358 20.5829 1.92358C20.3438 1.92358 20.1489 2.11857 20.1489 2.35788C20.1489 2.60605 20.3438 2.79218 20.5829 2.79218Z"/>
<path d="M22.4859 3.39463C22.7516 3.39463 22.973 3.17305 22.973 2.90716C22.973 2.64126 22.7516 2.41968 22.4859 2.41968C22.2202 2.41968 21.9988 2.64126 21.9988 2.90716C21.9988 3.17305 22.2202 3.39463 22.4859 3.39463Z"/>
<path d="M24.3017 4.23659C24.6028 4.23659 24.8419 3.99728 24.8419 3.69593C24.8419 3.39458 24.6028 3.15527 24.3017 3.15527C24.0006 3.15527 23.7615 3.39458 23.7615 3.69593C23.7703 3.99728 24.0094 4.23659 24.3017 4.23659Z"/>
<path d="M25.4077 4.71517C25.4077 5.04311 25.6734 5.30901 26.0011 5.30901C26.3288 5.30901 26.5944 5.04311 26.5944 4.71517C26.5944 4.38724 26.3288 4.12134 26.0011 4.12134C25.6734 4.12134 25.4077 4.38724 25.4077 4.71517Z"/>
<path d="M27.5508 6.60287C27.905 6.60287 28.1973 6.31038 28.1973 5.95585C28.1973 5.60132 27.905 5.30884 27.5508 5.30884C27.1877 5.30884 26.9043 5.60132 26.9043 5.95585C26.9043 6.31038 27.1966 6.60287 27.5508 6.60287Z"/>
<path d="M28.9322 8.08228C29.3219 8.08228 29.6319 7.7632 29.6319 7.38208C29.6319 6.9921 29.3131 6.68188 28.9322 6.68188C28.5426 6.68188 28.2326 7.00096 28.2326 7.38208C28.2237 7.77206 28.5426 8.08228 28.9322 8.08228Z"/>
<path d="M30.1016 8.21631C29.6854 8.21631 29.3489 8.55311 29.3489 8.96968C29.3489 9.38625 29.6854 9.72306 30.1016 9.72306C30.5179 9.72306 30.8544 9.38625 30.8544 8.96968C30.8633 8.56197 30.5267 8.21631 30.1016 8.21631Z"/>
<path d="M30.2605 10.7151C30.2605 11.1582 30.6236 11.5216 31.0664 11.5216C31.5181 11.5216 31.8723 11.1582 31.8723 10.7151C31.8723 10.2631 31.5092 9.89966 31.0664 9.89966C30.6147 9.89966 30.2605 10.2631 30.2605 10.7151Z"/>
<path d="M30.9253 12.559C30.9253 13.0376 31.315 13.4276 31.7932 13.4276C32.2714 13.4276 32.6522 13.0376 32.6522 12.559C32.6522 12.0804 32.2626 11.6904 31.7932 11.6904C31.315 11.6904 30.9253 12.0804 30.9253 12.559Z"/>
<path d="M32.2716 13.561C31.7668 13.561 31.3506 13.9776 31.3506 14.4828C31.3506 14.988 31.758 15.4046 32.2716 15.4046C32.7764 15.4046 33.1927 14.9969 33.1927 14.4828C33.1927 13.9776 32.7764 13.561 32.2716 13.561Z"/>
<path d="M0.106842 18.0984C0.0534208 18.0984 0 18.1429 0 18.1964C0 18.2499 0.0445173 18.2944 0.106842 18.2944C0.160263 18.2944 0.204781 18.2499 0.204781 18.1964C0.204781 18.1429 0.160263 18.0984 0.106842 18.0984Z"/>
<path d="M0.690996 16.1042C0.575866 16.1042 0.487305 16.1929 0.487305 16.3081C0.487305 16.4233 0.575866 16.512 0.690996 16.512C0.806126 16.512 0.894687 16.4233 0.894687 16.3081C0.894687 16.1929 0.806126 16.1042 0.690996 16.1042Z"/>
<path d="M1.781 14.4823C1.781 14.3139 1.6393 14.1721 1.47103 14.1721C1.30276 14.1721 1.16992 14.3051 1.16992 14.4823C1.16992 14.6507 1.30276 14.7925 1.47103 14.7925C1.64815 14.7925 1.781 14.6507 1.781 14.4823Z"/>
<path d="M2.444 13.1618C2.66541 13.1618 2.85139 12.9757 2.85139 12.7541C2.85139 12.5326 2.66541 12.3464 2.444 12.3464C2.2226 12.3464 2.03662 12.5326 2.03662 12.7541C2.03662 12.9846 2.2226 13.1618 2.444 13.1618Z"/>
<path d="M3.59513 11.6465C3.87853 11.6465 4.10879 11.4161 4.10879 11.1325C4.10879 10.8489 3.87853 10.6184 3.59513 10.6184C3.31174 10.6184 3.09033 10.8489 3.09033 11.1325C3.09033 11.425 3.31174 11.6465 3.59513 11.6465Z"/>
<path d="M4.90648 10.2634C5.24302 10.2634 5.51756 9.98865 5.51756 9.65185C5.51756 9.31504 5.24302 9.04028 4.90648 9.04028C4.56995 9.04028 4.29541 9.31504 4.29541 9.65185C4.29541 9.98865 4.56995 10.2634 4.90648 10.2634Z"/>
<path d="M6.36749 9.02203C6.75717 9.02203 7.07599 8.70295 7.07599 8.3041C7.07599 7.91412 6.75717 7.58618 6.36749 7.58618C5.97782 7.58618 5.65015 7.90526 5.65015 8.3041C5.659 8.70295 5.97782 9.02203 6.36749 9.02203Z"/>
<path d="M7.96223 7.95041C8.41389 7.95041 8.777 7.58702 8.777 7.135C8.777 6.68297 8.41389 6.31958 7.96223 6.31958C7.51056 6.31958 7.14746 6.68297 7.14746 7.135C7.14746 7.58702 7.51056 7.95041 7.96223 7.95041Z"/>
<path d="M9.68813 7.07224C10.1929 7.07224 10.6003 6.65566 10.6003 6.15046C10.6003 5.64526 10.1929 5.23755 9.68813 5.23755C9.18333 5.23755 8.76709 5.64526 8.76709 6.15046C8.76709 6.65566 9.18333 7.07224 9.68813 7.07224Z"/>
<path d="M11.522 6.42587C12.0357 6.42587 12.4519 6.04475 12.5227 5.55728C12.7264 5.84976 13.063 6.03589 13.4349 6.03589C13.8689 6.03589 14.2408 5.78772 14.4268 5.43319C14.6482 5.72568 15.0025 5.92067 15.401 5.92067C15.7641 5.92067 16.0829 5.76113 16.3043 5.52182C16.5434 5.85863 16.9331 6.08021 17.3848 6.08021C17.6682 6.08021 17.925 5.99158 18.1375 5.8409C18.1907 5.92067 18.2438 5.99158 18.3058 6.06248C17.9693 6.09793 17.6682 6.23975 17.4379 6.46133C17.1899 6.23088 16.8534 6.08907 16.4814 6.08907C16.0121 6.08907 15.5958 6.31951 15.339 6.67404C15.1087 6.49678 14.8253 6.39042 14.5154 6.39042C13.9752 6.39042 13.5146 6.7095 13.3021 7.17038C13.0984 7.02857 12.8593 6.9488 12.5936 6.9488C11.9914 6.9488 11.4954 7.36538 11.3626 7.92376C11.1855 7.8174 10.9729 7.74649 10.7515 7.74649C10.0962 7.74649 9.56479 8.27829 9.56479 8.9253C9.40537 8.82781 9.21054 8.77463 9.0157 8.77463C8.40463 8.77463 7.90868 9.27097 7.90868 9.88253C7.90868 9.98889 7.9264 10.0952 7.95296 10.1927C7.79355 10.0952 7.61643 10.0421 7.42159 10.0421C6.8548 10.0421 6.39428 10.503 6.39428 11.0702C6.39428 11.6375 6.8548 12.0983 7.42159 12.0983C7.98839 12.0983 8.44891 11.6375 8.44891 11.0702C8.44891 10.9816 8.4312 10.9018 8.41348 10.8132C8.59061 10.9284 8.7943 10.9904 9.0157 10.9904C9.60907 10.9904 10.0962 10.5207 10.1139 9.92685C10.2998 10.0421 10.5124 10.113 10.7427 10.113C10.7604 10.113 10.7869 10.113 10.8046 10.113C10.5567 10.3346 10.3973 10.6536 10.3618 11.0082C10.2821 10.9904 10.2024 10.9816 10.1227 10.9816C9.40537 10.9816 8.82972 11.5665 8.82972 12.2756C8.82972 12.3288 8.82972 12.3731 8.83858 12.4263C8.7943 12.4174 8.74116 12.4174 8.69688 12.4174C8.01496 12.4174 7.46588 12.9669 7.46588 13.6494C7.46588 13.7824 7.48359 13.9153 7.52787 14.0394C7.5013 14.0394 7.47473 14.0394 7.45702 14.0394C6.81938 14.0394 6.29686 14.5623 6.29686 15.2005C6.29686 15.422 6.35886 15.6259 6.47399 15.812C6.46513 15.812 6.45627 15.812 6.43856 15.812C5.83634 15.812 5.34925 16.2995 5.34925 16.9022C5.34925 17.2213 5.4821 17.5049 5.69464 17.6999C5.67693 17.6999 5.65922 17.691 5.65036 17.691C5.08357 17.691 4.62305 18.1519 4.62305 18.7192C4.62305 19.2864 5.08357 19.7473 5.65036 19.7473C6.21716 19.7473 6.67768 19.2864 6.67768 18.7192C6.67768 18.4355 6.56255 18.1785 6.36771 17.9924C6.39428 17.9924 6.41199 17.9924 6.43856 17.9924C6.75738 17.9924 7.04078 17.8594 7.23561 17.6379C7.23561 17.6467 7.23561 17.6644 7.23561 17.6733C7.23561 17.9569 7.32418 18.214 7.48359 18.4267C7.01421 18.5951 6.68653 19.0382 6.68653 19.5612C6.68653 19.9246 6.8548 20.2525 7.11163 20.483C6.7131 20.6602 6.43856 21.0591 6.43856 21.52C6.43856 21.9631 6.68653 22.3442 7.04964 22.5392C6.69539 22.7165 6.45627 23.0799 6.45627 23.5053C6.45627 24.0194 6.81937 24.4537 7.29761 24.56C6.96993 24.7284 6.73081 25.0741 6.73081 25.4729C6.73081 26.0402 7.19133 26.5011 7.75813 26.5011C7.82012 26.5011 7.88211 26.4922 7.94411 26.4834C7.55444 26.6074 7.27104 26.9708 7.27104 27.3963C7.27104 27.9281 7.70499 28.3624 8.23636 28.3624C8.76773 28.3624 9.20168 27.9281 9.20168 27.3963C9.20168 26.8645 8.76773 26.4302 8.23636 26.4302C8.17437 26.4302 8.12123 26.439 8.05924 26.4479C8.47548 26.315 8.78544 25.9338 8.78544 25.4729C8.78544 25.4464 8.77659 25.4286 8.77659 25.402C8.936 25.5793 9.14855 25.7034 9.37881 25.7566C9.21054 25.9516 9.10427 26.2086 9.10427 26.4922C9.10427 27.1215 9.60907 27.6267 10.2379 27.6267C10.2467 27.6267 10.2556 27.6267 10.2644 27.6267C10.1316 27.804 10.0607 28.0256 10.0607 28.256C10.0607 28.8498 10.5478 29.3373 11.1412 29.3373C11.2475 29.3373 11.3537 29.3196 11.4511 29.293C11.3449 29.4525 11.2829 29.6475 11.2829 29.8602C11.2829 30.4275 11.7434 30.8884 12.3102 30.8884C12.5493 30.8884 12.7707 30.7997 12.9478 30.6579C12.8061 30.8263 12.7087 31.0479 12.7087 31.2872C12.7087 31.8279 13.1427 32.2622 13.6829 32.2622C14.2231 32.2622 14.6571 31.8279 14.6571 31.2872C14.6571 31.0302 14.5508 30.7909 14.3914 30.6136C14.5242 30.6136 14.6482 30.587 14.7634 30.5516C14.7634 30.5516 14.7634 30.5604 14.7634 30.5693C14.7634 31.0302 15.029 31.429 15.4099 31.624C15.3567 31.6152 15.2947 31.6063 15.2327 31.6063C14.7279 31.6063 14.3117 32.014 14.3117 32.5281C14.3117 33.0333 14.7191 33.4499 15.2327 33.4499C15.7375 33.4499 16.1538 33.0421 16.1538 32.5281C16.1538 32.1824 15.9589 31.8811 15.6667 31.7215C15.7552 31.7481 15.8527 31.757 15.9501 31.757C16.1803 31.757 16.3929 31.6861 16.5789 31.5797C16.6231 32.1647 17.1102 32.6167 17.7125 32.6167C18.0313 32.6167 18.3235 32.4838 18.5272 32.2622C18.6069 32.7763 19.0586 33.1751 19.5988 33.1751C20.0062 33.1751 20.3693 32.9447 20.5464 32.599C20.6438 33.0687 21.0601 33.4233 21.556 33.4233C22.0874 33.4233 22.5125 33.0244 22.5745 32.5015C22.6099 33.0067 23.0261 33.4055 23.5398 33.4055C24.08 33.4055 24.514 32.9712 24.514 32.4306C24.514 31.8988 24.0889 31.4734 23.5664 31.4645C23.6549 31.3759 23.7258 31.2695 23.7878 31.1543C24.0003 31.3759 24.3014 31.5088 24.638 31.5088C24.762 31.5088 24.8859 31.4911 25.0011 31.4556C24.762 31.624 24.5937 31.8988 24.5937 32.2179C24.5937 32.7231 25.0099 33.1396 25.5147 33.1396C26.0195 33.1396 26.4358 32.7319 26.4358 32.2179C26.4358 31.7127 26.0284 31.2961 25.5147 31.2961C25.4173 31.2961 25.3376 31.3138 25.249 31.3404C25.5236 31.1809 25.7184 30.9061 25.7893 30.587C25.9841 30.7554 26.2409 30.8529 26.5243 30.8529C27.1531 30.8529 27.6579 30.3477 27.6579 29.7184C27.6579 29.7096 27.6579 29.7007 27.6579 29.6918C27.835 29.8248 28.0565 29.8957 28.2867 29.8957C28.8801 29.8957 29.3672 29.4082 29.3672 28.8144C29.3672 28.708 29.3495 28.6017 29.3229 28.5042C29.4823 28.6105 29.6771 28.6814 29.8897 28.6814C30.4565 28.6814 30.917 28.2206 30.917 27.6533C30.917 27.414 30.8284 27.1924 30.6867 27.0152C30.855 27.1658 31.0764 27.2545 31.3155 27.2545C31.8557 27.2545 32.2897 26.8202 32.2897 26.2795C32.2897 25.7388 31.8557 25.3046 31.3155 25.3046C31.0587 25.3046 30.8196 25.4109 30.6424 25.5793C30.6424 25.4464 30.6159 25.3223 30.5805 25.2071H30.5893C31.0498 25.2071 31.4484 24.9412 31.6521 24.56C31.6432 24.6221 31.6343 24.6753 31.6343 24.7373C31.6343 25.2425 32.0417 25.6591 32.5554 25.6591C33.0602 25.6591 33.4764 25.2514 33.4764 24.7373C33.4764 24.2321 33.0602 23.8155 32.5554 23.8155C32.2011 23.8155 31.9089 24.0105 31.7495 24.303C31.776 24.2144 31.7849 24.1169 31.7849 24.0194C31.7849 23.7889 31.714 23.5762 31.6078 23.3901C32.1923 23.3458 32.6439 22.8583 32.6439 22.2645C32.6439 21.9454 32.5111 21.6529 32.2897 21.449C32.8034 21.3693 33.2019 20.9173 33.2019 20.3855C33.2019 19.9689 32.9716 19.6144 32.6351 19.4282C33.1045 19.3307 33.4587 18.9142 33.4587 18.4178C33.4587 17.886 33.0602 17.4517 32.5377 17.3986C33.0425 17.3631 33.441 16.9465 33.441 16.4325C33.441 15.8918 33.007 15.4575 32.4668 15.4575C31.9266 15.4575 31.4926 15.8918 31.4926 16.4325C31.4926 16.9288 31.8735 17.3365 32.3605 17.3986C31.8292 17.434 31.4041 17.8772 31.4041 18.4178C31.4041 18.8078 31.6255 19.1357 31.9355 19.313C31.4307 19.4016 31.041 19.8448 31.041 20.3766C31.041 20.6691 31.165 20.9438 31.3598 21.1388C30.8019 21.2186 30.3768 21.6884 30.3768 22.2645C30.3768 22.4772 30.4299 22.6722 30.5362 22.8406C29.9074 22.876 29.4114 23.3901 29.4114 24.0282C29.4114 24.1435 29.4292 24.2587 29.4646 24.3739C29.4469 24.3739 29.4292 24.3739 29.4114 24.3739C28.7207 24.3739 28.1716 24.9323 28.1716 25.6148C28.1716 25.6414 28.1716 25.6768 28.1804 25.7034C28.1184 25.6945 28.0476 25.6857 27.9856 25.6857C27.3302 25.6857 26.79 26.1731 26.7015 26.7936C26.5863 26.767 26.4712 26.7493 26.3472 26.7493C25.807 26.7493 25.3376 27.0683 25.1251 27.5292C24.8594 27.3165 24.514 27.219 24.1597 27.281C23.7612 27.352 23.4512 27.6179 23.3007 27.9635C23.0439 27.6888 22.663 27.5381 22.2645 27.5913C21.8748 27.6444 21.556 27.8837 21.3789 28.2117C21.1664 27.9369 20.8298 27.7685 20.4579 27.7685C20.1125 27.7685 19.8025 27.9103 19.5811 28.1408C19.4483 27.8394 19.1826 27.5913 18.8372 27.4938C18.4741 27.3874 18.0933 27.4583 17.8099 27.6622C17.7302 27.3165 17.5088 27.0152 17.1634 26.8467C16.8357 26.6872 16.4726 26.6961 16.1626 26.8379C16.1538 26.5011 16.0032 26.1731 15.711 25.9427C15.4364 25.7211 15.0999 25.6502 14.7811 25.7034C14.8608 25.3755 14.7899 25.0121 14.5774 24.7196C14.3471 24.4094 13.9929 24.2498 13.6386 24.241C13.7803 23.9219 13.7715 23.5408 13.6032 23.2128C13.4438 22.9115 13.1692 22.7076 12.8681 22.619C13.063 22.3708 13.1515 22.0429 13.0984 21.7061C13.0364 21.3338 12.815 21.0325 12.5227 20.8641C12.8061 20.6425 12.9921 20.2968 12.9921 19.9068C12.9921 19.5523 12.8327 19.2421 12.5847 19.0205C12.8858 18.8698 13.1161 18.5951 13.2047 18.2406C13.2932 17.8949 13.2135 17.5404 13.0187 17.2656C13.3287 17.1947 13.6121 16.9997 13.7892 16.7072C13.9663 16.3881 13.9929 16.0247 13.8777 15.7057C14.2231 15.7234 14.5774 15.5905 14.8253 15.3068C15.0733 15.0321 15.1619 14.6775 15.1176 14.3319C15.4364 14.4116 15.7907 14.3585 16.0829 14.1546C16.384 13.9419 16.5612 13.6228 16.5877 13.286C16.8888 13.4455 17.2608 13.4721 17.6062 13.3303C17.925 13.1974 18.1553 12.9403 18.2615 12.639C18.5007 12.8606 18.8283 12.9758 19.1826 12.9403C19.5634 12.9049 19.8822 12.6922 20.0682 12.3908C20.263 12.6744 20.5819 12.8694 20.9538 12.896C21.3081 12.9226 21.6357 12.7897 21.8748 12.5592C21.9988 12.8694 22.2557 13.1353 22.6099 13.2506C22.9642 13.3746 23.345 13.3126 23.6372 13.1176C23.6992 13.4544 23.9118 13.7646 24.2394 13.9419C24.514 14.0926 24.8151 14.1192 25.0896 14.0571C25.1251 14.1014 25.1605 14.1457 25.1871 14.1812C25.2048 14.4382 25.3022 14.6864 25.4882 14.8903C25.497 14.8991 25.5059 14.908 25.5147 14.9168C26.1258 15.555 27.5339 17.0972 27.2683 19.1623C27.1974 19.6764 27.4897 19.9334 27.8616 19.5435C30.1022 17.1327 29.748 14.1635 29.6948 13.8178C29.686 13.5874 29.6328 13.3746 29.5531 13.1708C29.5797 13.0467 29.5886 12.9138 29.5886 12.7808C29.5886 12.1604 29.2875 11.602 28.8269 11.2563C28.8446 11.1411 28.8624 11.0259 28.8624 10.9107C28.8624 10.1396 28.3841 9.48369 27.7111 9.20893C27.6933 8.34919 27.0557 7.64014 26.2321 7.50719C26.0904 6.72722 25.4085 6.14225 24.5937 6.14225C24.5671 6.14225 24.5317 6.14225 24.5051 6.14225C24.3014 5.5041 23.7081 5.05207 22.9996 5.05207C22.8579 5.05207 22.725 5.0698 22.6011 5.10525C22.3619 4.59118 21.8483 4.22779 21.2372 4.22779C20.9981 4.22779 20.7767 4.28097 20.5819 4.37847C20.3339 3.9619 19.8822 3.67827 19.3597 3.67827C19.0232 3.67827 18.7221 3.79349 18.4829 3.98848C18.2438 3.66055 17.8542 3.43896 17.4113 3.43896C16.9951 3.43896 16.6231 3.63396 16.3752 3.93531C16.1538 3.66055 15.8084 3.48328 15.4276 3.48328C14.9316 3.48328 14.5065 3.77577 14.3205 4.2012C14.1169 3.9619 13.8069 3.80236 13.4615 3.80236C12.8858 3.80236 12.4076 4.23666 12.3456 4.8039C12.1596 4.55573 11.8674 4.39619 11.5397 4.39619C10.9729 4.39619 10.5213 4.85708 10.5213 5.41547C10.5035 5.97385 10.9641 6.42587 11.522 6.42587Z"/>
<path d="M4.67627 32.7407C4.63206 32.7407 4.59668 32.7761 4.59668 32.8204C4.59668 32.8646 4.63206 32.9 4.67627 32.9C4.72049 32.9 4.75587 32.8646 4.75587 32.8204C4.75587 32.7761 4.72049 32.7407 4.67627 32.7407Z"/>
<path d="M3.75438 30.906C3.66582 30.906 3.59497 30.9769 3.59497 31.0655C3.59497 31.1542 3.66582 31.2251 3.75438 31.2251C3.84294 31.2251 3.91379 31.1542 3.91379 31.0655C3.91379 30.9769 3.84294 30.906 3.75438 30.906Z"/>
<path d="M3.02012 28.9822C2.88728 28.9822 2.78101 29.0885 2.78101 29.2215C2.78101 29.3544 2.88728 29.4608 3.02012 29.4608C3.15297 29.4608 3.25924 29.3544 3.25924 29.2215C3.25924 29.0885 3.15297 28.9822 3.02012 28.9822Z"/>
<path d="M2.48899 26.9971C2.31187 26.9971 2.17017 27.1389 2.17017 27.3161C2.17017 27.4934 2.31187 27.6352 2.48899 27.6352C2.66611 27.6352 2.80781 27.4934 2.80781 27.3161C2.79895 27.1389 2.65726 26.9971 2.48899 26.9971Z"/>
<path d="M2.55065 25.3578C2.55065 25.1363 2.37353 24.959 2.16098 24.959C1.93957 24.959 1.76245 25.1363 1.76245 25.3578C1.76245 25.5794 1.93957 25.7478 2.16098 25.7478C2.37353 25.7478 2.55065 25.5794 2.55065 25.3578Z"/>
<path d="M2.50614 23.3811C2.50614 23.1241 2.29359 22.9114 2.03676 22.9114C1.77993 22.9114 1.56738 23.1241 1.56738 23.3811C1.56738 23.647 1.77993 23.8597 2.03676 23.8597C2.29359 23.8509 2.50614 23.6382 2.50614 23.3811Z"/>
<path d="M1.56738 21.3955C1.56738 21.6968 1.81536 21.945 2.11647 21.945C2.41757 21.945 2.66555 21.6968 2.66555 21.3955C2.66555 21.0853 2.41757 20.8459 2.11647 20.8459C1.81536 20.8459 1.56738 21.0853 1.56738 21.3955Z"/>
<path d="M2.41756 20.0664C2.76296 20.0664 3.04635 19.7828 3.04635 19.4372C3.04635 19.0915 2.76296 18.8079 2.41756 18.8079C2.07217 18.8079 1.78878 19.0915 1.78878 19.4372C1.77992 19.7828 2.06332 20.0664 2.41756 20.0664Z"/>
<path d="M2.95727 16.8137C2.5676 16.8137 2.24878 17.1328 2.24878 17.5228C2.24878 17.9128 2.5676 18.2318 2.95727 18.2318C3.34694 18.2318 3.66576 17.9128 3.66576 17.5228C3.66576 17.1328 3.34694 16.8137 2.95727 16.8137Z"/>
<path d="M3.74645 16.4944C4.1804 16.4944 4.53465 16.1399 4.53465 15.7056C4.53465 15.2713 4.1804 14.9167 3.74645 14.9167C3.3125 14.9167 2.95825 15.2713 2.95825 15.7056C2.95825 16.1399 3.3125 16.4944 3.74645 16.4944Z"/>
<path d="M4.76439 14.8724C5.24262 14.8724 5.63229 14.4825 5.63229 14.0039C5.63229 13.5252 5.24262 13.1353 4.76439 13.1353C4.28616 13.1353 3.89648 13.5252 3.89648 14.0039C3.89648 14.4825 4.28616 14.8724 4.76439 14.8724Z"/>
<path d="M6.95186 12.453C6.95186 11.9301 6.52676 11.5046 6.00425 11.5046C5.48174 11.5046 5.05664 11.9301 5.05664 12.453C5.05664 12.9759 5.48174 13.4014 6.00425 13.4014C6.52676 13.4014 6.95186 12.9759 6.95186 12.453Z"/>
</svg>
