<?xml version="1.0" encoding="utf-8"?>
<svg version="1.1" id="Layer_1" xmlns="http://www.w3.org/2000/svg" xmlns:xlink="http://www.w3.org/1999/xlink" x="0px" y="0px"
	 viewBox="0 0 512 512" style="enable-background:new 0 0 512 512;" xml:space="preserve">
	 <style>
		 path {
		 fill: #202328;
		 }
		 @media (prefers-color-scheme: dark) {
		 path {
		 fill: white;
		 }
		 }
	 </style>
		<path d="M495.621,251.568c-7.215-13.201-17.229-23.018-26.064-31.678c-11.455-11.229-20.505-20.099-22.489-33.65
			c-7.519-51.325-33.412-98.451-72.911-132.697C334.334,19.015,283.328,0,230.533,0C109.794,0,11.566,98.228,11.566,218.967
			c0,50.851,20.073,101.159,53.694,134.576c5.344,5.311,11.566,9.837,18.347,13.717V512H314.22v-55.415h73.141
			c33.898,0,61.476-27.578,61.476-61.476v-85.806h12.429c13.951,0,26.532-7.169,33.654-19.177
			C502.016,278.164,502.277,263.75,495.621,251.568z M280.831,478.609H117v-29.826h43.915v-33.391H117v-34.766
			c25.772,7.024,53.072,8.692,71.718,8.825c9.105,0.066,17.646,4.566,22.849,12.039l20.004,28.739
			c11.26,16.175,29.606,25.936,49.261,26.319V478.609z M466.203,273.091c-0.626,1.053-2.097,2.82-4.935,2.82h-45.821v69.132h-46.55
			v33.391h46.55v16.673c0,15.486-12.599,28.084-28.084,28.084H282.026c-9.186,0-17.803-4.501-23.051-12.04l-20.004-28.739
			c-11.386-16.358-30.083-26.211-50.015-26.355c-46.544-0.333-83.986-10.128-100.157-26.2
			c-27.042-26.878-43.843-69.37-43.843-110.894c0.001-102.325,83.25-185.574,185.577-185.574c44.759,0,87.998,16.116,121.75,45.38
			c33.458,29.009,55.386,68.893,61.746,112.306c3.616,24.683,18.777,39.544,32.154,52.657c7.87,7.716,15.304,15.002,20.137,23.846
			C467.635,269.988,466.811,272.067,466.203,273.091z"/>
		<path d="M192.195,92.807c-53.314,0-96.689,43.375-96.689,96.689s43.374,96.689,96.689,96.689
			c53.315,0,96.689-43.375,96.689-96.689S245.509,92.807,192.195,92.807z M175.5,250.543c-21.502-5.888-38.462-22.85-44.35-44.351
			h44.35V250.543z M175.5,172.8h-44.35c5.888-21.502,22.849-38.463,44.35-44.351V172.8z M208.891,250.543v-44.351h44.35
			C247.353,227.693,230.393,244.655,208.891,250.543z M208.891,172.8v-44.351c21.502,5.888,38.462,22.85,44.35,44.351H208.891z"/>
</svg>
