<svg width="972" height="292" viewBox="0 0 972 292" fill="none" xmlns="http://www.w3.org/2000/svg">
<path d="M206 205C206 199.477 210.477 195 216 195H326C331.523 195 336 199.477 336 205V250C336 255.523 331.523 260 326 260H216C210.477 260 206 255.523 206 250V205Z" fill="#F5F7FA"/>
<g clip-path="url(#clip0_317_2729)">
<path fill-rule="evenodd" clip-rule="evenodd" d="M72.4553 169.093C68.5622 165.176 62.2305 165.156 58.313 169.049L7.13739 219.907C3.20273 223.817 3.20273 230.183 7.13739 234.093L58.3131 284.951C62.2305 288.844 68.5622 288.824 72.4553 284.907L122.995 234.049C126.871 230.149 126.871 223.851 122.995 219.951L72.4553 169.093Z" fill="#C3D7E0"/>
<circle cx="65" cy="208" r="20" fill="white"/>
<g clip-path="url(#clip1_317_2729)">
<path d="M65 198C59.48 198 55 202.48 55 208C55 213.52 59.48 218 65 218C70.52 218 75 213.52 75 208C75 202.48 70.52 198 65 198ZM60.07 214.28C60.5 213.38 63.12 212.5 65 212.5C66.88 212.5 69.51 213.38 69.93 214.28C68.57 215.36 66.86 216 65 216C63.14 216 61.43 215.36 60.07 214.28ZM71.36 212.83C69.93 211.09 66.46 210.5 65 210.5C63.54 210.5 60.07 211.09 58.64 212.83C57.62 211.49 57 209.82 57 208C57 203.59 60.59 200 65 200C69.41 200 73 203.59 73 208C73 209.82 72.38 211.49 71.36 212.83ZM65 202C63.06 202 61.5 203.56 61.5 205.5C61.5 207.44 63.06 209 65 209C66.94 209 68.5 207.44 68.5 205.5C68.5 203.56 66.94 202 65 202ZM65 207C64.17 207 63.5 206.33 63.5 205.5C63.5 204.67 64.17 204 65 204C65.83 204 66.5 204.67 66.5 205.5C66.5 206.33 65.83 207 65 207Z" fill="#4C515E"/>
</g>
<rect x="5" y="236" width="120" height="24" rx="12" fill="#4C515E"/>
<path d="M43.9591 243.624C44.8391 243.624 45.6111 243.796 46.2751 244.14C46.9471 244.484 47.4631 244.976 47.8231 245.616C48.1911 246.248 48.3751 246.984 48.3751 247.824C48.3751 248.664 48.1911 249.4 47.8231 250.032C47.4631 250.656 46.9471 251.14 46.2751 251.484C45.6111 251.828 44.8391 252 43.9591 252H41.0311V243.624H43.9591ZM43.8991 250.572C44.7791 250.572 45.4591 250.332 45.9391 249.852C46.4191 249.372 46.6591 248.696 46.6591 247.824C46.6591 246.952 46.4191 246.272 45.9391 245.784C45.4591 245.288 44.7791 245.04 43.8991 245.04H42.7111V250.572H43.8991ZM51.3127 243.624V252H49.6327V243.624H51.3127ZM59.6325 243.624L56.8005 249.084V252H55.1205V249.084L52.2765 243.624H54.1725L55.9725 247.452L57.7605 243.624H59.6325ZM65.1168 243.624V248.808C65.1168 249.376 65.2648 249.812 65.5608 250.116C65.8568 250.412 66.2728 250.56 66.8088 250.56C67.3528 250.56 67.7728 250.412 68.0688 250.116C68.3648 249.812 68.5128 249.376 68.5128 248.808V243.624H70.2048V248.796C70.2048 249.508 70.0488 250.112 69.7368 250.608C69.4328 251.096 69.0208 251.464 68.5008 251.712C67.9888 251.96 67.4168 252.084 66.7848 252.084C66.1608 252.084 65.5928 251.96 65.0808 251.712C64.5768 251.464 64.1768 251.096 63.8808 250.608C63.5848 250.112 63.4368 249.508 63.4368 248.796V243.624H65.1168ZM74.372 252.108C73.828 252.108 73.34 252.012 72.908 251.82C72.476 251.62 72.132 251.352 71.876 251.016C71.628 250.68 71.492 250.308 71.468 249.9H73.16C73.192 250.156 73.316 250.368 73.532 250.536C73.756 250.704 74.032 250.788 74.36 250.788C74.68 250.788 74.928 250.724 75.104 250.596C75.288 250.468 75.38 250.304 75.38 250.104C75.38 249.888 75.268 249.728 75.044 249.624C74.828 249.512 74.48 249.392 74 249.264C73.504 249.144 73.096 249.02 72.776 248.892C72.464 248.764 72.192 248.568 71.96 248.304C71.736 248.04 71.624 247.684 71.624 247.236C71.624 246.868 71.728 246.532 71.936 246.228C72.152 245.924 72.456 245.684 72.848 245.508C73.248 245.332 73.716 245.244 74.252 245.244C75.044 245.244 75.676 245.444 76.148 245.844C76.62 246.236 76.88 246.768 76.928 247.44H75.32C75.296 247.176 75.184 246.968 74.984 246.816C74.792 246.656 74.532 246.576 74.204 246.576C73.9 246.576 73.664 246.632 73.496 246.744C73.336 246.856 73.256 247.012 73.256 247.212C73.256 247.436 73.368 247.608 73.592 247.728C73.816 247.84 74.164 247.956 74.636 248.076C75.116 248.196 75.512 248.32 75.824 248.448C76.136 248.576 76.404 248.776 76.628 249.048C76.86 249.312 76.98 249.664 76.988 250.104C76.988 250.488 76.88 250.832 76.664 251.136C76.456 251.44 76.152 251.68 75.752 251.856C75.36 252.024 74.9 252.108 74.372 252.108ZM84.5471 248.532C84.5471 248.772 84.5311 248.988 84.4991 249.18H79.6391C79.6791 249.66 79.8471 250.036 80.1431 250.308C80.4391 250.58 80.8031 250.716 81.2351 250.716C81.8591 250.716 82.3031 250.448 82.5671 249.912H84.3791C84.1871 250.552 83.8191 251.08 83.2751 251.496C82.7311 251.904 82.0631 252.108 81.2711 252.108C80.6311 252.108 80.0551 251.968 79.5431 251.688C79.0391 251.4 78.6431 250.996 78.3551 250.476C78.0751 249.956 77.9351 249.356 77.9351 248.676C77.9351 247.988 78.0751 247.384 78.3551 246.864C78.6351 246.344 79.0271 245.944 79.5311 245.664C80.0351 245.384 80.6151 245.244 81.2711 245.244C81.9031 245.244 82.4671 245.38 82.9631 245.652C83.4671 245.924 83.8551 246.312 84.1271 246.816C84.4071 247.312 84.5471 247.884 84.5471 248.532ZM82.8071 248.052C82.7991 247.62 82.6431 247.276 82.3391 247.02C82.0351 246.756 81.6631 246.624 81.2231 246.624C80.8071 246.624 80.4551 246.752 80.1671 247.008C79.8871 247.256 79.7151 247.604 79.6511 248.052H82.8071ZM87.4533 246.384C87.6693 246.032 87.9493 245.756 88.2933 245.556C88.6453 245.356 89.0453 245.256 89.4933 245.256V247.02H89.0493C88.5213 247.02 88.1213 247.144 87.8493 247.392C87.5853 247.64 87.4533 248.072 87.4533 248.688V252H85.7733V245.352H87.4533V246.384Z" fill="white"/>
</g>
<g clip-path="url(#clip2_317_2729)">
<path fill-rule="evenodd" clip-rule="evenodd" d="M72.4553 7.09335C68.5622 3.17583 62.2305 3.15603 58.313 7.04914L7.13739 57.9069C3.20273 61.8172 3.20273 68.1828 7.13739 72.0931L58.3131 122.951C62.2305 126.844 68.5622 126.824 72.4553 122.907L122.995 72.0489C126.871 68.1488 126.871 61.8512 122.995 57.9511L72.4553 7.09335Z" fill="#01D1FF" fill-opacity="0.27"/>
<rect x="5" y="74" width="120" height="24" rx="12" fill="#00D1FF"/>
<path d="M27.6048 90.084C27.0208 90.084 26.4928 89.984 26.0208 89.784C25.5568 89.584 25.1888 89.296 24.9168 88.92C24.6448 88.544 24.5048 88.1 24.4968 87.588H26.2968C26.3208 87.932 26.4408 88.204 26.6568 88.404C26.8808 88.604 27.1848 88.704 27.5688 88.704C27.9608 88.704 28.2688 88.612 28.4928 88.428C28.7168 88.236 28.8288 87.988 28.8288 87.684C28.8288 87.436 28.7528 87.232 28.6008 87.072C28.4488 86.912 28.2568 86.788 28.0248 86.7C27.8008 86.604 27.4888 86.5 27.0888 86.388C26.5448 86.228 26.1008 86.072 25.7568 85.92C25.4208 85.76 25.1288 85.524 24.8808 85.212C24.6408 84.892 24.5208 84.468 24.5208 83.94C24.5208 83.444 24.6448 83.012 24.8928 82.644C25.1408 82.276 25.4888 81.996 25.9368 81.804C26.3848 81.604 26.8968 81.504 27.4728 81.504C28.3368 81.504 29.0368 81.716 29.5728 82.14C30.1168 82.556 30.4168 83.14 30.4728 83.892H28.6248C28.6088 83.604 28.4848 83.368 28.2528 83.184C28.0288 82.992 27.7288 82.896 27.3528 82.896C27.0248 82.896 26.7608 82.98 26.5608 83.148C26.3688 83.316 26.2728 83.56 26.2728 83.88C26.2728 84.104 26.3448 84.292 26.4888 84.444C26.6408 84.588 26.8248 84.708 27.0408 84.804C27.2648 84.892 27.5768 84.996 27.9768 85.116C28.5208 85.276 28.9648 85.436 29.3088 85.596C29.6528 85.756 29.9488 85.996 30.1968 86.316C30.4448 86.636 30.5688 87.056 30.5688 87.576C30.5688 88.024 30.4528 88.44 30.2208 88.824C29.9888 89.208 29.6488 89.516 29.2008 89.748C28.7528 89.972 28.2208 90.084 27.6048 90.084ZM35.7693 83.256C36.2733 83.256 36.7213 83.368 37.1133 83.592C37.5053 83.808 37.8093 84.132 38.0253 84.564C38.2493 84.988 38.3613 85.5 38.3613 86.1V90H36.6813V86.328C36.6813 85.8 36.5493 85.396 36.2853 85.116C36.0213 84.828 35.6613 84.684 35.2053 84.684C34.7413 84.684 34.3733 84.828 34.1013 85.116C33.8373 85.396 33.7053 85.8 33.7053 86.328V90H32.0253V81.12H33.7053V84.18C33.9213 83.892 34.2093 83.668 34.5693 83.508C34.9293 83.34 35.3293 83.256 35.7693 83.256ZM42.9109 90.108C42.2709 90.108 41.6949 89.968 41.1829 89.688C40.6709 89.4 40.2669 88.996 39.9709 88.476C39.6829 87.956 39.5389 87.356 39.5389 86.676C39.5389 85.996 39.6869 85.396 39.9829 84.876C40.2869 84.356 40.6989 83.956 41.2189 83.676C41.7389 83.388 42.3189 83.244 42.9589 83.244C43.5989 83.244 44.1789 83.388 44.6989 83.676C45.2189 83.956 45.6269 84.356 45.9229 84.876C46.2269 85.396 46.3789 85.996 46.3789 86.676C46.3789 87.356 46.2229 87.956 45.9109 88.476C45.6069 88.996 45.1909 89.4 44.6629 89.688C44.1429 89.968 43.5589 90.108 42.9109 90.108ZM42.9109 88.644C43.2149 88.644 43.4989 88.572 43.7629 88.428C44.0349 88.276 44.2509 88.052 44.4109 87.756C44.5709 87.46 44.6509 87.1 44.6509 86.676C44.6509 86.044 44.4829 85.56 44.1469 85.224C43.8189 84.88 43.4149 84.708 42.9349 84.708C42.4549 84.708 42.0509 84.88 41.7229 85.224C41.4029 85.56 41.2429 86.044 41.2429 86.676C41.2429 87.308 41.3989 87.796 41.7109 88.14C42.0309 88.476 42.4309 88.644 42.9109 88.644ZM49.2912 84.384C49.5072 84.032 49.7872 83.756 50.1312 83.556C50.4832 83.356 50.8832 83.256 51.3312 83.256V85.02H50.8872C50.3592 85.02 49.9592 85.144 49.6872 85.392C49.4232 85.64 49.2912 86.072 49.2912 86.688V90H47.6112V83.352H49.2912V84.384ZM54.4188 84.732V87.948C54.4188 88.172 54.4708 88.336 54.5748 88.44C54.6868 88.536 54.8708 88.584 55.1268 88.584H55.9068V90H54.8508C53.4348 90 52.7268 89.312 52.7268 87.936V84.732H51.9348V83.352H52.7268V81.708H54.4188V83.352H55.9068V84.732H54.4188ZM56.6831 86.676C56.6831 85.988 56.8231 85.388 57.1031 84.876C57.3831 84.356 57.7711 83.956 58.2671 83.676C58.7631 83.388 59.3311 83.244 59.9711 83.244C60.7951 83.244 61.4751 83.452 62.0111 83.868C62.5551 84.276 62.9191 84.852 63.1031 85.596H61.2911C61.1951 85.308 61.0311 85.084 60.7991 84.924C60.5751 84.756 60.2951 84.672 59.9591 84.672C59.4791 84.672 59.0991 84.848 58.8191 85.2C58.5391 85.544 58.3991 86.036 58.3991 86.676C58.3991 87.308 58.5391 87.8 58.8191 88.152C59.0991 88.496 59.4791 88.668 59.9591 88.668C60.6391 88.668 61.0831 88.364 61.2911 87.756H63.1031C62.9191 88.476 62.5551 89.048 62.0111 89.472C61.4671 89.896 60.7871 90.108 59.9711 90.108C59.3311 90.108 58.7631 89.968 58.2671 89.688C57.7711 89.4 57.3831 89 57.1031 88.488C56.8231 87.968 56.6831 87.364 56.6831 86.676ZM70.6099 83.352V90H68.9179V89.16C68.7019 89.448 68.4179 89.676 68.0659 89.844C67.7219 90.004 67.3459 90.084 66.9379 90.084C66.4179 90.084 65.9579 89.976 65.5579 89.76C65.1579 89.536 64.8419 89.212 64.6099 88.788C64.3859 88.356 64.2739 87.844 64.2739 87.252V83.352H65.9539V87.012C65.9539 87.54 66.0859 87.948 66.3499 88.236C66.6139 88.516 66.9739 88.656 67.4299 88.656C67.8939 88.656 68.2579 88.516 68.5219 88.236C68.7859 87.948 68.9179 87.54 68.9179 87.012V83.352H70.6099ZM74.2235 84.732V87.948C74.2235 88.172 74.2755 88.336 74.3795 88.44C74.4915 88.536 74.6755 88.584 74.9315 88.584H75.7115V90H74.6555C73.2395 90 72.5315 89.312 72.5315 87.936V84.732H71.7395V83.352H72.5315V81.708H74.2235V83.352H75.7115V84.732H74.2235ZM81.4352 81.624V86.808C81.4352 87.376 81.5832 87.812 81.8792 88.116C82.1752 88.412 82.5912 88.56 83.1272 88.56C83.6712 88.56 84.0912 88.412 84.3872 88.116C84.6832 87.812 84.8312 87.376 84.8312 86.808V81.624H86.5232V86.796C86.5232 87.508 86.3672 88.112 86.0552 88.608C85.7512 89.096 85.3392 89.464 84.8192 89.712C84.3072 89.96 83.7352 90.084 83.1032 90.084C82.4792 90.084 81.9112 89.96 81.3992 89.712C80.8952 89.464 80.4952 89.096 80.1992 88.608C79.9032 88.112 79.7552 87.508 79.7552 86.796V81.624H81.4352ZM90.6904 90.108C90.1464 90.108 89.6584 90.012 89.2264 89.82C88.7944 89.62 88.4504 89.352 88.1944 89.016C87.9464 88.68 87.8104 88.308 87.7864 87.9H89.4784C89.5104 88.156 89.6344 88.368 89.8504 88.536C90.0744 88.704 90.3504 88.788 90.6784 88.788C90.9984 88.788 91.2464 88.724 91.4224 88.596C91.6064 88.468 91.6984 88.304 91.6984 88.104C91.6984 87.888 91.5864 87.728 91.3624 87.624C91.1464 87.512 90.7984 87.392 90.3184 87.264C89.8224 87.144 89.4144 87.02 89.0944 86.892C88.7824 86.764 88.5104 86.568 88.2784 86.304C88.0544 86.04 87.9424 85.684 87.9424 85.236C87.9424 84.868 88.0464 84.532 88.2544 84.228C88.4704 83.924 88.7744 83.684 89.1664 83.508C89.5664 83.332 90.0344 83.244 90.5704 83.244C91.3624 83.244 91.9944 83.444 92.4664 83.844C92.9384 84.236 93.1984 84.768 93.2464 85.44H91.6384C91.6144 85.176 91.5024 84.968 91.3024 84.816C91.1104 84.656 90.8504 84.576 90.5224 84.576C90.2184 84.576 89.9824 84.632 89.8144 84.744C89.6544 84.856 89.5744 85.012 89.5744 85.212C89.5744 85.436 89.6864 85.608 89.9104 85.728C90.1344 85.84 90.4824 85.956 90.9544 86.076C91.4344 86.196 91.8304 86.32 92.1424 86.448C92.4544 86.576 92.7224 86.776 92.9464 87.048C93.1784 87.312 93.2984 87.664 93.3064 88.104C93.3064 88.488 93.1984 88.832 92.9824 89.136C92.7744 89.44 92.4704 89.68 92.0704 89.856C91.6784 90.024 91.2184 90.108 90.6904 90.108ZM100.865 86.532C100.865 86.772 100.849 86.988 100.817 87.18H95.9574C95.9974 87.66 96.1654 88.036 96.4614 88.308C96.7574 88.58 97.1214 88.716 97.5534 88.716C98.1774 88.716 98.6214 88.448 98.8854 87.912H100.697C100.505 88.552 100.137 89.08 99.5934 89.496C99.0494 89.904 98.3814 90.108 97.5894 90.108C96.9494 90.108 96.3734 89.968 95.8614 89.688C95.3574 89.4 94.9614 88.996 94.6734 88.476C94.3934 87.956 94.2534 87.356 94.2534 86.676C94.2534 85.988 94.3934 85.384 94.6734 84.864C94.9534 84.344 95.3454 83.944 95.8494 83.664C96.3534 83.384 96.9334 83.244 97.5894 83.244C98.2214 83.244 98.7854 83.38 99.2814 83.652C99.7854 83.924 100.173 84.312 100.445 84.816C100.725 85.312 100.865 85.884 100.865 86.532ZM99.1254 86.052C99.1174 85.62 98.9614 85.276 98.6574 85.02C98.3534 84.756 97.9814 84.624 97.5414 84.624C97.1254 84.624 96.7734 84.752 96.4854 85.008C96.2054 85.256 96.0334 85.604 95.9694 86.052H99.1254ZM103.772 84.384C103.988 84.032 104.268 83.756 104.612 83.556C104.964 83.356 105.364 83.256 105.812 83.256V85.02H105.368C104.84 85.02 104.44 85.144 104.168 85.392C103.904 85.64 103.772 86.072 103.772 86.688V90H102.092V83.352H103.772V84.384Z" fill="black"/>
<path d="M64.6882 60.3764C73.9048 60.3764 81.3764 52.9048 81.3764 43.6882C81.3764 34.4716 73.9048 27 64.6882 27C55.4716 27 48 34.4716 48 43.6882C48 52.9048 55.4716 60.3764 64.6882 60.3764Z" fill="#00D1FF"/>
<path d="M89.9331 36.8492C89.9195 36.732 89.9038 36.613 89.8863 36.4958C89.8336 36.1405 89.7613 35.7871 89.6696 35.4396C89.5485 34.973 89.3923 34.5123 89.2069 34.0711C88.9004 33.3409 88.5119 32.6537 88.0531 32.027C87.6353 31.4531 87.155 30.922 86.624 30.4476C86.1164 29.9927 85.5619 29.5886 84.9763 29.247L84.8552 29.1786C84.3047 28.8643 83.7209 28.6027 83.1216 28.3997C82.4617 28.1713 81.7647 28.0092 81.0483 27.9233C80.2654 27.8316 79.4747 27.8316 78.6977 27.9233C78.2233 27.978 77.7469 28.0658 77.2823 28.1888C76.8176 28.3099 76.3588 28.466 75.9215 28.6496C75.7985 28.7003 75.6775 28.755 75.5584 28.8097C73.7623 29.6433 72.2649 30.9728 71.2107 32.6752C71.2107 32.6752 71.2107 32.6752 71.2107 32.6771L71.0994 32.8685L70.9725 33.0852L70.9686 33.093C69.9378 34.9574 69.52 37.0581 69.766 39.1646C69.8187 39.6371 69.9085 40.1115 70.0295 40.5781C70.1506 41.0427 70.3067 41.5015 70.4903 41.9408C70.7909 42.6612 71.1775 43.3503 71.6421 43.9887C72.0599 44.5627 72.5402 45.0937 73.0712 45.5642C73.5417 45.9879 74.0551 46.3666 74.5979 46.6946L74.7209 46.7688C75.3066 47.1104 75.9293 47.3974 76.5736 47.618C77.2471 47.8484 77.9441 48.0065 78.6489 48.0905C79.0433 48.1373 79.4415 48.1608 79.8417 48.1608C80.242 48.1608 80.6129 48.1393 80.9975 48.0944C81.4719 48.0397 81.9483 47.9499 82.4168 47.8289C82.8815 47.7078 83.3383 47.5536 83.7756 47.3681C83.8986 47.3174 84.0196 47.2627 84.1387 47.208C85.9348 46.3744 87.4322 45.0469 88.4826 43.3464V43.3425C88.4826 43.3425 88.4865 43.3425 88.4865 43.3406L88.7286 42.9267C89.7594 41.0622 90.1772 38.9616 89.9312 36.855L89.9331 36.8492ZM87.3795 32.2496L78.5142 47.3876C78.0652 47.3232 77.62 47.2276 77.1847 47.1007L86.4776 31.2305C86.8017 31.5468 87.1023 31.8884 87.3795 32.2496ZM84.9235 30.0005C85.2886 30.2329 85.64 30.4886 85.9719 30.7698L76.5365 46.882C76.1304 46.7297 75.7341 46.5501 75.3534 46.3451L84.9235 30.0005ZM80.4548 28.5422L71.894 43.159C71.6187 42.7334 71.3805 42.2863 71.1794 41.8256L78.9398 28.5715C79.4415 28.5207 79.9491 28.5109 80.4548 28.5422ZM70.3692 37.9971C70.3692 36.4002 70.7694 34.8344 71.5543 33.4171L71.7885 33.0188C72.6417 31.6424 73.8092 30.5316 75.1992 29.7526L70.3712 37.9971H70.3692ZM70.4493 39.19L76.2827 29.2274C76.6615 29.0732 77.0539 28.9405 77.4541 28.835C77.6649 28.7804 77.8777 28.7335 78.0925 28.6925L70.8671 41.031C70.7968 40.824 70.7343 40.6152 70.6796 40.4043C70.5742 40.0041 70.5 39.5961 70.4493 39.19ZM72.3196 43.7603L81.1869 28.6203C81.6398 28.6867 82.083 28.7823 82.5144 28.9092L73.2215 44.7794C72.8955 44.4631 72.5948 44.1215 72.3196 43.7622V43.7603ZM73.7291 45.2362L83.1626 29.1279C83.5687 29.2782 83.965 29.4578 84.3457 29.6648L74.7755 46.0074C74.4105 45.777 74.061 45.5193 73.7291 45.2382V45.2362ZM79.2482 47.4638L87.8071 32.847C88.0804 33.2687 88.3186 33.7158 88.5236 34.1804L80.7613 47.4365C80.2556 47.4853 79.75 47.497 79.2482 47.4638ZM82.2489 47.1729C82.0361 47.2276 81.8214 47.2764 81.6066 47.3174L88.834 34.975C88.9043 35.1839 88.9667 35.3928 89.0234 35.6056C89.1268 36.0038 89.203 36.4099 89.2537 36.816L83.4183 46.7785C83.0396 46.9328 82.6472 47.0655 82.2489 47.1709V47.1729ZM88.1487 42.5889L87.9145 42.9891C87.8481 43.0965 87.7739 43.2 87.7017 43.3054C87.6333 43.405 87.5709 43.5084 87.4986 43.6061C87.4166 43.7173 87.3268 43.8228 87.2409 43.9321C87.1745 44.016 87.1101 44.1039 87.0418 44.1839C86.9461 44.2952 86.8446 44.3987 86.745 44.5041C86.6767 44.5764 86.6142 44.6525 86.5439 44.7208C86.4366 44.8282 86.3233 44.9278 86.2101 45.0293C86.1418 45.0918 86.0774 45.1562 86.0071 45.2167C85.8958 45.3124 85.7767 45.4002 85.6615 45.49C85.5854 45.5486 85.5131 45.613 85.435 45.6696C85.3218 45.7516 85.2047 45.8258 85.0895 45.902C85.0016 45.9605 84.9177 46.021 84.8279 46.0757C84.7225 46.1401 84.6112 46.1968 84.5019 46.2592L89.3299 38.0147C89.3318 39.6117 88.9296 41.1774 88.1468 42.5928L88.1487 42.5889Z" fill="#021415"/>
</g>
<g clip-path="url(#clip3_317_2729)">
<path fill-rule="evenodd" clip-rule="evenodd" d="M911.455 168.093C907.562 164.176 901.23 164.156 897.313 168.049L846.137 218.907C842.203 222.817 842.203 229.183 846.137 233.093L897.313 283.951C901.23 287.844 907.562 287.824 911.455 283.907L961.995 233.049C965.871 229.149 965.871 222.851 961.995 218.951L911.455 168.093Z" fill="#01D1FF" fill-opacity="0.27"/>
<circle cx="904" cy="207" r="20" fill="white"/>
<g clip-path="url(#clip4_317_2729)">
<path d="M901 211.2L896.8 207L895.4 208.4L901 214L913 202L911.6 200.6L901 211.2Z" fill="#01D1FF"/>
</g>
</g>
<rect x="837" y="234" width="135" height="32" rx="16" fill="#01D1FF"/>
<path d="M860.337 254L858.489 250.736H857.697V254H856.017V245.624H859.161C859.809 245.624 860.361 245.74 860.817 245.972C861.273 246.196 861.613 246.504 861.837 246.896C862.069 247.28 862.185 247.712 862.185 248.192C862.185 248.744 862.025 249.244 861.705 249.692C861.385 250.132 860.909 250.436 860.277 250.604L862.281 254H860.337ZM857.697 249.476H859.101C859.557 249.476 859.897 249.368 860.121 249.152C860.345 248.928 860.457 248.62 860.457 248.228C860.457 247.844 860.345 247.548 860.121 247.34C859.897 247.124 859.557 247.016 859.101 247.016H857.697V249.476ZM869.885 250.532C869.885 250.772 869.869 250.988 869.837 251.18H864.977C865.017 251.66 865.185 252.036 865.481 252.308C865.777 252.58 866.141 252.716 866.573 252.716C867.197 252.716 867.641 252.448 867.905 251.912H869.717C869.525 252.552 869.157 253.08 868.613 253.496C868.069 253.904 867.401 254.108 866.609 254.108C865.969 254.108 865.393 253.968 864.881 253.688C864.377 253.4 863.981 252.996 863.693 252.476C863.413 251.956 863.273 251.356 863.273 250.676C863.273 249.988 863.413 249.384 863.693 248.864C863.973 248.344 864.365 247.944 864.869 247.664C865.373 247.384 865.953 247.244 866.609 247.244C867.241 247.244 867.805 247.38 868.301 247.652C868.805 247.924 869.193 248.312 869.465 248.816C869.745 249.312 869.885 249.884 869.885 250.532ZM868.145 250.052C868.137 249.62 867.981 249.276 867.677 249.02C867.373 248.756 867.001 248.624 866.561 248.624C866.145 248.624 865.793 248.752 865.505 249.008C865.225 249.256 865.053 249.604 864.989 250.052H868.145ZM870.679 250.676C870.679 249.988 870.819 249.388 871.099 248.876C871.379 248.356 871.767 247.956 872.263 247.676C872.759 247.388 873.327 247.244 873.967 247.244C874.791 247.244 875.471 247.452 876.007 247.868C876.551 248.276 876.915 248.852 877.099 249.596H875.287C875.191 249.308 875.027 249.084 874.795 248.924C874.571 248.756 874.291 248.672 873.955 248.672C873.475 248.672 873.095 248.848 872.815 249.2C872.535 249.544 872.395 250.036 872.395 250.676C872.395 251.308 872.535 251.8 872.815 252.152C873.095 252.496 873.475 252.668 873.955 252.668C874.635 252.668 875.079 252.364 875.287 251.756H877.099C876.915 252.476 876.551 253.048 876.007 253.472C875.463 253.896 874.783 254.108 873.967 254.108C873.327 254.108 872.759 253.968 872.263 253.688C871.767 253.4 871.379 253 871.099 252.488C870.819 251.968 870.679 251.364 870.679 250.676ZM884.51 250.532C884.51 250.772 884.494 250.988 884.462 251.18H879.602C879.642 251.66 879.81 252.036 880.106 252.308C880.402 252.58 880.766 252.716 881.198 252.716C881.822 252.716 882.266 252.448 882.53 251.912H884.342C884.15 252.552 883.782 253.08 883.238 253.496C882.694 253.904 882.026 254.108 881.234 254.108C880.594 254.108 880.018 253.968 879.506 253.688C879.002 253.4 878.606 252.996 878.318 252.476C878.038 251.956 877.898 251.356 877.898 250.676C877.898 249.988 878.038 249.384 878.318 248.864C878.598 248.344 878.99 247.944 879.494 247.664C879.998 247.384 880.578 247.244 881.234 247.244C881.866 247.244 882.43 247.38 882.926 247.652C883.43 247.924 883.818 248.312 884.09 248.816C884.37 249.312 884.51 249.884 884.51 250.532ZM882.77 250.052C882.762 249.62 882.606 249.276 882.302 249.02C881.998 248.756 881.626 248.624 881.186 248.624C880.77 248.624 880.418 248.752 880.13 249.008C879.85 249.256 879.678 249.604 879.614 250.052H882.77ZM886.588 246.56C886.292 246.56 886.044 246.468 885.844 246.284C885.652 246.092 885.556 245.856 885.556 245.576C885.556 245.296 885.652 245.064 885.844 244.88C886.044 244.688 886.292 244.592 886.588 244.592C886.884 244.592 887.128 244.688 887.32 244.88C887.52 245.064 887.62 245.296 887.62 245.576C887.62 245.856 887.52 246.092 887.32 246.284C887.128 246.468 886.884 246.56 886.588 246.56ZM887.416 247.352V254H885.736V247.352H887.416ZM891.848 252.452L893.528 247.352H895.316L892.856 254H890.816L888.368 247.352H890.168L891.848 252.452ZM902.44 250.532C902.44 250.772 902.424 250.988 902.392 251.18H897.532C897.572 251.66 897.74 252.036 898.036 252.308C898.332 252.58 898.696 252.716 899.128 252.716C899.752 252.716 900.196 252.448 900.46 251.912H902.272C902.08 252.552 901.712 253.08 901.168 253.496C900.624 253.904 899.956 254.108 899.164 254.108C898.524 254.108 897.948 253.968 897.436 253.688C896.932 253.4 896.536 252.996 896.248 252.476C895.968 251.956 895.828 251.356 895.828 250.676C895.828 249.988 895.968 249.384 896.248 248.864C896.528 248.344 896.92 247.944 897.424 247.664C897.928 247.384 898.508 247.244 899.164 247.244C899.796 247.244 900.36 247.38 900.856 247.652C901.36 247.924 901.748 248.312 902.02 248.816C902.3 249.312 902.44 249.884 902.44 250.532ZM900.7 250.052C900.692 249.62 900.536 249.276 900.232 249.02C899.928 248.756 899.556 248.624 899.116 248.624C898.7 248.624 898.348 248.752 898.06 249.008C897.78 249.256 897.608 249.604 897.544 250.052H900.7ZM912.225 245.624V246.98H909.993V254H908.313V246.98H906.081V245.624H912.225ZM916.403 254.108C915.763 254.108 915.187 253.968 914.675 253.688C914.163 253.4 913.759 252.996 913.463 252.476C913.175 251.956 913.031 251.356 913.031 250.676C913.031 249.996 913.179 249.396 913.475 248.876C913.779 248.356 914.191 247.956 914.711 247.676C915.231 247.388 915.811 247.244 916.451 247.244C917.091 247.244 917.671 247.388 918.191 247.676C918.711 247.956 919.119 248.356 919.415 248.876C919.719 249.396 919.871 249.996 919.871 250.676C919.871 251.356 919.715 251.956 919.403 252.476C919.099 252.996 918.683 253.4 918.155 253.688C917.635 253.968 917.051 254.108 916.403 254.108ZM916.403 252.644C916.707 252.644 916.991 252.572 917.255 252.428C917.527 252.276 917.743 252.052 917.903 251.756C918.063 251.46 918.143 251.1 918.143 250.676C918.143 250.044 917.975 249.56 917.639 249.224C917.311 248.88 916.907 248.708 916.427 248.708C915.947 248.708 915.543 248.88 915.215 249.224C914.895 249.56 914.735 250.044 914.735 250.676C914.735 251.308 914.891 251.796 915.203 252.14C915.523 252.476 915.923 252.644 916.403 252.644ZM925.039 254L922.783 251.168V254H921.103V245.12H922.783V250.172L925.015 247.352H927.199L924.271 250.688L927.223 254H925.039ZM934.291 250.532C934.291 250.772 934.275 250.988 934.243 251.18H929.383C929.423 251.66 929.591 252.036 929.887 252.308C930.183 252.58 930.547 252.716 930.979 252.716C931.603 252.716 932.047 252.448 932.311 251.912H934.123C933.931 252.552 933.563 253.08 933.019 253.496C932.475 253.904 931.807 254.108 931.015 254.108C930.375 254.108 929.799 253.968 929.287 253.688C928.783 253.4 928.387 252.996 928.099 252.476C927.819 251.956 927.679 251.356 927.679 250.676C927.679 249.988 927.819 249.384 928.099 248.864C928.379 248.344 928.771 247.944 929.275 247.664C929.779 247.384 930.359 247.244 931.015 247.244C931.647 247.244 932.211 247.38 932.707 247.652C933.211 247.924 933.599 248.312 933.871 248.816C934.151 249.312 934.291 249.884 934.291 250.532ZM932.551 250.052C932.543 249.62 932.387 249.276 932.083 249.02C931.779 248.756 931.407 248.624 930.967 248.624C930.551 248.624 930.199 248.752 929.911 249.008C929.631 249.256 929.459 249.604 929.395 250.052H932.551ZM939.201 247.256C939.993 247.256 940.633 247.508 941.121 248.012C941.609 248.508 941.853 249.204 941.853 250.1V254H940.173V250.328C940.173 249.8 940.041 249.396 939.777 249.116C939.513 248.828 939.153 248.684 938.697 248.684C938.233 248.684 937.865 248.828 937.593 249.116C937.329 249.396 937.197 249.8 937.197 250.328V254H935.517V247.352H937.197V248.18C937.421 247.892 937.705 247.668 938.049 247.508C938.401 247.34 938.785 247.256 939.201 247.256ZM946.355 256.364C945.579 255.612 944.975 254.652 944.543 253.484C944.119 252.316 943.907 251.064 943.907 249.728C943.907 248.36 944.131 247.076 944.579 245.876C945.027 244.668 945.679 243.68 946.535 242.912H948.227V243.068C947.347 243.908 946.675 244.916 946.211 246.092C945.755 247.268 945.527 248.48 945.527 249.728C945.527 250.944 945.743 252.12 946.175 253.256C946.615 254.384 947.239 255.364 948.047 256.196V256.364H946.355ZM951.819 254.108C951.275 254.108 950.787 254.012 950.355 253.82C949.923 253.62 949.579 253.352 949.323 253.016C949.075 252.68 948.939 252.308 948.915 251.9H950.607C950.639 252.156 950.763 252.368 950.979 252.536C951.203 252.704 951.479 252.788 951.807 252.788C952.127 252.788 952.375 252.724 952.551 252.596C952.735 252.468 952.827 252.304 952.827 252.104C952.827 251.888 952.715 251.728 952.491 251.624C952.275 251.512 951.927 251.392 951.447 251.264C950.951 251.144 950.543 251.02 950.223 250.892C949.911 250.764 949.639 250.568 949.407 250.304C949.183 250.04 949.071 249.684 949.071 249.236C949.071 248.868 949.175 248.532 949.383 248.228C949.599 247.924 949.903 247.684 950.295 247.508C950.695 247.332 951.163 247.244 951.699 247.244C952.491 247.244 953.123 247.444 953.595 247.844C954.067 248.236 954.327 248.768 954.375 249.44H952.767C952.743 249.176 952.631 248.968 952.431 248.816C952.239 248.656 951.979 248.576 951.651 248.576C951.347 248.576 951.111 248.632 950.943 248.744C950.783 248.856 950.703 249.012 950.703 249.212C950.703 249.436 950.815 249.608 951.039 249.728C951.263 249.84 951.611 249.956 952.083 250.076C952.563 250.196 952.959 250.32 953.271 250.448C953.583 250.576 953.851 250.776 954.075 251.048C954.307 251.312 954.427 251.664 954.435 252.104C954.435 252.488 954.327 252.832 954.111 253.136C953.903 253.44 953.599 253.68 953.199 253.856C952.807 254.024 952.347 254.108 951.819 254.108ZM955.382 256.364V256.196C956.19 255.364 956.81 254.384 957.242 253.256C957.682 252.12 957.902 250.944 957.902 249.728C957.902 248.48 957.67 247.268 957.206 246.092C956.75 244.916 956.082 243.908 955.202 243.068V242.912H956.894C957.75 243.68 958.402 244.668 958.85 245.876C959.298 247.076 959.522 248.36 959.522 249.728C959.522 251.064 959.306 252.316 958.874 253.484C958.45 254.652 957.85 255.612 957.074 256.364H955.382Z" fill="black"/>
<g clip-path="url(#clip5_317_2729)">
<path d="M199.961 232.703C200.437 233.139 201.159 233.089 201.574 232.59L205.574 227.79C205.951 227.338 205.951 226.662 205.574 226.21L201.574 221.41C201.159 220.911 200.437 220.861 199.961 221.297C199.486 221.733 199.438 222.491 199.854 222.99L202.195 226L202.195 228L199.854 231.01C199.438 231.509 199.486 232.267 199.961 232.703Z" fill="#C4C4C4"/>
<path d="M139.5 226.5L202.5 226.5L202.5 227.5L139.5 227.5L139.5 226.5Z" fill="#C4C4C4" stroke="#C4C4C4"/>
<circle cx="133" cy="227" r="6" transform="rotate(-90 133 227)" fill="white" stroke="#0088CA" stroke-width="2"/>
</g>
<path d="M903.939 161.061C904.525 161.646 905.475 161.646 906.061 161.061L915.607 151.515C916.192 150.929 916.192 149.979 915.607 149.393C915.021 148.808 914.071 148.808 913.485 149.393L905 157.879L896.515 149.393C895.929 148.808 894.979 148.808 894.393 149.393C893.808 149.979 893.808 150.929 894.393 151.515L903.939 161.061ZM336 69.5C335.172 69.5 334.5 70.1716 334.5 71C334.5 71.8285 335.172 72.5 336 72.5L336 69.5ZM906.5 160L906.5 101L903.5 101L903.5 160L906.5 160ZM875 69.5L336 69.5L336 72.5L875 72.5L875 69.5ZM906.5 101C906.5 83.603 892.397 69.5 875 69.5L875 72.5C890.74 72.5 903.5 85.2599 903.5 101L906.5 101Z" fill="#00D1FF"/>
<g clip-path="url(#clip6_317_2729)">
<path d="M152.529 229.001C151.361 227.826 151.367 225.926 152.542 224.758L167.885 209.511C169.055 208.349 170.945 208.349 172.115 209.511L187.458 224.758C188.633 225.926 188.639 227.826 187.471 229.001L172.128 244.44C170.955 245.621 169.045 245.621 167.872 244.44L152.529 229.001Z" fill="#FEFEFE" stroke="#C4C4C4" stroke-width="2"/>
<path d="M167.585 223.435V221.05H171.74V232H169.07V223.435H167.585Z" fill="#333333"/>
</g>
<g clip-path="url(#clip7_317_2729)">
<rect width="130" height="65" transform="translate(206 35)" fill="white"/>
<path d="M206 45C206 39.4772 210.477 35 216 35H326C331.523 35 336 39.4772 336 45V90C336 95.5229 331.523 100 326 100H216C210.477 100 206 95.5228 206 90V45Z" fill="#00D1FF" fill-opacity="0.44"/>
<path d="M244.459 65.7464C244.42 65.3454 244.249 65.0339 243.947 64.8118C243.646 64.5897 243.236 64.4787 242.719 64.4787C242.368 64.4787 242.071 64.5284 241.83 64.6278C241.588 64.724 241.402 64.8582 241.273 65.0305C241.147 65.2029 241.084 65.3984 241.084 65.6172C241.077 65.7995 241.115 65.9586 241.198 66.0945C241.284 66.2304 241.402 66.348 241.551 66.4474C241.7 66.5436 241.873 66.6281 242.068 66.701C242.264 66.7706 242.473 66.8303 242.695 66.88L243.609 67.0987C244.053 67.1982 244.461 67.3307 244.832 67.4964C245.204 67.6622 245.525 67.866 245.797 68.108C246.069 68.3499 246.279 68.6349 246.428 68.9631C246.581 69.2912 246.659 69.6674 246.662 70.0916C246.659 70.7147 246.5 71.255 246.185 71.7124C245.873 72.1664 245.422 72.5194 244.832 72.7713C244.246 73.0199 243.538 73.1442 242.709 73.1442C241.888 73.1442 241.172 73.0182 240.562 72.7663C239.955 72.5144 239.481 72.1416 239.14 71.6477C238.802 71.1506 238.625 70.5357 238.608 69.8033H240.691C240.714 70.1446 240.812 70.4297 240.984 70.6584C241.16 70.8838 241.394 71.0545 241.685 71.1705C241.98 71.2831 242.313 71.3395 242.685 71.3395C243.049 71.3395 243.366 71.2865 243.634 71.1804C243.906 71.0743 244.116 70.9268 244.266 70.7379C244.415 70.549 244.489 70.3319 244.489 70.0866C244.489 69.858 244.421 69.6657 244.285 69.5099C244.153 69.3542 243.957 69.2216 243.699 69.1122C243.444 69.0028 243.13 68.9034 242.759 68.8139L241.651 68.5355C240.792 68.3267 240.114 68.0002 239.617 67.5561C239.12 67.112 238.873 66.5137 238.876 65.7614C238.873 65.1449 239.037 64.6063 239.369 64.1456C239.703 63.6849 240.162 63.3253 240.746 63.0668C241.329 62.8082 241.992 62.679 242.734 62.679C243.49 62.679 244.15 62.8082 244.713 63.0668C245.28 63.3253 245.721 63.6849 246.035 64.1456C246.35 64.6063 246.513 65.1399 246.523 65.7464H244.459ZM251.284 73.1491C250.499 73.1491 249.823 72.9901 249.256 72.6719C248.692 72.3504 248.258 71.8963 247.953 71.3097C247.648 70.7197 247.496 70.022 247.496 69.2166C247.496 68.4311 247.648 67.7417 247.953 67.1484C248.258 66.5552 248.687 66.0928 249.241 65.7614C249.798 65.4299 250.451 65.2642 251.2 65.2642C251.704 65.2642 252.172 65.3454 252.607 65.5078C253.044 65.6669 253.425 65.9072 253.75 66.2287C254.078 66.5502 254.333 66.9545 254.516 67.4418C254.698 67.9257 254.789 68.4924 254.789 69.142V69.7237H248.341V68.4112H252.796C252.796 68.1063 252.729 67.8362 252.597 67.6009C252.464 67.3655 252.28 67.1816 252.045 67.049C251.813 66.9131 251.543 66.8452 251.235 66.8452C250.913 66.8452 250.628 66.9197 250.379 67.0689C250.134 67.2147 249.942 67.4119 249.803 67.6605C249.663 67.9058 249.592 68.1792 249.589 68.4808V69.7287C249.589 70.1065 249.659 70.433 249.798 70.7081C249.94 70.9832 250.141 71.1953 250.399 71.3445C250.658 71.4936 250.964 71.5682 251.319 71.5682C251.554 71.5682 251.77 71.535 251.965 71.4688C252.161 71.4025 252.328 71.303 252.467 71.1705C252.607 71.0379 252.713 70.8755 252.786 70.6832L254.744 70.8125C254.645 71.2831 254.441 71.6941 254.133 72.0455C253.828 72.3935 253.434 72.6652 252.95 72.8608C252.469 73.053 251.914 73.1491 251.284 73.1491ZM258.023 68.5852V73H255.905V65.3636H257.924V66.7109H258.013C258.182 66.2668 258.466 65.9155 258.863 65.657C259.261 65.3951 259.743 65.2642 260.31 65.2642C260.84 65.2642 261.303 65.3802 261.697 65.6122C262.092 65.8442 262.398 66.1757 262.617 66.6065C262.836 67.0341 262.945 67.5445 262.945 68.1378V73H260.827V68.5156C260.83 68.0483 260.711 67.6837 260.469 67.4219C260.227 67.1567 259.894 67.0241 259.47 67.0241C259.185 67.0241 258.933 67.0855 258.714 67.2081C258.499 67.3307 258.33 67.5097 258.207 67.745C258.088 67.977 258.027 68.2571 258.023 68.5852ZM267.162 73.1243C266.582 73.1243 266.057 72.9751 265.586 72.6768C265.119 72.3752 264.748 71.9328 264.473 71.3494C264.201 70.7628 264.065 70.0436 264.065 69.1918C264.065 68.3168 264.206 67.5893 264.487 67.0092C264.769 66.4259 265.144 65.9901 265.611 65.7017C266.082 65.41 266.597 65.2642 267.157 65.2642C267.585 65.2642 267.941 65.3371 268.226 65.483C268.514 65.6255 268.746 65.8045 268.922 66.0199C269.101 66.232 269.237 66.4408 269.33 66.6463H269.394V62.8182H271.507V73H269.419V71.777H269.33C269.23 71.9891 269.09 72.1996 268.907 72.4084C268.728 72.6139 268.495 72.7846 268.206 72.9205C267.921 73.0563 267.573 73.1243 267.162 73.1243ZM267.833 71.4389C268.175 71.4389 268.463 71.3461 268.698 71.1605C268.937 70.9716 269.119 70.7081 269.245 70.37C269.375 70.032 269.439 69.6359 269.439 69.1818C269.439 68.7277 269.376 68.3333 269.25 67.9986C269.124 67.6638 268.942 67.4053 268.703 67.223C268.465 67.0407 268.175 66.9496 267.833 66.9496C267.485 66.9496 267.192 67.044 266.953 67.233C266.715 67.4219 266.534 67.6837 266.411 68.0185C266.289 68.3532 266.228 68.741 266.228 69.1818C266.228 69.6259 266.289 70.0187 266.411 70.3601C266.537 70.6982 266.718 70.9633 266.953 71.1555C267.192 71.3445 267.485 71.4389 267.833 71.4389ZM275.997 73V62.8182H282.857V64.593H278.149V67.0192H282.504V68.794H278.149V71.2251H282.877V73H275.997ZM283.915 64.593V62.8182H292.277V64.593H289.16V73H287.032V64.593H283.915ZM293.389 73V62.8182H295.541V67.0192H299.911V62.8182H302.059V73H299.911V68.794H295.541V73H293.389Z" fill="black"/>
</g>
<g clip-path="url(#clip8_317_2729)">
<path d="M198.961 72.7031C199.437 73.1395 200.159 73.089 200.574 72.5902L204.574 67.7902C204.951 67.3378 204.951 66.6622 204.574 66.2098L200.574 61.4098C200.159 60.911 199.437 60.8605 198.961 61.2969C198.486 61.7333 198.438 62.4915 198.854 62.9902L201.195 66L201.195 68L198.854 71.0098C198.438 71.5085 198.486 72.2667 198.961 72.7031Z" fill="#01D1FF"/>
<path d="M138.5 66.5L201.5 66.5L201.5 67.5L138.5 67.5L138.5 66.5Z" fill="#1E1E1E" stroke="#01D1FF"/>
<circle cx="132" cy="67" r="6" transform="rotate(-90 132 67)" fill="white" stroke="#01D1FF" stroke-width="2"/>
</g>
<g clip-path="url(#clip9_317_2729)">
<path d="M152.529 68.0011C151.361 66.8259 151.367 64.9264 152.542 63.7585L167.885 48.5112C169.055 47.3485 170.945 47.3485 172.115 48.5112L187.458 63.7585C188.633 64.9264 188.639 66.8259 187.471 68.0011L172.128 83.4401C170.955 84.6205 169.045 84.6205 167.872 83.4401L152.529 68.0011Z" fill="#01D1FF" stroke="#01D1FF" stroke-width="2"/>
<path d="M167.585 62.435V60.05H171.74V71H169.07V62.435H167.585Z" fill="#333333"/>
</g>
<g clip-path="url(#clip10_317_2729)">
<path d="M408.961 232.703C409.437 233.139 410.159 233.089 410.574 232.59L414.574 227.79C414.951 227.338 414.951 226.662 414.574 226.21L410.574 221.41C410.159 220.911 409.437 220.861 408.961 221.297C408.486 221.733 408.438 222.491 408.854 222.99L411.195 226L411.195 228L408.854 231.01C408.438 231.509 408.486 232.267 408.961 232.703Z" fill="#C4C4C4"/>
<path d="M348.5 226.5L411.5 226.5L411.5 227.5L348.5 227.5L348.5 226.5Z" fill="#C4C4C4" stroke="#C4C4C4"/>
<circle cx="342" cy="227" r="6" transform="rotate(-90 342 227)" fill="white" stroke="#0088CA" stroke-width="2"/>
</g>
<g clip-path="url(#clip11_317_2729)">
<path d="M362.529 229.001C361.361 227.826 361.367 225.926 362.542 224.758L377.885 209.511C379.055 208.349 380.945 208.349 382.115 209.511L397.458 224.758C398.633 225.926 398.639 227.826 397.471 229.001L382.128 244.44C380.955 245.621 379.045 245.621 377.872 244.44L362.529 229.001Z" fill="#FEFEFE" stroke="#C4C4C4" stroke-width="2"/>
<path d="M376.3 229.945C376.64 229.675 376.795 229.55 376.765 229.57C377.745 228.76 378.515 228.095 379.075 227.575C379.645 227.055 380.125 226.51 380.515 225.94C380.905 225.37 381.1 224.815 381.1 224.275C381.1 223.865 381.005 223.545 380.815 223.315C380.625 223.085 380.34 222.97 379.96 222.97C379.58 222.97 379.28 223.115 379.06 223.405C378.85 223.685 378.745 224.085 378.745 224.605H376.27C376.29 223.755 376.47 223.045 376.81 222.475C377.16 221.905 377.615 221.485 378.175 221.215C378.745 220.945 379.375 220.81 380.065 220.81C381.255 220.81 382.15 221.115 382.75 221.725C383.36 222.335 383.665 223.13 383.665 224.11C383.665 225.18 383.3 226.175 382.57 227.095C381.84 228.005 380.91 228.895 379.78 229.765H383.83V231.85H376.3V229.945Z" fill="#333333"/>
</g>
<g clip-path="url(#clip12_317_2729)">
<path d="M415 205C415 199.477 419.477 195 425 195H535C540.523 195 545 199.477 545 205V250C545 255.523 540.523 260 535 260H425C419.477 260 415 255.523 415 250V205Z" fill="#F5F7FA"/>
<path d="M454.824 233H452.517L456.032 222.818H458.806L462.316 233H460.009L457.459 225.145H457.379L454.824 233ZM454.679 228.998H460.128V230.678H454.679V228.998ZM463.236 235.864V225.364H465.324V226.646H465.418C465.511 226.441 465.645 226.232 465.821 226.02C466 225.804 466.232 225.625 466.517 225.483C466.805 225.337 467.163 225.264 467.591 225.264C468.148 225.264 468.661 225.41 469.132 225.702C469.603 225.99 469.979 226.426 470.26 227.009C470.542 227.589 470.683 228.317 470.683 229.192C470.683 230.044 470.545 230.763 470.27 231.349C469.999 231.933 469.627 232.375 469.157 232.677C468.689 232.975 468.166 233.124 467.586 233.124C467.175 233.124 466.825 233.056 466.537 232.92C466.252 232.785 466.018 232.614 465.836 232.408C465.653 232.2 465.514 231.989 465.418 231.777H465.353V235.864H463.236ZM465.309 229.182C465.309 229.636 465.372 230.032 465.498 230.37C465.624 230.708 465.806 230.972 466.045 231.161C466.283 231.346 466.573 231.439 466.915 231.439C467.259 231.439 467.551 231.344 467.79 231.156C468.028 230.963 468.209 230.698 468.331 230.36C468.457 230.019 468.52 229.626 468.52 229.182C468.52 228.741 468.459 228.353 468.336 228.018C468.214 227.684 468.033 227.422 467.795 227.233C467.556 227.044 467.263 226.95 466.915 226.95C466.57 226.95 466.278 227.041 466.04 227.223C465.804 227.405 465.624 227.664 465.498 227.999C465.372 228.333 465.309 228.728 465.309 229.182ZM471.829 235.864V225.364H473.917V226.646H474.011C474.104 226.441 474.239 226.232 474.414 226.02C474.593 225.804 474.825 225.625 475.11 225.483C475.399 225.337 475.757 225.264 476.184 225.264C476.741 225.264 477.255 225.41 477.725 225.702C478.196 225.99 478.572 226.426 478.854 227.009C479.136 227.589 479.276 228.317 479.276 229.192C479.276 230.044 479.139 230.763 478.864 231.349C478.592 231.933 478.221 232.375 477.75 232.677C477.283 232.975 476.759 233.124 476.179 233.124C475.768 233.124 475.418 233.056 475.13 232.92C474.845 232.785 474.611 232.614 474.429 232.408C474.247 232.2 474.108 231.989 474.011 231.777H473.947V235.864H471.829ZM473.902 229.182C473.902 229.636 473.965 230.032 474.091 230.37C474.217 230.708 474.399 230.972 474.638 231.161C474.877 231.346 475.167 231.439 475.508 231.439C475.853 231.439 476.144 231.344 476.383 231.156C476.622 230.963 476.802 230.698 476.925 230.36C477.051 230.019 477.114 229.626 477.114 229.182C477.114 228.741 477.052 228.353 476.93 228.018C476.807 227.684 476.627 227.422 476.388 227.233C476.149 227.044 475.856 226.95 475.508 226.95C475.163 226.95 474.872 227.041 474.633 227.223C474.398 227.405 474.217 227.664 474.091 227.999C473.965 228.333 473.902 228.728 473.902 229.182ZM480.422 233V225.364H482.476V226.696H482.555C482.694 226.222 482.928 225.864 483.256 225.622C483.584 225.377 483.962 225.254 484.39 225.254C484.496 225.254 484.61 225.261 484.733 225.274C484.855 225.287 484.963 225.306 485.056 225.329V227.208C484.956 227.178 484.819 227.152 484.643 227.129C484.468 227.105 484.307 227.094 484.161 227.094C483.849 227.094 483.571 227.162 483.326 227.298C483.084 227.43 482.892 227.616 482.749 227.854C482.61 228.093 482.54 228.368 482.54 228.68V233H480.422ZM488.98 233.149C488.207 233.149 487.54 232.985 486.976 232.657C486.416 232.326 485.983 231.865 485.679 231.275C485.374 230.682 485.221 229.994 485.221 229.212C485.221 228.423 485.374 227.733 485.679 227.143C485.983 226.55 486.416 226.089 486.976 225.761C487.54 225.43 488.207 225.264 488.98 225.264C489.752 225.264 490.418 225.43 490.978 225.761C491.542 226.089 491.976 226.55 492.281 227.143C492.586 227.733 492.738 228.423 492.738 229.212C492.738 229.994 492.586 230.682 492.281 231.275C491.976 231.865 491.542 232.326 490.978 232.657C490.418 232.985 489.752 233.149 488.98 233.149ZM488.99 231.509C489.341 231.509 489.634 231.409 489.87 231.21C490.105 231.008 490.282 230.733 490.402 230.385C490.524 230.037 490.585 229.641 490.585 229.197C490.585 228.753 490.524 228.357 490.402 228.009C490.282 227.661 490.105 227.385 489.87 227.183C489.634 226.981 489.341 226.88 488.99 226.88C488.635 226.88 488.337 226.981 488.095 227.183C487.856 227.385 487.675 227.661 487.553 228.009C487.433 228.357 487.374 228.753 487.374 229.197C487.374 229.641 487.433 230.037 487.553 230.385C487.675 230.733 487.856 231.008 488.095 231.21C488.337 231.409 488.635 231.509 488.99 231.509ZM500.723 225.364L498.053 233H495.666L492.997 225.364H495.234L496.82 230.827H496.899L498.48 225.364H500.723ZM504.774 233.149C503.989 233.149 503.313 232.99 502.746 232.672C502.182 232.35 501.748 231.896 501.443 231.31C501.138 230.72 500.986 230.022 500.986 229.217C500.986 228.431 501.138 227.742 501.443 227.148C501.748 226.555 502.178 226.093 502.731 225.761C503.288 225.43 503.941 225.264 504.69 225.264C505.194 225.264 505.663 225.345 506.097 225.508C506.534 225.667 506.915 225.907 507.24 226.229C507.568 226.55 507.824 226.955 508.006 227.442C508.188 227.926 508.279 228.492 508.279 229.142V229.724H501.831V228.411H506.286C506.286 228.106 506.219 227.836 506.087 227.601C505.954 227.366 505.77 227.182 505.535 227.049C505.303 226.913 505.033 226.845 504.725 226.845C504.403 226.845 504.118 226.92 503.87 227.069C503.624 227.215 503.432 227.412 503.293 227.661C503.154 227.906 503.082 228.179 503.079 228.481V229.729C503.079 230.107 503.149 230.433 503.288 230.708C503.43 230.983 503.631 231.195 503.889 231.344C504.148 231.494 504.455 231.568 504.809 231.568C505.044 231.568 505.26 231.535 505.455 231.469C505.651 231.402 505.818 231.303 505.958 231.17C506.097 231.038 506.203 230.875 506.276 230.683L508.235 230.812C508.135 231.283 507.931 231.694 507.623 232.045C507.318 232.393 506.924 232.665 506.44 232.861C505.959 233.053 505.404 233.149 504.774 233.149Z" fill="black"/>
</g>
<g clip-path="url(#clip13_317_2729)">
<path d="M625 205C625 199.477 629.477 195 635 195H750C755.523 195 760 199.477 760 205V250C760 255.523 755.523 260 750 260H635C629.477 260 625 255.523 625 250V205Z" fill="#F5F7FA"/>
<path d="M679.776 225.746C679.736 225.345 679.566 225.034 679.264 224.812C678.962 224.59 678.553 224.479 678.036 224.479C677.685 224.479 677.388 224.528 677.146 224.628C676.904 224.724 676.719 224.858 676.589 225.031C676.463 225.203 676.4 225.398 676.4 225.617C676.394 225.799 676.432 225.959 676.515 226.094C676.601 226.23 676.719 226.348 676.868 226.447C677.017 226.544 677.189 226.628 677.385 226.701C677.58 226.771 677.789 226.83 678.011 226.88L678.926 227.099C679.37 227.198 679.778 227.331 680.149 227.496C680.52 227.662 680.842 227.866 681.113 228.108C681.385 228.35 681.596 228.635 681.745 228.963C681.897 229.291 681.975 229.667 681.979 230.092C681.975 230.715 681.816 231.255 681.501 231.712C681.19 232.166 680.739 232.519 680.149 232.771C679.562 233.02 678.855 233.144 678.026 233.144C677.204 233.144 676.488 233.018 675.878 232.766C675.272 232.514 674.798 232.142 674.457 231.648C674.118 231.151 673.941 230.536 673.925 229.803H676.008C676.031 230.145 676.129 230.43 676.301 230.658C676.477 230.884 676.71 231.054 677.002 231.17C677.297 231.283 677.63 231.339 678.001 231.339C678.366 231.339 678.682 231.286 678.951 231.18C679.223 231.074 679.433 230.927 679.582 230.738C679.731 230.549 679.806 230.332 679.806 230.087C679.806 229.858 679.738 229.666 679.602 229.51C679.47 229.354 679.274 229.222 679.015 229.112C678.76 229.003 678.447 228.903 678.076 228.814L676.967 228.536C676.109 228.327 675.431 228 674.934 227.556C674.437 227.112 674.19 226.514 674.193 225.761C674.19 225.145 674.354 224.606 674.685 224.146C675.02 223.685 675.479 223.325 676.062 223.067C676.646 222.808 677.309 222.679 678.051 222.679C678.807 222.679 679.466 222.808 680.03 223.067C680.596 223.325 681.037 223.685 681.352 224.146C681.667 224.606 681.829 225.14 681.839 225.746H679.776ZM684.627 233L682.549 225.364H684.692L685.875 230.494H685.945L687.178 225.364H689.281L690.533 230.464H690.598L691.761 225.364H693.899L691.826 233H689.584L688.271 228.197H688.177L686.864 233H684.627ZM696.941 233.144C696.453 233.144 696.019 233.06 695.638 232.891C695.257 232.718 694.955 232.465 694.733 232.13C694.514 231.792 694.405 231.371 694.405 230.867C694.405 230.443 694.483 230.087 694.639 229.798C694.794 229.51 695.007 229.278 695.275 229.102C695.543 228.927 695.848 228.794 696.19 228.705C696.534 228.615 696.896 228.552 697.274 228.516C697.718 228.469 698.076 228.426 698.347 228.386C698.619 228.343 698.816 228.28 698.939 228.197C699.062 228.115 699.123 227.992 699.123 227.83V227.8C699.123 227.485 699.024 227.241 698.825 227.069C698.629 226.897 698.351 226.81 697.99 226.81C697.608 226.81 697.305 226.895 697.08 227.064C696.854 227.23 696.705 227.438 696.632 227.69L694.673 227.531C694.773 227.067 694.968 226.666 695.26 226.328C695.552 225.987 695.928 225.725 696.389 225.543C696.853 225.357 697.39 225.264 697.999 225.264C698.424 225.264 698.83 225.314 699.217 225.413C699.609 225.513 699.955 225.667 700.257 225.876C700.561 226.085 700.802 226.353 700.977 226.681C701.153 227.006 701.241 227.395 701.241 227.849V233H699.232V231.941H699.173C699.05 232.18 698.886 232.39 698.681 232.572C698.475 232.751 698.228 232.892 697.94 232.995C697.651 233.094 697.318 233.144 696.941 233.144ZM697.547 231.683C697.859 231.683 698.134 231.621 698.372 231.499C698.611 231.373 698.798 231.204 698.934 230.991C699.07 230.779 699.138 230.539 699.138 230.271V229.46C699.072 229.503 698.981 229.543 698.865 229.58C698.752 229.613 698.624 229.644 698.482 229.674C698.339 229.701 698.197 229.725 698.054 229.749C697.912 229.768 697.782 229.787 697.666 229.803C697.418 229.84 697.201 229.898 697.015 229.977C696.829 230.057 696.685 230.165 696.583 230.3C696.48 230.433 696.428 230.599 696.428 230.798C696.428 231.086 696.533 231.306 696.742 231.459C696.954 231.608 697.222 231.683 697.547 231.683ZM702.618 235.864V225.364H704.706V226.646H704.801C704.893 226.441 705.028 226.232 705.203 226.02C705.382 225.804 705.614 225.625 705.899 225.483C706.188 225.337 706.546 225.264 706.973 225.264C707.53 225.264 708.044 225.41 708.514 225.702C708.985 225.99 709.361 226.426 709.643 227.009C709.925 227.589 710.065 228.317 710.065 229.192C710.065 230.044 709.928 230.763 709.653 231.349C709.381 231.933 709.01 232.375 708.539 232.677C708.072 232.975 707.548 233.124 706.968 233.124C706.557 233.124 706.208 233.056 705.919 232.92C705.634 232.785 705.4 232.614 705.218 232.408C705.036 232.2 704.897 231.989 704.801 231.777H704.736V235.864H702.618ZM704.691 229.182C704.691 229.636 704.754 230.032 704.88 230.37C705.006 230.708 705.188 230.972 705.427 231.161C705.666 231.346 705.956 231.439 706.297 231.439C706.642 231.439 706.933 231.344 707.172 231.156C707.411 230.963 707.591 230.698 707.714 230.36C707.84 230.019 707.903 229.626 707.903 229.182C707.903 228.741 707.842 228.353 707.719 228.018C707.596 227.684 707.416 227.422 707.177 227.233C706.938 227.044 706.645 226.95 706.297 226.95C705.952 226.95 705.661 227.041 705.422 227.223C705.187 227.405 705.006 227.664 704.88 227.999C704.754 228.333 704.691 228.728 704.691 229.182Z" fill="black"/>
</g>
<g clip-path="url(#clip14_317_2729)">
<path d="M618.961 232.703C619.437 233.139 620.159 233.089 620.574 232.59L624.574 227.79C624.951 227.338 624.951 226.662 624.574 226.21L620.574 221.41C620.159 220.911 619.437 220.861 618.961 221.297C618.486 221.733 618.438 222.491 618.854 222.99L621.195 226L621.195 228L618.854 231.01C618.438 231.509 618.486 232.267 618.961 232.703Z" fill="#C4C4C4"/>
<path d="M558.5 226.5L621.5 226.5L621.5 227.5L558.5 227.5L558.5 226.5Z" fill="#C4C4C4" stroke="#C4C4C4"/>
<circle cx="552" cy="227" r="6" transform="rotate(-90 552 227)" fill="white" stroke="#0088CA" stroke-width="2"/>
</g>
<g clip-path="url(#clip15_317_2729)">
<path d="M833.961 232.703C834.437 233.139 835.159 233.089 835.574 232.59L839.574 227.79C839.951 227.338 839.951 226.662 839.574 226.21L835.574 221.41C835.159 220.911 834.437 220.861 833.961 221.297C833.486 221.733 833.438 222.491 833.854 222.99L836.195 226L836.195 228L833.854 231.01C833.438 231.509 833.486 232.267 833.961 232.703Z" fill="#C4C4C4"/>
<path d="M773.5 226.5L836.5 226.5L836.5 227.5L773.5 227.5L773.5 226.5Z" fill="#C4C4C4" stroke="#C4C4C4"/>
<circle cx="767" cy="227" r="6" transform="rotate(-90 767 227)" fill="white" stroke="#0088CA" stroke-width="2"/>
</g>
<g clip-path="url(#clip16_317_2729)">
<path d="M787.529 229.001C786.361 227.826 786.367 225.926 787.542 224.758L802.885 209.511C804.055 208.349 805.945 208.349 807.115 209.511L822.458 224.758C823.633 225.926 823.639 227.826 822.471 229.001L807.128 244.44C805.955 245.621 804.045 245.621 802.872 244.44L787.529 229.001Z" fill="#FEFEFE" stroke="#C4C4C4" stroke-width="2"/>
<path d="M800.659 230.05V227.98L805.399 221.2H808.264V227.83H809.494V230.05H808.264V232H805.699V230.05H800.659ZM805.879 224.02L803.359 227.83H805.879V224.02Z" fill="#333333"/>
</g>
<g clip-path="url(#clip17_317_2729)">
<path d="M572.529 229.001C571.361 227.826 571.367 225.926 572.542 224.758L587.885 209.511C589.055 208.349 590.945 208.349 592.115 209.511L607.458 224.758C608.633 225.926 608.639 227.826 607.471 229.001L592.128 244.44C590.955 245.621 589.045 245.621 587.872 244.44L572.529 229.001Z" fill="#FEFEFE" stroke="#C4C4C4" stroke-width="2"/>
<path d="M586.224 224.14C586.264 223.07 586.614 222.245 587.274 221.665C587.934 221.085 588.829 220.795 589.959 220.795C590.709 220.795 591.349 220.925 591.879 221.185C592.419 221.445 592.824 221.8 593.094 222.25C593.374 222.7 593.514 223.205 593.514 223.765C593.514 224.425 593.349 224.965 593.019 225.385C592.689 225.795 592.304 226.075 591.864 226.225V226.285C592.434 226.475 592.884 226.79 593.214 227.23C593.544 227.67 593.709 228.235 593.709 228.925C593.709 229.545 593.564 230.095 593.274 230.575C592.994 231.045 592.579 231.415 592.029 231.685C591.489 231.955 590.844 232.09 590.094 232.09C588.894 232.09 587.934 231.795 587.214 231.205C586.504 230.615 586.129 229.725 586.089 228.535H588.579C588.589 228.975 588.714 229.325 588.954 229.585C589.194 229.835 589.544 229.96 590.004 229.96C590.394 229.96 590.694 229.85 590.904 229.63C591.124 229.4 591.234 229.1 591.234 228.73C591.234 228.25 591.079 227.905 590.769 227.695C590.469 227.475 589.984 227.365 589.314 227.365H588.834V225.28H589.314C589.824 225.28 590.234 225.195 590.544 225.025C590.864 224.845 591.024 224.53 591.024 224.08C591.024 223.72 590.924 223.44 590.724 223.24C590.524 223.04 590.249 222.94 589.899 222.94C589.519 222.94 589.234 223.055 589.044 223.285C588.864 223.515 588.759 223.8 588.729 224.14H586.224Z" fill="#333333"/>
</g>
<path d="M250.087 233V222.818H254.164C254.913 222.818 255.538 222.929 256.038 223.151C256.539 223.373 256.915 223.682 257.167 224.076C257.418 224.467 257.544 224.918 257.544 225.428C257.544 225.826 257.465 226.176 257.306 226.477C257.147 226.776 256.928 227.021 256.65 227.213C256.374 227.402 256.06 227.536 255.705 227.616V227.715C256.093 227.732 256.456 227.841 256.794 228.043C257.135 228.246 257.412 228.529 257.624 228.893C257.836 229.255 257.942 229.686 257.942 230.186C257.942 230.726 257.808 231.209 257.539 231.633C257.274 232.054 256.882 232.387 256.361 232.632C255.841 232.877 255.2 233 254.437 233H250.087ZM252.24 231.24H253.995C254.595 231.24 255.032 231.126 255.307 230.897C255.582 230.665 255.72 230.357 255.72 229.972C255.72 229.691 255.652 229.442 255.516 229.227C255.38 229.011 255.186 228.842 254.934 228.719C254.686 228.597 254.389 228.536 254.044 228.536H252.24V231.24ZM252.24 227.079H253.836C254.131 227.079 254.392 227.027 254.621 226.925C254.853 226.819 255.035 226.67 255.168 226.477C255.304 226.285 255.372 226.055 255.372 225.786C255.372 225.418 255.241 225.122 254.979 224.896C254.721 224.671 254.353 224.558 253.875 224.558H252.24V227.079ZM259.037 233V225.364H261.09V226.696H261.17C261.309 226.222 261.543 225.864 261.871 225.622C262.199 225.377 262.577 225.254 263.004 225.254C263.111 225.254 263.225 225.261 263.348 225.274C263.47 225.287 263.578 225.306 263.671 225.329V227.208C263.571 227.178 263.434 227.152 263.258 227.129C263.082 227.105 262.922 227.094 262.776 227.094C262.464 227.094 262.186 227.162 261.941 227.298C261.699 227.43 261.506 227.616 261.364 227.854C261.225 228.093 261.155 228.368 261.155 228.68V233H259.037ZM264.5 233V225.364H266.618V233H264.5ZM265.564 224.379C265.249 224.379 264.979 224.275 264.753 224.066C264.531 223.854 264.42 223.6 264.42 223.305C264.42 223.014 264.531 222.763 264.753 222.555C264.979 222.343 265.249 222.237 265.564 222.237C265.878 222.237 266.147 222.343 266.369 222.555C266.594 222.763 266.707 223.014 266.707 223.305C266.707 223.6 266.594 223.854 266.369 224.066C266.147 224.275 265.878 224.379 265.564 224.379ZM270.862 233.124C270.282 233.124 269.757 232.975 269.286 232.677C268.819 232.375 268.447 231.933 268.172 231.349C267.901 230.763 267.765 230.044 267.765 229.192C267.765 228.317 267.906 227.589 268.187 227.009C268.469 226.426 268.844 225.99 269.311 225.702C269.782 225.41 270.297 225.264 270.857 225.264C271.285 225.264 271.641 225.337 271.926 225.483C272.214 225.625 272.446 225.804 272.622 226.02C272.801 226.232 272.937 226.441 273.03 226.646H273.094V222.818H275.207V233H273.119V231.777H273.03C272.93 231.989 272.789 232.2 272.607 232.408C272.428 232.614 272.194 232.785 271.906 232.92C271.621 233.056 271.273 233.124 270.862 233.124ZM271.533 231.439C271.875 231.439 272.163 231.346 272.398 231.161C272.637 230.972 272.819 230.708 272.945 230.37C273.074 230.032 273.139 229.636 273.139 229.182C273.139 228.728 273.076 228.333 272.95 227.999C272.824 227.664 272.642 227.405 272.403 227.223C272.165 227.041 271.875 226.95 271.533 226.95C271.185 226.95 270.892 227.044 270.653 227.233C270.415 227.422 270.234 227.684 270.111 228.018C269.989 228.353 269.927 228.741 269.927 229.182C269.927 229.626 269.989 230.019 270.111 230.36C270.237 230.698 270.418 230.963 270.653 231.156C270.892 231.344 271.185 231.439 271.533 231.439ZM280.123 236.023C279.437 236.023 278.848 235.928 278.358 235.739C277.871 235.554 277.483 235.3 277.195 234.979C276.906 234.657 276.719 234.296 276.633 233.895L278.592 233.631C278.651 233.784 278.746 233.926 278.875 234.059C279.004 234.192 279.175 234.298 279.387 234.377C279.602 234.46 279.864 234.501 280.173 234.501C280.633 234.501 281.013 234.389 281.311 234.163C281.613 233.941 281.763 233.568 281.763 233.045V231.648H281.674C281.581 231.86 281.442 232.06 281.256 232.249C281.071 232.438 280.832 232.592 280.54 232.712C280.249 232.831 279.901 232.891 279.496 232.891C278.923 232.891 278.401 232.758 277.93 232.493C277.463 232.224 277.09 231.815 276.812 231.265C276.537 230.711 276.399 230.012 276.399 229.167C276.399 228.302 276.54 227.579 276.822 226.999C277.103 226.419 277.478 225.985 277.945 225.697C278.416 225.408 278.931 225.264 279.491 225.264C279.919 225.264 280.277 225.337 280.565 225.483C280.854 225.625 281.086 225.804 281.261 226.02C281.44 226.232 281.578 226.441 281.674 226.646H281.754V225.364H283.857V233.075C283.857 233.724 283.697 234.268 283.379 234.705C283.061 235.143 282.62 235.471 282.057 235.69C281.497 235.912 280.852 236.023 280.123 236.023ZM280.168 231.3C280.509 231.3 280.797 231.215 281.033 231.046C281.271 230.874 281.454 230.629 281.58 230.31C281.709 229.989 281.773 229.604 281.773 229.157C281.773 228.71 281.71 228.322 281.584 227.994C281.459 227.662 281.276 227.405 281.038 227.223C280.799 227.041 280.509 226.95 280.168 226.95C279.82 226.95 279.526 227.044 279.288 227.233C279.049 227.419 278.868 227.677 278.746 228.009C278.623 228.34 278.562 228.723 278.562 229.157C278.562 229.598 278.623 229.979 278.746 230.3C278.872 230.619 279.052 230.866 279.288 231.041C279.526 231.214 279.82 231.3 280.168 231.3ZM288.756 233.149C287.97 233.149 287.294 232.99 286.728 232.672C286.164 232.35 285.73 231.896 285.425 231.31C285.12 230.72 284.968 230.022 284.968 229.217C284.968 228.431 285.12 227.742 285.425 227.148C285.73 226.555 286.159 226.093 286.713 225.761C287.269 225.43 287.922 225.264 288.671 225.264C289.175 225.264 289.644 225.345 290.078 225.508C290.516 225.667 290.897 225.907 291.222 226.229C291.55 226.55 291.805 226.955 291.988 227.442C292.17 227.926 292.261 228.492 292.261 229.142V229.724H285.813V228.411H290.267C290.267 228.106 290.201 227.836 290.068 227.601C289.936 227.366 289.752 227.182 289.517 227.049C289.285 226.913 289.015 226.845 288.706 226.845C288.385 226.845 288.1 226.92 287.851 227.069C287.606 227.215 287.414 227.412 287.274 227.661C287.135 227.906 287.064 228.179 287.061 228.481V229.729C287.061 230.107 287.13 230.433 287.269 230.708C287.412 230.983 287.613 231.195 287.871 231.344C288.13 231.494 288.436 231.568 288.791 231.568C289.026 231.568 289.242 231.535 289.437 231.469C289.633 231.402 289.8 231.303 289.939 231.17C290.078 231.038 290.184 230.875 290.257 230.683L292.216 230.812C292.117 231.283 291.913 231.694 291.605 232.045C291.3 232.393 290.905 232.665 290.421 232.861C289.941 233.053 289.386 233.149 288.756 233.149Z" fill="black"/>
<defs>
<clipPath id="clip0_317_2729">
<rect width="130" height="130" fill="white" transform="translate(0 162)"/>
</clipPath>
<clipPath id="clip1_317_2729">
<rect width="24" height="24" fill="white" transform="translate(53 196)"/>
</clipPath>
<clipPath id="clip2_317_2729">
<rect width="130" height="130" fill="white"/>
</clipPath>
<clipPath id="clip3_317_2729">
<rect width="130" height="130" fill="white" transform="translate(839 161)"/>
</clipPath>
<clipPath id="clip4_317_2729">
<rect width="24" height="24" fill="white" transform="translate(892 195)"/>
</clipPath>
<clipPath id="clip5_317_2729">
<rect width="14" height="80" fill="white" transform="matrix(0 -1 1 0 126 234)"/>
</clipPath>
<clipPath id="clip6_317_2729">
<rect width="42" height="42" fill="white" transform="translate(149 206)"/>
</clipPath>
<clipPath id="clip7_317_2729">
<rect width="130" height="65" fill="white" transform="translate(206 35)"/>
</clipPath>
<clipPath id="clip8_317_2729">
<rect width="14" height="80" fill="white" transform="matrix(0 -1 1 0 125 74)"/>
</clipPath>
<clipPath id="clip9_317_2729">
<rect width="42" height="42" fill="white" transform="translate(149 45)"/>
</clipPath>
<clipPath id="clip10_317_2729">
<rect width="14" height="80" fill="white" transform="matrix(0 -1 1 0 335 234)"/>
</clipPath>
<clipPath id="clip11_317_2729">
<rect width="42" height="42" fill="white" transform="translate(359 206)"/>
</clipPath>
<clipPath id="clip12_317_2729">
<rect width="130" height="65" fill="white" transform="translate(415 195)"/>
</clipPath>
<clipPath id="clip13_317_2729">
<rect width="135" height="65" fill="white" transform="translate(625 195)"/>
</clipPath>
<clipPath id="clip14_317_2729">
<rect width="14" height="80" fill="white" transform="matrix(0 -1 1 0 545 234)"/>
</clipPath>
<clipPath id="clip15_317_2729">
<rect width="14" height="80" fill="white" transform="matrix(0 -1 1 0 760 234)"/>
</clipPath>
<clipPath id="clip16_317_2729">
<rect width="42" height="42" fill="white" transform="translate(784 206)"/>
</clipPath>
<clipPath id="clip17_317_2729">
<rect width="42" height="42" fill="white" transform="translate(569 206)"/>
</clipPath>
</defs>
</svg>
