<?xml version="1.0" encoding="UTF-8"?>
<svg id="Layer_1" data-name="Layer 1" xmlns="http://www.w3.org/2000/svg" xmlns:xlink="http://www.w3.org/1999/xlink" viewBox="0 0 2184.589 1238.342">
  <defs>
    <linearGradient id="linear-gradient" x1="198.491" y1="232.658" x2="442.98" y2="232.658" gradientUnits="userSpaceOnUse">
      <stop offset="0" stop-color="#fff" stop-opacity="0"/>
      <stop offset=".007" stop-color="#fff" stop-opacity=".036"/>
      <stop offset=".048" stop-color="#fff" stop-opacity=".216"/>
      <stop offset=".093" stop-color="#fff" stop-opacity=".385"/>
      <stop offset=".142" stop-color="#fff" stop-opacity=".533"/>
      <stop offset=".195" stop-color="#fff" stop-opacity=".66"/>
      <stop offset=".254" stop-color="#fff" stop-opacity=".767"/>
      <stop offset=".32" stop-color="#fff" stop-opacity=".853"/>
      <stop offset=".397" stop-color="#fff" stop-opacity=".92"/>
      <stop offset=".493" stop-color="#fff" stop-opacity=".966"/>
      <stop offset=".627" stop-color="#fff" stop-opacity=".993"/>
      <stop offset="1" stop-color="#fff"/>
    </linearGradient>
    <filter id="outer-glow-2" filterUnits="userSpaceOnUse">
      <feOffset dx="0" dy="0"/>
      <feGaussianBlur result="blur" stdDeviation="3"/>
      <feFlood flood-color="#61dfff" flood-opacity=".6"/>
      <feComposite in2="blur" operator="in"/>
      <feComposite in="SourceGraphic"/>
    </filter>
    <filter id="outer-glow-3" filterUnits="userSpaceOnUse">
      <feOffset dx="0" dy="0"/>
      <feGaussianBlur result="blur-2" stdDeviation="3"/>
      <feFlood flood-color="#61dfff" flood-opacity=".6"/>
      <feComposite in2="blur-2" operator="in"/>
      <feComposite in="SourceGraphic"/>
    </filter>
    <filter id="outer-glow-4" filterUnits="userSpaceOnUse">
      <feOffset dx="0" dy="0"/>
      <feGaussianBlur result="blur-3" stdDeviation="3"/>
      <feFlood flood-color="#61dfff" flood-opacity=".6"/>
      <feComposite in2="blur-3" operator="in"/>
      <feComposite in="SourceGraphic"/>
    </filter>
    <filter id="outer-glow-5" filterUnits="userSpaceOnUse">
      <feOffset dx="0" dy="0"/>
      <feGaussianBlur result="blur-4" stdDeviation="3"/>
      <feFlood flood-color="#61dfff" flood-opacity=".6"/>
      <feComposite in2="blur-4" operator="in"/>
      <feComposite in="SourceGraphic"/>
    </filter>
    <filter id="outer-glow-6" filterUnits="userSpaceOnUse">
      <feOffset dx="0" dy="0"/>
      <feGaussianBlur result="blur-5" stdDeviation="3"/>
      <feFlood flood-color="#61dfff" flood-opacity=".6"/>
      <feComposite in2="blur-5" operator="in"/>
      <feComposite in="SourceGraphic"/>
    </filter>
    <filter id="outer-glow-7" filterUnits="userSpaceOnUse">
      <feOffset dx="0" dy="0"/>
      <feGaussianBlur result="blur-6" stdDeviation="3"/>
      <feFlood flood-color="#61dfff" flood-opacity=".6"/>
      <feComposite in2="blur-6" operator="in"/>
      <feComposite in="SourceGraphic"/>
    </filter>
    <linearGradient id="linear-gradient-2" x1="2119.87" y1="232.658" x2="1915.413" y2="232.658" gradientUnits="userSpaceOnUse">
      <stop offset="0" stop-color="#fff" stop-opacity="0"/>
      <stop offset=".007" stop-color="#fff" stop-opacity=".036"/>
      <stop offset=".048" stop-color="#fff" stop-opacity=".216"/>
      <stop offset=".093" stop-color="#fff" stop-opacity=".385"/>
      <stop offset=".142" stop-color="#fff" stop-opacity=".533"/>
      <stop offset=".195" stop-color="#fff" stop-opacity=".66"/>
      <stop offset=".254" stop-color="#fff" stop-opacity=".767"/>
      <stop offset=".32" stop-color="#fff" stop-opacity=".853"/>
      <stop offset=".397" stop-color="#fff" stop-opacity=".92"/>
      <stop offset=".493" stop-color="#fff" stop-opacity=".966"/>
      <stop offset=".627" stop-color="#fff" stop-opacity=".993"/>
      <stop offset="1" stop-color="#fff"/>
    </linearGradient>
    <filter id="outer-glow-8" filterUnits="userSpaceOnUse">
      <feOffset dx="0" dy="0"/>
      <feGaussianBlur result="blur-7" stdDeviation="3"/>
      <feFlood flood-color="#61dfff" flood-opacity=".6"/>
      <feComposite in2="blur-7" operator="in"/>
      <feComposite in="SourceGraphic"/>
    </filter>
    <linearGradient id="linear-gradient-3" y1="1045.474" y2="1045.474" xlink:href="#linear-gradient"/>
    <filter id="outer-glow-9" filterUnits="userSpaceOnUse">
      <feOffset dx="0" dy="0"/>
      <feGaussianBlur result="blur-8" stdDeviation="3"/>
      <feFlood flood-color="#8992b2" flood-opacity=".6"/>
      <feComposite in2="blur-8" operator="in"/>
      <feComposite in="SourceGraphic"/>
    </filter>
    <filter id="outer-glow-10" filterUnits="userSpaceOnUse">
      <feOffset dx="0" dy="0"/>
      <feGaussianBlur result="blur-9" stdDeviation="3"/>
      <feFlood flood-color="#8992b2" flood-opacity=".6"/>
      <feComposite in2="blur-9" operator="in"/>
      <feComposite in="SourceGraphic"/>
    </filter>
    <filter id="outer-glow-11" filterUnits="userSpaceOnUse">
      <feOffset dx="0" dy="0"/>
      <feGaussianBlur result="blur-10" stdDeviation="3"/>
      <feFlood flood-color="#8992b2" flood-opacity=".6"/>
      <feComposite in2="blur-10" operator="in"/>
      <feComposite in="SourceGraphic"/>
    </filter>
    <filter id="outer-glow-12" filterUnits="userSpaceOnUse">
      <feOffset dx="0" dy="0"/>
      <feGaussianBlur result="blur-11" stdDeviation="3"/>
      <feFlood flood-color="#8992b2" flood-opacity=".6"/>
      <feComposite in2="blur-11" operator="in"/>
      <feComposite in="SourceGraphic"/>
    </filter>
    <filter id="outer-glow-13" filterUnits="userSpaceOnUse">
      <feOffset dx="0" dy="0"/>
      <feGaussianBlur result="blur-12" stdDeviation="3"/>
      <feFlood flood-color="#8992b2" flood-opacity=".6"/>
      <feComposite in2="blur-12" operator="in"/>
      <feComposite in="SourceGraphic"/>
    </filter>
    <filter id="outer-glow-14" filterUnits="userSpaceOnUse">
      <feOffset dx="0" dy="0"/>
      <feGaussianBlur result="blur-13" stdDeviation="3"/>
      <feFlood flood-color="#8992b2" flood-opacity=".6"/>
      <feComposite in2="blur-13" operator="in"/>
      <feComposite in="SourceGraphic"/>
    </filter>
    <linearGradient id="linear-gradient-4" y1="1045.474" y2="1045.474" xlink:href="#linear-gradient-2"/>
    <filter id="outer-glow-15" filterUnits="userSpaceOnUse">
      <feOffset dx="0" dy="0"/>
      <feGaussianBlur result="blur-14" stdDeviation="3"/>
      <feFlood flood-color="#8992b2" flood-opacity=".6"/>
      <feComposite in2="blur-14" operator="in"/>
      <feComposite in="SourceGraphic"/>
    </filter>
  </defs>
  <rect width="2184.589" height="1238.342" rx="14.099" ry="14.099" fill="#202020" stroke-width="0"/>
  <g id="Batch_Conflation" data-name="Batch Conflation">
    <rect x="1019.156" y="541.662" width="550.301" height="169.234" rx="6.497" ry="6.497" fill="#505050" stroke-width="0"/>
    <path d="m1049.34,445.031v-5.015h216.741v5.015h-216.741Z" fill="#61dfff" fill-rule="evenodd" stroke="#61dfff"/>
    <path d="m1176.723,515.492v-5.015h89.358v5.015h-89.358Z" fill="#61dfff" fill-rule="evenodd" stroke="#61dfff"/>
    <path d="m1259.515,630.774v-5.015h49.178v5.015h-49.178Z" fill="#61dfff" fill-rule="evenodd" stroke="#61dfff"/>
    <path d="m1323.446,445.031v-5.015h216.333v5.015h-216.333Z" fill="#61dfff" fill-rule="evenodd" stroke="#61dfff"/>
    <rect x="248.531" y="134.18" width="1821.299" height="184.308" rx="7.169" ry="7.169" fill="#505050" stroke-width="0"/>
    <rect x="248.515" y="947.112" width="1821.299" height="184.308" rx="7.169" ry="7.169" fill="#505050" stroke-width="0"/>
    <polygon points="481.888 202.688 404.072 178.439 481.888 154.189 559.705 178.439 481.888 202.688" fill="#97ebff" fill-rule="evenodd" stroke-width="0"/>
    <polygon points="404.072 178.439 481.888 202.688 481.888 294.885 404.072 270.635 404.072 178.439" fill="#80e7ff" fill-rule="evenodd" stroke-width="0"/>
    <polygon points="481.888 294.885 559.705 270.635 559.705 178.439 481.888 202.688 481.888 294.885" fill="#61dfff" fill-rule="evenodd" stroke-width="0"/>
    <polygon points="753.03 202.688 675.214 178.439 753.03 154.189 830.846 178.439 753.03 202.688" fill="#97ebff" fill-rule="evenodd" stroke-width="0"/>
    <polygon points="675.214 178.439 753.03 202.688 753.03 294.885 675.214 270.635 675.214 178.439" fill="#80e7ff" fill-rule="evenodd" stroke-width="0"/>
    <polygon points="753.03 294.885 830.846 270.635 830.846 178.439 753.03 202.688 753.03 294.885" fill="#61dfff" fill-rule="evenodd" stroke-width="0"/>
    <polygon points="1024.172 202.688 946.355 178.439 1024.172 154.189 1101.988 178.439 1024.172 202.688" fill="#97ebff" fill-rule="evenodd" stroke-width="0"/>
    <polygon points="946.355 178.439 1024.172 202.688 1024.172 294.885 946.355 270.635 946.355 178.439" fill="#80e7ff" fill-rule="evenodd" stroke-width="0"/>
    <polygon points="1024.172 294.885 1101.988 270.635 1101.988 178.439 1024.172 202.688 1024.172 294.885" fill="#61dfff" fill-rule="evenodd" stroke-width="0"/>
    <polygon points="1295.313 202.688 1217.497 178.439 1295.313 154.189 1373.13 178.439 1295.313 202.688" fill="#97ebff" fill-rule="evenodd" stroke-width="0"/>
    <polygon points="1217.497 178.439 1295.313 202.688 1295.313 294.885 1217.497 270.635 1217.497 178.439" fill="#80e7ff" fill-rule="evenodd" stroke-width="0"/>
    <polygon points="1295.313 294.885 1373.13 270.635 1373.13 178.439 1295.313 202.688 1295.313 294.885" fill="#61dfff" fill-rule="evenodd" stroke-width="0"/>
    <polygon points="1566.455 202.688 1488.639 178.439 1566.455 154.189 1644.271 178.439 1566.455 202.688" fill="#97ebff" fill-rule="evenodd" stroke-width="0"/>
    <polygon points="1488.639 178.439 1566.455 202.688 1566.455 294.885 1488.639 270.635 1488.639 178.439" fill="#80e7ff" fill-rule="evenodd" stroke-width="0"/>
    <polygon points="1566.455 294.885 1644.271 270.635 1644.271 178.439 1566.455 202.688 1566.455 294.885" fill="#61dfff" fill-rule="evenodd" stroke-width="0"/>
    <polygon points="1837.597 202.688 1759.78 178.439 1837.597 154.189 1915.413 178.439 1837.597 202.688" fill="#97ebff" fill-rule="evenodd" stroke-width="0"/>
    <polygon points="1759.78 178.439 1837.597 202.688 1837.597 294.885 1759.78 270.635 1759.78 178.439" fill="#80e7ff" fill-rule="evenodd" stroke-width="0"/>
    <polygon points="1837.597 294.885 1915.413 270.635 1915.413 178.439 1837.597 202.688 1837.597 294.885" fill="#61dfff" fill-rule="evenodd" stroke-width="0"/>
    <path d="m198.491,230.338h242.168c1.281,0,2.321,1.04,2.321,2.321h0c0,1.281-1.04,2.321-2.321,2.321h-242.168v-4.641h0Z" fill="url(#linear-gradient)" filter="url(#outer-glow-2)" stroke-width="0"/>
    <path d="m559.705,230.338h152.096c1.281,0,2.321,1.04,2.321,2.321h0c0,1.281-1.04,2.321-2.321,2.321h-152.096v-4.641h0Z" fill="#fff" filter="url(#outer-glow-3)" stroke-width="0"/>
    <path d="m830.846,230.338h152.096c1.281,0,2.321,1.04,2.321,2.321h0c0,1.281-1.04,2.321-2.321,2.321h-152.096v-4.641h0Z" fill="#fff" filter="url(#outer-glow-4)" stroke-width="0"/>
    <path d="m1101.988,230.338h152.096c1.281,0,2.321,1.04,2.321,2.321h0c0,1.281-1.04,2.321-2.321,2.321h-152.096v-4.641h0Z" fill="#fff" filter="url(#outer-glow-5)" stroke-width="0"/>
    <path d="m1373.13,230.338h152.096c1.281,0,2.321,1.04,2.321,2.321h0c0,1.281-1.04,2.321-2.321,2.321h-152.096v-4.641h0Z" fill="#fff" filter="url(#outer-glow-6)" stroke-width="0"/>
    <path d="m1644.271,230.338h152.096c1.281,0,2.321,1.04,2.321,2.321h0c0,1.281-1.04,2.321-2.321,2.321h-152.096v-4.641h0Z" fill="#fff" filter="url(#outer-glow-7)" stroke-width="0"/>
    <rect x="1915.413" y="230.338" width="204.457" height="4.641" fill="url(#linear-gradient-2)" filter="url(#outer-glow-8)" stroke-width="0"/>
    <g>
      <polygon points="605.736 351.183 588.736 351.183 588.736 347.183 601.736 347.183 601.736 334.183 605.736 334.183 605.736 351.183" fill="#61dfff" stroke-width="0"/>
      <path d="m558.208,351.183h-30.528v-4h30.528v4Zm-61.056,0h-30.528v-4h30.528v4Zm-61.057,0h-30.528v-4h30.528v4Z" fill="#61dfff" stroke-width="0"/>
      <polygon points="375.04 351.183 358.04 351.183 358.04 334.183 362.04 334.183 362.04 347.183 375.04 347.183 375.04 351.183" fill="#61dfff" stroke-width="0"/>
      <path d="m362.04,303.655h-4v-30.528h4v30.528Zm0-61.056h-4v-30.528h4v30.528Zm0-61.056h-4v-30.528h4v30.528Z" fill="#61dfff" stroke-width="0"/>
      <polygon points="362.04 120.487 358.04 120.487 358.04 103.487 375.04 103.487 375.04 107.487 362.04 107.487 362.04 120.487" fill="#61dfff" stroke-width="0"/>
      <path d="m558.209,107.487h-30.528v-4h30.528v4Zm-61.057,0h-30.528v-4h30.528v4Zm-61.056,0h-30.528v-4h30.528v4Z" fill="#61dfff" stroke-width="0"/>
      <polygon points="605.736 120.487 601.736 120.487 601.736 107.487 588.736 107.487 588.736 103.487 605.736 103.487 605.736 120.487" fill="#61dfff" stroke-width="0"/>
      <path d="m605.736,303.655h-4v-30.528h4v30.528Zm0-61.056h-4v-30.528h4v30.528Zm0-61.056h-4v-30.528h4v30.528Z" fill="#61dfff" stroke-width="0"/>
    </g>
    <g>
      <polygon points="1692.456 351.183 1675.456 351.183 1675.456 347.183 1688.456 347.183 1688.456 334.183 1692.456 334.183 1692.456 351.183" fill="#61dfff" stroke-width="0"/>
      <path d="m1645.001,351.183h-30.455v-4h30.455v4Zm-60.91,0h-30.454v-4h30.454v4Zm-60.909,0h-30.455v-4h30.455v4Zm-60.91,0h-30.455v-4h30.455v4Zm-60.909,0h-30.455v-4h30.455v4Zm-60.91,0h-30.455v-4h30.455v4Zm-60.91,0h-30.454v-4h30.454v4Zm-60.909,0h-30.455v-4h30.455v4Zm-60.91,0h-30.455v-4h30.455v4Zm-60.909,0h-30.455v-4h30.455v4Zm-60.91,0h-30.455v-4h30.455v4Zm-60.91,0h-30.455v-4h30.455v4Z" fill="#61dfff" stroke-width="0"/>
      <polygon points="914.083 351.183 897.083 351.183 897.083 334.183 901.083 334.183 901.083 347.183 914.083 347.183 914.083 351.183" fill="#61dfff" stroke-width="0"/>
      <path d="m901.083,303.655h-4v-30.528h4v30.528Zm0-61.056h-4v-30.528h4v30.528Zm0-61.056h-4v-30.528h4v30.528Z" fill="#61dfff" stroke-width="0"/>
      <polygon points="901.083 120.487 897.083 120.487 897.083 103.487 914.083 103.487 914.083 107.487 901.083 107.487 901.083 120.487" fill="#61dfff" stroke-width="0"/>
      <path d="m1645.001,107.487h-30.455v-4h30.455v4Zm-60.91,0h-30.455v-4h30.455v4Zm-60.91,0h-30.455v-4h30.455v4Zm-60.909,0h-30.455v-4h30.455v4Zm-60.91,0h-30.455v-4h30.455v4Zm-60.91,0h-30.454v-4h30.454v4Zm-60.909,0h-30.455v-4h30.455v4Zm-60.91,0h-30.455v-4h30.455v4Zm-60.909,0h-30.455v-4h30.455v4Zm-60.91,0h-30.455v-4h30.455v4Zm-60.91,0h-30.454v-4h30.454v4Zm-60.909,0h-30.455v-4h30.455v4Z" fill="#61dfff" stroke-width="0"/>
      <polygon points="1692.456 120.487 1688.456 120.487 1688.456 107.487 1675.456 107.487 1675.456 103.487 1692.456 103.487 1692.456 120.487" fill="#61dfff" stroke-width="0"/>
      <path d="m1692.456,303.655h-4v-30.528h4v30.528Zm0-61.056h-4v-30.528h4v30.528Zm0-61.056h-4v-30.528h4v30.528Z" fill="#61dfff" stroke-width="0"/>
    </g>
    <polygon points="481.888 1015.504 404.072 991.254 481.888 967.004 559.705 991.254 481.888 1015.504" fill="#8992b2" fill-rule="evenodd" stroke-width="0"/>
    <polygon points="404.072 991.254 481.888 1015.504 481.888 1107.7 404.072 1083.45 404.072 991.254" fill="#62688f" fill-rule="evenodd" stroke-width="0"/>
    <polygon points="481.888 1107.7 559.705 1083.45 559.705 991.254 481.888 1015.503 481.888 1107.7" fill="#454a75" fill-rule="evenodd" stroke-width="0"/>
    <polygon points="753.03 1015.504 675.214 991.254 753.03 967.004 830.846 991.254 753.03 1015.504" fill="#8992b2" fill-rule="evenodd" stroke-width="0"/>
    <polygon points="675.214 991.254 753.03 1015.504 753.03 1107.7 675.214 1083.45 675.214 991.254" fill="#62688f" fill-rule="evenodd" stroke-width="0"/>
    <polygon points="753.03 1107.7 830.846 1083.45 830.846 991.254 753.03 1015.503 753.03 1107.7" fill="#454a75" fill-rule="evenodd" stroke-width="0"/>
    <polygon points="1024.172 1015.504 946.355 991.254 1024.172 967.004 1101.988 991.254 1024.172 1015.504" fill="#8992b2" fill-rule="evenodd" stroke-width="0"/>
    <polygon points="946.355 991.254 1024.172 1015.504 1024.172 1107.7 946.355 1083.45 946.355 991.254" fill="#62688f" fill-rule="evenodd" stroke-width="0"/>
    <polygon points="1024.172 1107.7 1101.988 1083.45 1101.988 991.254 1024.172 1015.503 1024.172 1107.7" fill="#454a75" fill-rule="evenodd" stroke-width="0"/>
    <polygon points="1295.313 1015.504 1217.497 991.254 1295.313 967.004 1373.13 991.254 1295.313 1015.504" fill="#8992b2" fill-rule="evenodd" stroke-width="0"/>
    <polygon points="1217.497 991.254 1295.313 1015.504 1295.313 1107.7 1217.497 1083.45 1217.497 991.254" fill="#62688f" fill-rule="evenodd" stroke-width="0"/>
    <polygon points="1295.313 1107.7 1373.13 1083.45 1373.13 991.254 1295.313 1015.503 1295.313 1107.7" fill="#454a75" fill-rule="evenodd" stroke-width="0"/>
    <polygon points="1566.455 1015.504 1488.639 991.254 1566.455 967.004 1644.271 991.254 1566.455 1015.504" fill="#8992b2" fill-rule="evenodd" stroke-width="0"/>
    <polygon points="1488.639 991.254 1566.455 1015.504 1566.455 1107.7 1488.639 1083.45 1488.639 991.254" fill="#62688f" fill-rule="evenodd" stroke-width="0"/>
    <polygon points="1566.455 1107.7 1644.271 1083.45 1644.271 991.254 1566.455 1015.503 1566.455 1107.7" fill="#454a75" fill-rule="evenodd" stroke-width="0"/>
    <polygon points="1837.597 1015.504 1759.78 991.254 1837.597 967.004 1915.413 991.254 1837.597 1015.504" fill="#8992b2" fill-rule="evenodd" stroke-width="0"/>
    <polygon points="1759.78 991.254 1837.597 1015.504 1837.597 1107.7 1759.78 1083.45 1759.78 991.254" fill="#62688f" fill-rule="evenodd" stroke-width="0"/>
    <polygon points="1837.597 1107.7 1915.413 1083.45 1915.413 991.254 1837.597 1015.503 1837.597 1107.7" fill="#454a75" fill-rule="evenodd" stroke-width="0"/>
    <path d="m198.491,1043.153h242.168c1.281,0,2.321,1.04,2.321,2.321h0c0,1.281-1.04,2.321-2.321,2.321h-242.168v-4.641h0Z" fill="url(#linear-gradient-3)" filter="url(#outer-glow-9)" stroke-width="0"/>
    <path d="m559.705,1043.153h152.096c1.281,0,2.321,1.04,2.321,2.321h0c0,1.281-1.04,2.321-2.321,2.321h-152.096v-4.641h0Z" fill="#fff" filter="url(#outer-glow-10)" stroke-width="0"/>
    <path d="m830.846,1043.153h152.096c1.281,0,2.321,1.04,2.321,2.321h0c0,1.281-1.04,2.321-2.321,2.321h-152.096v-4.641h0Z" fill="#fff" filter="url(#outer-glow-11)" stroke-width="0"/>
    <path d="m1101.988,1043.153h152.096c1.281,0,2.321,1.04,2.321,2.321h0c0,1.281-1.04,2.321-2.321,2.321h-152.096v-4.641h0Z" fill="#fff" filter="url(#outer-glow-12)" stroke-width="0"/>
    <path d="m1373.13,1043.153h152.096c1.281,0,2.321,1.04,2.321,2.321h0c0,1.281-1.04,2.321-2.321,2.321h-152.096v-4.641h0Z" fill="#fff" filter="url(#outer-glow-13)" stroke-width="0"/>
    <path d="m1644.271,1043.153h152.096c1.281,0,2.321,1.04,2.321,2.321h0c0,1.281-1.04,2.321-2.321,2.321h-152.096v-4.641h0Z" fill="#fff" filter="url(#outer-glow-14)" stroke-width="0"/>
    <rect x="1915.413" y="1043.153" width="204.457" height="4.641" fill="url(#linear-gradient-4)" filter="url(#outer-glow-15)" stroke-width="0"/>
    <path d="m479.381,351.183h5.015s0,576.168,0,576.168h-5.015s0-576.168,0-576.168Z" fill="#61dfff" fill-rule="evenodd" stroke="#61dfff"/>
    <path d="m1018.156,351.185h5.015s0,62.662,0,62.662h-5.015s0-62.662,0-62.662Z" fill="#61dfff" fill-rule="evenodd" stroke="#61dfff"/>
    <path d="m1292.262,351.053h5.015s0,133.785,0,133.785h-5.015s0-133.785,0-133.785Z" fill="#61dfff" fill-rule="evenodd" stroke="#61dfff"/>
    <path d="m1145.538,541.662h5.015s0,19.388,0,19.388h-5.015s0-19.388,0-19.388Z" fill="#61dfff" fill-rule="evenodd" stroke="#61dfff"/>
    <path d="m1439.528,675.351h5.015s0,57.897,0,57.897h-5.015s0-57.897,0-57.897Z" fill="#61dfff" fill-rule="evenodd" stroke="#61dfff"/>
    <path d="m1340.585,347.17v4.017s-91.655,0-91.655,0v-4.017s91.655,0,91.655,0Z" fill="#61dfff" fill-rule="evenodd" stroke-width="0"/>
    <path d="m1565.949,351.185h5.015s0,62.662,0,62.662h-5.015s0-62.662,0-62.662Z" fill="#61dfff" fill-rule="evenodd" stroke="#61dfff"/>
    <path d="m481.888,945.547l-9.297-26.031h18.594s-9.297,26.031-9.297,26.031Z" fill="#61dfff" fill-rule="evenodd" stroke="#61dfff"/>
    <path d="m1148.046,576.449l-9.297-26.031h18.594s-9.297,26.031-9.297,26.031Z" fill="#61dfff" fill-rule="evenodd" stroke="#61dfff"/>
    <path d="m1326.557,628.267l-26.031,9.297v-18.594s26.031,9.297,26.031,9.297Z" fill="#61dfff" fill-rule="evenodd" stroke="#61dfff"/>
    <path d="m1049.34,442.523c-15.838,0-28.677-12.839-28.677-28.677" fill="none" fill-rule="evenodd" stroke="#61dfff" stroke-width="6"/>
    <path d="m1294.769,471.2c0-15.838,12.839-28.677,28.677-28.677" fill="none" fill-rule="evenodd" stroke="#61dfff" stroke-width="6"/>
    <path d="m1148.046,541.662c0-15.838,12.839-28.677,28.677-28.677" fill="none" fill-rule="evenodd" stroke="#61dfff" stroke-width="6"/>
    <path d="m1568.457,413.846c0,15.838-12.839,28.677-28.677,28.677" fill="none" fill-rule="evenodd" stroke="#61dfff" stroke-width="6"/>
    <path d="m1294.758,484.307c0,15.838-12.839,28.677-28.677,28.677" fill="none" fill-rule="evenodd" stroke="#61dfff" stroke-width="6"/>
    <path d="m1324,764.435v-5.015h89.358v5.015h-89.358Z" fill="#61dfff" fill-rule="evenodd" stroke="#61dfff"/>
    <path d="m1292.816,790.599h5.015s0,141.867,0,141.867h-5.015s0-141.867,0-141.867Z" fill="#61dfff" fill-rule="evenodd" stroke="#61dfff"/>
    <path d="m1295.323,945.488l-9.297-26.031h18.594s-9.297,26.031-9.297,26.031Z" fill="#61dfff" fill-rule="evenodd" stroke="#61dfff"/>
    <path d="m1295.323,790.605c0-15.838,12.839-28.677,28.677-28.677" fill="none" fill-rule="evenodd" stroke="#61dfff" stroke-width="6"/>
    <path d="m1442.035,733.251c0,15.838-12.839,28.677-28.677,28.677" fill="none" fill-rule="evenodd" stroke="#61dfff" stroke-width="6"/>
    <path d="m1266.081,442.523c15.838,0,28.677,12.839,28.677,28.677" fill="none" fill-rule="evenodd" stroke="#61dfff" stroke-width="6"/>
    <path d="m1041.258,578.949h213.576c2.664,0,4.824,2.033,4.824,4.542v87.319c0,2.508-2.16,4.542-4.824,4.542h-213.576c-2.664,0-4.824-2.033-4.824-4.542v-87.319c0-2.508,2.16-4.542,4.824-4.542Z" fill="#1d1d1d" fill-rule="evenodd" stroke="#61dfff" stroke-width="2"/>
    <g>
      <path d="m1121.029,637.279h-4.018v-16.1h-6.013v-3.568h16.071v3.568h-6.041v16.1Z" fill="#fff" stroke-width="0"/>
      <path d="m1131.425,622.781v3.765c.469-1.76,1.194-2.931,2.178-3.512.983-.58,2.065-.684,3.245-.309v3.597c-1.517-.524-2.8-.501-3.849.07-1.05.572-1.574,1.494-1.574,2.768v8.12h-3.793v-14.498h3.793Z" fill="#fff" stroke-width="0"/>
      <path d="m1144.322,622.5c1.835,0,3.324.478,4.468,1.433,1.142.955,1.714,2.351,1.714,4.186v9.16h-3.794v-3.596c-.805,2.584-2.472,3.877-5.001,3.877-1.18,0-2.191-.383-3.034-1.152-.843-.768-1.265-1.77-1.265-3.006,0-2.716,1.864-4.271,5.592-4.664l2.359-.225c.899-.056,1.349-.44,1.349-1.152,0-.524-.22-.946-.66-1.265-.44-.318-1.007-.478-1.699-.478-.75,0-1.363.192-1.841.576s-.782.923-.913,1.615l-3.765-.843c.206-1.292.89-2.36,2.051-3.203,1.161-.843,2.642-1.264,4.439-1.264Zm-1.265,12.053c.993,0,1.85-.337,2.571-1.011.721-.674,1.081-1.452,1.081-2.332v-.365c-.225.206-.655.347-1.292.421l-2.444.281c-.544.075-.975.249-1.293.52s-.478.614-.478,1.025c0,.431.169.782.506,1.054.337.272.787.407,1.349.407Z" fill="#fff" stroke-width="0"/>
      <path d="m1155.055,635.397c-1.48-1.442-2.22-3.231-2.22-5.367s.739-3.924,2.22-5.366c1.479-1.442,3.324-2.164,5.535-2.164,1.555,0,2.95.403,4.187,1.208,1.236.806,2.163,1.939,2.781,3.4l-3.484,1.208c-.318-.749-.786-1.325-1.404-1.728-.618-.402-1.312-.604-2.079-.604-1.087,0-1.995.389-2.726,1.166-.73.777-1.096,1.738-1.096,2.88,0,1.162.365,2.131,1.096,2.908s1.639,1.166,2.726,1.166c.768,0,1.461-.206,2.079-.618s1.086-.993,1.404-1.742l3.484,1.208c-.618,1.461-1.545,2.594-2.781,3.399-1.236.806-2.632,1.208-4.187,1.208-2.211,0-4.056-.721-5.535-2.163Z" fill="#fff" stroke-width="0"/>
      <path d="m1176.801,622.5c2.436,0,4.388.876,5.858,2.627,1.471,1.751,2.009,3.835,1.616,6.251h-11.183c.262.881.744,1.587,1.446,2.122.703.534,1.541.801,2.515.801,1.648,0,2.848-.674,3.597-2.023l3.119,1.405c-.656,1.18-1.578,2.121-2.768,2.824-1.19.702-2.543,1.053-4.061,1.053-2.21,0-4.056-.721-5.535-2.163s-2.22-3.231-2.22-5.367.731-3.924,2.192-5.366,3.268-2.164,5.422-2.164Zm0,3.259c-.843,0-1.597.249-2.262.745s-1.128,1.157-1.391,1.98h7.333c-.262-.824-.721-1.484-1.376-1.98-.656-.496-1.424-.745-2.305-.745Z" fill="#fff" stroke-width="0"/>
    </g>
    <g>
      <path d="m443.182,56.179v16.38h4.496v3.568h-13.88v-3.568h5.366v-11.829l-5.366,1.405v-3.54l9.384-2.417Z" fill="#fff" stroke-width="0"/>
      <path d="m468.076,66.21c1.555.188,2.777.712,3.667,1.573.89.862,1.334,1.938,1.334,3.231,0,1.461-.548,2.679-1.644,3.653-1.096.974-2.524,1.461-4.284,1.461h-9.413v-19.667h8.57c1.76,0,3.188.496,4.284,1.489,1.096.993,1.644,2.22,1.644,3.681,0,1.18-.365,2.173-1.096,2.979-.73.806-1.752,1.339-3.062,1.602Zm-2.163-6.294h-4.271v4.72h4.271c.786,0,1.419-.225,1.896-.674.478-.449.716-1.021.716-1.714s-.238-1.254-.716-1.686c-.478-.431-1.11-.646-1.896-.646Zm-4.271,12.756h4.804c.787,0,1.414-.22,1.883-.66.468-.44.702-1.007.702-1.7s-.234-1.26-.702-1.7c-.469-.439-1.096-.66-1.883-.66h-4.804v4.72Z" fill="#fff" stroke-width="0"/>
      <path d="m479.567,76.128h-3.793v-20.792h3.793v20.792Z" fill="#fff" stroke-width="0"/>
      <path d="m484.26,74.245c-1.479-1.442-2.22-3.231-2.22-5.367s.74-3.924,2.22-5.366,3.325-2.164,5.535-2.164,4.056.721,5.535,2.164,2.22,3.231,2.22,5.366-.74,3.924-2.22,5.367-3.325,2.163-5.535,2.163-4.056-.721-5.535-2.163Zm1.714-5.367c0,1.162.365,2.131,1.096,2.908.731.777,1.64,1.166,2.726,1.166s1.995-.389,2.726-1.166,1.096-1.747,1.096-2.908-.365-2.125-1.096-2.894c-.73-.768-1.64-1.152-2.726-1.152s-1.994.389-2.726,1.166c-.73.777-1.096,1.738-1.096,2.88Z" fill="#fff" stroke-width="0"/>
      <path d="m501.623,74.245c-1.479-1.442-2.22-3.231-2.22-5.367s.74-3.924,2.22-5.366,3.325-2.164,5.535-2.164c1.555,0,2.95.403,4.187,1.208,1.236.806,2.164,1.939,2.781,3.4l-3.483,1.208c-.318-.749-.787-1.325-1.405-1.728-.618-.402-1.311-.604-2.079-.604-1.086,0-1.994.389-2.726,1.166-.73.777-1.096,1.738-1.096,2.88,0,1.162.365,2.131,1.096,2.908.731.777,1.64,1.166,2.726,1.166.769,0,1.461-.206,2.079-.618s1.087-.993,1.405-1.742l3.483,1.208c-.617,1.461-1.545,2.594-2.781,3.399-1.236.806-2.632,1.208-4.187,1.208-2.21,0-4.056-.721-5.535-2.163Z" fill="#fff" stroke-width="0"/>
      <path d="m524.579,67.754l6.518,8.373h-4.776l-4.326-5.535-1.827,1.995v3.54h-3.793v-20.792h3.793v12.194l5.198-5.9h4.776l-5.562,6.125Z" fill="#fff" stroke-width="0"/>
    </g>
    <g>
      <path d="m1201.596,66.21c1.554.188,2.776.712,3.666,1.573.89.862,1.335,1.938,1.335,3.231,0,1.461-.548,2.679-1.644,3.653-1.096.974-2.524,1.461-4.285,1.461h-9.412v-19.667h8.569c1.761,0,3.189.496,4.285,1.489,1.096.993,1.644,2.22,1.644,3.681,0,1.18-.365,2.173-1.096,2.979-.73.806-1.752,1.339-3.062,1.602Zm-2.164-6.294h-4.271v4.72h4.271c.787,0,1.419-.225,1.896-.674.478-.449.717-1.021.717-1.714s-.239-1.254-.717-1.686c-.478-.431-1.109-.646-1.896-.646Zm-4.271,12.756h4.805c.786,0,1.414-.22,1.883-.66.468-.44.702-1.007.702-1.7s-.234-1.26-.702-1.7c-.469-.439-1.097-.66-1.883-.66h-4.805v4.72Z" fill="#fff" stroke-width="0"/>
      <path d="m1215.362,61.349c1.836,0,3.325.478,4.468,1.433,1.143.955,1.714,2.351,1.714,4.186v9.16h-3.793v-3.596c-.806,2.584-2.473,3.877-5.001,3.877-1.181,0-2.191-.383-3.035-1.152-.843-.768-1.264-1.77-1.264-3.006,0-2.716,1.863-4.271,5.591-4.664l2.36-.225c.899-.056,1.349-.44,1.349-1.152,0-.524-.221-.946-.66-1.265-.44-.318-1.007-.478-1.7-.478-.749,0-1.362.192-1.84.576s-.782.923-.913,1.615l-3.766-.843c.206-1.292.89-2.36,2.052-3.203,1.161-.843,2.641-1.264,4.438-1.264Zm-1.264,12.053c.992,0,1.85-.337,2.57-1.011s1.082-1.452,1.082-2.332v-.365c-.225.206-.656.347-1.292.421l-2.445.281c-.543.075-.974.249-1.292.52s-.478.614-.478,1.025c0,.431.168.782.506,1.054.337.272.786.407,1.349.407Z" fill="#fff" stroke-width="0"/>
      <path d="m1225.477,64.973h-2.922v-3.344h2.922v-4.271l3.793-1.18v5.451h3.765v3.344h-3.765v5.76c0,1.368.684,2.051,2.051,2.051h1.714v3.344h-1.714c-1.985,0-3.456-.463-4.411-1.391s-1.433-2.336-1.433-4.229v-5.535Z" fill="#fff" stroke-width="0"/>
      <path d="m1236.575,74.245c-1.479-1.442-2.22-3.231-2.22-5.367s.74-3.924,2.22-5.366,3.325-2.164,5.535-2.164c1.555,0,2.95.403,4.187,1.208,1.236.806,2.164,1.939,2.781,3.4l-3.483,1.208c-.318-.749-.787-1.325-1.405-1.728-.618-.402-1.311-.604-2.079-.604-1.086,0-1.994.389-2.726,1.166-.73.777-1.096,1.738-1.096,2.88,0,1.162.365,2.131,1.096,2.908.731.777,1.64,1.166,2.726,1.166.769,0,1.461-.206,2.079-.618s1.087-.993,1.405-1.742l3.483,1.208c-.617,1.461-1.545,2.594-2.781,3.399-1.236.806-2.632,1.208-4.187,1.208-2.21,0-4.056-.721-5.535-2.163Z" fill="#fff" stroke-width="0"/>
      <path d="m1260.12,61.349c1.611,0,2.908.562,3.892,1.686.983,1.124,1.475,2.557,1.475,4.299v8.794h-3.793v-8.12c0-.936-.3-1.704-.898-2.304-.6-.599-1.349-.899-2.248-.899-1.012,0-1.836.3-2.473.899-.637.6-.955,1.368-.955,2.304v8.12h-3.793v-20.792h3.793v10.002c.374-1.236,1.007-2.21,1.896-2.922.89-.711,1.925-1.067,3.104-1.067Z" fill="#fff" stroke-width="0"/>
      <path d="m1278.495,74.245c-1.48-1.442-2.22-3.231-2.22-5.367s.739-3.924,2.22-5.366c1.479-1.442,3.324-2.164,5.535-2.164s4.055.721,5.535,2.164c1.479,1.442,2.22,3.231,2.22,5.366s-.74,3.924-2.22,5.367c-1.48,1.442-3.325,2.163-5.535,2.163s-4.056-.721-5.535-2.163Zm1.714-5.367c0,1.162.365,2.131,1.096,2.908s1.639,1.166,2.726,1.166,1.995-.389,2.726-1.166,1.096-1.747,1.096-2.908-.365-2.125-1.096-2.894c-.73-.768-1.64-1.152-2.726-1.152s-1.995.389-2.726,1.166c-.73.777-1.096,1.738-1.096,2.88Z" fill="#fff" stroke-width="0"/>
      <path d="m1299.624,76.128h-3.793v-11.154h-2.922v-3.344h2.922v-.674c0-1.892.478-3.301,1.433-4.229s2.426-1.391,4.411-1.391h1.714v3.343h-1.714c-1.367,0-2.051.684-2.051,2.051v.899h3.765v3.344h-3.765v11.154Z" fill="#fff" stroke-width="0"/>
      <path d="m1324.348,66.21c1.554.188,2.776.712,3.666,1.573.89.862,1.335,1.938,1.335,3.231,0,1.461-.548,2.679-1.644,3.653-1.096.974-2.524,1.461-4.285,1.461h-9.412v-19.667h8.569c1.761,0,3.189.496,4.285,1.489,1.096.993,1.644,2.22,1.644,3.681,0,1.18-.365,2.173-1.096,2.979-.73.806-1.752,1.339-3.062,1.602Zm-2.164-6.294h-4.271v4.72h4.271c.787,0,1.419-.225,1.896-.674.478-.449.717-1.021.717-1.714s-.239-1.254-.717-1.686c-.478-.431-1.109-.646-1.896-.646Zm-4.271,12.756h4.805c.786,0,1.414-.22,1.883-.66.468-.44.702-1.007.702-1.7s-.234-1.26-.702-1.7c-.469-.439-1.097-.66-1.883-.66h-4.805v4.72Z" fill="#fff" stroke-width="0"/>
      <path d="m1335.84,76.128h-3.793v-20.792h3.793v20.792Z" fill="#fff" stroke-width="0"/>
      <path d="m1340.531,74.245c-1.479-1.442-2.22-3.231-2.22-5.367s.74-3.924,2.22-5.366,3.325-2.164,5.535-2.164,4.056.721,5.535,2.164,2.22,3.231,2.22,5.366-.74,3.924-2.22,5.367-3.325,2.163-5.535,2.163-4.056-.721-5.535-2.163Zm1.714-5.367c0,1.162.365,2.131,1.096,2.908.731.777,1.64,1.166,2.726,1.166s1.995-.389,2.726-1.166,1.096-1.747,1.096-2.908-.365-2.125-1.096-2.894c-.73-.768-1.64-1.152-2.726-1.152s-1.994.389-2.726,1.166c-.73.777-1.096,1.738-1.096,2.88Z" fill="#fff" stroke-width="0"/>
      <path d="m1357.895,74.245c-1.48-1.442-2.22-3.231-2.22-5.367s.739-3.924,2.22-5.366c1.479-1.442,3.324-2.164,5.535-2.164,1.555,0,2.95.403,4.187,1.208,1.236.806,2.163,1.939,2.781,3.4l-3.484,1.208c-.318-.749-.786-1.325-1.404-1.728-.618-.402-1.312-.604-2.079-.604-1.087,0-1.995.389-2.726,1.166-.73.777-1.096,1.738-1.096,2.88,0,1.162.365,2.131,1.096,2.908s1.639,1.166,2.726,1.166c.768,0,1.461-.206,2.079-.618s1.086-.993,1.404-1.742l3.484,1.208c-.618,1.461-1.545,2.594-2.781,3.399-1.236.806-2.632,1.208-4.187,1.208-2.211,0-4.056-.721-5.535-2.163Z" fill="#fff" stroke-width="0"/>
      <path d="m1380.85,67.754l6.519,8.373h-4.776l-4.327-5.535-1.826,1.995v3.54h-3.793v-20.792h3.793v12.194l5.198-5.9h4.776l-5.563,6.125Z" fill="#fff" stroke-width="0"/>
      <path d="m1387.453,72.222l3.793-.787c.168,1.312,1.029,1.967,2.585,1.967.768,0,1.386-.145,1.854-.435.468-.291.702-.651.702-1.082,0-.412-.211-.74-.632-.983-.422-.243-.946-.402-1.574-.478-.627-.075-1.311-.197-2.051-.365s-1.424-.375-2.051-.618c-.628-.243-1.152-.665-1.573-1.264-.422-.6-.633-1.349-.633-2.248,0-1.311.566-2.402,1.7-3.273,1.133-.871,2.552-1.307,4.257-1.307s3.108.379,4.214,1.138c1.105.759,1.761,1.775,1.967,3.049l-3.765.787c-.188-1.311-.993-1.967-2.416-1.967-.618,0-1.129.131-1.531.393-.403.263-.604.6-.604,1.012,0,.431.211.768.633,1.011.421.244.945.403,1.573.478.627.075,1.311.201,2.051.379.739.178,1.423.389,2.051.632.628.244,1.152.67,1.573,1.278.422.609.633,1.373.633,2.29,0,1.292-.618,2.379-1.854,3.259-1.236.881-2.744,1.32-4.523,1.32s-3.236-.379-4.369-1.138c-1.134-.759-1.803-1.774-2.009-3.048Z" fill="#fff" stroke-width="0"/>
    </g>
    <path d="m1333.886,578.949h213.576c2.664,0,4.824,2.033,4.824,4.542v87.319c0,2.508-2.16,4.542-4.824,4.542h-213.576c-2.664,0-4.824-2.033-4.824-4.542v-87.319c0-2.508,2.16-4.542,4.824-4.542Z" fill="#1d1d1d" fill-rule="evenodd" stroke="#61dfff" stroke-width="2"/>
    <g>
      <path d="m1402.629,637.279h-4.018v-19.667h8.316c2.154,0,3.896.618,5.227,1.854,1.329,1.236,1.994,2.81,1.994,4.72s-.66,3.47-1.98,4.678-3.067,1.812-5.24,1.812h-4.299v6.603Zm0-16.1v5.929h4.299c.918,0,1.658-.276,2.22-.829.562-.552.843-1.259.843-2.121s-.281-1.574-.843-2.135c-.562-.562-1.302-.843-2.22-.843h-4.299Z" fill="#fff" stroke-width="0"/>
      <path d="m1419.796,622.781v3.765c.468-1.76,1.194-2.931,2.178-3.512.983-.58,2.064-.684,3.245-.309v3.597c-1.518-.524-2.801-.501-3.85.07-1.049.572-1.573,1.494-1.573,2.768v8.12h-3.793v-14.498h3.793Z" fill="#fff" stroke-width="0"/>
      <path d="m1427.859,635.397c-1.479-1.442-2.22-3.231-2.22-5.367s.74-3.924,2.22-5.366,3.325-2.164,5.535-2.164,4.056.721,5.535,2.164,2.22,3.231,2.22,5.366-.74,3.924-2.22,5.367-3.325,2.163-5.535,2.163-4.056-.721-5.535-2.163Zm1.714-5.367c0,1.162.365,2.131,1.096,2.908.731.777,1.64,1.166,2.726,1.166s1.995-.389,2.726-1.166,1.096-1.747,1.096-2.908-.365-2.125-1.096-2.894c-.73-.768-1.64-1.152-2.726-1.152s-1.994.389-2.726,1.166c-.73.777-1.096,1.738-1.096,2.88Z" fill="#fff" stroke-width="0"/>
      <path d="m1449.1,636.155l3.878-13.374h3.849l-4.664,14.498h-6.405l-4.664-14.498h4.102l3.905,13.374Z" fill="#fff" stroke-width="0"/>
      <path d="m1464.385,622.5c2.436,0,4.388.876,5.858,2.627,1.471,1.751,2.009,3.835,1.616,6.251h-11.183c.262.881.744,1.587,1.446,2.122.703.534,1.541.801,2.515.801,1.648,0,2.848-.674,3.597-2.023l3.119,1.405c-.656,1.18-1.578,2.121-2.768,2.824-1.19.702-2.543,1.053-4.061,1.053-2.21,0-4.056-.721-5.535-2.163s-2.22-3.231-2.22-5.367.731-3.924,2.192-5.366,3.268-2.164,5.422-2.164Zm0,3.259c-.843,0-1.597.249-2.262.745s-1.128,1.157-1.391,1.98h7.333c-.262-.824-.721-1.484-1.376-1.98-.656-.496-1.424-.745-2.305-.745Z" fill="#fff" stroke-width="0"/>
      <path d="m1478.264,622.781v3.765c.468-1.76,1.194-2.931,2.178-3.512.983-.58,2.064-.684,3.245-.309v3.597c-1.518-.524-2.801-.501-3.85.07-1.049.572-1.573,1.494-1.573,2.768v8.12h-3.793v-14.498h3.793Z" fill="#fff" stroke-width="0"/>
    </g>
    <rect x="362.822" y="616.878" width="238.133" height="49.833" rx="6.652" ry="6.652" fill="#202020" stroke="#61dfff"/>
    <g>
      <path d="m394.857,636.761h4.68l-5.76,6.288,3.12,6.192h-4.464l-1.488-3.504-2.808,3.504h-4.681l5.784-6.312-3.144-6.168h4.464l1.488,3.504,2.808-3.504Z" fill="#61dfff" stroke-width="0"/>
      <path d="m406.881,644.921l1.872-.384c.159,1.041.619,1.844,1.38,2.412.76.568,1.764.852,3.012.852,1.184,0,2.144-.272,2.88-.816.735-.544,1.104-1.24,1.104-2.088,0-.624-.181-1.152-.54-1.584-.36-.432-.828-.768-1.404-1.008-.576-.24-1.212-.452-1.908-.636s-1.396-.392-2.1-.624c-.704-.232-1.345-.508-1.92-.828-.576-.32-1.044-.776-1.404-1.368-.36-.592-.54-1.304-.54-2.136,0-1.296.532-2.372,1.596-3.228,1.064-.856,2.404-1.284,4.021-1.284s2.955.424,4.02,1.272c1.064.848,1.7,1.944,1.908,3.288l-1.896.384c-.145-.976-.581-1.768-1.309-2.376-.729-.608-1.644-.912-2.748-.912-1.072,0-1.952.264-2.64.792-.688.528-1.032,1.192-1.032,1.992,0,.608.18,1.116.54,1.524.36.408.828.72,1.404.936.576.216,1.216.417,1.92.6.704.184,1.404.392,2.1.624.696.232,1.332.516,1.908.852s1.044.812,1.404,1.428c.359.616.54,1.364.54,2.244,0,1.344-.568,2.452-1.704,3.324-1.137.872-2.553,1.308-4.248,1.308-1.713,0-3.129-.408-4.248-1.224-1.12-.816-1.776-1.928-1.968-3.336Z" fill="#fff" stroke-width="0"/>
      <path d="m421.448,644.273v-7.176h1.8v7.176c0,1.04.336,1.888,1.009,2.544.672.656,1.52.984,2.544.984s1.872-.328,2.544-.984,1.008-1.504,1.008-2.544v-7.176h1.8v7.176c0,1.536-.504,2.788-1.512,3.756-1.008.968-2.288,1.452-3.84,1.452s-2.832-.484-3.84-1.452c-1.009-.968-1.513-2.22-1.513-3.756Z" fill="#fff" stroke-width="0"/>
      <path d="m442.089,636.857c1.647,0,3.02.604,4.115,1.812s1.645,2.708,1.645,4.5c0,1.808-.549,3.312-1.645,4.512-1.096,1.2-2.468,1.8-4.115,1.8-1.2,0-2.261-.348-3.181-1.044-.92-.696-1.58-1.62-1.979-2.772v3.576h-1.8v-17.76h1.8v9.216c.399-1.168,1.06-2.1,1.979-2.796.92-.696,1.98-1.044,3.181-1.044Zm-.504,10.944c1.248,0,2.295-.444,3.144-1.332.848-.888,1.272-1.988,1.272-3.3s-.425-2.412-1.272-3.3c-.849-.888-1.896-1.332-3.144-1.332-1.345,0-2.457.44-3.337,1.32s-1.319,1.984-1.319,3.312.439,2.432,1.319,3.312,1.992,1.32,3.337,1.32Z" fill="#fff" stroke-width="0"/>
      <path d="m464.672,636.857c1.28,0,2.34.496,3.181,1.488.84.992,1.26,2.24,1.26,3.744v7.152h-1.8v-6.936c0-1.072-.312-1.972-.937-2.7-.624-.728-1.384-1.092-2.28-1.092-.992,0-1.812.36-2.46,1.08-.647.72-.972,1.624-.972,2.712v6.936h-1.8v-6.936c0-1.072-.309-1.972-.924-2.7-.616-.728-1.372-1.092-2.269-1.092-.992,0-1.812.36-2.46,1.08-.647.72-.972,1.624-.972,2.712v6.936h-1.8v-12.144h1.8v3.024c.336-.992.859-1.784,1.572-2.376.711-.592,1.531-.888,2.46-.888,1.008,0,1.88.32,2.615.96.736.64,1.248,1.488,1.536,2.544.288-1.056.812-1.904,1.572-2.544s1.651-.96,2.676-.96Z" fill="#fff" stroke-width="0"/>
      <path d="m471.8,633.497c0-.336.111-.616.336-.84.224-.224.504-.336.84-.336.32,0,.596.112.828.336.231.224.348.504.348.84,0,.32-.116.592-.348.816-.232.225-.508.336-.828.336-.336,0-.616-.112-.84-.336-.225-.224-.336-.496-.336-.816Zm2.063,15.744h-1.8v-12.144h1.8v12.144Z" fill="#fff" stroke-width="0"/>
      <path d="m476.216,646.097l1.824-.36c.255,1.488,1.304,2.232,3.144,2.232.928,0,1.684-.188,2.268-.564s.877-.86.877-1.452c0-.608-.269-1.072-.805-1.392-.536-.32-1.18-.548-1.932-.684s-1.509-.288-2.269-.456-1.407-.5-1.943-.996c-.536-.496-.805-1.176-.805-2.04,0-1.024.433-1.868,1.297-2.532.863-.664,1.968-.996,3.312-.996,1.312,0,2.384.304,3.216.912.832.608,1.345,1.432,1.536,2.472l-1.8.36c-.272-1.472-1.256-2.208-2.952-2.208-.816,0-1.488.176-2.016.528-.528.352-.792.816-.792,1.392,0,.561.268.988.804,1.284.536.296,1.184.508,1.944.636.76.128,1.52.284,2.279.468.76.184,1.408.54,1.944,1.068.536.528.804,1.24.804,2.136,0,1.04-.472,1.896-1.416,2.568s-2.128,1.008-3.552,1.008c-1.376,0-2.5-.304-3.372-.912s-1.404-1.432-1.596-2.472Z" fill="#fff" stroke-width="0"/>
      <path d="m487.687,646.097l1.824-.36c.255,1.488,1.304,2.232,3.144,2.232.928,0,1.684-.188,2.268-.564s.877-.86.877-1.452c0-.608-.269-1.072-.805-1.392-.536-.32-1.18-.548-1.932-.684s-1.509-.288-2.269-.456-1.407-.5-1.943-.996c-.536-.496-.805-1.176-.805-2.04,0-1.024.433-1.868,1.297-2.532.863-.664,1.968-.996,3.312-.996,1.312,0,2.384.304,3.216.912.832.608,1.345,1.432,1.536,2.472l-1.8.36c-.272-1.472-1.256-2.208-2.952-2.208-.816,0-1.488.176-2.016.528-.528.352-.792.816-.792,1.392,0,.561.268.988.804,1.284.536.296,1.184.508,1.944.636.76.128,1.52.284,2.279.468.76.184,1.408.54,1.944,1.068.536.528.804,1.24.804,2.136,0,1.04-.472,1.896-1.416,2.568s-2.128,1.008-3.552,1.008c-1.376,0-2.5-.304-3.372-.912s-1.404-1.432-1.596-2.472Z" fill="#fff" stroke-width="0"/>
      <path d="m499.711,633.497c0-.336.112-.616.336-.84.225-.224.504-.336.841-.336.319,0,.596.112.827.336.232.224.349.504.349.84,0,.32-.116.592-.349.816-.231.225-.508.336-.827.336-.337,0-.616-.112-.841-.336s-.336-.496-.336-.816Zm2.064,15.744h-1.8v-12.144h1.8v12.144Z" fill="#fff" stroke-width="0"/>
      <path d="m506.203,647.669c-1.225-1.208-1.836-2.708-1.836-4.5s.611-3.292,1.836-4.5c1.224-1.208,2.739-1.812,4.548-1.812s3.324.604,4.548,1.812,1.836,2.708,1.836,4.5-.612,3.292-1.836,4.5-2.74,1.812-4.548,1.812-3.324-.604-4.548-1.812Zm1.319-7.8c-.872.888-1.308,1.988-1.308,3.3s.436,2.412,1.308,3.3,1.948,1.332,3.229,1.332c1.296,0,2.376-.44,3.24-1.32.863-.88,1.296-1.984,1.296-3.312s-.433-2.432-1.296-3.312c-.864-.88-1.944-1.32-3.24-1.32-1.28,0-2.356.444-3.229,1.332Z" fill="#fff" stroke-width="0"/>
      <path d="m526.014,636.857c1.424,0,2.596.496,3.516,1.488.92.992,1.381,2.24,1.381,3.744v7.152h-1.801v-6.936c0-1.072-.352-1.972-1.056-2.7-.704-.728-1.576-1.092-2.616-1.092-1.136,0-2.072.36-2.808,1.08-.736.72-1.104,1.624-1.104,2.712v6.936h-1.8v-12.144h1.8v3.12c.336-1.024.904-1.84,1.704-2.448.8-.608,1.729-.912,2.784-.912Z" fill="#fff" stroke-width="0"/>
      <path d="m544.662,649.241h-1.8v-10.512h-2.735v-1.632h2.735v-1.416c0-1.424.349-2.48,1.044-3.168.696-.688,1.772-1.032,3.229-1.032h1.224v1.632h-1.224c-.88,0-1.513.192-1.896.576-.384.384-.576,1.024-.576,1.92v1.488h3.696v1.632h-3.696v10.512Z" fill="#fff" stroke-width="0"/>
      <path d="m555.414,636.857c1.872,0,3.412.66,4.62,1.98,1.208,1.32,1.74,2.948,1.596,4.884h-10.68c.128,1.216.62,2.212,1.476,2.988.856.776,1.9,1.164,3.132,1.164.944,0,1.784-.231,2.521-.696.735-.464,1.296-1.096,1.68-1.896l1.536.648c-.512,1.072-1.271,1.932-2.28,2.58-1.008.648-2.168.972-3.479.972-1.809,0-3.324-.604-4.548-1.812-1.225-1.208-1.836-2.708-1.836-4.5s.6-3.292,1.8-4.5,2.688-1.812,4.464-1.812Zm0,1.608c-1.104,0-2.064.352-2.88,1.056-.816.705-1.328,1.608-1.536,2.712h8.808c-.176-1.088-.668-1.988-1.476-2.7-.809-.712-1.78-1.068-2.916-1.068Z" fill="#fff" stroke-width="0"/>
      <path d="m569.886,636.857c1.872,0,3.412.66,4.62,1.98,1.208,1.32,1.74,2.948,1.597,4.884h-10.681c.128,1.216.62,2.212,1.477,2.988.855.776,1.899,1.164,3.132,1.164.943,0,1.784-.231,2.52-.696.736-.464,1.296-1.096,1.681-1.896l1.536.648c-.513,1.072-1.272,1.932-2.28,2.58s-2.168.972-3.48.972c-1.808,0-3.323-.604-4.548-1.812-1.224-1.208-1.836-2.708-1.836-4.5s.6-3.292,1.8-4.5,2.688-1.812,4.464-1.812Zm0,1.608c-1.104,0-2.063.352-2.88,1.056-.815.705-1.328,1.608-1.536,2.712h8.809c-.177-1.088-.668-1.988-1.477-2.7-.808-.712-1.779-1.068-2.916-1.068Z" fill="#fff" stroke-width="0"/>
    </g>
    <rect x="1175.691" y="823.858" width="238.133" height="49.833" rx="6.652" ry="6.652" fill="#202020" stroke="#61dfff"/>
    <g>
      <path d="m1207.727,843.741h4.68l-5.76,6.288,3.12,6.192h-4.464l-1.488-3.504-2.808,3.504h-4.681l5.784-6.312-3.144-6.168h4.464l1.488,3.504,2.808-3.504Z" fill="#61dfff" stroke-width="0"/>
      <path d="m1219.751,851.901l1.872-.384c.159,1.041.619,1.844,1.38,2.412.76.568,1.764.852,3.012.852,1.184,0,2.144-.272,2.88-.816.735-.544,1.104-1.24,1.104-2.088,0-.624-.181-1.152-.54-1.584-.36-.432-.828-.768-1.404-1.008-.576-.24-1.212-.452-1.908-.636s-1.396-.392-2.1-.624c-.704-.232-1.345-.508-1.92-.828-.576-.32-1.044-.776-1.404-1.368-.36-.592-.54-1.304-.54-2.136,0-1.296.532-2.372,1.596-3.228,1.064-.856,2.404-1.284,4.021-1.284s2.955.424,4.02,1.272c1.064.848,1.7,1.944,1.908,3.288l-1.896.384c-.145-.976-.581-1.768-1.309-2.376-.729-.608-1.644-.912-2.748-.912-1.072,0-1.952.264-2.64.792-.688.528-1.032,1.192-1.032,1.992,0,.608.18,1.116.54,1.524.36.408.828.72,1.404.936.576.216,1.216.417,1.92.6.704.184,1.404.392,2.1.624.696.232,1.332.516,1.908.852s1.044.812,1.404,1.428c.359.616.54,1.364.54,2.244,0,1.344-.568,2.452-1.704,3.324-1.137.872-2.553,1.308-4.248,1.308-1.713,0-3.129-.408-4.248-1.224-1.12-.816-1.776-1.928-1.968-3.336Z" fill="#fff" stroke-width="0"/>
      <path d="m1234.318,851.253v-7.176h1.8v7.176c0,1.04.336,1.888,1.009,2.544.672.656,1.52.984,2.544.984s1.872-.328,2.544-.984,1.008-1.504,1.008-2.544v-7.176h1.8v7.176c0,1.536-.504,2.788-1.512,3.756-1.008.968-2.288,1.452-3.84,1.452s-2.832-.484-3.84-1.452c-1.009-.968-1.513-2.22-1.513-3.756Z" fill="#fff" stroke-width="0"/>
      <path d="m1254.959,843.837c1.647,0,3.02.604,4.115,1.812s1.645,2.708,1.645,4.5c0,1.808-.549,3.312-1.645,4.512-1.096,1.2-2.468,1.8-4.115,1.8-1.2,0-2.261-.348-3.181-1.044-.92-.696-1.58-1.62-1.979-2.772v3.576h-1.8v-17.76h1.8v9.216c.399-1.168,1.06-2.1,1.979-2.796.92-.696,1.98-1.044,3.181-1.044Zm-.504,10.944c1.248,0,2.295-.444,3.144-1.332.848-.888,1.272-1.988,1.272-3.3s-.425-2.412-1.272-3.3c-.849-.888-1.896-1.332-3.144-1.332-1.345,0-2.457.44-3.337,1.32s-1.319,1.984-1.319,3.312.439,2.432,1.319,3.312,1.992,1.32,3.337,1.32Z" fill="#fff" stroke-width="0"/>
      <path d="m1277.542,843.837c1.28,0,2.34.496,3.181,1.488.84.992,1.26,2.24,1.26,3.744v7.152h-1.8v-6.936c0-1.072-.312-1.972-.937-2.7-.624-.728-1.384-1.092-2.28-1.092-.992,0-1.812.36-2.46,1.08-.647.72-.972,1.624-.972,2.712v6.936h-1.8v-6.936c0-1.072-.309-1.972-.924-2.7-.616-.728-1.372-1.092-2.269-1.092-.992,0-1.812.36-2.46,1.08-.647.72-.972,1.624-.972,2.712v6.936h-1.8v-12.144h1.8v3.024c.336-.992.859-1.784,1.572-2.376.711-.592,1.531-.888,2.46-.888,1.008,0,1.88.32,2.615.96.736.64,1.248,1.488,1.536,2.544.288-1.056.812-1.904,1.572-2.544s1.651-.96,2.676-.96Z" fill="#fff" stroke-width="0"/>
      <path d="m1284.67,840.477c0-.336.111-.616.336-.84.224-.224.504-.336.84-.336.32,0,.596.112.828.336.231.224.348.504.348.84,0,.32-.116.592-.348.816-.232.225-.508.336-.828.336-.336,0-.616-.112-.84-.336-.225-.224-.336-.496-.336-.816Zm2.063,15.744h-1.8v-12.144h1.8v12.144Z" fill="#fff" stroke-width="0"/>
      <path d="m1289.086,853.077l1.824-.36c.255,1.488,1.304,2.232,3.144,2.232.928,0,1.684-.188,2.268-.564s.877-.86.877-1.452c0-.608-.269-1.072-.805-1.392-.536-.32-1.18-.548-1.932-.684s-1.509-.288-2.269-.456-1.407-.5-1.943-.996c-.536-.496-.805-1.176-.805-2.04,0-1.024.433-1.868,1.297-2.532.863-.664,1.968-.996,3.312-.996,1.312,0,2.384.304,3.216.912.832.608,1.345,1.432,1.536,2.472l-1.8.36c-.272-1.472-1.256-2.208-2.952-2.208-.816,0-1.488.176-2.016.528-.528.352-.792.816-.792,1.392,0,.561.268.988.804,1.284.536.296,1.184.508,1.944.636.76.128,1.52.284,2.279.468.76.184,1.408.54,1.944,1.068.536.528.804,1.24.804,2.136,0,1.04-.472,1.896-1.416,2.568s-2.128,1.008-3.552,1.008c-1.376,0-2.5-.304-3.372-.912s-1.404-1.432-1.596-2.472Z" fill="#fff" stroke-width="0"/>
      <path d="m1300.557,853.077l1.824-.36c.255,1.488,1.304,2.232,3.144,2.232.928,0,1.684-.188,2.268-.564s.877-.86.877-1.452c0-.608-.269-1.072-.805-1.392-.536-.32-1.18-.548-1.932-.684s-1.509-.288-2.269-.456-1.407-.5-1.943-.996c-.536-.496-.805-1.176-.805-2.04,0-1.024.433-1.868,1.297-2.532.863-.664,1.968-.996,3.312-.996,1.312,0,2.384.304,3.216.912.832.608,1.345,1.432,1.536,2.472l-1.8.36c-.272-1.472-1.256-2.208-2.952-2.208-.816,0-1.488.176-2.016.528-.528.352-.792.816-.792,1.392,0,.561.268.988.804,1.284.536.296,1.184.508,1.944.636.76.128,1.52.284,2.279.468.76.184,1.408.54,1.944,1.068.536.528.804,1.24.804,2.136,0,1.04-.472,1.896-1.416,2.568s-2.128,1.008-3.552,1.008c-1.376,0-2.5-.304-3.372-.912s-1.404-1.432-1.596-2.472Z" fill="#fff" stroke-width="0"/>
      <path d="m1312.581,840.477c0-.336.112-.616.336-.84.225-.224.504-.336.841-.336.319,0,.596.112.827.336.232.224.349.504.349.84,0,.32-.116.592-.349.816-.231.225-.508.336-.827.336-.337,0-.616-.112-.841-.336s-.336-.496-.336-.816Zm2.064,15.744h-1.8v-12.144h1.8v12.144Z" fill="#fff" stroke-width="0"/>
      <path d="m1319.073,854.649c-1.225-1.208-1.836-2.708-1.836-4.5s.611-3.292,1.836-4.5c1.224-1.208,2.739-1.812,4.548-1.812s3.324.604,4.548,1.812,1.836,2.708,1.836,4.5-.612,3.292-1.836,4.5-2.74,1.812-4.548,1.812-3.324-.604-4.548-1.812Zm1.319-7.8c-.872.888-1.308,1.988-1.308,3.3s.436,2.412,1.308,3.3,1.948,1.332,3.229,1.332c1.296,0,2.376-.44,3.24-1.32.863-.88,1.296-1.984,1.296-3.312s-.433-2.432-1.296-3.312c-.864-.88-1.944-1.32-3.24-1.32-1.28,0-2.356.444-3.229,1.332Z" fill="#fff" stroke-width="0"/>
      <path d="m1338.885,843.837c1.424,0,2.596.496,3.516,1.488.92.992,1.381,2.24,1.381,3.744v7.152h-1.801v-6.936c0-1.072-.352-1.972-1.056-2.7-.704-.728-1.576-1.092-2.616-1.092-1.136,0-2.072.36-2.808,1.08-.736.72-1.104,1.624-1.104,2.712v6.936h-1.8v-12.144h1.8v3.12c.336-1.024.904-1.84,1.704-2.448.8-.608,1.729-.912,2.784-.912Z" fill="#fff" stroke-width="0"/>
      <path d="m1357.532,856.221h-1.8v-10.512h-2.735v-1.632h2.735v-1.416c0-1.424.349-2.48,1.044-3.168.696-.688,1.772-1.032,3.229-1.032h1.224v1.632h-1.224c-.88,0-1.513.192-1.896.576-.384.384-.576,1.024-.576,1.92v1.488h3.696v1.632h-3.696v10.512Z" fill="#fff" stroke-width="0"/>
      <path d="m1368.284,843.837c1.872,0,3.412.66,4.62,1.98,1.208,1.32,1.74,2.948,1.596,4.884h-10.68c.128,1.216.62,2.212,1.476,2.988.856.776,1.9,1.164,3.132,1.164.944,0,1.784-.231,2.521-.696.735-.464,1.296-1.096,1.68-1.896l1.536.648c-.512,1.072-1.271,1.932-2.28,2.58-1.008.648-2.168.972-3.479.972-1.809,0-3.324-.604-4.548-1.812-1.225-1.208-1.836-2.708-1.836-4.5s.6-3.292,1.8-4.5,2.688-1.812,4.464-1.812Zm0,1.608c-1.104,0-2.064.352-2.88,1.056-.816.705-1.328,1.608-1.536,2.712h8.808c-.176-1.088-.668-1.988-1.476-2.7-.809-.712-1.78-1.068-2.916-1.068Z" fill="#fff" stroke-width="0"/>
      <path d="m1382.756,843.837c1.872,0,3.412.66,4.62,1.98,1.208,1.32,1.74,2.948,1.597,4.884h-10.681c.128,1.216.62,2.212,1.477,2.988.855.776,1.899,1.164,3.132,1.164.943,0,1.784-.231,2.52-.696.736-.464,1.296-1.096,1.681-1.896l1.536.648c-.513,1.072-1.272,1.932-2.28,2.58s-2.168.972-3.48.972c-1.808,0-3.323-.604-4.548-1.812-1.224-1.208-1.836-2.708-1.836-4.5s.6-3.292,1.8-4.5,2.688-1.812,4.464-1.812Zm0,1.608c-1.104,0-2.063.352-2.88,1.056-.815.705-1.328,1.608-1.536,2.712h8.809c-.177-1.088-.668-1.988-1.477-2.7-.808-.712-1.779-1.068-2.916-1.068Z" fill="#fff" stroke-width="0"/>
    </g>
    <g>
      <path d="m120.837,248.368h-27.96v-42h8.58v34.38h19.38v7.62Z" fill="#fff" stroke-width="0"/>
      <path d="m148.556,231.568l-10.38,9.18h17.82v7.62h-30.479v-6.6l17.579-16.26c2.319-2.16,3.48-4.359,3.48-6.6,0-1.64-.561-2.93-1.68-3.87-1.121-.939-2.58-1.41-4.38-1.41-1.961,0-3.501.591-4.62,1.77-1.121,1.181-1.681,2.85-1.681,5.01h-8.88c0-4.52,1.42-8.09,4.26-10.71,2.84-2.62,6.561-3.93,11.16-3.93,4.44,0,7.989,1.161,10.65,3.48,2.659,2.32,3.99,5.481,3.99,9.48,0,4.521-2.28,8.8-6.841,12.84Z" fill="#fff" stroke-width="0"/>
    </g>
    <g>
      <path d="m124.477,1061.686h-27.96v-42h8.58v34.38h19.38v7.62Z" fill="#fff" stroke-width="0"/>
      <path d="m147.757,1019.085v34.98h9.6v7.62h-29.64v-7.62h11.46v-25.26l-11.46,3v-7.561l20.04-5.16Z" fill="#fff" stroke-width="0"/>
    </g>
  </g>
</svg>