<?xml version="1.0" encoding="UTF-8"?>
<svg id="Layer_1" data-name="Layer 1" xmlns="http://www.w3.org/2000/svg" viewBox="0 0 1504.055 355.849">
  <rect x="0" y="0" width="1504.055" height="355.849" rx="7.654" ry="7.654" fill="#202020" stroke-width="0"/>
  <g id="Timeline">
    <polygon points="526.345 223.833 123.366 223.833 123.366 178.679 526.345 178.679 546.361 201.256 526.345 223.833" fill="#61dfff" fill-rule="evenodd" stroke-width="0"/>
    <polygon points="938.505 223.833 545.534 223.833 565.55 201.256 545.534 178.679 938.505 178.679 958.521 201.256 938.505 223.833" fill="#61dfff" fill-rule="evenodd" stroke-width="0"/>
    <polygon points="1361.501 223.833 958.521 223.833 978.537 201.256 958.521 178.679 1361.501 178.679 1381.517 201.256 1361.501 223.833" fill="#61dfff" fill-rule="evenodd" stroke-width="0"/>
    <g>
      <path d="m191.535,109.097l2.428-.353c.083,1.346.519,2.371,1.308,3.076.788.705,1.774,1.058,2.957,1.058,1.349,0,2.401-.465,3.159-1.395.757-.929,1.136-2.119,1.136-3.572v-15.475h2.428v15.475c0,2.158-.618,3.909-1.852,5.255-1.235,1.346-2.869,2.019-4.902,2.019-1.847,0-3.383-.539-4.607-1.618-1.225-1.078-1.909-2.568-2.054-4.47Z" fill="#fff" stroke-width="0"/>
      <path d="m215.097,98.333c1.785,0,3.237.485,4.358,1.457,1.121.973,1.681,2.334,1.681,4.086v10.989h-2.334v-4.422c-1.058,3.161-3.112,4.742-6.163,4.742-1.432,0-2.599-.405-3.502-1.218-.902-.812-1.354-1.891-1.354-3.236,0-1.452.514-2.573,1.541-3.363s2.36-1.271,4-1.442l3.517-.416c1.308-.128,1.961-.748,1.961-1.858,0-1.004-.342-1.794-1.027-2.371-.685-.576-1.587-.865-2.708-.865s-2.086.289-2.895.865c-.809.577-1.359,1.463-1.65,2.659l-2.272-.641c.374-1.602,1.177-2.83,2.412-3.685,1.234-.854,2.713-1.281,4.436-1.281Zm-1.868,14.834c1.598,0,2.926-.55,3.984-1.65,1.059-1.1,1.587-2.387,1.587-3.86v-1.346c-.291.641-.996,1.025-2.117,1.153l-3.393.385c-.955.128-1.723.422-2.303.881-.582.46-.872,1.084-.872,1.874,0,.77.285,1.389.856,1.858.57.47,1.323.705,2.256.705Z" fill="#fff" stroke-width="0"/>
      <path d="m233.151,98.333c1.847,0,3.367.662,4.56,1.986,1.193,1.324,1.79,2.99,1.79,4.998v9.548h-2.334v-9.26c0-1.431-.457-2.632-1.37-3.604-.914-.972-2.044-1.458-3.393-1.458-1.474,0-2.688.481-3.642,1.442s-1.432,2.168-1.432,3.62v9.26h-2.334v-16.212h2.334v4.165c.436-1.367,1.172-2.456,2.21-3.269,1.038-.812,2.241-1.217,3.611-1.217Z" fill="#fff" stroke-width="0"/>
      <path d="m243.174,108.232v-9.579h2.334v9.579c0,1.389.436,2.521,1.308,3.396.872.876,1.971,1.313,3.299,1.313s2.428-.438,3.299-1.313c.872-.875,1.308-2.008,1.308-3.396v-9.579h2.334v9.579c0,2.051-.654,3.723-1.961,5.015-1.308,1.293-2.968,1.938-4.98,1.938s-3.673-.646-4.98-1.938c-1.307-1.292-1.961-2.964-1.961-5.015Z" fill="#fff" stroke-width="0"/>
      <path d="m267.297,98.333c1.785,0,3.237.485,4.358,1.457,1.121.973,1.681,2.334,1.681,4.086v10.989h-2.334v-4.422c-1.058,3.161-3.112,4.742-6.163,4.742-1.432,0-2.599-.405-3.502-1.218-.902-.812-1.354-1.891-1.354-3.236,0-1.452.514-2.573,1.541-3.363s2.36-1.271,4-1.442l3.517-.416c1.308-.128,1.961-.748,1.961-1.858,0-1.004-.342-1.794-1.027-2.371-.685-.576-1.587-.865-2.708-.865s-2.086.289-2.895.865c-.809.577-1.359,1.463-1.65,2.659l-2.272-.641c.374-1.602,1.177-2.83,2.412-3.685,1.234-.854,2.713-1.281,4.436-1.281Zm-1.868,14.834c1.598,0,2.926-.55,3.984-1.65,1.059-1.1,1.587-2.387,1.587-3.86v-1.346c-.291.641-.996,1.025-2.117,1.153l-3.393.385c-.955.128-1.723.422-2.303.881-.582.46-.872,1.084-.872,1.874,0,.77.285,1.389.856,1.858.57.47,1.323.705,2.256.705Z" fill="#fff" stroke-width="0"/>
      <path d="m279.53,98.653v4.357c.54-1.858,1.375-3.15,2.506-3.877,1.131-.726,2.433-.95,3.906-.673v2.339c-1.764-.405-3.273-.133-4.529.817-1.256.95-1.883,2.28-1.883,3.988v9.26h-2.334v-16.212h2.334Z" fill="#fff" stroke-width="0"/>
      <path d="m294.44,114.16l5.572-15.507h2.396l-8.155,22.619h-2.397l2.335-6.407h-1.837l-5.883-16.212h2.552l5.417,15.507Z" fill="#fff" stroke-width="0"/>
      <path d="m315.372,94.215c1.421-1.398,3.242-2.099,5.463-2.099s4.041.694,5.462,2.082c1.421,1.389,2.132,3.141,2.132,5.255,0,1.432-.478,2.938-1.432,4.518l-6.506,10.894h-2.77l6.101-10.221c-.913.833-1.987,1.319-3.222,1.458-1.235.139-2.392-.021-3.471-.48-1.079-.46-1.997-1.239-2.754-2.339-.758-1.101-1.136-2.376-1.136-3.829,0-2.093.71-3.839,2.132-5.238Zm1.805,8.858c.965.962,2.184,1.442,3.658,1.442s2.692-.48,3.657-1.442c.965-.961,1.447-2.167,1.447-3.62s-.482-2.653-1.447-3.604c-.965-.95-2.184-1.426-3.657-1.426s-2.693.476-3.658,1.426c-.965.951-1.447,2.152-1.447,3.604s.482,2.659,1.447,3.62Z" fill="#fff" stroke-width="0"/>
      <path d="m334.592,100.832h-3.548v-2.179h3.548v-5.8l2.334-.736v6.536h4.794v2.179h-4.794v8.522c0,1.196.249,2.05.747,2.562s1.318.77,2.459.77h1.588v2.179h-1.588c-1.888,0-3.284-.459-4.187-1.378-.902-.918-1.354-2.328-1.354-4.229v-8.426Z" fill="#fff" stroke-width="0"/>
      <path d="m353.238,98.333c1.847,0,3.367.662,4.56,1.986,1.193,1.324,1.79,2.99,1.79,4.998v9.548h-2.334v-9.26c0-1.431-.457-2.632-1.37-3.604-.914-.972-2.044-1.458-3.393-1.458-1.474,0-2.688.481-3.642,1.442s-1.432,2.168-1.432,3.62v9.26h-2.334v-23.709h2.334v11.662c.436-1.367,1.172-2.456,2.21-3.269,1.038-.812,2.241-1.217,3.611-1.217Z" fill="#fff" stroke-width="0"/>
      <path d="m383.711,105.252l-7.377,7.337h11.361v2.275h-14.848v-2.019l9.276-9.323c1.66-1.709,2.49-3.364,2.49-4.967,0-1.238-.399-2.237-1.198-2.995-.799-.758-1.852-1.138-3.159-1.138-1.557,0-2.76.47-3.611,1.41-.851.939-1.276,2.21-1.276,3.812h-2.459c0-2.264.659-4.085,1.977-5.463,1.317-1.378,3.128-2.066,5.432-2.066,2.034,0,3.673.582,4.918,1.746s1.868,2.719,1.868,4.662c0,2.264-1.131,4.507-3.393,6.728Z" fill="#fff" stroke-width="0"/>
      <path d="m392.644,111.885c-1.64-2.2-2.459-4.945-2.459-8.234s.82-6.034,2.459-8.234c1.639-2.199,3.704-3.3,6.194-3.3,2.511,0,4.581,1.095,6.21,3.284,1.629,2.189,2.444,4.939,2.444,8.25s-.815,6.061-2.444,8.25c-1.629,2.189-3.699,3.284-6.21,3.284-2.49,0-4.555-1.1-6.194-3.3Zm1.774-14.835c-1.162,1.752-1.743,3.952-1.743,6.601s.581,4.849,1.743,6.6c1.162,1.752,2.635,2.628,4.42,2.628s3.258-.876,4.42-2.628c1.162-1.751,1.743-3.951,1.743-6.6s-.582-4.849-1.743-6.601c-1.163-1.751-2.636-2.627-4.42-2.627s-3.258.876-4.42,2.627Z" fill="#fff" stroke-width="0"/>
      <path d="m421.312,105.252l-7.377,7.337h11.361v2.275h-14.848v-2.019l9.276-9.323c1.66-1.709,2.49-3.364,2.49-4.967,0-1.238-.399-2.237-1.198-2.995-.799-.758-1.852-1.138-3.159-1.138-1.557,0-2.76.47-3.611,1.41-.851.939-1.276,2.21-1.276,3.812h-2.459c0-2.264.659-4.085,1.977-5.463,1.317-1.378,3.128-2.066,5.432-2.066,2.034,0,3.673.582,4.918,1.746s1.868,2.719,1.868,4.662c0,2.264-1.131,4.507-3.393,6.728Z" fill="#fff" stroke-width="0"/>
      <path d="m441.98,94.456l-6.07,7.112c2.117.107,3.777.78,4.98,2.019,1.203,1.239,1.805,2.819,1.805,4.742,0,1.986-.685,3.626-2.054,4.918-1.37,1.293-3.206,1.938-5.509,1.938-2.241,0-4.021-.604-5.338-1.811-1.318-1.206-2.05-2.856-2.195-4.95l2.49-.288c.104,1.453.592,2.606,1.463,3.46.872.854,2.065,1.282,3.58,1.282,1.577,0,2.817-.438,3.719-1.313.903-.876,1.354-1.997,1.354-3.364s-.462-2.483-1.385-3.349c-.924-.865-2.299-1.298-4.125-1.298h-1.401v-2.05l5.759-6.793h-10.49v-2.274h13.416v2.019Z" fill="#fff" stroke-width="0"/>
    </g>
    <g>
      <path d="m639.525,92.437v22.428h-2.334v-21.819l-6.537,21.819h-4.295l-6.537-21.915v21.915h-2.334v-22.428h4.576l6.475,21.69,6.474-21.69h4.514Z" fill="#fff" stroke-width="0"/>
      <path d="m650.076,98.333c1.785,0,3.237.485,4.358,1.457,1.121.973,1.681,2.334,1.681,4.086v10.989h-2.334v-4.422c-1.058,3.161-3.112,4.742-6.163,4.742-1.432,0-2.599-.405-3.502-1.218-.902-.812-1.354-1.891-1.354-3.236,0-1.452.514-2.573,1.541-3.363s2.36-1.271,4-1.442l3.517-.416c1.308-.128,1.961-.748,1.961-1.858,0-1.004-.342-1.794-1.027-2.371-.685-.576-1.587-.865-2.708-.865s-2.086.289-2.895.865c-.809.577-1.359,1.463-1.65,2.659l-2.272-.641c.374-1.602,1.177-2.83,2.412-3.685,1.234-.854,2.713-1.281,4.436-1.281Zm-1.868,14.834c1.598,0,2.926-.55,3.984-1.65,1.059-1.1,1.587-2.387,1.587-3.86v-1.346c-.291.641-.996,1.025-2.117,1.153l-3.393.385c-.955.128-1.723.422-2.303.881-.582.46-.872,1.084-.872,1.874,0,.77.285,1.389.856,1.858.57.47,1.323.705,2.256.705Z" fill="#fff" stroke-width="0"/>
      <path d="m662.309,98.653v4.357c.54-1.858,1.375-3.15,2.506-3.877,1.131-.726,2.433-.95,3.906-.673v2.339c-1.764-.405-3.273-.133-4.529.817-1.256.95-1.883,2.28-1.883,3.988v9.26h-2.334v-16.212h2.334Z" fill="#fff" stroke-width="0"/>
      <path d="m671.57,112.766c-1.587-1.612-2.381-3.615-2.381-6.008s.794-4.395,2.381-6.007,3.553-2.419,5.898-2.419c1.701,0,3.222.454,4.56,1.361,1.338.908,2.329,2.142,2.973,3.7l-2.148.77c-.478-1.11-1.193-1.986-2.147-2.627-.955-.642-2.034-.962-3.237-.962-1.661,0-3.056.593-4.187,1.778-1.131,1.186-1.696,2.654-1.696,4.405s.565,3.22,1.696,4.405c1.131,1.186,2.526,1.778,4.187,1.778,1.203,0,2.283-.32,3.237-.961.954-.641,1.67-1.517,2.147-2.627l2.148.769c-.644,1.56-1.634,2.793-2.973,3.7-1.338.908-2.859,1.362-4.56,1.362-2.345,0-4.311-.806-5.898-2.419Z" fill="#fff" stroke-width="0"/>
      <path d="m696.424,98.333c1.847,0,3.367.662,4.56,1.986,1.193,1.324,1.79,2.99,1.79,4.998v9.548h-2.334v-9.26c0-1.431-.457-2.632-1.37-3.604-.914-.972-2.044-1.458-3.393-1.458-1.474,0-2.688.481-3.642,1.442s-1.432,2.168-1.432,3.62v9.26h-2.334v-23.709h2.334v11.662c.436-1.367,1.172-2.456,2.21-3.269,1.038-.812,2.241-1.217,3.611-1.217Z" fill="#fff" stroke-width="0"/>
      <path d="m726.897,105.252l-7.377,7.337h11.361v2.275h-14.848v-2.019l9.276-9.323c1.66-1.709,2.49-3.364,2.49-4.967,0-1.238-.399-2.237-1.198-2.995-.799-.758-1.852-1.138-3.159-1.138-1.557,0-2.76.47-3.611,1.41-.851.939-1.276,2.21-1.276,3.812h-2.459c0-2.264.659-4.085,1.977-5.463,1.317-1.378,3.128-2.066,5.432-2.066,2.034,0,3.673.582,4.918,1.746s1.868,2.719,1.868,4.662c0,2.264-1.131,4.507-3.393,6.728Z" fill="#fff" stroke-width="0"/>
      <path d="m744.359,103.363c1.639.384,2.947,1.095,3.922,2.13.975,1.036,1.463,2.228,1.463,3.572,0,1.752-.747,3.21-2.241,4.374s-3.414,1.746-5.759,1.746c-2.365,0-4.295-.582-5.79-1.746s-2.241-2.622-2.241-4.374c0-1.345.493-2.536,1.479-3.572.985-1.035,2.298-1.746,3.938-2.13-1.329-.428-2.397-1.122-3.206-2.083-.81-.961-1.214-2.061-1.214-3.3,0-1.645.669-3.033,2.008-4.165s3.014-1.698,5.027-1.698c1.992,0,3.663.566,5.012,1.698,1.349,1.132,2.023,2.521,2.023,4.165,0,1.239-.405,2.339-1.214,3.3-.809.961-1.878,1.655-3.206,2.083Zm-2.615,9.547c1.619,0,2.952-.395,4-1.185s1.572-1.795,1.572-3.012c0-1.239-.524-2.259-1.572-3.061-1.048-.801-2.381-1.201-4-1.201s-2.957.4-4.015,1.201c-1.058.802-1.587,1.821-1.587,3.061,0,1.217.524,2.222,1.572,3.012s2.392,1.185,4.031,1.185Zm-3.299-17.381c-.872.759-1.307,1.703-1.307,2.836s.436,2.071,1.307,2.819,1.971,1.121,3.299,1.121c1.308,0,2.402-.373,3.284-1.121.882-.748,1.323-1.688,1.323-2.819s-.441-2.077-1.323-2.836c-.882-.758-1.977-1.138-3.284-1.138-1.328,0-2.428.38-3.299,1.138Z" fill="#fff" stroke-width="0"/>
      <path d="m755.752,100.832h-3.548v-2.179h3.548v-5.8l2.334-.736v6.536h4.794v2.179h-4.794v8.522c0,1.196.249,2.05.747,2.562s1.318.77,2.459.77h1.588v2.179h-1.588c-1.888,0-3.284-.459-4.187-1.378-.902-.918-1.354-2.328-1.354-4.229v-8.426Z" fill="#fff" stroke-width="0"/>
      <path d="m774.397,98.333c1.847,0,3.367.662,4.56,1.986,1.193,1.324,1.79,2.99,1.79,4.998v9.548h-2.334v-9.26c0-1.431-.457-2.632-1.37-3.604-.914-.972-2.044-1.458-3.393-1.458-1.474,0-2.688.481-3.642,1.442s-1.432,2.168-1.432,3.62v9.26h-2.334v-23.709h2.334v11.662c.436-1.367,1.172-2.456,2.21-3.269,1.038-.812,2.241-1.217,3.611-1.217Z" fill="#fff" stroke-width="0"/>
      <path d="m804.87,105.252l-7.377,7.337h11.361v2.275h-14.848v-2.019l9.276-9.323c1.66-1.709,2.49-3.364,2.49-4.967,0-1.238-.399-2.237-1.198-2.995-.799-.758-1.852-1.138-3.159-1.138-1.557,0-2.76.47-3.611,1.41-.851.939-1.276,2.21-1.276,3.812h-2.459c0-2.264.659-4.085,1.977-5.463,1.317-1.378,3.128-2.066,5.432-2.066,2.034,0,3.673.582,4.918,1.746s1.868,2.719,1.868,4.662c0,2.264-1.131,4.507-3.393,6.728Z" fill="#fff" stroke-width="0"/>
      <path d="m813.803,111.885c-1.64-2.2-2.459-4.945-2.459-8.234s.82-6.034,2.459-8.234c1.639-2.199,3.704-3.3,6.194-3.3,2.511,0,4.581,1.095,6.21,3.284,1.629,2.189,2.444,4.939,2.444,8.25s-.815,6.061-2.444,8.25c-1.629,2.189-3.699,3.284-6.21,3.284-2.49,0-4.555-1.1-6.194-3.3Zm1.774-14.835c-1.162,1.752-1.743,3.952-1.743,6.601s.581,4.849,1.743,6.6c1.162,1.752,2.635,2.628,4.42,2.628s3.258-.876,4.42-2.628c1.162-1.751,1.743-3.951,1.743-6.6s-.582-4.849-1.743-6.601c-1.163-1.751-2.636-2.627-4.42-2.627s-3.258.876-4.42,2.627Z" fill="#fff" stroke-width="0"/>
      <path d="m842.471,105.252l-7.377,7.337h11.361v2.275h-14.848v-2.019l9.276-9.323c1.66-1.709,2.49-3.364,2.49-4.967,0-1.238-.399-2.237-1.198-2.995-.799-.758-1.852-1.138-3.159-1.138-1.557,0-2.76.47-3.611,1.41-.851.939-1.276,2.21-1.276,3.812h-2.459c0-2.264.659-4.085,1.977-5.463,1.317-1.378,3.128-2.066,5.432-2.066,2.034,0,3.673.582,4.918,1.746s1.868,2.719,1.868,4.662c0,2.264-1.131,4.507-3.393,6.728Z" fill="#fff" stroke-width="0"/>
      <path d="m863.139,94.456l-6.07,7.112c2.117.107,3.777.78,4.98,2.019,1.203,1.239,1.805,2.819,1.805,4.742,0,1.986-.685,3.626-2.054,4.918-1.37,1.293-3.206,1.938-5.509,1.938-2.241,0-4.021-.604-5.338-1.811-1.318-1.206-2.05-2.856-2.195-4.95l2.49-.288c.104,1.453.592,2.606,1.463,3.46.872.854,2.065,1.282,3.58,1.282,1.577,0,2.817-.438,3.719-1.313.903-.876,1.354-1.997,1.354-3.364s-.462-2.483-1.385-3.349c-.924-.865-2.299-1.298-4.125-1.298h-1.401v-2.05l5.759-6.793h-10.49v-2.274h13.416v2.019Z" fill="#fff" stroke-width="0"/>
    </g>
    <g>
      <path d="m1047.562,109.097l2.428-.353c.083,1.346.519,2.371,1.308,3.076.788.705,1.773,1.058,2.957,1.058,1.349,0,2.401-.465,3.159-1.395.757-.929,1.136-2.119,1.136-3.572v-15.475h2.428v15.475c0,2.158-.617,3.909-1.852,5.255-1.235,1.346-2.869,2.019-4.902,2.019-1.848,0-3.383-.539-4.607-1.618-1.225-1.078-1.909-2.568-2.054-4.47Z" fill="#fff" stroke-width="0"/>
      <path d="m1064.495,108.232v-9.579h2.334v9.579c0,1.389.437,2.521,1.308,3.396.872.876,1.972,1.313,3.3,1.313s2.428-.438,3.299-1.313c.872-.875,1.308-2.008,1.308-3.396v-9.579h2.335v9.579c0,2.051-.654,3.723-1.961,5.015-1.308,1.293-2.968,1.938-4.98,1.938s-3.673-.646-4.98-1.938c-1.308-1.292-1.961-2.964-1.961-5.015Z" fill="#fff" stroke-width="0"/>
      <path d="m1084.571,114.865h-2.334v-23.709h2.334v23.709Z" fill="#fff" stroke-width="0"/>
      <path d="m1094.656,114.16l5.572-15.507h2.396l-8.155,22.619h-2.397l2.335-6.407h-1.837l-5.883-16.212h2.553l5.416,15.507Z" fill="#fff" stroke-width="0"/>
      <path d="m1122.607,92.117v20.473h5.759v2.275h-14.91v-2.275h6.724v-17.621l-6.724,1.826v-2.243l9.151-2.435Z" fill="#fff" stroke-width="0"/>
      <path d="m1138.886,92.117v20.473h5.759v2.275h-14.91v-2.275h6.724v-17.621l-6.724,1.826v-2.243l9.151-2.435Z" fill="#fff" stroke-width="0"/>
      <path d="m1148.879,100.832h-3.549v-2.179h3.549v-5.8l2.334-.736v6.536h4.794v2.179h-4.794v8.522c0,1.196.249,2.05.747,2.562s1.318.77,2.459.77h1.588v2.179h-1.588c-1.888,0-3.283-.459-4.187-1.378-.902-.918-1.354-2.328-1.354-4.229v-8.426Z" fill="#fff" stroke-width="0"/>
      <path d="m1167.523,98.333c1.847,0,3.367.662,4.561,1.986,1.192,1.324,1.79,2.99,1.79,4.998v9.548h-2.335v-9.26c0-1.431-.457-2.632-1.369-3.604-.914-.972-2.045-1.458-3.394-1.458-1.474,0-2.688.481-3.642,1.442-.955.961-1.432,2.168-1.432,3.62v9.26h-2.335v-23.709h2.335v11.662c.436-1.367,1.172-2.456,2.21-3.269,1.037-.812,2.241-1.217,3.61-1.217Z" fill="#fff" stroke-width="0"/>
      <path d="m1197.997,105.252l-7.378,7.337h11.361v2.275h-14.848v-2.019l9.276-9.323c1.66-1.709,2.49-3.364,2.49-4.967,0-1.238-.399-2.237-1.198-2.995-.8-.758-1.853-1.138-3.159-1.138-1.557,0-2.761.47-3.611,1.41-.851.939-1.276,2.21-1.276,3.812h-2.459c0-2.264.659-4.085,1.977-5.463s3.129-2.066,5.432-2.066c2.034,0,3.673.582,4.918,1.746s1.868,2.719,1.868,4.662c0,2.264-1.132,4.507-3.393,6.728Z" fill="#fff" stroke-width="0"/>
      <path d="m1206.93,111.885c-1.64-2.2-2.46-4.945-2.46-8.234s.82-6.034,2.46-8.234c1.639-2.199,3.704-3.3,6.193-3.3,2.511,0,4.581,1.095,6.21,3.284s2.444,4.939,2.444,8.25-.815,6.061-2.444,8.25-3.699,3.284-6.21,3.284c-2.489,0-4.555-1.1-6.193-3.3Zm1.773-14.835c-1.162,1.752-1.743,3.952-1.743,6.601s.581,4.849,1.743,6.6c1.162,1.752,2.636,2.628,4.42,2.628s3.258-.876,4.421-2.628c1.161-1.751,1.743-3.951,1.743-6.6s-.582-4.849-1.743-6.601c-1.163-1.751-2.636-2.627-4.421-2.627s-3.258.876-4.42,2.627Z" fill="#fff" stroke-width="0"/>
      <path d="m1235.598,105.252l-7.378,7.337h11.361v2.275h-14.848v-2.019l9.276-9.323c1.66-1.709,2.49-3.364,2.49-4.967,0-1.238-.399-2.237-1.198-2.995-.8-.758-1.853-1.138-3.159-1.138-1.557,0-2.761.47-3.611,1.41-.851.939-1.276,2.21-1.276,3.812h-2.459c0-2.264.659-4.085,1.977-5.463s3.129-2.066,5.432-2.066c2.034,0,3.673.582,4.918,1.746s1.868,2.719,1.868,4.662c0,2.264-1.132,4.507-3.393,6.728Z" fill="#fff" stroke-width="0"/>
      <path d="m1256.266,94.456l-6.069,7.112c2.116.107,3.776.78,4.98,2.019,1.203,1.239,1.805,2.819,1.805,4.742,0,1.986-.685,3.626-2.054,4.918-1.37,1.293-3.206,1.938-5.51,1.938-2.241,0-4.021-.604-5.338-1.811-1.318-1.206-2.05-2.856-2.195-4.95l2.49-.288c.104,1.453.592,2.606,1.463,3.46.872.854,2.065,1.282,3.58,1.282,1.577,0,2.817-.438,3.72-1.313s1.354-1.997,1.354-3.364-.463-2.483-1.386-3.349c-.924-.865-2.299-1.298-4.124-1.298h-1.401v-2.05l5.759-6.793h-10.489v-2.274h13.415v2.019Z" fill="#fff" stroke-width="0"/>
    </g>
    <g>
      <path d="m235.337,261.847l3.916,5.79h-2.77l-3.812-5.665h-2.354v5.665h-2.312v-14.579h6.04c1.43,0,2.593.421,3.489,1.261s1.343,1.905,1.343,3.196c0,1.069-.319,2-.958,2.791-.639.792-1.5,1.306-2.583,1.541Zm-1.292-6.727h-3.728v4.748h3.728c.722,0,1.312-.226,1.771-.677s.687-1.017.687-1.697-.229-1.246-.687-1.697-1.048-.677-1.771-.677Z" fill="#61dfff" stroke-width="0"/>
      <path d="m245.522,256.787c1.708,0,3.096.611,4.165,1.833s1.506,2.7,1.312,4.436h-8.81c.152.861.548,1.559,1.187,2.094.639.534,1.409.802,2.312.802.694,0,1.315-.17,1.864-.511.548-.34.976-.802,1.281-1.385l1.833.812c-.472.902-1.146,1.624-2.02,2.166-.875.541-1.882.812-3.02.812-1.597,0-2.937-.528-4.02-1.583-1.083-1.056-1.625-2.367-1.625-3.937s.531-2.885,1.593-3.947c1.062-1.062,2.377-1.593,3.947-1.593Zm0,1.896c-.806,0-1.503.246-2.093.739-.59.493-.982,1.135-1.177,1.926h6.54c-.181-.791-.566-1.433-1.156-1.926-.59-.493-1.295-.739-2.114-.739Z" fill="#61dfff" stroke-width="0"/>
      <path d="m252.478,264.826l2.187-.458c.194,1.139.972,1.708,2.333,1.708.694,0,1.253-.136,1.677-.406.423-.271.635-.614.635-1.031,0-.444-.223-.781-.667-1.01-.445-.229-.986-.396-1.625-.5-.639-.104-1.281-.232-1.927-.386-.646-.152-1.191-.454-1.635-.905-.445-.451-.667-1.059-.667-1.822,0-.931.399-1.701,1.197-2.312.798-.61,1.802-.916,3.01-.916s2.197.271,2.968.812c.771.541,1.232,1.277,1.385,2.207l-2.187.458c-.167-1.138-.889-1.707-2.166-1.707-.583,0-1.062.125-1.437.375-.375.249-.562.576-.562.979,0,.361.16.652.479.875.319.222.722.368,1.208.438.486.069,1.01.173,1.572.312.562.14,1.086.296,1.573.469.486.174.888.482,1.208.927.319.445.479,1,.479,1.666,0,.931-.434,1.705-1.302,2.322-.868.618-1.94.928-3.218.928-1.264,0-2.291-.271-3.083-.812-.792-.542-1.271-1.277-1.437-2.208Z" fill="#61dfff" stroke-width="0"/>
      <path d="m264.536,258.932h-2.271v-1.938h2.271v-3.457l2.187-.688v4.145h3v1.938h-3v4.915c0,.652.146,1.124.438,1.416s.757.438,1.396.438h1.167v1.937h-1.167c-1.375,0-2.388-.319-3.041-.958-.652-.639-.979-1.617-.979-2.937v-4.811Z" fill="#61dfff" stroke-width="0"/>
      <path d="m273.95,256.995v2.812c.347-1.263.892-2.117,1.635-2.562.743-.444,1.586-.555,2.53-.333v2.083c-1.153-.319-2.135-.219-2.947.302-.812.521-1.219,1.295-1.219,2.322v6.019h-2.187v-10.643h2.187Z" fill="#61dfff" stroke-width="0"/>
      <path d="m279.896,254.891c-.271-.264-.406-.583-.406-.958s.135-.694.406-.958c.271-.264.593-.396.968-.396s.694.132.958.396.396.583.396.958-.132.694-.396.958-.583.396-.958.396-.698-.132-.968-.396Zm2.051,12.746h-2.187v-10.643h2.187v10.643Z" fill="#61dfff" stroke-width="0"/>
      <path d="m285.613,266.263c-1.083-1.056-1.625-2.367-1.625-3.937s.542-2.885,1.625-3.947c1.083-1.062,2.422-1.593,4.02-1.593,1.152,0,2.183.299,3.093.896.909.597,1.579,1.416,2.01,2.458l-2.02.687c-.278-.625-.688-1.117-1.229-1.479-.542-.36-1.16-.541-1.854-.541-.958,0-1.764.336-2.416,1.01-.653.674-.979,1.51-.979,2.51s.326,1.833.979,2.499c.652.667,1.458,1,2.416,1,.694,0,1.315-.177,1.864-.531s.955-.851,1.219-1.489l2.02.688c-.431,1.041-1.101,1.86-2.01,2.457-.91.598-1.94.896-3.093.896-1.597,0-2.937-.528-4.02-1.583Z" fill="#61dfff" stroke-width="0"/>
      <path d="m297.651,258.932h-2.271v-1.938h2.271v-3.457l2.187-.688v4.145h3v1.938h-3v4.915c0,.652.146,1.124.438,1.416s.757.438,1.396.438h1.167v1.937h-1.167c-1.375,0-2.388-.319-3.041-.958-.652-.639-.979-1.617-.979-2.937v-4.811Z" fill="#61dfff" stroke-width="0"/>
      <path d="m309.544,256.787c1.708,0,3.096.611,4.165,1.833s1.506,2.7,1.312,4.436h-8.81c.152.861.548,1.559,1.187,2.094.639.534,1.409.802,2.312.802.694,0,1.315-.17,1.864-.511.548-.34.976-.802,1.281-1.385l1.833.812c-.472.902-1.146,1.624-2.02,2.166-.875.541-1.882.812-3.02.812-1.597,0-2.937-.528-4.02-1.583-1.083-1.056-1.625-2.367-1.625-3.937s.531-2.885,1.593-3.947c1.062-1.062,2.377-1.593,3.947-1.593Zm0,1.896c-.806,0-1.503.246-2.093.739-.59.493-.982,1.135-1.177,1.926h6.54c-.181-.791-.566-1.433-1.156-1.926-.59-.493-1.295-.739-2.114-.739Z" fill="#61dfff" stroke-width="0"/>
      <path d="m325.642,260.078v-7.853h2.187v15.412h-2.187v-3.082c-.333,1.014-.871,1.815-1.614,2.405-.743.591-1.614.886-2.614.886-1.375,0-2.521-.528-3.437-1.583-.917-1.056-1.375-2.367-1.375-3.937s.458-2.885,1.375-3.947c.916-1.062,2.062-1.593,3.437-1.593,1,0,1.871.295,2.614.885.743.591,1.281,1.393,1.614,2.406Zm-3.499,5.748c1.013,0,1.85-.333,2.509-1,.66-.666.989-1.499.989-2.499,0-1.014-.33-1.854-.989-2.521-.66-.666-1.496-.999-2.509-.999-.917,0-1.694.336-2.333,1.01s-.958,1.51-.958,2.51c0,.986.319,1.815.958,2.488.639.674,1.417,1.011,2.333,1.011Z" fill="#61dfff" stroke-width="0"/>
      <path d="m337.972,258.932h-2.271v-1.938h2.271v-3.457l2.187-.688v4.145h3v1.938h-3v4.915c0,.652.146,1.124.438,1.416s.757.438,1.396.438h1.167v1.937h-1.167c-1.375,0-2.388-.319-3.041-.958-.652-.639-.979-1.617-.979-2.937v-4.811Z" fill="#61dfff" stroke-width="0"/>
      <path d="m349.864,256.787c1.708,0,3.096.611,4.165,1.833s1.506,2.7,1.312,4.436h-8.81c.152.861.548,1.559,1.187,2.094.639.534,1.409.802,2.312.802.694,0,1.315-.17,1.864-.511.548-.34.976-.802,1.281-1.385l1.833.812c-.472.902-1.146,1.624-2.02,2.166-.875.541-1.882.812-3.02.812-1.597,0-2.937-.528-4.02-1.583-1.083-1.056-1.625-2.367-1.625-3.937s.531-2.885,1.593-3.947c1.062-1.062,2.377-1.593,3.947-1.593Zm0,1.896c-.806,0-1.503.246-2.093.739-.59.493-.982,1.135-1.177,1.926h6.54c-.181-.791-.566-1.433-1.156-1.926-.59-.493-1.295-.739-2.114-.739Z" fill="#61dfff" stroke-width="0"/>
      <path d="m356.82,264.826l2.187-.458c.194,1.139.972,1.708,2.333,1.708.694,0,1.253-.136,1.677-.406.423-.271.635-.614.635-1.031,0-.444-.223-.781-.667-1.01-.445-.229-.986-.396-1.625-.5-.639-.104-1.281-.232-1.927-.386-.646-.152-1.191-.454-1.635-.905-.445-.451-.667-1.059-.667-1.822,0-.931.399-1.701,1.197-2.312.798-.61,1.802-.916,3.01-.916s2.197.271,2.968.812c.771.541,1.232,1.277,1.385,2.207l-2.187.458c-.167-1.138-.889-1.707-2.166-1.707-.583,0-1.062.125-1.437.375-.375.249-.562.576-.562.979,0,.361.16.652.479.875.319.222.722.368,1.208.438.486.069,1.01.173,1.572.312.562.14,1.086.296,1.573.469.486.174.888.482,1.208.927.319.445.479,1,.479,1.666,0,.931-.434,1.705-1.302,2.322-.868.618-1.94.928-3.218.928-1.264,0-2.291-.271-3.083-.812-.792-.542-1.271-1.277-1.437-2.208Z" fill="#61dfff" stroke-width="0"/>
      <path d="m368.879,258.932h-2.271v-1.938h2.271v-3.457l2.187-.688v4.145h3v1.938h-3v4.915c0,.652.146,1.124.438,1.416s.757.438,1.396.438h1.167v1.937h-1.167c-1.375,0-2.388-.319-3.041-.958-.652-.639-.979-1.617-.979-2.937v-4.811Z" fill="#61dfff" stroke-width="0"/>
      <path d="m382.104,256.787c1.208,0,2.194.424,2.958,1.271.763.847,1.146,1.923,1.146,3.228v6.353h-2.187v-6.019c0-.819-.264-1.496-.792-2.031-.528-.534-1.18-.802-1.958-.802-.875,0-1.59.268-2.146.802-.555.535-.833,1.212-.833,2.031v6.019h-2.187v-10.643h2.187v2.749c.292-.916.774-1.638,1.448-2.166.673-.527,1.461-.791,2.364-.791Z" fill="#61dfff" stroke-width="0"/>
      <path d="m393.705,256.787c1.708,0,3.096.611,4.165,1.833s1.506,2.7,1.312,4.436h-8.81c.152.861.548,1.559,1.187,2.094.639.534,1.409.802,2.312.802.694,0,1.315-.17,1.864-.511.548-.34.976-.802,1.281-1.385l1.833.812c-.472.902-1.146,1.624-2.02,2.166-.875.541-1.882.812-3.02.812-1.597,0-2.937-.528-4.02-1.583-1.083-1.056-1.625-2.367-1.625-3.937s.531-2.885,1.593-3.947c1.062-1.062,2.377-1.593,3.947-1.593Zm0,1.896c-.806,0-1.503.246-2.093.739-.59.493-.982,1.135-1.177,1.926h6.54c-.181-.791-.566-1.433-1.156-1.926-.59-.493-1.295-.739-2.114-.739Z" fill="#61dfff" stroke-width="0"/>
      <path d="m402.265,258.932h-2.271v-1.938h2.271v-3.457l2.187-.688v4.145h3v1.938h-3v4.915c0,.652.146,1.124.438,1.416s.757.438,1.396.438h1.167v1.937h-1.167c-1.375,0-2.388-.319-3.041-.958-.652-.639-.979-1.617-.979-2.937v-4.811Z" fill="#61dfff" stroke-width="0"/>
    </g>
    <g>
      <path d="m674.931,267.637h-2.312v-14.579h5.832c1.485,0,2.693.438,3.624,1.312.93.875,1.395,1.979,1.395,3.312,0,1.319-.465,2.409-1.395,3.27-.931.861-2.139,1.292-3.624,1.292h-3.52v5.394Zm0-12.517v5.061h3.52c.777,0,1.413-.239,1.906-.719.493-.479.739-1.079.739-1.801,0-.736-.247-1.344-.739-1.823-.493-.479-1.128-.718-1.906-.718h-3.52Z" fill="#61dfff" stroke-width="0"/>
      <path d="m684.782,263.222v-6.228h2.187v6.228c0,.777.25,1.405.75,1.885.5.479,1.138.719,1.916.719.763,0,1.396-.239,1.895-.719.5-.479.75-1.107.75-1.885v-6.228h2.187v6.228c0,1.361-.455,2.472-1.364,3.332-.91.861-2.065,1.292-3.468,1.292-1.417,0-2.58-.431-3.489-1.292-.91-.86-1.364-1.971-1.364-3.332Z" fill="#61dfff" stroke-width="0"/>
      <path d="m703.256,256.787c1.375,0,2.52.531,3.437,1.593.917,1.062,1.375,2.378,1.375,3.947s-.458,2.881-1.375,3.937c-.917,1.055-2.062,1.583-3.437,1.583-1,0-1.871-.295-2.614-.886-.743-.59-1.281-1.392-1.614-2.405v3.082h-2.187v-15.412h2.187v7.853c.333-1.014.871-1.815,1.614-2.406.743-.59,1.614-.885,2.614-.885Zm-.729,9.039c.917,0,1.69-.337,2.322-1.011.632-.673.948-1.502.948-2.488,0-1-.316-1.836-.948-2.51s-1.406-1.01-2.322-1.01c-1.014,0-1.85.333-2.51.999-.66.667-.989,1.507-.989,2.521,0,1,.33,1.833.989,2.499.66.667,1.496,1,2.51,1Z" fill="#61dfff" stroke-width="0"/>
      <path d="m712.295,267.637h-2.187v-15.412h2.187v15.412Z" fill="#61dfff" stroke-width="0"/>
      <path d="m714.887,254.891c-.271-.264-.406-.583-.406-.958s.135-.694.406-.958c.271-.264.593-.396.968-.396s.694.132.958.396.396.583.396.958-.132.694-.396.958-.583.396-.958.396-.698-.132-.968-.396Zm2.051,12.746h-2.187v-10.643h2.187v10.643Z" fill="#61dfff" stroke-width="0"/>
      <path d="m720.605,266.263c-1.083-1.056-1.625-2.367-1.625-3.937s.542-2.885,1.625-3.947c1.083-1.062,2.422-1.593,4.02-1.593,1.152,0,2.183.299,3.093.896.909.597,1.579,1.416,2.01,2.458l-2.02.687c-.278-.625-.688-1.117-1.229-1.479-.542-.36-1.16-.541-1.854-.541-.958,0-1.764.336-2.416,1.01-.653.674-.979,1.51-.979,2.51s.326,1.833.979,2.499c.652.667,1.458,1,2.416,1,.694,0,1.315-.177,1.864-.531s.955-.851,1.219-1.489l2.02.688c-.431,1.041-1.101,1.86-2.01,2.457-.91.598-1.94.896-3.093.896-1.597,0-2.937-.528-4.02-1.583Z" fill="#61dfff" stroke-width="0"/>
      <path d="m739.349,258.932h-2.271v-1.938h2.271v-3.457l2.187-.688v4.145h3v1.938h-3v4.915c0,.652.146,1.124.438,1.416s.757.438,1.396.438h1.167v1.937h-1.167c-1.375,0-2.388-.319-3.041-.958-.652-.639-.979-1.617-.979-2.937v-4.811Z" fill="#61dfff" stroke-width="0"/>
      <path d="m751.241,256.787c1.708,0,3.096.611,4.165,1.833s1.506,2.7,1.312,4.436h-8.81c.152.861.548,1.559,1.187,2.094.639.534,1.409.802,2.312.802.694,0,1.315-.17,1.864-.511.548-.34.976-.802,1.281-1.385l1.833.812c-.472.902-1.146,1.624-2.02,2.166-.875.541-1.882.812-3.02.812-1.597,0-2.937-.528-4.02-1.583-1.083-1.056-1.625-2.367-1.625-3.937s.531-2.885,1.593-3.947c1.062-1.062,2.377-1.593,3.947-1.593Zm0,1.896c-.806,0-1.503.246-2.093.739-.59.493-.982,1.135-1.177,1.926h6.54c-.181-.791-.566-1.433-1.156-1.926-.59-.493-1.295-.739-2.114-.739Z" fill="#61dfff" stroke-width="0"/>
      <path d="m758.197,264.826l2.187-.458c.194,1.139.972,1.708,2.333,1.708.694,0,1.253-.136,1.677-.406.423-.271.635-.614.635-1.031,0-.444-.223-.781-.667-1.01-.445-.229-.986-.396-1.625-.5-.639-.104-1.281-.232-1.927-.386-.646-.152-1.191-.454-1.635-.905-.445-.451-.667-1.059-.667-1.822,0-.931.399-1.701,1.197-2.312.798-.61,1.802-.916,3.01-.916s2.197.271,2.968.812c.771.541,1.232,1.277,1.385,2.207l-2.187.458c-.167-1.138-.889-1.707-2.166-1.707-.583,0-1.062.125-1.437.375-.375.249-.562.576-.562.979,0,.361.16.652.479.875.319.222.722.368,1.208.438.486.069,1.01.173,1.572.312.562.14,1.086.296,1.573.469.486.174.888.482,1.208.927.319.445.479,1,.479,1.666,0,.931-.434,1.705-1.302,2.322-.868.618-1.94.928-3.218.928-1.264,0-2.291-.271-3.083-.812-.792-.542-1.271-1.277-1.437-2.208Z" fill="#61dfff" stroke-width="0"/>
      <path d="m770.256,258.932h-2.271v-1.938h2.271v-3.457l2.187-.688v4.145h3v1.938h-3v4.915c0,.652.146,1.124.438,1.416s.757.438,1.396.438h1.167v1.937h-1.167c-1.375,0-2.388-.319-3.041-.958-.652-.639-.979-1.617-.979-2.937v-4.811Z" fill="#61dfff" stroke-width="0"/>
      <path d="m783.481,256.787c1.208,0,2.194.424,2.958,1.271.763.847,1.146,1.923,1.146,3.228v6.353h-2.187v-6.019c0-.819-.264-1.496-.792-2.031-.528-.534-1.18-.802-1.958-.802-.875,0-1.59.268-2.146.802-.555.535-.833,1.212-.833,2.031v6.019h-2.187v-10.643h2.187v2.749c.292-.916.774-1.638,1.448-2.166.673-.527,1.461-.791,2.364-.791Z" fill="#61dfff" stroke-width="0"/>
      <path d="m795.082,256.787c1.708,0,3.096.611,4.165,1.833s1.506,2.7,1.312,4.436h-8.81c.152.861.548,1.559,1.187,2.094.639.534,1.409.802,2.312.802.694,0,1.315-.17,1.864-.511.548-.34.976-.802,1.281-1.385l1.833.812c-.472.902-1.146,1.624-2.02,2.166-.875.541-1.882.812-3.02.812-1.597,0-2.937-.528-4.02-1.583-1.083-1.056-1.625-2.367-1.625-3.937s.531-2.885,1.593-3.947c1.062-1.062,2.377-1.593,3.947-1.593Zm0,1.896c-.806,0-1.503.246-2.093.739-.59.493-.982,1.135-1.177,1.926h6.54c-.181-.791-.566-1.433-1.156-1.926-.59-.493-1.295-.739-2.114-.739Z" fill="#61dfff" stroke-width="0"/>
      <path d="m803.641,258.932h-2.271v-1.938h2.271v-3.457l2.187-.688v4.145h3v1.938h-3v4.915c0,.652.146,1.124.438,1.416s.757.438,1.396.438h1.167v1.937h-1.167c-1.375,0-2.388-.319-3.041-.958-.652-.639-.979-1.617-.979-2.937v-4.811Z" fill="#61dfff" stroke-width="0"/>
    </g>
    <g>
      <path d="m1100.12,253.058v14.579h-2.187v-14.079l-3.499,14.079h-4.062l-3.499-14.079v14.079h-2.187v-14.579h4.27l3.457,13.996,3.479-13.996h4.228Z" fill="#61dfff" stroke-width="0"/>
      <path d="m1107.18,256.787c1.277,0,2.319.333,3.124,1,.805.666,1.208,1.624,1.208,2.874v6.977h-2.187v-2.832c-.653,2.027-1.965,3.041-3.936,3.041-.917,0-1.68-.274-2.291-.823-.611-.548-.917-1.267-.917-2.155,0-1.042.368-1.822,1.104-2.344.736-.521,1.673-.843,2.812-.968l2.062-.209c.777-.069,1.166-.416,1.166-1.041,0-.514-.198-.923-.593-1.229-.396-.306-.913-.458-1.552-.458-.653,0-1.205.166-1.656.499-.451.334-.739.82-.864,1.458l-2.166-.521c.194-1,.715-1.794,1.562-2.385.847-.59,1.888-.885,3.124-.885Zm-1.083,9.289c.902,0,1.666-.303,2.291-.906s.937-1.309.937-2.114v-.583c-.167.278-.569.451-1.208.521l-2.02.25c-.528.07-.948.227-1.26.469-.312.243-.468.573-.468.989s.156.75.468,1c.312.25.732.375,1.26.375Z" fill="#61dfff" stroke-width="0"/>
      <path d="m1114.001,254.891c-.271-.264-.406-.583-.406-.958s.135-.694.406-.958c.271-.264.593-.396.968-.396s.694.132.958.396.396.583.396.958-.132.694-.396.958-.583.396-.958.396-.698-.132-.968-.396Zm2.051,12.746h-2.187v-10.643h2.187v10.643Z" fill="#61dfff" stroke-width="0"/>
      <path d="m1124.508,256.787c1.208,0,2.194.424,2.958,1.271.763.847,1.146,1.923,1.146,3.228v6.353h-2.187v-6.019c0-.819-.264-1.496-.792-2.031-.528-.534-1.18-.802-1.958-.802-.875,0-1.59.268-2.146.802-.555.535-.833,1.212-.833,2.031v6.019h-2.187v-10.643h2.187v2.749c.292-.916.774-1.638,1.448-2.166.673-.527,1.461-.791,2.364-.791Z" fill="#61dfff" stroke-width="0"/>
      <path d="m1136.984,256.787c1.208,0,2.194.424,2.958,1.271.763.847,1.146,1.923,1.146,3.228v6.353h-2.187v-6.019c0-.819-.264-1.496-.792-2.031-.528-.534-1.18-.802-1.958-.802-.875,0-1.59.268-2.146.802-.555.535-.833,1.212-.833,2.031v6.019h-2.187v-10.643h2.187v2.749c.292-.916.774-1.638,1.448-2.166.673-.527,1.461-.791,2.364-.791Z" fill="#61dfff" stroke-width="0"/>
      <path d="m1148.585,256.787c1.708,0,3.096.611,4.165,1.833s1.506,2.7,1.312,4.436h-8.81c.152.861.548,1.559,1.187,2.094.639.534,1.409.802,2.312.802.694,0,1.315-.17,1.864-.511.548-.34.976-.802,1.281-1.385l1.833.812c-.472.902-1.146,1.624-2.02,2.166-.875.541-1.882.812-3.02.812-1.597,0-2.937-.528-4.02-1.583-1.083-1.056-1.625-2.367-1.625-3.937s.531-2.885,1.593-3.947c1.062-1.062,2.377-1.593,3.947-1.593Zm0,1.896c-.806,0-1.503.246-2.093.739-.59.493-.982,1.135-1.177,1.926h6.54c-.181-.791-.566-1.433-1.156-1.926-.59-.493-1.295-.739-2.114-.739Z" fill="#61dfff" stroke-width="0"/>
      <path d="m1157.144,258.932h-2.271v-1.938h2.271v-3.457l2.187-.688v4.145h3v1.938h-3v4.915c0,.652.146,1.124.438,1.416s.757.438,1.396.438h1.167v1.937h-1.167c-1.375,0-2.388-.319-3.041-.958-.652-.639-.979-1.617-.979-2.937v-4.811Z" fill="#61dfff" stroke-width="0"/>
      <path d="m1174.993,256.787c1.277,0,2.319.333,3.124,1,.805.666,1.208,1.624,1.208,2.874v6.977h-2.187v-2.832c-.653,2.027-1.965,3.041-3.936,3.041-.917,0-1.68-.274-2.291-.823-.611-.548-.917-1.267-.917-2.155,0-1.042.368-1.822,1.104-2.344.736-.521,1.673-.843,2.812-.968l2.062-.209c.777-.069,1.166-.416,1.166-1.041,0-.514-.198-.923-.593-1.229-.396-.306-.913-.458-1.552-.458-.653,0-1.205.166-1.656.499-.451.334-.739.82-.864,1.458l-2.166-.521c.194-1,.715-1.794,1.562-2.385.847-.59,1.888-.885,3.124-.885Zm-1.083,9.289c.902,0,1.666-.303,2.291-.906s.937-1.309.937-2.114v-.583c-.167.278-.569.451-1.208.521l-2.02.25c-.528.07-.948.227-1.26.469-.312.243-.468.573-.468.989s.156.75.468,1c.312.25.732.375,1.26.375Z" fill="#61dfff" stroke-width="0"/>
      <path d="m1183.865,267.637h-2.187v-15.412h2.187v15.412Z" fill="#61dfff" stroke-width="0"/>
      <path d="m1192.737,256.787c1.375,0,2.52.531,3.437,1.593.917,1.062,1.375,2.378,1.375,3.947s-.458,2.881-1.375,3.937c-.917,1.055-2.062,1.583-3.437,1.583-1,0-1.871-.295-2.614-.886-.743-.59-1.281-1.392-1.614-2.405v7.248h-2.187v-14.809h2.187v3.083c.333-1.014.871-1.815,1.614-2.406.743-.59,1.614-.885,2.614-.885Zm-.729,9.039c.917,0,1.69-.337,2.322-1.011.632-.673.948-1.502.948-2.488,0-1-.316-1.836-.948-2.51s-1.406-1.01-2.322-1.01c-1.014,0-1.85.333-2.51.999-.66.667-.989,1.507-.989,2.521,0,1,.33,1.833.989,2.499.66.667,1.496,1,2.51,1Z" fill="#61dfff" stroke-width="0"/>
      <path d="m1205.588,256.787c1.208,0,2.194.424,2.958,1.271.763.847,1.146,1.923,1.146,3.228v6.353h-2.187v-6.019c0-.819-.264-1.496-.792-2.031-.528-.534-1.18-.802-1.958-.802-.875,0-1.59.268-2.146.802-.555.535-.833,1.212-.833,2.031v6.019h-2.187v-15.412h2.187v7.519c.292-.916.774-1.638,1.448-2.166.673-.527,1.461-.791,2.364-.791Z" fill="#61dfff" stroke-width="0"/>
      <path d="m1216.438,256.787c1.277,0,2.319.333,3.124,1,.805.666,1.208,1.624,1.208,2.874v6.977h-2.187v-2.832c-.653,2.027-1.965,3.041-3.936,3.041-.917,0-1.68-.274-2.291-.823-.611-.548-.917-1.267-.917-2.155,0-1.042.368-1.822,1.104-2.344.736-.521,1.673-.843,2.812-.968l2.062-.209c.777-.069,1.166-.416,1.166-1.041,0-.514-.198-.923-.593-1.229-.396-.306-.913-.458-1.552-.458-.653,0-1.205.166-1.656.499-.451.334-.739.82-.864,1.458l-2.166-.521c.194-1,.715-1.794,1.562-2.385.847-.59,1.888-.885,3.124-.885Zm-1.083,9.289c.902,0,1.666-.303,2.291-.906s.937-1.309.937-2.114v-.583c-.167.278-.569.451-1.208.521l-2.02.25c-.528.07-.948.227-1.26.469-.312.243-.468.573-.468.989s.156.75.468,1c.312.25.732.375,1.26.375Z" fill="#61dfff" stroke-width="0"/>
    </g>
  </g>
</svg>