<?xml version="1.0" encoding="UTF-8"?>
<svg id="Layer_1" data-name="Layer 1" xmlns="http://www.w3.org/2000/svg" xmlns:xlink="http://www.w3.org/1999/xlink" viewBox="0 0 1532.899 419.613">
  <defs>
    <filter id="outer-glow-1" filterUnits="userSpaceOnUse">
      <feOffset dx="0" dy="0"/>
      <feGaussianBlur result="blur" stdDeviation="5"/>
      <feFlood flood-color="#61dfff" flood-opacity=".75"/>
      <feComposite in2="blur" operator="in"/>
      <feComposite in="SourceGraphic"/>
    </filter>
  </defs>
  <rect y="0" width="1532.899" height="420.193" rx="7.654" ry="7.654" fill="#202020" stroke-width="0"/>
  <g id="Message_service" data-name="Message service">
    <path d="m425.511,165.738v-5.015h552.279v5.015H425.511Z" fill="#61dfff" fill-rule="evenodd" stroke="#61dfff"/>
    <path d="m425.978,331.105c-19.203,0-34.77-15.567-34.77-34.77s15.567-34.77,34.77-34.77" fill="none" fill-rule="evenodd" stroke="#7cb594" stroke-width="6"/>
    <path d="m546.206,163.216l-26.031,9.297v-18.594l26.031,9.297Z" fill="#61dfff" fill-rule="evenodd" stroke="#61dfff"/>
    <path d="m425.978,264.073v-5.015h552.279v5.015H425.978Z" fill="#61dfff" fill-rule="evenodd" stroke="#61dfff"/>
    <path d="m902.588,163.216l-26.031,9.297v-18.594l26.031,9.297Z" fill="#61dfff" fill-rule="evenodd" stroke="#61dfff"/>
    <path d="m687.148,261.565l26.031-9.297v18.594l-26.031-9.297Z" fill="#61dfff" fill-rule="evenodd" stroke="#61dfff"/>
    <path d="m1177.332,328.598v5.015H425.978v-5.015h751.354Z" fill="#7cb594" fill-rule="evenodd" stroke="#7cb594"/>
    <path d="m839.21,331.105l-26.031,9.297v-18.594l26.031,9.297Z" fill="#7cb594" fill-rule="evenodd" stroke="#7cb594"/>
    <path d="m1177.332,331.105c19.203,0,34.77-15.567,34.77-34.77v-41.231" fill="none" fill-rule="evenodd" stroke="#7cb594" stroke-width="6"/>
    <path d="m1469.196,209.517l-26.031,9.297v-18.594l26.031,9.297Z" fill="#7cb594" fill-rule="evenodd" stroke="#7cb594"/>
    <path d="m1229.035,212.024v-5.015h214.13v5.015h-214.13Z" fill="#7cb594" fill-rule="evenodd" stroke="#7cb594"/>
    <path d="m171.344,209.517l-26.031,9.297v-18.594l26.031,9.297Z" fill="#61dfff" fill-rule="evenodd" stroke="#61dfff"/>
    <path d="m81.303,212.024v-5.015h64.01v5.015h-64.01Z" fill="#61dfff" fill-rule="evenodd" stroke="#61dfff"/>
    <path d="m179.147,135.225h239.938c2.993,0,5.42,3.134,5.42,7v134.583c0,3.866-2.427,7-5.42,7h-239.938c-2.993,0-5.42-3.134-5.42-7v-134.583c0-3.866,2.427-7,5.42-7Z" fill="#1d1d1d" fill-rule="evenodd" stroke="#505050" stroke-width="2"/>
    <path d="m424.362,128.693c3.301,0,5.977,2.855,5.977,6.376s-2.676,6.376-5.977,6.376-5.978-2.854-5.978-6.376,2.676-6.376,5.978-6.376Z" fill="#505050" fill-rule="evenodd" stroke-width="0"/>
    <g>
      <path d="m287.005,201.426h-12.109v-19.668h12.109v1.995h-9.918v6.855h9.637v1.967h-9.637v6.855h9.918v1.995Z" fill="#fff" stroke-width="0"/>
      <path d="m297.457,201.426h-2.191v-17.673h-6.659v-1.995h15.51v1.995h-6.659v17.673Z" fill="#fff" stroke-width="0"/>
      <path d="m308.387,201.426h-2.191v-19.668h2.191v8.851h12.054v-8.851h2.191v19.668h-2.191v-8.851h-12.054v8.851Z" fill="#fff" stroke-width="0"/>
      <path d="m201.409,231.461l2.136-.422c.299,1.742,1.526,2.613,3.681,2.613,1.086,0,1.971-.22,2.655-.66s1.026-1.007,1.026-1.7c0-.712-.314-1.255-.941-1.63-.628-.374-1.381-.641-2.262-.801-.881-.158-1.766-.337-2.655-.533-.89-.197-1.648-.585-2.276-1.166s-.941-1.377-.941-2.389c0-1.198.505-2.187,1.517-2.964,1.011-.777,2.304-1.166,3.877-1.166,1.536,0,2.791.355,3.765,1.067.974.712,1.574,1.677,1.798,2.895l-2.107.421c-.318-1.723-1.471-2.585-3.456-2.585-.956,0-1.742.207-2.36.618-.618.412-.927.955-.927,1.63,0,.656.313,1.156.941,1.503.627.347,1.386.595,2.276.745.889.149,1.779.332,2.669.548.89.215,1.648.632,2.276,1.25.627.618.941,1.452.941,2.501,0,1.218-.553,2.219-1.658,3.006-1.105.787-2.491,1.18-4.158,1.18-1.611,0-2.927-.355-3.948-1.067-1.021-.712-1.644-1.676-1.869-2.894Z" fill="#fff" stroke-width="0"/>
      <path d="m232.456,220.643c1.499,0,2.74.581,3.723,1.742.983,1.161,1.475,2.622,1.475,4.383v8.373h-2.107v-8.12c0-1.255-.365-2.309-1.096-3.161-.73-.852-1.621-1.278-2.669-1.278-1.162,0-2.121.422-2.88,1.265s-1.138,1.901-1.138,3.175v8.12h-2.107v-8.12c0-1.255-.361-2.309-1.082-3.161-.722-.852-1.606-1.278-2.655-1.278-1.162,0-2.122.422-2.88,1.265-.759.843-1.138,1.901-1.138,3.175v8.12h-2.107v-14.217h2.107v3.54c.394-1.161,1.007-2.089,1.84-2.782.833-.692,1.793-1.039,2.88-1.039,1.18,0,2.201.375,3.063,1.124.861.749,1.461,1.742,1.798,2.978.337-1.235.951-2.229,1.84-2.978s1.934-1.124,3.133-1.124Z" fill="#fff" stroke-width="0"/>
      <path d="m246.87,220.643c1.611,0,2.922.426,3.934,1.278,1.011.853,1.517,2.047,1.517,3.582v9.638h-2.107v-3.878c-.955,2.772-2.81,4.158-5.563,4.158-1.292,0-2.346-.355-3.161-1.067-.815-.712-1.223-1.657-1.223-2.838,0-1.273.464-2.257,1.391-2.95.927-.692,2.13-1.114,3.61-1.264l3.175-.365c1.18-.112,1.77-.656,1.77-1.63,0-.88-.309-1.573-.927-2.079-.618-.506-1.433-.759-2.444-.759s-1.882.253-2.613.759-1.227,1.283-1.489,2.332l-2.051-.562c.337-1.404,1.062-2.481,2.177-3.23,1.114-.749,2.449-1.124,4.004-1.124Zm-1.686,13.009c1.442,0,2.641-.482,3.597-1.447.955-.964,1.433-2.093,1.433-3.386v-1.18c-.262.562-.899.899-1.911,1.012l-3.062.337c-.862.112-1.555.37-2.079.772-.524.403-.787.951-.787,1.644,0,.675.257,1.218.772,1.63s1.194.618,2.037.618Z" fill="#fff" stroke-width="0"/>
      <path d="m257.911,220.925v3.82c.487-1.629,1.241-2.763,2.262-3.399s2.196-.833,3.526-.59v2.051c-1.592-.355-2.955-.116-4.088.717-1.134.834-1.7,2-1.7,3.498v8.12h-2.107v-14.217h2.107Z" fill="#fff" stroke-width="0"/>
      <path d="m268.138,222.835h-3.203v-1.91h3.203v-5.086l2.107-.646v5.732h4.327v1.91h-4.327v7.474c0,1.05.225,1.798.674,2.248.45.449,1.189.674,2.22.674h1.433v1.911h-1.433c-1.705,0-2.964-.402-3.779-1.208s-1.222-2.042-1.222-3.709v-7.39Z" fill="#fff" stroke-width="0"/>
      <path d="m287.623,233.301c-1.433-1.414-2.149-3.17-2.149-5.268s.716-3.854,2.149-5.269c1.433-1.414,3.208-2.121,5.324-2.121,1.536,0,2.908.398,4.116,1.194s2.103,1.878,2.683,3.245l-1.938.674c-.431-.974-1.078-1.742-1.939-2.304s-1.836-.843-2.922-.843c-1.499,0-2.758.52-3.779,1.56-1.021,1.039-1.531,2.327-1.531,3.863s.51,2.823,1.531,3.863c1.021,1.039,2.28,1.559,3.779,1.559,1.086,0,2.061-.28,2.922-.843.861-.562,1.508-1.329,1.939-2.304l1.938.675c-.581,1.367-1.475,2.449-2.683,3.245s-2.581,1.193-4.116,1.193c-2.117,0-3.892-.706-5.324-2.121Z" fill="#fff" stroke-width="0"/>
      <path d="m304.087,233.301c-1.433-1.414-2.149-3.17-2.149-5.268s.716-3.854,2.149-5.269c1.433-1.414,3.208-2.121,5.324-2.121s3.892.707,5.324,2.121c1.433,1.415,2.149,3.171,2.149,5.269s-.716,3.854-2.149,5.268c-1.433,1.415-3.208,2.121-5.324,2.121s-3.892-.706-5.324-2.121Zm1.545-9.131c-1.021,1.039-1.531,2.327-1.531,3.863s.51,2.823,1.531,3.863c1.021,1.039,2.28,1.559,3.779,1.559,1.517,0,2.782-.515,3.793-1.545,1.012-1.03,1.518-2.322,1.518-3.877s-.506-2.848-1.518-3.878c-1.011-1.029-2.276-1.545-3.793-1.545-1.499,0-2.758.52-3.779,1.56Z" fill="#fff" stroke-width="0"/>
      <path d="m327.281,220.643c1.667,0,3.039.581,4.116,1.742,1.077,1.161,1.615,2.622,1.615,4.383v8.373h-2.107v-8.12c0-1.255-.413-2.309-1.236-3.161-.825-.852-1.845-1.278-3.062-1.278-1.331,0-2.426.422-3.288,1.265-.862.843-1.292,1.901-1.292,3.175v8.12h-2.107v-14.217h2.107v3.652c.394-1.198,1.058-2.154,1.995-2.866.937-.712,2.023-1.067,3.259-1.067Z" fill="#fff" stroke-width="0"/>
      <path d="m337.873,222.835h-3.203v-1.91h3.203v-5.086l2.107-.646v5.732h4.327v1.91h-4.327v7.474c0,1.05.225,1.798.674,2.248.45.449,1.189.674,2.22.674h1.433v1.911h-1.433c-1.705,0-2.964-.402-3.779-1.208s-1.222-2.042-1.222-3.709v-7.39Z" fill="#fff" stroke-width="0"/>
      <path d="m349.449,220.925v3.82c.487-1.629,1.241-2.763,2.262-3.399s2.196-.833,3.526-.59v2.051c-1.592-.355-2.955-.116-4.088.717-1.134.834-1.7,2-1.7,3.498v8.12h-2.107v-14.217h2.107Z" fill="#fff" stroke-width="0"/>
      <path d="m362.402,220.643c1.611,0,2.922.426,3.934,1.278,1.011.853,1.517,2.047,1.517,3.582v9.638h-2.107v-3.878c-.955,2.772-2.81,4.158-5.563,4.158-1.292,0-2.346-.355-3.161-1.067-.815-.712-1.223-1.657-1.223-2.838,0-1.273.464-2.257,1.391-2.95.927-.692,2.13-1.114,3.61-1.264l3.175-.365c1.18-.112,1.77-.656,1.77-1.63,0-.88-.309-1.573-.927-2.079-.618-.506-1.433-.759-2.444-.759s-1.882.253-2.613.759-1.227,1.283-1.489,2.332l-2.051-.562c.337-1.404,1.062-2.481,2.177-3.23,1.114-.749,2.449-1.124,4.004-1.124Zm-1.686,13.009c1.442,0,2.641-.482,3.597-1.447.955-.964,1.433-2.093,1.433-3.386v-1.18c-.262.562-.899.899-1.911,1.012l-3.062.337c-.862.112-1.555.37-2.079.772-.524.403-.787.951-.787,1.644,0,.675.257,1.218.772,1.63s1.194.618,2.037.618Z" fill="#fff" stroke-width="0"/>
      <path d="m372.924,233.301c-1.433-1.414-2.149-3.17-2.149-5.268s.716-3.854,2.149-5.269c1.433-1.414,3.208-2.121,5.324-2.121,1.536,0,2.908.398,4.116,1.194s2.103,1.878,2.683,3.245l-1.938.674c-.431-.974-1.078-1.742-1.939-2.304s-1.836-.843-2.922-.843c-1.499,0-2.758.52-3.779,1.56-1.021,1.039-1.531,2.327-1.531,3.863s.51,2.823,1.531,3.863c1.021,1.039,2.28,1.559,3.779,1.559,1.086,0,2.061-.28,2.922-.843.861-.562,1.508-1.329,1.939-2.304l1.938.675c-.581,1.367-1.475,2.449-2.683,3.245s-2.581,1.193-4.116,1.193c-2.117,0-3.892-.706-5.324-2.121Z" fill="#fff" stroke-width="0"/>
      <path d="m389.403,222.835h-3.203v-1.91h3.203v-5.086l2.107-.646v5.732h4.327v1.91h-4.327v7.474c0,1.05.225,1.798.674,2.248.45.449,1.189.674,2.22.674h1.433v1.911h-1.433c-1.705,0-2.964-.402-3.779-1.208s-1.222-2.042-1.222-3.709v-7.39Z" fill="#fff" stroke-width="0"/>
    </g>
    <g>
      <path d="m551.092,294.335h-5.681v-16.1h5.681c2.315,0,4.251.771,5.808,2.312,1.556,1.541,2.334,3.454,2.334,5.739s-.778,4.197-2.334,5.738c-1.557,1.541-3.492,2.312-5.808,2.312Zm-3.887-14.467v12.834h3.771c1.84,0,3.37-.613,4.589-1.84,1.219-1.227,1.828-2.752,1.828-4.577,0-1.84-.609-3.37-1.828-4.589-1.219-1.219-2.749-1.828-4.589-1.828h-3.771Z" fill="#fff" stroke-width="0"/>
      <path d="m562.65,292.828c-1.173-1.158-1.76-2.595-1.76-4.312s.587-3.155,1.76-4.312,2.625-1.737,4.358-1.737,3.186.579,4.358,1.737,1.76,2.595,1.76,4.312-.587,3.155-1.76,4.312-2.626,1.736-4.358,1.736-3.186-.579-4.358-1.736Zm1.265-7.475c-.836.851-1.253,1.905-1.253,3.163s.417,2.312,1.253,3.162c.836.851,1.867,1.277,3.094,1.277,1.242,0,2.277-.422,3.104-1.265.828-.843,1.242-1.901,1.242-3.174s-.414-2.331-1.242-3.174c-.827-.843-1.862-1.265-3.104-1.265-1.227,0-2.258.425-3.094,1.276Z" fill="#fff" stroke-width="0"/>
      <path d="m580.993,282.467c1.794,0,3.27.633,4.428,1.897,1.157,1.265,1.667,2.826,1.529,4.681h-10.235c.123,1.166.595,2.12,1.415,2.864s1.82,1.115,3.001,1.115c.905,0,1.71-.222,2.415-.667.705-.444,1.242-1.05,1.61-1.817l1.472.621c-.49,1.027-1.219,1.852-2.185,2.472-.966.621-2.078.932-3.335.932-1.733,0-3.186-.579-4.358-1.736s-1.76-2.595-1.76-4.312.575-3.155,1.725-4.312c1.15-1.158,2.576-1.737,4.278-1.737Zm0,1.541c-1.058,0-1.978.337-2.76,1.012s-1.273,1.541-1.472,2.599h8.44c-.169-1.043-.641-1.905-1.414-2.588-.774-.682-1.706-1.023-2.795-1.023Z" fill="#fff" stroke-width="0"/>
      <path d="m588.789,291.322l1.747-.345c.245,1.426,1.25,2.139,3.014,2.139.889,0,1.613-.18,2.173-.54s.84-.824.84-1.392c0-.583-.257-1.027-.771-1.334s-1.131-.525-1.852-.656c-.721-.13-1.445-.276-2.173-.437-.729-.161-1.35-.479-1.863-.955-.514-.475-.771-1.127-.771-1.955,0-.981.414-1.79,1.242-2.427.827-.636,1.886-.955,3.174-.955,1.257,0,2.284.292,3.082.874.797.583,1.288,1.373,1.472,2.369l-1.725.345c-.261-1.411-1.204-2.116-2.829-2.116-.782,0-1.426.169-1.933.506-.506.337-.759.782-.759,1.334,0,.537.257.947.771,1.23.514.284,1.135.487,1.863.61.728.123,1.456.272,2.185.448.729.177,1.35.518,1.863,1.023.514.506.771,1.188.771,2.047,0,.997-.452,1.817-1.357,2.461-.904.644-2.039.966-3.403.966-1.319,0-2.396-.291-3.231-.874-.836-.583-1.346-1.372-1.529-2.369Z" fill="#fff" stroke-width="0"/>
      <path d="m621.104,282.467c1.227,0,2.242.476,3.048,1.426.805.951,1.207,2.147,1.207,3.588v6.854h-1.725v-6.647c0-1.027-.3-1.89-.897-2.587s-1.326-1.046-2.185-1.046c-.951,0-1.737.345-2.357,1.035-.621.69-.932,1.557-.932,2.599v6.647h-1.726v-6.647c0-1.027-.295-1.89-.885-2.587-.591-.698-1.315-1.046-2.174-1.046-.951,0-1.736.345-2.357,1.035s-.932,1.557-.932,2.599v6.647h-1.725v-11.638h1.725v2.898c.322-.95.824-1.709,1.507-2.277.682-.567,1.468-.851,2.357-.851.966,0,1.801.307,2.507.92.705.614,1.196,1.426,1.472,2.438.276-1.012.778-1.825,1.507-2.438.728-.613,1.583-.92,2.564-.92Z" fill="#fff" stroke-width="0"/>
      <path d="m633.731,282.467c1.794,0,3.27.633,4.427,1.897,1.158,1.265,1.668,2.826,1.53,4.681h-10.235c.122,1.166.594,2.12,1.414,2.864s1.821,1.115,3.002,1.115c.904,0,1.709-.222,2.415-.667.705-.444,1.242-1.05,1.61-1.817l1.472.621c-.491,1.027-1.219,1.852-2.186,2.472-.966.621-2.077.932-3.335.932-1.732,0-3.186-.579-4.358-1.736s-1.759-2.595-1.759-4.312.574-3.155,1.725-4.312,2.576-1.737,4.278-1.737Zm0,1.541c-1.059,0-1.979.337-2.761,1.012-.781.675-1.272,1.541-1.472,2.599h8.441c-.169-1.043-.641-1.905-1.415-2.588-.774-.682-1.706-1.023-2.794-1.023Z" fill="#fff" stroke-width="0"/>
      <path d="m641.528,291.322l1.747-.345c.245,1.426,1.25,2.139,3.014,2.139.889,0,1.613-.18,2.173-.54s.84-.824.84-1.392c0-.583-.257-1.027-.771-1.334s-1.131-.525-1.852-.656c-.721-.13-1.445-.276-2.173-.437-.729-.161-1.35-.479-1.863-.955-.514-.475-.771-1.127-.771-1.955,0-.981.414-1.79,1.242-2.427.827-.636,1.886-.955,3.174-.955,1.257,0,2.284.292,3.082.874.797.583,1.288,1.373,1.472,2.369l-1.725.345c-.261-1.411-1.204-2.116-2.829-2.116-.782,0-1.426.169-1.933.506-.506.337-.759.782-.759,1.334,0,.537.257.947.771,1.23.514.284,1.135.487,1.863.61.728.123,1.456.272,2.185.448.729.177,1.35.518,1.863,1.023.514.506.771,1.188.771,2.047,0,.997-.452,1.817-1.357,2.461-.904.644-2.039.966-3.403.966-1.319,0-2.396-.291-3.231-.874-.836-.583-1.346-1.372-1.529-2.369Z" fill="#fff" stroke-width="0"/>
      <path d="m652.521,291.322l1.748-.345c.245,1.426,1.25,2.139,3.013,2.139.89,0,1.614-.18,2.174-.54s.84-.824.84-1.392c0-.583-.258-1.027-.771-1.334-.515-.307-1.131-.525-1.852-.656-.722-.13-1.445-.276-2.174-.437-.729-.161-1.35-.479-1.863-.955-.514-.475-.771-1.127-.771-1.955,0-.981.414-1.79,1.242-2.427.828-.636,1.886-.955,3.174-.955,1.258,0,2.285.292,3.082.874.797.583,1.288,1.373,1.473,2.369l-1.726.345c-.261-1.411-1.204-2.116-2.829-2.116-.781,0-1.426.169-1.932.506-.506.337-.759.782-.759,1.334,0,.537.256.947.771,1.23.514.284,1.134.487,1.862.61s1.457.272,2.186.448c.728.177,1.349.518,1.863,1.023.513.506.771,1.188.771,2.047,0,.997-.453,1.817-1.357,2.461-.905.644-2.039.966-3.404.966-1.318,0-2.396-.291-3.231-.874-.836-.583-1.346-1.372-1.529-2.369Z" fill="#fff" stroke-width="0"/>
      <path d="m669.012,282.467c1.318,0,2.392.349,3.22,1.047s1.242,1.675,1.242,2.932v7.889h-1.726v-3.174c-.781,2.269-2.3,3.404-4.554,3.404-1.058,0-1.92-.291-2.587-.874-.667-.583-1.001-1.357-1.001-2.323,0-1.043.38-1.848,1.139-2.415s1.744-.912,2.955-1.035l2.6-.299c.966-.092,1.448-.537,1.448-1.334,0-.721-.253-1.288-.759-1.702s-1.173-.621-2.001-.621-1.541.207-2.139.621c-.599.414-1.005,1.05-1.219,1.909l-1.68-.46c.276-1.15.87-2.031,1.783-2.645.912-.613,2.004-.92,3.277-.92Zm-1.38,10.649c1.18,0,2.162-.395,2.943-1.184.782-.79,1.173-1.714,1.173-2.771v-.966c-.215.46-.735.736-1.563.828l-2.507.276c-.706.092-1.273.303-1.702.633-.43.33-.645.778-.645,1.345,0,.552.211.997.633,1.334.422.337.978.506,1.668.506Z" fill="#fff" stroke-width="0"/>
      <path d="m686.33,286.031v-3.335h1.726v10.419c0,1.717-.587,3.155-1.76,4.312s-2.626,1.737-4.358,1.737c-1.242,0-2.347-.311-3.312-.932s-1.694-1.445-2.185-2.473l1.563-.736c.368.782.897,1.403,1.587,1.863.69.46,1.473.69,2.347.69,1.242,0,2.284-.426,3.128-1.277.843-.851,1.265-1.913,1.265-3.186v-2.254c-.398,1.089-1.035,1.955-1.909,2.599s-1.886.966-3.035.966c-1.58,0-2.895-.571-3.945-1.713-1.05-1.142-1.575-2.564-1.575-4.267s.525-3.124,1.575-4.266c1.051-1.142,2.365-1.714,3.945-1.714,1.149,0,2.161.322,3.035.966s1.511,1.51,1.909,2.599Zm-4.438,6.808c1.288,0,2.35-.417,3.186-1.253.835-.835,1.253-1.882,1.253-3.14,0-1.242-.418-2.28-1.253-3.116-.836-.835-1.897-1.253-3.186-1.253-1.196,0-2.205.418-3.024,1.253-.821.836-1.23,1.875-1.23,3.116s.409,2.285,1.23,3.128c.819.843,1.828,1.265,3.024,1.265Z" fill="#fff" stroke-width="0"/>
      <path d="m696.542,282.467c1.794,0,3.27.633,4.428,1.897,1.157,1.265,1.667,2.826,1.529,4.681h-10.235c.123,1.166.595,2.12,1.415,2.864s1.82,1.115,3.001,1.115c.905,0,1.71-.222,2.415-.667.705-.444,1.242-1.05,1.61-1.817l1.472.621c-.49,1.027-1.219,1.852-2.185,2.472-.966.621-2.078.932-3.335.932-1.733,0-3.186-.579-4.358-1.736s-1.76-2.595-1.76-4.312.575-3.155,1.725-4.312c1.15-1.158,2.576-1.737,4.278-1.737Zm0,1.541c-1.058,0-1.978.337-2.76,1.012s-1.273,1.541-1.472,2.599h8.44c-.169-1.043-.641-1.905-1.414-2.588-.774-.682-1.706-1.023-2.795-1.023Z" fill="#fff" stroke-width="0"/>
      <path d="m717.472,282.467c1.794,0,3.27.633,4.427,1.897,1.158,1.265,1.668,2.826,1.53,4.681h-10.235c.122,1.166.594,2.12,1.414,2.864s1.821,1.115,3.002,1.115c.904,0,1.709-.222,2.415-.667.705-.444,1.242-1.05,1.61-1.817l1.472.621c-.491,1.027-1.219,1.852-2.186,2.472-.966.621-2.077.932-3.335.932-1.732,0-3.186-.579-4.358-1.736s-1.759-2.595-1.759-4.312.574-3.155,1.725-4.312,2.576-1.737,4.278-1.737Zm0,1.541c-1.059,0-1.979.337-2.761,1.012-.781.675-1.272,1.541-1.472,2.599h8.441c-.169-1.043-.641-1.905-1.415-2.588-.774-.682-1.706-1.023-2.794-1.023Z" fill="#fff" stroke-width="0"/>
      <path d="m733.066,282.697h2.047l-4.439,5.796,4.439,5.842h-2.139l-3.381-4.6-3.428,4.6h-2.047l4.439-5.796-4.439-5.842h2.162l3.358,4.577,3.427-4.577Z" fill="#fff" stroke-width="0"/>
      <path d="m736.723,279.247c0-.322.106-.59.321-.805.215-.214.483-.322.806-.322.306,0,.57.107.793.322.223.215.334.483.334.805,0,.307-.111.567-.334.782-.223.215-.487.322-.793.322-.322,0-.591-.107-.806-.322-.215-.214-.321-.475-.321-.782Zm1.978,15.088h-1.725v-11.638h1.725v11.638Z" fill="#fff" stroke-width="0"/>
      <path d="m740.954,291.322l1.747-.345c.245,1.426,1.25,2.139,3.014,2.139.889,0,1.613-.18,2.173-.54s.84-.824.84-1.392c0-.583-.257-1.027-.771-1.334s-1.131-.525-1.852-.656c-.721-.13-1.445-.276-2.173-.437-.729-.161-1.35-.479-1.863-.955-.514-.475-.771-1.127-.771-1.955,0-.981.414-1.79,1.242-2.427.827-.636,1.886-.955,3.174-.955,1.257,0,2.284.292,3.082.874.797.583,1.288,1.373,1.472,2.369l-1.725.345c-.261-1.411-1.204-2.116-2.829-2.116-.782,0-1.426.169-1.933.506-.506.337-.759.782-.759,1.334,0,.537.257.947.771,1.23.514.284,1.135.487,1.863.61.728.123,1.456.272,2.185.448.729.177,1.35.518,1.863,1.023.514.506.771,1.188.771,2.047,0,.997-.452,1.817-1.357,2.461-.904.644-2.039.966-3.403.966-1.319,0-2.396-.291-3.231-.874-.836-.583-1.346-1.372-1.529-2.369Z" fill="#fff" stroke-width="0"/>
      <path d="m754.064,284.26h-2.622v-1.564h2.622v-4.163l1.726-.529v4.692h3.542v1.564h-3.542v6.118c0,.859.184,1.472.552,1.84.368.368.974.552,1.817.552h1.173v1.564h-1.173c-1.396,0-2.427-.33-3.094-.989s-1.001-1.671-1.001-3.036v-6.049Z" fill="#fff" stroke-width="0"/>
      <path d="m770.014,292.828c-1.173-1.158-1.759-2.595-1.759-4.312s.586-3.155,1.759-4.312,2.626-1.737,4.358-1.737,3.186.579,4.358,1.737c1.174,1.158,1.76,2.595,1.76,4.312s-.586,3.155-1.76,4.312c-1.173,1.158-2.626,1.736-4.358,1.736s-3.186-.579-4.358-1.736Zm1.266-7.475c-.836.851-1.254,1.905-1.254,3.163s.418,2.312,1.254,3.162c.835.851,1.866,1.277,3.093,1.277,1.242,0,2.277-.422,3.105-1.265s1.242-1.901,1.242-3.174-.414-2.331-1.242-3.174c-.828-.843-1.863-1.265-3.105-1.265-1.227,0-2.258.425-3.093,1.276Z" fill="#fff" stroke-width="0"/>
      <path d="m789,282.467c1.364,0,2.487.476,3.37,1.426.881.951,1.322,2.147,1.322,3.588v6.854h-1.726v-6.647c0-1.027-.337-1.89-1.012-2.587s-1.511-1.046-2.507-1.046c-1.089,0-1.986.345-2.691,1.035s-1.058,1.557-1.058,2.599v6.647h-1.725v-11.638h1.725v2.99c.322-.981.866-1.763,1.633-2.346.767-.583,1.656-.874,2.668-.874Z" fill="#fff" stroke-width="0"/>
      <path d="m813.357,294.335h-9.912v-16.1h1.794v14.467h8.118v1.633Z" fill="#fff" stroke-width="0"/>
      <path d="m821.591,278.005v14.697h4.255v1.633h-11.017v-1.633h4.968v-12.65l-4.968,1.311v-1.61l6.762-1.748Z" fill="#fff" stroke-width="0"/>
      <path d="m832.838,289.919h-1.726c0-.721.107-1.369.322-1.943.215-.575.479-1.031.794-1.369.313-.337.655-.674,1.023-1.012.368-.337.709-.636,1.023-.897.313-.26.578-.594.793-1,.215-.406.322-.854.322-1.345,0-.782-.287-1.426-.862-1.932s-1.354-.759-2.335-.759c-1.165,0-2.062.333-2.69,1-.629.667-.943,1.583-.943,2.749h-1.84c0-1.625.49-2.933,1.472-3.922.981-.989,2.315-1.483,4.002-1.483,1.549,0,2.771.395,3.669,1.185.896.79,1.346,1.806,1.346,3.047,0,.782-.149,1.464-.449,2.047-.299.583-.663,1.058-1.092,1.426-.43.368-.859.729-1.288,1.081-.43.353-.794.79-1.093,1.311-.299.521-.448,1.127-.448,1.817Zm-1.645,4.221c-.223-.222-.334-.487-.334-.793s.111-.567.334-.782c.222-.214.486-.322.793-.322s.571.107.794.322c.222.215.333.476.333.782s-.111.571-.333.793c-.223.222-.487.333-.794.333s-.571-.112-.793-.333Z" fill="#fff" stroke-width="0"/>
    </g>
    <g>
      <path d="m1313.848,149.408v16.101h-1.725v-15.663l-4.83,15.663h-3.174l-4.83-15.732v15.732h-1.725v-16.101h3.381l4.784,15.571,4.784-15.571h3.335Z" fill="#fff" stroke-width="0"/>
      <path d="m1322.473,153.64c1.794,0,3.27.633,4.427,1.897s1.667,2.825,1.53,4.681h-10.235c.123,1.165.594,2.12,1.415,2.863.82.744,1.821,1.115,3.001,1.115.905,0,1.709-.222,2.415-.667.705-.444,1.242-1.05,1.61-1.816l1.472.621c-.491,1.027-1.219,1.852-2.185,2.472-.966.621-2.078.932-3.335.932-1.733,0-3.186-.578-4.358-1.736-1.173-1.157-1.759-2.595-1.759-4.312s.575-3.154,1.725-4.312c1.15-1.157,2.576-1.736,4.278-1.736Zm0,1.541c-1.058,0-1.978.337-2.76,1.012-.782.675-1.273,1.541-1.472,2.6h8.441c-.169-1.043-.641-1.905-1.415-2.588-.774-.682-1.706-1.023-2.794-1.023Z" fill="#fff" stroke-width="0"/>
      <path d="m1330.27,162.495l1.748-.345c.245,1.426,1.25,2.139,3.013,2.139.889,0,1.614-.18,2.173-.54s.84-.824.84-1.392c0-.582-.257-1.027-.771-1.334-.514-.307-1.131-.525-1.852-.655-.721-.13-1.445-.276-2.173-.438-.729-.16-1.35-.479-1.863-.954s-.771-1.127-.771-1.955c0-.981.414-1.79,1.242-2.427.828-.636,1.886-.954,3.174-.954,1.257,0,2.285.291,3.082.874.797.583,1.288,1.372,1.472,2.369l-1.725.345c-.261-1.41-1.204-2.116-2.829-2.116-.782,0-1.426.169-1.932.506-.506.338-.759.782-.759,1.334,0,.537.256.947.771,1.23.514.284,1.134.487,1.863.61.728.122,1.457.272,2.185.448.728.177,1.349.518,1.863,1.023.513.506.771,1.188.771,2.047,0,.997-.453,1.817-1.357,2.461-.905.645-2.039.966-3.404.966-1.319,0-2.396-.291-3.231-.874-.836-.582-1.346-1.372-1.529-2.369Z" fill="#fff" stroke-width="0"/>
      <path d="m1341.264,162.495l1.748-.345c.245,1.426,1.25,2.139,3.013,2.139.889,0,1.614-.18,2.173-.54s.84-.824.84-1.392c0-.582-.257-1.027-.771-1.334-.514-.307-1.131-.525-1.852-.655-.721-.13-1.445-.276-2.173-.438-.729-.16-1.35-.479-1.863-.954s-.771-1.127-.771-1.955c0-.981.414-1.79,1.242-2.427.828-.636,1.886-.954,3.174-.954,1.257,0,2.285.291,3.082.874.797.583,1.288,1.372,1.472,2.369l-1.725.345c-.261-1.41-1.204-2.116-2.829-2.116-.782,0-1.426.169-1.932.506-.506.338-.759.782-.759,1.334,0,.537.256.947.771,1.23.514.284,1.134.487,1.863.61.728.122,1.457.272,2.185.448.728.177,1.349.518,1.863,1.023.513.506.771,1.188.771,2.047,0,.997-.453,1.817-1.357,2.461-.905.645-2.039.966-3.404.966-1.319,0-2.396-.291-3.231-.874-.836-.582-1.346-1.372-1.529-2.369Z" fill="#fff" stroke-width="0"/>
      <path d="m1357.755,153.64c1.318,0,2.392.349,3.22,1.047.828.697,1.242,1.675,1.242,2.932v7.89h-1.725v-3.174c-.782,2.269-2.3,3.403-4.554,3.403-1.058,0-1.92-.291-2.587-.874-.667-.582-1-1.356-1-2.322,0-1.043.379-1.848,1.138-2.415.759-.567,1.744-.912,2.956-1.035l2.599-.299c.966-.093,1.449-.537,1.449-1.334,0-.721-.253-1.288-.759-1.702s-1.173-.621-2.001-.621-1.541.207-2.139.621-1.004,1.05-1.219,1.909l-1.679-.461c.276-1.149.87-2.031,1.783-2.645.912-.613,2.004-.92,3.277-.92Zm-1.38,10.648c1.18,0,2.162-.395,2.944-1.184.782-.79,1.173-1.714,1.173-2.771v-.967c-.215.46-.736.736-1.564.828l-2.507.276c-.706.092-1.273.303-1.702.633-.429.329-.644.778-.644,1.345,0,.553.211.997.633,1.334.421.338.978.506,1.667.506Z" fill="#fff" stroke-width="0"/>
      <path d="m1375.074,157.205v-3.335h1.725v10.419c0,1.718-.586,3.155-1.76,4.312-1.173,1.158-2.626,1.737-4.358,1.737-1.242,0-2.346-.311-3.312-.932s-1.694-1.445-2.185-2.473l1.564-.736c.368.782.897,1.403,1.587,1.863.69.46,1.472.69,2.346.69,1.242,0,2.285-.426,3.128-1.277.843-.851,1.265-1.912,1.265-3.186v-2.254c-.399,1.089-1.035,1.955-1.909,2.6-.874.644-1.886.966-3.036.966-1.58,0-2.895-.571-3.945-1.714-1.05-1.142-1.575-2.564-1.575-4.267s.525-3.124,1.575-4.266c1.05-1.143,2.365-1.714,3.945-1.714,1.15,0,2.162.322,3.036.966.874.645,1.51,1.511,1.909,2.599Zm-4.439,6.809c1.288,0,2.35-.418,3.186-1.254.835-.835,1.253-1.882,1.253-3.14,0-1.241-.418-2.28-1.253-3.116-.836-.835-1.897-1.253-3.186-1.253-1.196,0-2.205.418-3.024,1.253-.821.836-1.23,1.875-1.23,3.116s.41,2.285,1.23,3.129c.82.843,1.828,1.265,3.024,1.265Z" fill="#fff" stroke-width="0"/>
      <path d="m1385.285,153.64c1.794,0,3.27.633,4.427,1.897s1.667,2.825,1.53,4.681h-10.235c.123,1.165.594,2.12,1.415,2.863.82.744,1.821,1.115,3.001,1.115.905,0,1.709-.222,2.415-.667.705-.444,1.242-1.05,1.61-1.816l1.472.621c-.491,1.027-1.219,1.852-2.185,2.472-.966.621-2.078.932-3.335.932-1.733,0-3.186-.578-4.358-1.736-1.173-1.157-1.759-2.595-1.759-4.312s.575-3.154,1.725-4.312c1.15-1.157,2.576-1.736,4.278-1.736Zm0,1.541c-1.058,0-1.978.337-2.76,1.012-.782.675-1.273,1.541-1.472,2.6h8.441c-.169-1.043-.641-1.905-1.415-2.588-.774-.682-1.706-1.023-2.794-1.023Z" fill="#fff" stroke-width="0"/>
      <path d="m1300.232,181.24c1.794,0,3.27.633,4.427,1.897,1.158,1.266,1.667,2.826,1.53,4.681h-10.235c.123,1.166.594,2.12,1.415,2.864.82.743,1.821,1.115,3.001,1.115.905,0,1.709-.223,2.415-.667.705-.444,1.242-1.051,1.61-1.817l1.472.621c-.491,1.027-1.219,1.852-2.185,2.473-.966.621-2.078.932-3.335.932-1.733,0-3.186-.579-4.358-1.736-1.173-1.158-1.759-2.596-1.759-4.312s.575-3.155,1.725-4.312c1.15-1.158,2.576-1.737,4.278-1.737Zm0,1.541c-1.058,0-1.978.338-2.76,1.013-.782.675-1.273,1.541-1.472,2.599h8.441c-.169-1.043-.641-1.905-1.415-2.588-.774-.682-1.706-1.023-2.794-1.023Z" fill="#fff" stroke-width="0"/>
      <path d="m1315.826,181.47h2.047l-4.439,5.796,4.439,5.842h-2.139l-3.381-4.6-3.427,4.6h-2.047l4.439-5.796-4.439-5.842h2.162l3.358,4.577,3.427-4.577Z" fill="#fff" stroke-width="0"/>
      <path d="m1324.52,181.24c1.794,0,3.27.633,4.427,1.897,1.158,1.266,1.667,2.826,1.53,4.681h-10.235c.123,1.166.594,2.12,1.415,2.864.82.743,1.821,1.115,3.001,1.115.905,0,1.709-.223,2.415-.667.705-.444,1.242-1.051,1.61-1.817l1.472.621c-.491,1.027-1.219,1.852-2.185,2.473-.966.621-2.078.932-3.335.932-1.733,0-3.186-.579-4.358-1.736-1.173-1.158-1.759-2.596-1.759-4.312s.575-3.155,1.725-4.312c1.15-1.158,2.576-1.737,4.278-1.737Zm0,1.541c-1.058,0-1.978.338-2.76,1.013-.782.675-1.273,1.541-1.472,2.599h8.441c-.169-1.043-.641-1.905-1.415-2.588-.774-.682-1.706-1.023-2.794-1.023Z" fill="#fff" stroke-width="0"/>
      <path d="m1334.145,191.602c-1.173-1.158-1.759-2.596-1.759-4.312s.586-3.155,1.759-4.312c1.173-1.158,2.625-1.737,4.358-1.737,1.257,0,2.381.326,3.37.978.989.652,1.721,1.538,2.196,2.657l-1.587.552c-.353-.797-.882-1.426-1.587-1.886-.706-.46-1.503-.69-2.392-.69-1.227,0-2.258.426-3.093,1.276-.836.852-1.253,1.905-1.253,3.163s.417,2.312,1.253,3.162c.835.851,1.867,1.276,3.093,1.276.889,0,1.687-.229,2.392-.689.705-.46,1.234-1.089,1.587-1.887l1.587.553c-.475,1.119-1.208,2.005-2.196,2.656s-2.112.978-3.37.978c-1.733,0-3.186-.579-4.358-1.736Z" fill="#fff" stroke-width="0"/>
      <path d="m1346.254,188.347v-6.877h1.725v6.877c0,.997.322,1.81.966,2.438.644.629,1.457.943,2.438.943s1.794-.314,2.438-.943c.644-.628.966-1.44.966-2.438v-6.877h1.725v6.877c0,1.472-.483,2.672-1.449,3.6s-2.193,1.392-3.68,1.392-2.714-.464-3.68-1.392c-.966-.928-1.449-2.128-1.449-3.6Z" fill="#fff" stroke-width="0"/>
      <path d="m1360.905,183.034h-2.622v-1.563h2.622v-4.163l1.725-.529v4.692h3.542v1.563h-3.542v6.118c0,.859.184,1.473.552,1.84.368.368.973.553,1.817.553h1.173v1.563h-1.173c-1.396,0-2.427-.329-3.094-.988s-1-1.672-1-3.036v-6.05Z" fill="#fff" stroke-width="0"/>
      <path d="m1373.648,181.24c1.794,0,3.27.633,4.427,1.897,1.158,1.266,1.667,2.826,1.53,4.681h-10.235c.123,1.166.594,2.12,1.415,2.864.82.743,1.821,1.115,3.001,1.115.905,0,1.709-.223,2.415-.667.705-.444,1.242-1.051,1.61-1.817l1.472.621c-.491,1.027-1.219,1.852-2.185,2.473-.966.621-2.078.932-3.335.932-1.733,0-3.186-.579-4.358-1.736-1.173-1.158-1.759-2.596-1.759-4.312s.575-3.155,1.725-4.312c1.15-1.158,2.576-1.737,4.278-1.737Zm0,1.541c-1.058,0-1.978.338-2.76,1.013-.782.675-1.273,1.541-1.472,2.599h8.441c-.169-1.043-.641-1.905-1.415-2.588-.774-.682-1.706-1.023-2.794-1.023Z" fill="#fff" stroke-width="0"/>
      <path d="m1391.979,184.851v-8.763h1.725v17.02h-1.725v-3.381c-.399,1.104-1.035,1.982-1.909,2.634s-1.886.978-3.036.978c-1.58,0-2.895-.575-3.945-1.726-1.05-1.149-1.575-2.591-1.575-4.323,0-1.718.525-3.155,1.575-4.312,1.05-1.158,2.365-1.737,3.945-1.737,1.15,0,2.162.326,3.036.978.874.652,1.51,1.53,1.909,2.634Zm-4.462,6.877c1.288,0,2.354-.422,3.197-1.265.843-.844,1.265-1.901,1.265-3.174s-.422-2.331-1.265-3.175c-.843-.843-1.909-1.265-3.197-1.265-1.181,0-2.182.426-3.001,1.276-.821.852-1.23,1.905-1.23,3.163s.41,2.312,1.23,3.162c.82.851,1.82,1.276,3.001,1.276Z" fill="#fff" stroke-width="0"/>
    </g>
    <g>
      <path d="m819.706,349.338l-6.118,10.511v3.956h3.151v1.633h-8.073v-1.633h3.128v-3.956l-6.095-10.511h2.116l4.945,8.74,4.922-8.74h2.024Z" fill="#fff" stroke-width="0"/>
      <path d="m824.881,353.57c1.794,0,3.27.633,4.427,1.897,1.158,1.265,1.667,2.826,1.53,4.681h-10.235c.123,1.166.594,2.12,1.415,2.864s1.821,1.115,3.001,1.115c.905,0,1.709-.222,2.415-.667.705-.444,1.242-1.05,1.61-1.817l1.472.621c-.491,1.027-1.219,1.852-2.185,2.472-.966.621-2.078.932-3.335.932-1.733,0-3.186-.579-4.358-1.736s-1.759-2.595-1.759-4.312.575-3.155,1.725-4.312c1.15-1.158,2.576-1.737,4.278-1.737Zm0,1.541c-1.058,0-1.978.337-2.76,1.012-.782.675-1.273,1.541-1.472,2.599h8.441c-.169-1.043-.641-1.905-1.415-2.588-.774-.682-1.706-1.023-2.794-1.023Z" fill="#fff" stroke-width="0"/>
      <path d="m832.678,362.425l1.748-.345c.245,1.426,1.25,2.139,3.013,2.139.889,0,1.614-.18,2.173-.54s.84-.824.84-1.392c0-.583-.257-1.027-.771-1.334-.514-.307-1.131-.525-1.852-.656-.721-.13-1.445-.276-2.173-.437-.729-.161-1.35-.479-1.863-.955-.514-.475-.771-1.127-.771-1.955,0-.981.414-1.79,1.242-2.427.828-.636,1.886-.955,3.174-.955,1.257,0,2.285.292,3.082.874.797.583,1.288,1.373,1.472,2.369l-1.725.345c-.261-1.411-1.204-2.116-2.829-2.116-.782,0-1.426.169-1.932.506-.506.337-.759.782-.759,1.334,0,.537.256.947.771,1.23.514.284,1.134.487,1.863.61.728.123,1.457.272,2.185.448.728.177,1.349.518,1.863,1.023.513.506.771,1.188.771,2.047,0,.997-.453,1.817-1.357,2.461s-2.039.966-3.404.966c-1.319,0-2.396-.291-3.231-.874-.836-.583-1.346-1.372-1.529-2.369Z" fill="#fff" stroke-width="0"/>
    </g>
    <path d="m983.677,135.225h239.938c2.993,0,5.42,3.134,5.42,7v134.583c0,3.866-2.427,7-5.42,7h-239.938c-2.993,0-5.42-3.134-5.42-7v-134.583c0-3.866,2.427-7,5.42-7Z" fill="#1d1d1d" fill-rule="evenodd" stroke="#505050" stroke-width="2"/>
    <path d="m1228.892,128.693c3.301,0,5.977,2.855,5.977,6.376s-2.676,6.376-5.977,6.376-5.978-2.854-5.978-6.376,2.676-6.376,5.978-6.376Z" fill="#505050" fill-rule="evenodd" stroke-width="0"/>
    <g>
      <path d="m1082.911,201.426h-12.109v-19.668h2.191v17.673h9.918v1.995Z" fill="#fff" stroke-width="0"/>
      <path d="m1084.962,182.994c0-.394.131-.721.393-.983.262-.262.59-.394.983-.394.375,0,.698.132.969.394.271.263.408.59.408.983,0,.375-.136.693-.408.955-.271.263-.595.394-.969.394-.393,0-.721-.131-.983-.394-.262-.262-.393-.58-.393-.955Zm2.416,18.432h-2.107v-14.217h2.107v14.217Z" fill="#fff" stroke-width="0"/>
      <path d="m1098.335,186.927c1.667,0,3.039.581,4.116,1.742,1.077,1.161,1.615,2.622,1.615,4.383v8.373h-2.107v-8.12c0-1.255-.413-2.309-1.236-3.161-.825-.852-1.845-1.278-3.062-1.278-1.331,0-2.426.422-3.288,1.265-.862.843-1.292,1.901-1.292,3.175v8.12h-2.107v-14.217h2.107v3.652c.394-1.198,1.058-2.154,1.995-2.866.937-.712,2.023-1.067,3.259-1.067Z" fill="#fff" stroke-width="0"/>
      <path d="m1114.322,186.927c2.192,0,3.994.772,5.409,2.318,1.414,1.545,2.037,3.451,1.869,5.717h-12.503c.149,1.424.726,2.59,1.728,3.498,1.002.909,2.224,1.363,3.667,1.363,1.105,0,2.088-.271,2.95-.815.861-.543,1.517-1.282,1.966-2.219l1.798.758c-.6,1.256-1.489,2.262-2.669,3.021-1.18.759-2.539,1.138-4.074,1.138-2.117,0-3.892-.706-5.324-2.121-1.433-1.414-2.149-3.17-2.149-5.268s.702-3.854,2.107-5.269c1.405-1.414,3.146-2.121,5.226-2.121Zm0,1.883c-1.292,0-2.416.412-3.372,1.235-.955.825-1.555,1.883-1.798,3.176h10.312c-.207-1.274-.783-2.327-1.728-3.161-.946-.833-2.084-1.25-3.414-1.25Z" fill="#fff" stroke-width="0"/>
      <path d="m1130.45,186.927c1.611,0,2.922.426,3.934,1.278,1.011.853,1.517,2.047,1.517,3.582v9.638h-2.107v-3.878c-.955,2.772-2.81,4.158-5.563,4.158-1.292,0-2.346-.355-3.161-1.067-.815-.712-1.223-1.657-1.223-2.838,0-1.273.464-2.257,1.391-2.95.927-.692,2.13-1.114,3.61-1.264l3.175-.365c1.18-.112,1.77-.656,1.77-1.63,0-.88-.309-1.573-.927-2.079-.618-.506-1.433-.759-2.444-.759s-1.882.253-2.613.759-1.227,1.283-1.489,2.332l-2.051-.562c.337-1.404,1.062-2.481,2.177-3.23,1.114-.749,2.449-1.124,4.004-1.124Zm-1.686,13.009c1.442,0,2.641-.482,3.597-1.447.955-.964,1.433-2.093,1.433-3.386v-1.18c-.262.562-.899.899-1.911,1.012l-3.062.337c-.862.112-1.555.37-2.079.772-.524.403-.787.951-.787,1.644,0,.675.257,1.218.772,1.63s1.194.618,2.037.618Z" fill="#fff" stroke-width="0"/>
      <path d="m1005.94,231.461l2.136-.422c.299,1.742,1.526,2.613,3.681,2.613,1.086,0,1.971-.22,2.655-.66s1.026-1.007,1.026-1.7c0-.712-.314-1.255-.941-1.63-.628-.374-1.381-.641-2.262-.801-.881-.158-1.766-.337-2.655-.533-.89-.197-1.648-.585-2.276-1.166s-.941-1.377-.941-2.389c0-1.198.505-2.187,1.517-2.964,1.011-.777,2.304-1.166,3.877-1.166,1.536,0,2.791.355,3.765,1.067.974.712,1.574,1.677,1.798,2.895l-2.107.421c-.318-1.723-1.471-2.585-3.456-2.585-.956,0-1.742.207-2.36.618-.618.412-.927.955-.927,1.63,0,.656.313,1.156.941,1.503.627.347,1.386.595,2.276.745.889.149,1.779.332,2.669.548.89.215,1.648.632,2.276,1.25.627.618.941,1.452.941,2.501,0,1.218-.553,2.219-1.658,3.006-1.105.787-2.491,1.18-4.158,1.18-1.611,0-2.927-.355-3.948-1.067-1.021-.712-1.644-1.676-1.869-2.894Z" fill="#fff" stroke-width="0"/>
      <path d="m1036.987,220.643c1.499,0,2.74.581,3.723,1.742.983,1.161,1.475,2.622,1.475,4.383v8.373h-2.107v-8.12c0-1.255-.365-2.309-1.096-3.161-.73-.852-1.621-1.278-2.669-1.278-1.162,0-2.121.422-2.88,1.265s-1.138,1.901-1.138,3.175v8.12h-2.107v-8.12c0-1.255-.361-2.309-1.082-3.161-.722-.852-1.606-1.278-2.655-1.278-1.162,0-2.122.422-2.88,1.265-.759.843-1.138,1.901-1.138,3.175v8.12h-2.107v-14.217h2.107v3.54c.394-1.161,1.007-2.089,1.84-2.782.833-.692,1.793-1.039,2.88-1.039,1.18,0,2.201.375,3.063,1.124.861.749,1.461,1.742,1.798,2.978.337-1.235.951-2.229,1.84-2.978s1.934-1.124,3.133-1.124Z" fill="#fff" stroke-width="0"/>
      <path d="m1051.4,220.643c1.611,0,2.922.426,3.934,1.278,1.011.853,1.517,2.047,1.517,3.582v9.638h-2.107v-3.878c-.955,2.772-2.81,4.158-5.563,4.158-1.292,0-2.346-.355-3.161-1.067-.815-.712-1.223-1.657-1.223-2.838,0-1.273.464-2.257,1.391-2.95.927-.692,2.13-1.114,3.61-1.264l3.175-.365c1.18-.112,1.77-.656,1.77-1.63,0-.88-.309-1.573-.927-2.079-.618-.506-1.433-.759-2.444-.759s-1.882.253-2.613.759-1.227,1.283-1.489,2.332l-2.051-.562c.337-1.404,1.062-2.481,2.177-3.23,1.114-.749,2.449-1.124,4.004-1.124Zm-1.686,13.009c1.442,0,2.641-.482,3.597-1.447.955-.964,1.433-2.093,1.433-3.386v-1.18c-.262.562-.899.899-1.911,1.012l-3.062.337c-.862.112-1.555.37-2.079.772-.524.403-.787.951-.787,1.644,0,.675.257,1.218.772,1.63s1.194.618,2.037.618Z" fill="#fff" stroke-width="0"/>
      <path d="m1062.442,220.925v3.82c.487-1.629,1.241-2.763,2.262-3.399s2.196-.833,3.526-.59v2.051c-1.592-.355-2.955-.116-4.088.717-1.134.834-1.7,2-1.7,3.498v8.12h-2.107v-14.217h2.107Z" fill="#fff" stroke-width="0"/>
      <path d="m1072.669,222.835h-3.203v-1.91h3.203v-5.086l2.107-.646v5.732h4.327v1.91h-4.327v7.474c0,1.05.225,1.798.674,2.248.45.449,1.189.674,2.22.674h1.433v1.911h-1.433c-1.705,0-2.964-.402-3.779-1.208s-1.222-2.042-1.222-3.709v-7.39Z" fill="#fff" stroke-width="0"/>
      <path d="m1092.154,233.301c-1.433-1.414-2.149-3.17-2.149-5.268s.716-3.854,2.149-5.269c1.433-1.414,3.208-2.121,5.324-2.121,1.536,0,2.908.398,4.116,1.194s2.103,1.878,2.683,3.245l-1.938.674c-.431-.974-1.078-1.742-1.939-2.304s-1.836-.843-2.922-.843c-1.499,0-2.758.52-3.779,1.56-1.021,1.039-1.531,2.327-1.531,3.863s.51,2.823,1.531,3.863c1.021,1.039,2.28,1.559,3.779,1.559,1.086,0,2.061-.28,2.922-.843.861-.562,1.508-1.329,1.939-2.304l1.938.675c-.581,1.367-1.475,2.449-2.683,3.245s-2.581,1.193-4.116,1.193c-2.117,0-3.892-.706-5.324-2.121Z" fill="#fff" stroke-width="0"/>
      <path d="m1108.618,233.301c-1.433-1.414-2.149-3.17-2.149-5.268s.716-3.854,2.149-5.269c1.433-1.414,3.208-2.121,5.324-2.121s3.892.707,5.324,2.121c1.433,1.415,2.149,3.171,2.149,5.269s-.716,3.854-2.149,5.268c-1.433,1.415-3.208,2.121-5.324,2.121s-3.892-.706-5.324-2.121Zm1.545-9.131c-1.021,1.039-1.531,2.327-1.531,3.863s.51,2.823,1.531,3.863c1.021,1.039,2.28,1.559,3.779,1.559,1.517,0,2.782-.515,3.793-1.545,1.012-1.03,1.518-2.322,1.518-3.877s-.506-2.848-1.518-3.878c-1.011-1.029-2.276-1.545-3.793-1.545-1.499,0-2.758.52-3.779,1.56Z" fill="#fff" stroke-width="0"/>
      <path d="m1131.812,220.643c1.667,0,3.039.581,4.116,1.742,1.077,1.161,1.615,2.622,1.615,4.383v8.373h-2.107v-8.12c0-1.255-.413-2.309-1.236-3.161-.825-.852-1.845-1.278-3.062-1.278-1.331,0-2.426.422-3.288,1.265-.862.843-1.292,1.901-1.292,3.175v8.12h-2.107v-14.217h2.107v3.652c.394-1.198,1.058-2.154,1.995-2.866.937-.712,2.023-1.067,3.259-1.067Z" fill="#fff" stroke-width="0"/>
      <path d="m1142.404,222.835h-3.203v-1.91h3.203v-5.086l2.107-.646v5.732h4.327v1.91h-4.327v7.474c0,1.05.225,1.798.674,2.248.45.449,1.189.674,2.22.674h1.433v1.911h-1.433c-1.705,0-2.964-.402-3.779-1.208s-1.222-2.042-1.222-3.709v-7.39Z" fill="#fff" stroke-width="0"/>
      <path d="m1153.98,220.925v3.82c.487-1.629,1.241-2.763,2.262-3.399s2.196-.833,3.526-.59v2.051c-1.592-.355-2.955-.116-4.088.717-1.134.834-1.7,2-1.7,3.498v8.12h-2.107v-14.217h2.107Z" fill="#fff" stroke-width="0"/>
      <path d="m1166.932,220.643c1.611,0,2.922.426,3.934,1.278,1.011.853,1.517,2.047,1.517,3.582v9.638h-2.107v-3.878c-.955,2.772-2.81,4.158-5.563,4.158-1.292,0-2.346-.355-3.161-1.067-.815-.712-1.223-1.657-1.223-2.838,0-1.273.464-2.257,1.391-2.95.927-.692,2.13-1.114,3.61-1.264l3.175-.365c1.18-.112,1.77-.656,1.77-1.63,0-.88-.309-1.573-.927-2.079-.618-.506-1.433-.759-2.444-.759s-1.882.253-2.613.759-1.227,1.283-1.489,2.332l-2.051-.562c.337-1.404,1.062-2.481,2.177-3.23,1.114-.749,2.449-1.124,4.004-1.124Zm-1.686,13.009c1.442,0,2.641-.482,3.597-1.447.955-.964,1.433-2.093,1.433-3.386v-1.18c-.262.562-.899.899-1.911,1.012l-3.062.337c-.862.112-1.555.37-2.079.772-.524.403-.787.951-.787,1.644,0,.675.257,1.218.772,1.63s1.194.618,2.037.618Z" fill="#fff" stroke-width="0"/>
      <path d="m1177.454,233.301c-1.433-1.414-2.149-3.17-2.149-5.268s.716-3.854,2.149-5.269c1.433-1.414,3.208-2.121,5.324-2.121,1.536,0,2.908.398,4.116,1.194s2.103,1.878,2.683,3.245l-1.938.674c-.431-.974-1.078-1.742-1.939-2.304s-1.836-.843-2.922-.843c-1.499,0-2.758.52-3.779,1.56-1.021,1.039-1.531,2.327-1.531,3.863s.51,2.823,1.531,3.863c1.021,1.039,2.28,1.559,3.779,1.559,1.086,0,2.061-.28,2.922-.843.861-.562,1.508-1.329,1.939-2.304l1.938.675c-.581,1.367-1.475,2.449-2.683,3.245s-2.581,1.193-4.116,1.193c-2.117,0-3.892-.706-5.324-2.121Z" fill="#fff" stroke-width="0"/>
      <path d="m1193.933,222.835h-3.203v-1.91h3.203v-5.086l2.107-.646v5.732h4.327v1.91h-4.327v7.474c0,1.05.225,1.798.674,2.248.45.449,1.189.674,2.22.674h1.433v1.911h-1.433c-1.705,0-2.964-.402-3.779-1.208s-1.222-2.042-1.222-3.709v-7.39Z" fill="#fff" stroke-width="0"/>
    </g>
    <circle cx="701.366" cy="132.785" r="79.506" fill="#505050" filter="url(#outer-glow-1)" stroke-width="0"/>
    <path d="m700.187,120.319l-28.924-21.408c-.296-.219-.276-.668.036-.862,1.214-.757,2.647-1.195,4.178-1.195h53.281c1.539,0,2.972.438,4.186,1.195.312.195.332.644.036.862l-28.924,21.408c-1.164.857-2.715.857-3.87,0Z" fill="#fff" fill-rule="evenodd" stroke="#fff" stroke-linecap="round" stroke-linejoin="round"/>
    <path d="m689.264,121.779l-21.718,21.718-.004-2.194v-34.179c0-1.131,1.285-1.778,2.198-1.107l19.421,14.382c.449.332.497.986.102,1.381Z" fill="#fff" fill-rule="evenodd" stroke="#fff" stroke-linecap="round" stroke-linejoin="round"/>
    <path d="m710.287,123.938l23.497,23.497c-1.366,1.131-3.111,1.802-5.026,1.802h-53.281c-1.907,0-3.652-.671-5.018-1.802l23.489-23.489,1.907,1.406c1.875,1.39,4.072,2.085,6.262,2.085s4.388-.695,6.262-2.085l1.907-1.414Z" fill="#fff" fill-rule="evenodd" stroke="#fff" stroke-linecap="round" stroke-linejoin="round"/>
    <path d="m736.693,107.123v34.179l-.003,2.168c0,.007-.009.011-.014.006l-21.705-21.705c-.395-.395-.346-1.049.103-1.381l19.421-14.374c.913-.671,2.198-.024,2.198,1.107Z" fill="#fff" fill-rule="evenodd" stroke="#fff" stroke-linecap="round" stroke-linejoin="round"/>
    <path d="m979.258,163.216h2.002c5.137,0,9.302,4.165,9.302,9.302v79.745c0,5.137-4.165,9.302-9.302,9.302h-2.002" fill="none" fill-rule="evenodd" opacity=".45" stroke="#61dfff"/>
    <path d="m393.533,283.808c5.028-13.013,17.658-22.243,32.445-22.243" fill="none" fill-rule="evenodd" opacity=".45" stroke="#61dfff"/>
    <rect x="391.847" y="282.809" width="4.372" height="1.693" fill="#505050" stroke-width="0"/>
    <rect x="423.39" y="260.332" width="2.23" height="2" transform="translate(163.174 685.837) rotate(-90)" fill="#505050" stroke-width="0"/>
    <path d="m1228.022,209.517h-6.579c-5.159,0-9.341,4.182-9.341,9.341v63.936" fill="none" fill-rule="evenodd" opacity=".45" stroke="#7cb594"/>
    <path d="m423.501,163.216h-220.754c-5.663,0-10.254,4.591-10.254,10.254v25.632c0,5.663-4.591,10.254-10.254,10.254h-7.508" fill="none" fill-rule="evenodd" opacity=".45" stroke="#61dfff"/>
    <g>
      <path d="m671.017,160.825v16.1h-1.725v-15.663l-4.83,15.663h-3.174l-4.83-15.732v15.732h-1.725v-16.1h3.381l4.784,15.571,4.783-15.571h3.335Z" fill="#fff" stroke-width="0"/>
      <path d="m679.642,165.057c1.794,0,3.27.633,4.428,1.897,1.157,1.265,1.667,2.826,1.529,4.681h-10.235c.123,1.166.595,2.12,1.415,2.864s1.82,1.115,3.001,1.115c.905,0,1.71-.222,2.415-.667.705-.444,1.242-1.05,1.61-1.817l1.472.621c-.49,1.027-1.219,1.852-2.185,2.472-.966.621-2.078.932-3.335.932-1.733,0-3.186-.579-4.358-1.736s-1.76-2.595-1.76-4.312.575-3.155,1.725-4.312c1.15-1.158,2.576-1.737,4.278-1.737Zm0,1.541c-1.058,0-1.978.337-2.76,1.012s-1.273,1.541-1.472,2.599h8.44c-.169-1.043-.641-1.905-1.414-2.588-.774-.682-1.706-1.023-2.795-1.023Z" fill="#fff" stroke-width="0"/>
      <path d="m687.439,173.912l1.748-.345c.245,1.426,1.25,2.139,3.013,2.139.89,0,1.614-.18,2.174-.54s.84-.824.84-1.392c0-.583-.258-1.027-.771-1.334-.515-.307-1.131-.525-1.852-.656-.722-.13-1.445-.276-2.174-.437-.729-.161-1.35-.479-1.863-.955-.514-.475-.771-1.127-.771-1.955,0-.981.414-1.79,1.242-2.427.828-.636,1.886-.955,3.174-.955,1.258,0,2.285.292,3.082.874.797.583,1.288,1.373,1.473,2.369l-1.726.345c-.261-1.411-1.204-2.116-2.829-2.116-.781,0-1.426.169-1.932.506-.506.337-.759.782-.759,1.334,0,.537.256.947.771,1.23.514.284,1.134.487,1.862.61s1.457.272,2.186.448c.728.177,1.349.518,1.863,1.023.513.506.771,1.188.771,2.047,0,.997-.453,1.817-1.357,2.461-.905.644-2.039.966-3.404.966-1.318,0-2.396-.291-3.231-.874-.836-.583-1.346-1.372-1.529-2.369Z" fill="#fff" stroke-width="0"/>
      <path d="m698.433,173.912l1.748-.345c.245,1.426,1.25,2.139,3.013,2.139.89,0,1.614-.18,2.174-.54s.84-.824.84-1.392c0-.583-.258-1.027-.771-1.334-.515-.307-1.131-.525-1.852-.656-.722-.13-1.445-.276-2.174-.437-.729-.161-1.35-.479-1.863-.955-.514-.475-.771-1.127-.771-1.955,0-.981.414-1.79,1.242-2.427.828-.636,1.886-.955,3.174-.955,1.258,0,2.285.292,3.082.874.797.583,1.288,1.373,1.473,2.369l-1.726.345c-.261-1.411-1.204-2.116-2.829-2.116-.781,0-1.426.169-1.932.506-.506.337-.759.782-.759,1.334,0,.537.256.947.771,1.23.514.284,1.134.487,1.862.61s1.457.272,2.186.448c.728.177,1.349.518,1.863,1.023.513.506.771,1.188.771,2.047,0,.997-.453,1.817-1.357,2.461-.905.644-2.039.966-3.404.966-1.318,0-2.396-.291-3.231-.874-.836-.583-1.346-1.372-1.529-2.369Z" fill="#fff" stroke-width="0"/>
      <path d="m714.924,165.057c1.318,0,2.392.349,3.22,1.047s1.242,1.675,1.242,2.932v7.889h-1.726v-3.174c-.781,2.269-2.3,3.404-4.554,3.404-1.058,0-1.92-.291-2.587-.874-.667-.583-1.001-1.357-1.001-2.323,0-1.043.38-1.848,1.139-2.415s1.744-.912,2.955-1.035l2.6-.299c.966-.092,1.448-.537,1.448-1.334,0-.721-.253-1.288-.759-1.702s-1.173-.621-2.001-.621-1.541.207-2.139.621c-.599.414-1.005,1.05-1.219,1.909l-1.68-.46c.276-1.15.87-2.031,1.783-2.645.912-.613,2.004-.92,3.277-.92Zm-1.38,10.649c1.18,0,2.162-.395,2.943-1.184.782-.79,1.173-1.714,1.173-2.771v-.966c-.215.46-.735.736-1.563.828l-2.507.276c-.706.092-1.273.303-1.702.633-.43.33-.645.778-.645,1.345,0,.552.211.997.633,1.334.422.337.978.506,1.668.506Z" fill="#fff" stroke-width="0"/>
      <path d="m732.243,168.622v-3.335h1.726v10.419c0,1.717-.587,3.155-1.76,4.312s-2.626,1.737-4.358,1.737c-1.242,0-2.347-.311-3.312-.932s-1.694-1.445-2.185-2.473l1.563-.736c.368.782.897,1.403,1.587,1.863.69.46,1.473.69,2.347.69,1.242,0,2.284-.426,3.128-1.277.843-.851,1.265-1.913,1.265-3.186v-2.254c-.398,1.089-1.035,1.955-1.909,2.599s-1.886.966-3.035.966c-1.58,0-2.895-.571-3.945-1.713-1.05-1.142-1.575-2.564-1.575-4.267s.525-3.124,1.575-4.266c1.051-1.142,2.365-1.714,3.945-1.714,1.149,0,2.161.322,3.035.966s1.511,1.51,1.909,2.599Zm-4.438,6.808c1.288,0,2.35-.417,3.186-1.253.835-.835,1.253-1.882,1.253-3.14,0-1.242-.418-2.28-1.253-3.116-.836-.835-1.897-1.253-3.186-1.253-1.196,0-2.205.418-3.024,1.253-.821.836-1.23,1.875-1.23,3.116s.409,2.285,1.23,3.128c.819.843,1.828,1.265,3.024,1.265Z" fill="#fff" stroke-width="0"/>
      <path d="m742.454,165.057c1.794,0,3.27.633,4.427,1.897,1.158,1.265,1.668,2.826,1.53,4.681h-10.235c.122,1.166.594,2.12,1.414,2.864s1.821,1.115,3.002,1.115c.904,0,1.709-.222,2.415-.667.705-.444,1.242-1.05,1.61-1.817l1.472.621c-.491,1.027-1.219,1.852-2.186,2.472-.966.621-2.077.932-3.335.932-1.732,0-3.186-.579-4.358-1.736s-1.759-2.595-1.759-4.312.574-3.155,1.725-4.312,2.576-1.737,4.278-1.737Zm0,1.541c-1.059,0-1.979.337-2.761,1.012-.781.675-1.272,1.541-1.472,2.599h8.441c-.169-1.043-.641-1.905-1.415-2.588-.774-.682-1.706-1.023-2.794-1.023Z" fill="#fff" stroke-width="0"/>
    </g>
  </g>
</svg>